%FSLAX46Y46*%
%MOMM*%
%AMPS11*
1,1,1.895000,0.000000,0.000000*
%
%ADD11PS11*%
%AMPS12*
1,1,4.446000,0.000000,0.000000*
%
%ADD12PS12*%
%AMPS20*
1,1,0.550000,0.000000,0.000000*
%
%ADD20PS20*%
%AMPS21*
1,1,0.500000,0.000000,0.000000*
%
%ADD21PS21*%
%AMPS18*
21,1,1.800000,1.700000,0.000000,0.000000,0.000000*
1,1,1.700000,0.900000,0.000000*
1,1,1.700000,-0.900000,0.000000*
%
%ADD18PS18*%
%AMPS19*
21,1,0.800000,1.700000,0.000000,0.000000,0.000000*
1,1,1.700000,0.400000,0.000000*
1,1,1.700000,-0.400000,0.000000*
%
%ADD19PS19*%
%AMPS14*
1,1,2.575000,0.000000,0.000000*
%
%ADD14PS14*%
%AMPS15*
1,1,2.575000,0.000000,0.000000*
%
%ADD15PS15*%
%AMPS10*
1,1,1.470000,0.000000,0.000000*
%
%ADD10PS10*%
%AMPS17*
1,1,0.850000,0.000000,0.000000*
%
%ADD17PS17*%
%AMPS13*
1,1,0.850000,0.000000,0.000000*
%
%ADD13PS13*%
%AMPS16*
1,1,1.190600,0.000000,0.000000*
%
%ADD16PS16*%
G01*
%LPD*%
G01*
%LPD*%
G75*
D10*
X36500000Y26770400D03*
D10*
X36500000Y24230401D03*
D11*
X6850000Y-18185000D03*
D11*
X4310000Y-19330000D03*
D11*
X4310000Y-10170000D03*
D11*
X4310000Y-12460000D03*
D11*
X6850000Y-11315000D03*
D11*
X4310000Y-14750000D03*
D11*
X6850000Y-13605000D03*
D11*
X9390000Y-12460000D03*
D11*
X9390000Y-17040000D03*
D11*
X6850000Y-15895000D03*
D11*
X9390000Y-19330000D03*
D11*
X9390000Y-10170000D03*
D11*
X6850000Y-20475000D03*
D11*
X4310000Y-17040000D03*
D12*
X6850000Y-27495000D03*
D12*
X6850000Y-2505000D03*
D11*
X9390000Y-14750000D03*
D10*
X36500000Y20520400D03*
D10*
X36500000Y17980401D03*
D13*
X-3320000Y36890000D03*
D13*
X-3320000Y31110000D03*
D14*
X12710000Y29290000D03*
D14*
X15885000Y29290000D03*
D15*
X12710000Y24210000D03*
D16*
X17790000Y27766000D03*
D16*
X17790000Y25734000D03*
D16*
X12710000Y26750000D03*
D15*
X15885000Y24210000D03*
D17*
X37070000Y6360000D03*
D17*
X37070000Y12140000D03*
D10*
X36500000Y33020400D03*
D10*
X36500000Y30480401D03*
D18*
X860000Y7250000D03*
D18*
X860000Y21750000D03*
D19*
X-5100000Y21750000D03*
D19*
X-5100000Y7250000D03*
D10*
X36500000Y39270400D03*
D10*
X36500000Y36730401D03*
D20*
X18750000Y10250000D03*
D20*
X24050000Y27049890D03*
D20*
X18750000Y8500000D03*
D20*
X17500000Y6000000D03*
D20*
X22750000Y17250000D03*
D20*
X11500000Y15750000D03*
D20*
X28250000Y-24250000D03*
D21*
X24250000Y-21750000D03*
D20*
X30250000Y-5500000D03*
D21*
X4000000Y11250000D03*
D21*
X26600000Y-12650000D03*
D20*
X32600000Y-12250000D03*
D20*
X28500000Y32000000D03*
D20*
X37500000Y-15900000D03*
D20*
X36000000Y-20750000D03*
D20*
X36500000Y16250000D03*
D20*
X23500000Y-15500000D03*
D21*
X20250000Y-18750000D03*
D20*
X17875000Y-19250000D03*
D20*
X14250000Y22750000D03*
D20*
X-2000000Y41000000D03*
D20*
X40250000Y23000000D03*
D20*
X18000000Y-5750000D03*
D21*
X14250000Y-17000000D03*
D20*
X38000000Y-20750000D03*
D20*
X21750000Y30750000D03*
D20*
X37000000Y-20750000D03*
D20*
X23500000Y-17000000D03*
D20*
X40500000Y-30250000D03*
D20*
X24750000Y-27250000D03*
D20*
X37800000Y-29450000D03*
D20*
X26250000Y-23250000D03*
D20*
X18750000Y35250000D03*
D20*
X22500000Y35250000D03*
D20*
X13750000Y17000000D03*
D20*
X22000000Y5750000D03*
D21*
X20750000Y-17250000D03*
D20*
X-5000000Y27000000D03*
D21*
X3250000Y13500000D03*
D20*
X29525000Y24950000D03*
D20*
X33000000Y-20750000D03*
D20*
X39000000Y-20750000D03*
D20*
X33500000Y-31500000D03*
D20*
X25125000Y-18500000D03*
D20*
X40000000Y-19750000D03*
D20*
X9000000Y30250000D03*
D21*
X27750000Y-21250000D03*
D20*
X32000000Y-31500000D03*
D20*
X40250000Y2250000D03*
D21*
X23000000Y-21250000D03*
D20*
X33875000Y-12875000D03*
D20*
X35750000Y2250000D03*
D20*
X26750000Y17750000D03*
D20*
X40000000Y-14750000D03*
D20*
X18750002Y36499999D03*
D20*
X16500000Y18250000D03*
D20*
X8750000Y16000000D03*
D20*
X26000000Y17750000D03*
D20*
X34520000Y10250000D03*
D20*
X26050000Y25049890D03*
D20*
X38000000Y16250000D03*
D20*
X23458871Y6020565D03*
D20*
X34000000Y-20750000D03*
D21*
X12250000Y7995000D03*
D21*
X16425000Y10500000D03*
D20*
X-5160000Y28000000D03*
D20*
X30750000Y23500000D03*
D20*
X18250000Y24250000D03*
D20*
X5250000Y22500000D03*
D20*
X25500000Y-28750000D03*
D20*
X16250000Y-5000000D03*
D20*
X35550000Y22375000D03*
D20*
X20000002Y35249999D03*
D20*
X33500000Y13250000D03*
D21*
X27250000Y-21750000D03*
D20*
X18750000Y20000000D03*
D20*
X35750000Y-17800000D03*
D20*
X36100000Y-12250000D03*
D20*
X9250000Y13750000D03*
D20*
X37500000Y-15100000D03*
D21*
X3250000Y17995000D03*
D20*
X-5750000Y27000000D03*
D20*
X19750000Y5500000D03*
D20*
X1095799Y37325633D03*
D20*
X35600000Y34875000D03*
D20*
X35150000Y-12250000D03*
D20*
X20500000Y5750000D03*
D20*
X17500000Y4500000D03*
D20*
X23750000Y30750000D03*
D20*
X-5000000Y41000000D03*
D20*
X22750000Y3000000D03*
D20*
X22250000Y10250000D03*
D20*
X40250000Y16250000D03*
D20*
X25000000Y-17000000D03*
D20*
X15000000Y-6750000D03*
D20*
X18000000Y17500000D03*
D20*
X9000000Y24000000D03*
D20*
X35750000Y-17000000D03*
D21*
X3250000Y15000000D03*
D21*
X3250000Y10500000D03*
D20*
X23500000Y18750000D03*
D20*
X-6500000Y30500000D03*
D20*
X5250000Y25000000D03*
D20*
X16250000Y7250000D03*
D21*
X29250000Y-18250000D03*
D20*
X17500002Y36499999D03*
D20*
X35800000Y-27450000D03*
D20*
X28750000Y40500000D03*
D20*
X40000000Y-16750000D03*
D20*
X35800000Y-26450000D03*
D20*
X-3500000Y41000000D03*
D20*
X41000000Y16250000D03*
D20*
X39500000Y2250000D03*
D20*
X23000000Y31500000D03*
D21*
X14000000Y12000000D03*
D20*
X39500000Y16250000D03*
D21*
X9000000Y5250000D03*
D21*
X16970000Y32030000D03*
D20*
X35625000Y-12875000D03*
D20*
X28500000Y-31000000D03*
D20*
X18750000Y4500000D03*
D20*
X39125000Y-11625000D03*
D20*
X-2000000Y27000000D03*
D20*
X15000000Y-26250000D03*
D21*
X16425000Y12000000D03*
D20*
X34250000Y17000000D03*
D20*
X20000000Y18000000D03*
D20*
X38650000Y-12250000D03*
D20*
X37250000Y16250000D03*
D20*
X-3500000Y27000000D03*
D20*
X30000000Y27750000D03*
D20*
X27750000Y31500000D03*
D21*
X16424686Y9000163D03*
D20*
X6075000Y19175000D03*
D21*
X20750000Y-14750000D03*
D20*
X21500000Y20750000D03*
D20*
X20500000Y29250000D03*
D21*
X12750000Y7500000D03*
D21*
X3250000Y12000000D03*
D20*
X20000002Y33999999D03*
D20*
X18000000Y-12000000D03*
D20*
X24250000Y-8750000D03*
D20*
X39250000Y-14150000D03*
D20*
X40000000Y-18750000D03*
D20*
X25500000Y-8250000D03*
D20*
X-4250000Y27000000D03*
D20*
X13750000Y20000000D03*
D20*
X18750000Y12000000D03*
D20*
X33500000Y16250000D03*
D20*
X22750000Y28750000D03*
D21*
X26250000Y-21750000D03*
D20*
X25250000Y17750000D03*
D20*
X13500000Y-10250000D03*
D20*
X30250000Y-31500000D03*
D20*
X17000000Y38750000D03*
D20*
X33400000Y-12250000D03*
D20*
X20250000Y30750000D03*
D20*
X10250000Y13750000D03*
D20*
X40300000Y29250000D03*
D20*
X39250000Y-13350000D03*
D20*
X20000000Y15500000D03*
D20*
X29000000Y2750000D03*
D20*
X-6500000Y41000000D03*
D20*
X30750000Y22500000D03*
D21*
X22250000Y-21250000D03*
D20*
X26250000Y37000000D03*
D20*
X17500002Y33999999D03*
D20*
X38000000Y2250000D03*
D20*
X24250000Y-24250000D03*
D20*
X-5160000Y40000000D03*
D20*
X31750000Y-15750000D03*
D20*
X20500000Y21500000D03*
D20*
X26000000Y12250000D03*
D20*
X-288949Y28824203D03*
D21*
X24750000Y-21225000D03*
D21*
X14000000Y9000000D03*
D20*
X9250000Y7250000D03*
D20*
X32000000Y-20250000D03*
D20*
X1500000Y30500000D03*
D20*
X-7250000Y30500000D03*
D20*
X32000000Y-11625000D03*
D21*
X20750000Y-18250000D03*
D20*
X13750000Y-5750000D03*
D20*
X18000000Y-14000000D03*
D20*
X30250000Y8000000D03*
D20*
X38250000Y-15500000D03*
D20*
X6000000Y23000000D03*
D20*
X30750000Y21500000D03*
D20*
X35800000Y-28450000D03*
D20*
X19500000Y-28250000D03*
D20*
X4961051Y26074203D03*
D20*
X23000000Y-8750000D03*
D20*
X28750000Y15500000D03*
D20*
X10250000Y7250000D03*
D20*
X22750000Y5500000D03*
D20*
X26250000Y36000000D03*
D20*
X37375000Y-11625000D03*
D20*
X26500000Y-15500000D03*
D20*
X30250000Y-27250000D03*
D21*
X29250000Y-15750000D03*
D20*
X-770000Y33000000D03*
D21*
X13750000Y10500000D03*
D21*
X12250000Y-17000000D03*
D20*
X15000000Y37500000D03*
D20*
X19750000Y28750000D03*
D20*
X32000000Y-12875000D03*
D20*
X35600000Y28625000D03*
D20*
X5211051Y28824203D03*
D20*
X2500000Y31750000D03*
D20*
X-4410000Y29000000D03*
D20*
X38750000Y16250000D03*
D20*
X34250000Y16250000D03*
D20*
X11500000Y16750000D03*
D21*
X10000000Y5250000D03*
D20*
X25250000Y34000000D03*
D20*
X18250000Y29500000D03*
D20*
X9250000Y8500000D03*
D20*
X22250000Y12000000D03*
D20*
X-4410000Y39000000D03*
D20*
X15000000Y-4000000D03*
D20*
X28500000Y14000000D03*
D20*
X17500000Y-6750000D03*
D20*
X27500000Y-6750000D03*
D20*
X20500000Y12000000D03*
D20*
X38800000Y35500000D03*
D20*
X20500000Y10250000D03*
D20*
X9250000Y11500000D03*
D20*
X27750000Y-29500000D03*
D20*
X-2750000Y41000000D03*
D20*
X38910000Y3250000D03*
D20*
X27250000Y-24250000D03*
D20*
X-5000000Y30500000D03*
D20*
X38750000Y23000000D03*
D20*
X38800000Y29250000D03*
D21*
X20250000Y-16000000D03*
D20*
X18750002Y33999999D03*
D20*
X39500000Y23000000D03*
D21*
X22000000Y-12750000D03*
D20*
X40000000Y-17750000D03*
D21*
X4000000Y14250000D03*
D20*
X4000000Y18500000D03*
D20*
X-6500000Y27000000D03*
D20*
X22250000Y8500000D03*
D20*
X-5750000Y41000000D03*
D20*
X31500000Y14000000D03*
D20*
X25500000Y6250000D03*
D20*
X-5160000Y39000000D03*
D20*
X31750000Y6000000D03*
D20*
X21000000Y-11000000D03*
D20*
X38160000Y4250000D03*
D21*
X5425000Y15825000D03*
D20*
X13750000Y-12000000D03*
D20*
X-770000Y34500000D03*
D20*
X30000000Y33000000D03*
D20*
X37250000Y2250000D03*
D20*
X32750000Y-31500000D03*
D20*
X34520000Y12000000D03*
D20*
X-1020000Y36750000D03*
D20*
X35625000Y-11625000D03*
D21*
X25750000Y-11750000D03*
D20*
X10250000Y8500000D03*
D20*
X38750000Y2250000D03*
D20*
X38160000Y15250000D03*
D20*
X23500000Y-18500000D03*
D20*
X19750000Y3000000D03*
D20*
X13500000Y36750000D03*
D20*
X33875000Y-11625000D03*
D20*
X28250000Y30750000D03*
D20*
X17750000Y20000000D03*
D20*
X31750000Y-14000000D03*
D20*
X-2750000Y27000000D03*
D20*
X24050000Y28105000D03*
D20*
X7500000Y18750000D03*
D20*
X26500000Y-17000000D03*
D20*
X34750000Y-19000000D03*
D20*
X34000000Y-19400000D03*
D20*
X11250000Y18750000D03*
D20*
X38910000Y15250000D03*
D21*
X18000000Y31000000D03*
D20*
X35000000Y-20750000D03*
D20*
X32500000Y11000000D03*
D20*
X-7250000Y27000000D03*
D20*
X14500000Y4750000D03*
D20*
X18000000Y15000000D03*
D20*
X28500000Y16250000D03*
D20*
X25000000Y12250000D03*
D20*
X23000000Y-23000000D03*
D20*
X31115000Y35635000D03*
D20*
X31750000Y4500000D03*
D21*
X26750000Y-21250000D03*
D20*
X40000000Y-13750000D03*
D20*
X38160000Y14250000D03*
D20*
X21250000Y3000000D03*
D20*
X29250000Y-14000000D03*
D20*
X31750000Y-18250000D03*
D21*
X25750000Y-21250000D03*
D20*
X38910000Y4250000D03*
D21*
X9500000Y5000000D03*
D20*
X28750000Y37750000D03*
D20*
X12500000Y-3000000D03*
D20*
X7450388Y27195104D03*
D20*
X25000000Y-15500000D03*
D20*
X39550000Y35500000D03*
D20*
X20000002Y36499999D03*
D21*
X19745000Y14500000D03*
D20*
X38160000Y3250000D03*
D20*
X8250000Y17250000D03*
D21*
X18750000Y17750000D03*
D21*
X20250000Y-16750000D03*
D20*
X36900000Y-12250000D03*
D20*
X22000000Y15500000D03*
D20*
X-4250000Y30500000D03*
D20*
X27250000Y36000000D03*
D20*
X-7250000Y41000000D03*
D20*
X37850000Y-12250000D03*
D20*
X38910000Y14250000D03*
D20*
X34500000Y-25750000D03*
D20*
X37375000Y-12875000D03*
D20*
X20625000Y8500000D03*
D21*
X10500000Y5000000D03*
D20*
X21250000Y5500000D03*
D21*
X17500000Y31530000D03*
D20*
X40000000Y-23750000D03*
D20*
X39550000Y29250000D03*
D20*
X36500000Y2250000D03*
D20*
X-5750000Y30500000D03*
D20*
X36500000Y-17400000D03*
D20*
X17900000Y-16750000D03*
D20*
X32520000Y5750000D03*
D21*
X20750000Y-19500000D03*
D20*
X30500000Y-10645000D03*
D20*
X25250000Y-24250000D03*
D20*
X28750000Y8000000D03*
D20*
X17500002Y35249999D03*
D20*
X17000000Y15000000D03*
D20*
X40300000Y35500000D03*
D20*
X-4250000Y41000000D03*
D20*
X18000000Y-3500000D03*
D20*
X34000000Y-18600000D03*
D20*
X17000000Y17500000D03*
D20*
X40000000Y-20750000D03*
D20*
X21500000Y22250000D03*
D20*
X35750000Y16250000D03*
D20*
X19000000Y-12250000D03*
D20*
X-4410000Y28000000D03*
D20*
X26500000Y-18500000D03*
D20*
X34520000Y8750000D03*
D20*
X10979680Y25879680D03*
D20*
X6750000Y28750000D03*
D20*
X40000000Y-15750000D03*
D20*
X5211051Y27324203D03*
D20*
X34350000Y-12250000D03*
D20*
X-4410000Y40000000D03*
D20*
X-770000Y31250000D03*
D20*
X10250000Y11500000D03*
D21*
X19250000Y18250000D03*
D20*
X32750000Y20500000D03*
D20*
X-5160000Y29000000D03*
D20*
X22750000Y23500000D03*
D21*
X25000000Y-11750000D03*
D20*
X13719997Y37750000D03*
D20*
X23000000Y15750000D03*
D20*
X14500000Y17500000D03*
D20*
X9750000Y10500000D03*
D20*
X24050000Y26049890D03*
D20*
X34770000Y6500000D03*
D10*
X86500000Y26770400D03*
D10*
X86500000Y24230401D03*
D11*
X56850000Y-18185000D03*
D11*
X54310000Y-19330000D03*
D11*
X54310000Y-10170000D03*
D11*
X54310000Y-12460000D03*
D11*
X56850000Y-11315000D03*
D11*
X54310000Y-14750000D03*
D11*
X56850000Y-13605000D03*
D11*
X59390000Y-12460000D03*
D11*
X59390000Y-17040000D03*
D11*
X56850000Y-15895000D03*
D11*
X59390000Y-19330000D03*
D11*
X59390000Y-10170000D03*
D11*
X56850000Y-20475000D03*
D11*
X54310000Y-17040000D03*
D12*
X56850000Y-27495000D03*
D12*
X56850000Y-2505000D03*
D11*
X59390000Y-14750000D03*
D10*
X86500000Y20520400D03*
D10*
X86500000Y17980401D03*
D13*
X46680000Y36890000D03*
D13*
X46680000Y31110000D03*
D14*
X62710000Y29290000D03*
D14*
X65885000Y29290000D03*
D15*
X62710000Y24210000D03*
D16*
X67790000Y27766000D03*
D16*
X67790000Y25734000D03*
D16*
X62710000Y26750000D03*
D15*
X65885000Y24210000D03*
D17*
X87070000Y6360000D03*
D17*
X87070000Y12140000D03*
D10*
X86500000Y33020400D03*
D10*
X86500000Y30480401D03*
D18*
X50860000Y7250000D03*
D18*
X50860000Y21750000D03*
D19*
X44900000Y21750000D03*
D19*
X44900000Y7250000D03*
D10*
X86500000Y39270400D03*
D10*
X86500000Y36730401D03*
D20*
X68750000Y10250000D03*
D20*
X74050000Y27049890D03*
D20*
X68750000Y8500000D03*
D20*
X67500000Y6000000D03*
D20*
X72750000Y17250000D03*
D20*
X61500000Y15750000D03*
D20*
X78250000Y-24250000D03*
D21*
X74250000Y-21750000D03*
D20*
X80250000Y-5500000D03*
D21*
X54000000Y11250000D03*
D21*
X76600000Y-12650000D03*
D20*
X82600000Y-12250000D03*
D20*
X78500000Y32000000D03*
D20*
X87500000Y-15900000D03*
D20*
X86000000Y-20750000D03*
D20*
X86500000Y16250000D03*
D20*
X73500000Y-15500000D03*
D21*
X70250000Y-18750000D03*
D20*
X67875000Y-19250000D03*
D20*
X64250000Y22750000D03*
D20*
X48000000Y41000000D03*
D20*
X90250000Y23000000D03*
D20*
X68000000Y-5750000D03*
D21*
X64250000Y-17000000D03*
D20*
X88000000Y-20750000D03*
D20*
X71750000Y30750000D03*
D20*
X87000000Y-20750000D03*
D20*
X73500000Y-17000000D03*
D20*
X90500000Y-30250000D03*
D20*
X74750000Y-27250000D03*
D20*
X87800000Y-29450000D03*
D20*
X76250000Y-23250000D03*
D20*
X68750000Y35250000D03*
D20*
X72500000Y35250000D03*
D20*
X63750000Y17000000D03*
D20*
X72000000Y5750000D03*
D21*
X70750000Y-17250000D03*
D20*
X45000000Y27000000D03*
D21*
X53250000Y13500000D03*
D20*
X79525000Y24950000D03*
D20*
X83000000Y-20750000D03*
D20*
X89000000Y-20750000D03*
D20*
X83500000Y-31500000D03*
D20*
X75125000Y-18500000D03*
D20*
X90000000Y-19750000D03*
D20*
X59000000Y30250000D03*
D21*
X77750000Y-21250000D03*
D20*
X82000000Y-31500000D03*
D20*
X90250000Y2250000D03*
D21*
X73000000Y-21250000D03*
D20*
X83875000Y-12875000D03*
D20*
X85750000Y2250000D03*
D20*
X76750000Y17750000D03*
D20*
X90000000Y-14750000D03*
D20*
X68750002Y36499999D03*
D20*
X66500000Y18250000D03*
D20*
X58750000Y16000000D03*
D20*
X76000000Y17750000D03*
D20*
X84520000Y10250000D03*
D20*
X76050000Y25049890D03*
D20*
X88000000Y16250000D03*
D20*
X73458871Y6020565D03*
D20*
X84000000Y-20750000D03*
D21*
X62250000Y7995000D03*
D21*
X66425000Y10500000D03*
D20*
X44840000Y28000000D03*
D20*
X80750000Y23500000D03*
D20*
X68250000Y24250000D03*
D20*
X55250000Y22500000D03*
D20*
X75500000Y-28750000D03*
D20*
X66250000Y-5000000D03*
D20*
X85550000Y22375000D03*
D20*
X70000002Y35249999D03*
D20*
X83500000Y13250000D03*
D21*
X77250000Y-21750000D03*
D20*
X68750000Y20000000D03*
D20*
X85750000Y-17800000D03*
D20*
X86100000Y-12250000D03*
D20*
X59250000Y13750000D03*
D20*
X87500000Y-15100000D03*
D21*
X53250000Y17995000D03*
D20*
X44250000Y27000000D03*
D20*
X69750000Y5500000D03*
D20*
X51095799Y37325633D03*
D20*
X85600000Y34875000D03*
D20*
X85150000Y-12250000D03*
D20*
X70500000Y5750000D03*
D20*
X67500000Y4500000D03*
D20*
X73750000Y30750000D03*
D20*
X45000000Y41000000D03*
D20*
X72750000Y3000000D03*
D20*
X72250000Y10250000D03*
D20*
X90250000Y16250000D03*
D20*
X75000000Y-17000000D03*
D20*
X65000000Y-6750000D03*
D20*
X68000000Y17500000D03*
D20*
X59000000Y24000000D03*
D20*
X85750000Y-17000000D03*
D21*
X53250000Y15000000D03*
D21*
X53250000Y10500000D03*
D20*
X73500000Y18750000D03*
D20*
X43500000Y30500000D03*
D20*
X55250000Y25000000D03*
D20*
X66250000Y7250000D03*
D21*
X79250000Y-18250000D03*
D20*
X67500002Y36499999D03*
D20*
X85800000Y-27450000D03*
D20*
X78750000Y40500000D03*
D20*
X90000000Y-16750000D03*
D20*
X85800000Y-26450000D03*
D20*
X46500000Y41000000D03*
D20*
X91000000Y16250000D03*
D20*
X89500000Y2250000D03*
D20*
X73000000Y31500000D03*
D21*
X64000000Y12000000D03*
D20*
X89500000Y16250000D03*
D21*
X59000000Y5250000D03*
D21*
X66970000Y32030000D03*
D20*
X85625000Y-12875000D03*
D20*
X78500000Y-31000000D03*
D20*
X68750000Y4500000D03*
D20*
X89125000Y-11625000D03*
D20*
X48000000Y27000000D03*
D20*
X65000000Y-26250000D03*
D21*
X66425000Y12000000D03*
D20*
X84250000Y17000000D03*
D20*
X70000000Y18000000D03*
D20*
X88650000Y-12250000D03*
D20*
X87250000Y16250000D03*
D20*
X46500000Y27000000D03*
D20*
X80000000Y27750000D03*
D20*
X77750000Y31500000D03*
D21*
X66424686Y9000163D03*
D20*
X56075000Y19175000D03*
D21*
X70750000Y-14750000D03*
D20*
X71500000Y20750000D03*
D20*
X70500000Y29250000D03*
D21*
X62750000Y7500000D03*
D21*
X53250000Y12000000D03*
D20*
X70000002Y33999999D03*
D20*
X68000000Y-12000000D03*
D20*
X74250000Y-8750000D03*
D20*
X89250000Y-14150000D03*
D20*
X90000000Y-18750000D03*
D20*
X75500000Y-8250000D03*
D20*
X45750000Y27000000D03*
D20*
X63750000Y20000000D03*
D20*
X68750000Y12000000D03*
D20*
X83500000Y16250000D03*
D20*
X72750000Y28750000D03*
D21*
X76250000Y-21750000D03*
D20*
X75250000Y17750000D03*
D20*
X63500000Y-10250000D03*
D20*
X80250000Y-31500000D03*
D20*
X67000000Y38750000D03*
D20*
X83400000Y-12250000D03*
D20*
X70250000Y30750000D03*
D20*
X60250000Y13750000D03*
D20*
X90300000Y29250000D03*
D20*
X89250000Y-13350000D03*
D20*
X70000000Y15500000D03*
D20*
X79000000Y2750000D03*
D20*
X43500000Y41000000D03*
D20*
X80750000Y22500000D03*
D21*
X72250000Y-21250000D03*
D20*
X76250000Y37000000D03*
D20*
X67500002Y33999999D03*
D20*
X88000000Y2250000D03*
D20*
X74250000Y-24250000D03*
D20*
X44840000Y40000000D03*
D20*
X81750000Y-15750000D03*
D20*
X70500000Y21500000D03*
D20*
X76000000Y12250000D03*
D20*
X49711051Y28824203D03*
D21*
X74750000Y-21225000D03*
D21*
X64000000Y9000000D03*
D20*
X59250000Y7250000D03*
D20*
X82000000Y-20250000D03*
D20*
X51500000Y30500000D03*
D20*
X42750000Y30500000D03*
D20*
X82000000Y-11625000D03*
D21*
X70750000Y-18250000D03*
D20*
X63750000Y-5750000D03*
D20*
X68000000Y-14000000D03*
D20*
X80250000Y8000000D03*
D20*
X88250000Y-15500000D03*
D20*
X56000000Y23000000D03*
D20*
X80750000Y21500000D03*
D20*
X85800000Y-28450000D03*
D20*
X69500000Y-28250000D03*
D20*
X54961051Y26074203D03*
D20*
X73000000Y-8750000D03*
D20*
X78750000Y15500000D03*
D20*
X60250000Y7250000D03*
D20*
X72750000Y5500000D03*
D20*
X76250000Y36000000D03*
D20*
X87375000Y-11625000D03*
D20*
X76500000Y-15500000D03*
D20*
X80250000Y-27250000D03*
D21*
X79250000Y-15750000D03*
D20*
X49230000Y33000000D03*
D21*
X63750000Y10500000D03*
D21*
X62250000Y-17000000D03*
D20*
X65000000Y37500000D03*
D20*
X69750000Y28750000D03*
D20*
X82000000Y-12875000D03*
D20*
X85600000Y28625000D03*
D20*
X55211051Y28824203D03*
D20*
X52500000Y31750000D03*
D20*
X45590000Y29000000D03*
D20*
X88750000Y16250000D03*
D20*
X84250000Y16250000D03*
D20*
X61500000Y16750000D03*
D21*
X60000000Y5250000D03*
D20*
X75250000Y34000000D03*
D20*
X68250000Y29500000D03*
D20*
X59250000Y8500000D03*
D20*
X72250000Y12000000D03*
D20*
X45590000Y39000000D03*
D20*
X65000000Y-4000000D03*
D20*
X78500000Y14000000D03*
D20*
X67500000Y-6750000D03*
D20*
X77500000Y-6750000D03*
D20*
X70500000Y12000000D03*
D20*
X88800000Y35500000D03*
D20*
X70500000Y10250000D03*
D20*
X59250000Y11500000D03*
D20*
X77750000Y-29500000D03*
D20*
X47250000Y41000000D03*
D20*
X88910000Y3250000D03*
D20*
X77250000Y-24250000D03*
D20*
X45000000Y30500000D03*
D20*
X88750000Y23000000D03*
D20*
X88800000Y29250000D03*
D21*
X70250000Y-16000000D03*
D20*
X68750002Y33999999D03*
D20*
X89500000Y23000000D03*
D21*
X72000000Y-12750000D03*
D20*
X90000000Y-17750000D03*
D21*
X54000000Y14250000D03*
D20*
X54000000Y18500000D03*
D20*
X43500000Y27000000D03*
D20*
X72250000Y8500000D03*
D20*
X44250000Y41000000D03*
D20*
X81500000Y14000000D03*
D20*
X75500000Y6250000D03*
D20*
X44840000Y39000000D03*
D20*
X81750000Y6000000D03*
D20*
X71000000Y-11000000D03*
D20*
X88160000Y4250000D03*
D21*
X55425000Y15825000D03*
D20*
X63750000Y-12000000D03*
D20*
X49230000Y34500000D03*
D20*
X80000000Y33000000D03*
D20*
X87250000Y2250000D03*
D20*
X82750000Y-31500000D03*
D20*
X84520000Y12000000D03*
D20*
X48980000Y36750000D03*
D20*
X85625000Y-11625000D03*
D21*
X75750000Y-11750000D03*
D20*
X60250000Y8500000D03*
D20*
X88750000Y2250000D03*
D20*
X88160000Y15250000D03*
D20*
X73500000Y-18500000D03*
D20*
X69750000Y3000000D03*
D20*
X63500000Y36750000D03*
D20*
X83875000Y-11625000D03*
D20*
X78250000Y30750000D03*
D20*
X67750000Y20000000D03*
D20*
X81750000Y-14000000D03*
D20*
X47250000Y27000000D03*
D20*
X74050000Y28105000D03*
D20*
X57500000Y18750000D03*
D20*
X76500000Y-17000000D03*
D20*
X84750000Y-19000000D03*
D20*
X84000000Y-19400000D03*
D20*
X61250000Y18750000D03*
D20*
X88910000Y15250000D03*
D21*
X68000000Y31000000D03*
D20*
X85000000Y-20750000D03*
D20*
X82500000Y11000000D03*
D20*
X42750000Y27000000D03*
D20*
X64500000Y4750000D03*
D20*
X68000000Y15000000D03*
D20*
X78500000Y16250000D03*
D20*
X75000000Y12250000D03*
D20*
X73000000Y-23000000D03*
D20*
X81115000Y35635000D03*
D20*
X81750000Y4500000D03*
D21*
X76750000Y-21250000D03*
D20*
X90000000Y-13750000D03*
D20*
X88160000Y14250000D03*
D20*
X71250000Y3000000D03*
D20*
X79250000Y-14000000D03*
D20*
X81750000Y-18250000D03*
D21*
X75750000Y-21250000D03*
D20*
X88910000Y4250000D03*
D21*
X59500000Y5000000D03*
D20*
X78750000Y37750000D03*
D20*
X62500000Y-3000000D03*
D20*
X57450388Y27195104D03*
D20*
X75000000Y-15500000D03*
D20*
X89550000Y35500000D03*
D20*
X70000002Y36499999D03*
D21*
X69745000Y14500000D03*
D20*
X88160000Y3250000D03*
D20*
X58250000Y17250000D03*
D21*
X68750000Y17750000D03*
D21*
X70250000Y-16750000D03*
D20*
X86900000Y-12250000D03*
D20*
X72000000Y15500000D03*
D20*
X45750000Y30500000D03*
D20*
X77250000Y36000000D03*
D20*
X42750000Y41000000D03*
D20*
X87850000Y-12250000D03*
D20*
X88910000Y14250000D03*
D20*
X84500000Y-25750000D03*
D20*
X87375000Y-12875000D03*
D20*
X70625000Y8500000D03*
D21*
X60500000Y5000000D03*
D20*
X71250000Y5500000D03*
D21*
X67500000Y31530000D03*
D20*
X90000000Y-23750000D03*
D20*
X89550000Y29250000D03*
D20*
X86500000Y2250000D03*
D20*
X44250000Y30500000D03*
D20*
X86500000Y-17400000D03*
D20*
X67900000Y-16750000D03*
D20*
X82520000Y5750000D03*
D21*
X70750000Y-19500000D03*
D20*
X80500000Y-10645000D03*
D20*
X75250000Y-24250000D03*
D20*
X78750000Y8000000D03*
D20*
X67500002Y35249999D03*
D20*
X67000000Y15000000D03*
D20*
X90300000Y35500000D03*
D20*
X45750000Y41000000D03*
D20*
X68000000Y-3500000D03*
D20*
X84000000Y-18600000D03*
D20*
X67000000Y17500000D03*
D20*
X90000000Y-20750000D03*
D20*
X71500000Y22250000D03*
D20*
X85750000Y16250000D03*
D20*
X69000000Y-12250000D03*
D20*
X45590000Y28000000D03*
D20*
X76500000Y-18500000D03*
D20*
X84520000Y8750000D03*
D20*
X60979680Y25879680D03*
D20*
X56750000Y28750000D03*
D20*
X90000000Y-15750000D03*
D20*
X55211051Y27324203D03*
D20*
X84350000Y-12250000D03*
D20*
X45590000Y40000000D03*
D20*
X49230000Y31250000D03*
D20*
X60250000Y11500000D03*
D21*
X69250000Y18250000D03*
D20*
X82750000Y20500000D03*
D20*
X44840000Y29000000D03*
D20*
X72750000Y23500000D03*
D21*
X75000000Y-11750000D03*
D20*
X63719997Y37750000D03*
D20*
X73000000Y15750000D03*
D20*
X64500000Y17500000D03*
D20*
X59750000Y10500000D03*
D20*
X74050000Y26049890D03*
D20*
X84770000Y6500000D03*
M02*
