%FSLAX46Y46*%
%MOMM*%
%ADD10C,0.250000*%
%ADD11C,0.500000*%
%AMPS12*
1,1,1.695000,0.000000,0.000000*
%
%ADD12PS12*%
%AMPS13*
1,1,4.246000,0.000000,0.000000*
%
%ADD13PS13*%
%AMPS16*
1,1,0.600000,0.000000,0.000000*
%
%ADD16PS16*%
%AMPS17*
1,1,0.400000,0.000000,0.000000*
%
%ADD17PS17*%
%AMPS14*
21,1,1.800000,1.500000,0.000000,0.000000,0.000000*
1,1,1.500000,0.900000,0.000000*
1,1,1.500000,-0.900000,0.000000*
%
%ADD14PS14*%
%AMPS15*
21,1,0.800000,1.500000,0.000000,0.000000,0.000000*
1,1,1.500000,0.400000,0.000000*
1,1,1.500000,-0.400000,0.000000*
%
%ADD15PS15*%
G01*
%LPD*%
G36*
X69389994Y3250000D02*
X69442298Y3307712D01*
X69473931Y3336381D01*
X69508237Y3361824D01*
X69544864Y3383778D01*
X69583470Y3402036D01*
X69623683Y3416426D01*
X69665101Y3426800D01*
X69707352Y3433067D01*
X69750000Y3435164D01*
X69792648Y3433067D01*
X69834899Y3426800D01*
X69876317Y3416426D01*
X69916530Y3402036D01*
X69955136Y3383778D01*
X69991763Y3361824D01*
X70026069Y3336381D01*
X70057702Y3307712D01*
X70110006Y3250000D01*
X70889994Y3250000D01*
X70942298Y3307712D01*
X70973931Y3336381D01*
X71008237Y3361824D01*
X71044864Y3383778D01*
X71083470Y3402036D01*
X71123683Y3416426D01*
X71165101Y3426800D01*
X71207352Y3433067D01*
X71250000Y3435164D01*
X71292648Y3433067D01*
X71334899Y3426800D01*
X71376317Y3416426D01*
X71416530Y3402036D01*
X71455136Y3383778D01*
X71491763Y3361824D01*
X71526069Y3336381D01*
X71557702Y3307712D01*
X71610006Y3250000D01*
X72389994Y3250000D01*
X72442298Y3307712D01*
X72473931Y3336381D01*
X72508237Y3361824D01*
X72544864Y3383778D01*
X72583470Y3402036D01*
X72623683Y3416426D01*
X72665101Y3426800D01*
X72707352Y3433067D01*
X72750000Y3435164D01*
X72792648Y3433067D01*
X72834899Y3426800D01*
X72876317Y3416426D01*
X72916530Y3402036D01*
X72955136Y3383778D01*
X72991763Y3361824D01*
X73026069Y3336381D01*
X73057702Y3307712D01*
X73110006Y3250000D01*
X73500000Y3250000D01*
X73500000Y5575072D01*
X73373973Y5593764D01*
X73332554Y5604139D01*
X73292341Y5618529D01*
X73253735Y5636787D01*
X73217108Y5658741D01*
X73182802Y5684184D01*
X73151164Y5712858D01*
X73122490Y5744496D01*
X73097047Y5778802D01*
X73075093Y5815429D01*
X73056835Y5854035D01*
X73042445Y5894248D01*
X73015956Y6000000D01*
X72385445Y6000000D01*
X72426800Y5834899D01*
X72433067Y5792648D01*
X72435164Y5750000D01*
X72433067Y5707352D01*
X72426800Y5665101D01*
X72416426Y5623683D01*
X72402036Y5583470D01*
X72383778Y5544864D01*
X72361824Y5508237D01*
X72336381Y5473931D01*
X72307707Y5442293D01*
X72276069Y5413619D01*
X72241763Y5388176D01*
X72205136Y5366222D01*
X72166530Y5347964D01*
X72126317Y5333574D01*
X72084894Y5323198D01*
X72000000Y5310602D01*
X72000000Y4250000D01*
X69110006Y4250000D01*
X69057702Y4192288D01*
X69026069Y4163619D01*
X68991763Y4138176D01*
X68955136Y4116222D01*
X68916530Y4097964D01*
X68876317Y4083574D01*
X68834899Y4073200D01*
X68792648Y4066933D01*
X68750000Y4064836D01*
X68707352Y4066933D01*
X68665101Y4073200D01*
X68623683Y4083574D01*
X68583470Y4097964D01*
X68544864Y4116222D01*
X68508237Y4138176D01*
X68473931Y4163619D01*
X68442298Y4192288D01*
X68389994Y4250000D01*
X67860006Y4250000D01*
X67807702Y4192288D01*
X67776069Y4163619D01*
X67741763Y4138176D01*
X67705136Y4116222D01*
X67666530Y4097964D01*
X67626317Y4083574D01*
X67584899Y4073200D01*
X67542648Y4066933D01*
X67500000Y4064836D01*
X67457352Y4066933D01*
X67415101Y4073200D01*
X67373683Y4083574D01*
X67333470Y4097964D01*
X67294864Y4116222D01*
X67258237Y4138176D01*
X67223931Y4163619D01*
X67192298Y4192288D01*
X67139994Y4250000D01*
X66750000Y4250000D01*
X66750000Y6750000D01*
X65750000Y6750000D01*
X65750000Y10000000D01*
X66750000Y10000000D01*
X66750000Y11000000D01*
X65750000Y11000000D01*
X65750000Y14250000D01*
X68750000Y14250000D01*
X68750000Y16500000D01*
X74500000Y16500000D01*
X74500000Y19250000D01*
X68891293Y19250000D01*
X68840153Y19126537D01*
X69443199Y18523490D01*
X69462620Y18509088D01*
X69486995Y18486995D01*
X69509090Y18462617D01*
X69528676Y18436207D01*
X69545585Y18407998D01*
X69559653Y18378250D01*
X69611208Y18234204D01*
X69723937Y18336385D01*
X69758237Y18361824D01*
X69794864Y18383778D01*
X69833470Y18402036D01*
X69873683Y18416426D01*
X69915101Y18426800D01*
X69957352Y18433067D01*
X70000000Y18435164D01*
X70042648Y18433067D01*
X70084899Y18426800D01*
X70126317Y18416426D01*
X70166530Y18402036D01*
X70205136Y18383778D01*
X70241763Y18361824D01*
X70276069Y18336381D01*
X70307707Y18307707D01*
X70336381Y18276069D01*
X70361824Y18241763D01*
X70383778Y18205136D01*
X70402036Y18166530D01*
X70416426Y18126317D01*
X70426800Y18084899D01*
X70433067Y18042648D01*
X70435164Y18000000D01*
X70433067Y17957352D01*
X70426800Y17915101D01*
X70416426Y17873683D01*
X70402036Y17833470D01*
X70383778Y17794864D01*
X70361824Y17758237D01*
X70336381Y17723931D01*
X70307707Y17692293D01*
X70276069Y17663619D01*
X70241763Y17638176D01*
X70205136Y17616222D01*
X70166530Y17597964D01*
X70126317Y17583574D01*
X70084899Y17573200D01*
X70042648Y17566933D01*
X70000000Y17564836D01*
X69957352Y17566933D01*
X69915101Y17573200D01*
X69873683Y17583574D01*
X69833470Y17597964D01*
X69794864Y17616222D01*
X69758237Y17638176D01*
X69723931Y17663619D01*
X69692293Y17692293D01*
X69663619Y17723931D01*
X69638176Y17758237D01*
X69616222Y17794864D01*
X69597964Y17833470D01*
X69583574Y17873684D01*
X69543070Y18035383D01*
X69408000Y17954416D01*
X69378260Y17940351D01*
X69347292Y17929269D01*
X69315379Y17921275D01*
X69282852Y17916452D01*
X69250000Y17914836D01*
X69217156Y17916452D01*
X69060290Y17939710D01*
X69083548Y17782844D01*
X69085164Y17750000D01*
X69083548Y17717148D01*
X69078725Y17684621D01*
X69070731Y17652708D01*
X69059649Y17621740D01*
X69045585Y17592002D01*
X69028676Y17563793D01*
X69009090Y17537383D01*
X68986995Y17513005D01*
X68962617Y17490910D01*
X68936207Y17471324D01*
X68907998Y17454415D01*
X68878260Y17440351D01*
X68847292Y17429269D01*
X68815379Y17421275D01*
X68782852Y17416452D01*
X68750000Y17414836D01*
X68717148Y17416452D01*
X68684621Y17421275D01*
X68652708Y17429269D01*
X68621740Y17440351D01*
X68592000Y17454416D01*
X68456930Y17535383D01*
X68416426Y17373684D01*
X68402036Y17333470D01*
X68383778Y17294864D01*
X68361824Y17258237D01*
X68336381Y17223931D01*
X68307707Y17192293D01*
X68276069Y17163619D01*
X68241763Y17138176D01*
X68205136Y17116222D01*
X68166530Y17097964D01*
X68126317Y17083574D01*
X68084899Y17073200D01*
X68042648Y17066933D01*
X68000000Y17064836D01*
X67957352Y17066933D01*
X67915101Y17073200D01*
X67873683Y17083574D01*
X67833470Y17097964D01*
X67794864Y17116222D01*
X67758237Y17138176D01*
X67723931Y17163619D01*
X67692293Y17192293D01*
X67663619Y17223931D01*
X67638176Y17258237D01*
X67616222Y17294864D01*
X67597964Y17333470D01*
X67570427Y17410425D01*
X67429573Y17410425D01*
X67402036Y17333470D01*
X67383778Y17294864D01*
X67361824Y17258237D01*
X67336381Y17223931D01*
X67307707Y17192293D01*
X67276069Y17163619D01*
X67241763Y17138176D01*
X67205136Y17116222D01*
X67166530Y17097964D01*
X67126317Y17083574D01*
X67084899Y17073200D01*
X67042648Y17066933D01*
X67000000Y17064836D01*
X66957352Y17066933D01*
X66915101Y17073200D01*
X66873683Y17083574D01*
X66833470Y17097964D01*
X66794864Y17116222D01*
X66758237Y17138176D01*
X66723931Y17163619D01*
X66692293Y17192293D01*
X66663616Y17223935D01*
X66582842Y17332841D01*
X64500000Y15249999D01*
X64500000Y5500000D01*
X65250000Y5500000D01*
X65250000Y3250000D01*
X69389994Y3250000D01*
D02*
G37*
%LPC*%
G36*
X72750000Y16814836D02*
X72707352Y16816933D01*
X72665101Y16823200D01*
X72623683Y16833574D01*
X72583470Y16847964D01*
X72544864Y16866222D01*
X72508237Y16888176D01*
X72473931Y16913619D01*
X72442293Y16942293D01*
X72413619Y16973931D01*
X72388176Y17008237D01*
X72366222Y17044864D01*
X72347964Y17083470D01*
X72333574Y17123683D01*
X72323200Y17165101D01*
X72316933Y17207352D01*
X72314836Y17250000D01*
X72316933Y17292648D01*
X72323200Y17334899D01*
X72333574Y17376317D01*
X72347964Y17416530D01*
X72366222Y17455136D01*
X72388176Y17491763D01*
X72413619Y17526069D01*
X72442293Y17557707D01*
X72473931Y17586381D01*
X72508237Y17611824D01*
X72544864Y17633778D01*
X72583470Y17652036D01*
X72623683Y17666426D01*
X72665101Y17676800D01*
X72707352Y17683067D01*
X72750000Y17685164D01*
X72792648Y17683067D01*
X72834899Y17676800D01*
X72876317Y17666426D01*
X72916530Y17652036D01*
X72955136Y17633778D01*
X72991763Y17611824D01*
X73026069Y17586381D01*
X73057707Y17557707D01*
X73086381Y17526069D01*
X73111824Y17491763D01*
X73133778Y17455136D01*
X73152036Y17416530D01*
X73166426Y17376317D01*
X73176800Y17334899D01*
X73183067Y17292648D01*
X73185164Y17250000D01*
X73183067Y17207352D01*
X73176800Y17165101D01*
X73166426Y17123683D01*
X73152036Y17083470D01*
X73133778Y17044864D01*
X73111824Y17008237D01*
X73086381Y16973931D01*
X73057707Y16942293D01*
X73026069Y16913619D01*
X72991763Y16888176D01*
X72955136Y16866222D01*
X72916530Y16847964D01*
X72876317Y16833574D01*
X72834899Y16823200D01*
X72792648Y16816933D01*
X72750000Y16814836D01*
D02*
G37*
%LPC*%
G36*
X68000000Y14564836D02*
X67957352Y14566933D01*
X67915101Y14573200D01*
X67873683Y14583574D01*
X67833470Y14597964D01*
X67794864Y14616222D01*
X67758237Y14638176D01*
X67723931Y14663619D01*
X67692293Y14692293D01*
X67663619Y14723931D01*
X67638176Y14758237D01*
X67616222Y14794864D01*
X67597964Y14833470D01*
X67583574Y14873683D01*
X67573200Y14915101D01*
X67566933Y14957352D01*
X67564836Y15000000D01*
X67566933Y15042648D01*
X67573200Y15084899D01*
X67583574Y15126317D01*
X67597964Y15166530D01*
X67616222Y15205136D01*
X67638176Y15241763D01*
X67663619Y15276069D01*
X67692293Y15307707D01*
X67723931Y15336381D01*
X67758237Y15361824D01*
X67794864Y15383778D01*
X67833470Y15402036D01*
X67873683Y15416426D01*
X67915101Y15426800D01*
X67957352Y15433067D01*
X68000000Y15435164D01*
X68042648Y15433067D01*
X68084899Y15426800D01*
X68126317Y15416426D01*
X68166530Y15402036D01*
X68205136Y15383778D01*
X68241763Y15361824D01*
X68276069Y15336381D01*
X68307707Y15307707D01*
X68336381Y15276069D01*
X68361824Y15241763D01*
X68383778Y15205136D01*
X68402036Y15166530D01*
X68416426Y15126317D01*
X68426800Y15084899D01*
X68433067Y15042648D01*
X68435164Y15000000D01*
X68433067Y14957352D01*
X68426800Y14915101D01*
X68416426Y14873683D01*
X68402036Y14833470D01*
X68383778Y14794864D01*
X68361824Y14758237D01*
X68336381Y14723931D01*
X68307707Y14692293D01*
X68276069Y14663619D01*
X68241763Y14638176D01*
X68205136Y14616222D01*
X68166530Y14597964D01*
X68126317Y14583574D01*
X68084899Y14573200D01*
X68042648Y14566933D01*
X68000000Y14564836D01*
D02*
G37*
%LPD*%
G36*
X19389994Y3250000D02*
X19442298Y3307712D01*
X19473931Y3336381D01*
X19508237Y3361824D01*
X19544864Y3383778D01*
X19583470Y3402036D01*
X19623683Y3416426D01*
X19665101Y3426800D01*
X19707352Y3433067D01*
X19750000Y3435164D01*
X19792648Y3433067D01*
X19834899Y3426800D01*
X19876317Y3416426D01*
X19916530Y3402036D01*
X19955136Y3383778D01*
X19991763Y3361824D01*
X20026069Y3336381D01*
X20057702Y3307712D01*
X20110006Y3250000D01*
X20889994Y3250000D01*
X20942298Y3307712D01*
X20973931Y3336381D01*
X21008237Y3361824D01*
X21044864Y3383778D01*
X21083470Y3402036D01*
X21123683Y3416426D01*
X21165101Y3426800D01*
X21207352Y3433067D01*
X21250000Y3435164D01*
X21292648Y3433067D01*
X21334899Y3426800D01*
X21376317Y3416426D01*
X21416530Y3402036D01*
X21455136Y3383778D01*
X21491763Y3361824D01*
X21526069Y3336381D01*
X21557702Y3307712D01*
X21610006Y3250000D01*
X22389994Y3250000D01*
X22442298Y3307712D01*
X22473931Y3336381D01*
X22508237Y3361824D01*
X22544864Y3383778D01*
X22583470Y3402036D01*
X22623683Y3416426D01*
X22665101Y3426800D01*
X22707352Y3433067D01*
X22750000Y3435164D01*
X22792648Y3433067D01*
X22834899Y3426800D01*
X22876317Y3416426D01*
X22916530Y3402036D01*
X22955136Y3383778D01*
X22991763Y3361824D01*
X23026069Y3336381D01*
X23057702Y3307712D01*
X23110006Y3250000D01*
X23500000Y3250000D01*
X23500000Y5575072D01*
X23373973Y5593764D01*
X23332554Y5604139D01*
X23292341Y5618529D01*
X23253735Y5636787D01*
X23217108Y5658741D01*
X23182802Y5684184D01*
X23151164Y5712858D01*
X23122490Y5744496D01*
X23097047Y5778802D01*
X23075093Y5815429D01*
X23056835Y5854035D01*
X23042445Y5894248D01*
X23015956Y6000000D01*
X22385445Y6000000D01*
X22426800Y5834899D01*
X22433067Y5792648D01*
X22435164Y5750000D01*
X22433067Y5707352D01*
X22426800Y5665101D01*
X22416426Y5623683D01*
X22402036Y5583470D01*
X22383778Y5544864D01*
X22361824Y5508237D01*
X22336381Y5473931D01*
X22307707Y5442293D01*
X22276069Y5413619D01*
X22241763Y5388176D01*
X22205136Y5366222D01*
X22166530Y5347964D01*
X22126317Y5333574D01*
X22084894Y5323198D01*
X22000000Y5310602D01*
X22000000Y4250000D01*
X19110006Y4250000D01*
X19057702Y4192288D01*
X19026069Y4163619D01*
X18991763Y4138176D01*
X18955136Y4116222D01*
X18916530Y4097964D01*
X18876317Y4083574D01*
X18834899Y4073200D01*
X18792648Y4066933D01*
X18750000Y4064836D01*
X18707352Y4066933D01*
X18665101Y4073200D01*
X18623683Y4083574D01*
X18583470Y4097964D01*
X18544864Y4116222D01*
X18508237Y4138176D01*
X18473931Y4163619D01*
X18442298Y4192288D01*
X18389994Y4250000D01*
X17860006Y4250000D01*
X17807702Y4192288D01*
X17776069Y4163619D01*
X17741763Y4138176D01*
X17705136Y4116222D01*
X17666530Y4097964D01*
X17626317Y4083574D01*
X17584899Y4073200D01*
X17542648Y4066933D01*
X17500000Y4064836D01*
X17457352Y4066933D01*
X17415101Y4073200D01*
X17373683Y4083574D01*
X17333470Y4097964D01*
X17294864Y4116222D01*
X17258237Y4138176D01*
X17223931Y4163619D01*
X17192298Y4192288D01*
X17139994Y4250000D01*
X16750000Y4250000D01*
X16750000Y6750000D01*
X15750000Y6750000D01*
X15750000Y10000000D01*
X16750000Y10000000D01*
X16750000Y11000000D01*
X15750000Y11000000D01*
X15750000Y14250000D01*
X18750000Y14250000D01*
X18750000Y16500000D01*
X24500000Y16500000D01*
X24500000Y19250000D01*
X18891293Y19250000D01*
X18840153Y19126537D01*
X19443199Y18523490D01*
X19462620Y18509088D01*
X19486995Y18486995D01*
X19509090Y18462617D01*
X19528676Y18436207D01*
X19545585Y18407998D01*
X19559653Y18378250D01*
X19611208Y18234204D01*
X19723937Y18336385D01*
X19758237Y18361824D01*
X19794864Y18383778D01*
X19833470Y18402036D01*
X19873683Y18416426D01*
X19915101Y18426800D01*
X19957352Y18433067D01*
X20000000Y18435164D01*
X20042648Y18433067D01*
X20084899Y18426800D01*
X20126317Y18416426D01*
X20166530Y18402036D01*
X20205136Y18383778D01*
X20241763Y18361824D01*
X20276069Y18336381D01*
X20307707Y18307707D01*
X20336381Y18276069D01*
X20361824Y18241763D01*
X20383778Y18205136D01*
X20402036Y18166530D01*
X20416426Y18126317D01*
X20426800Y18084899D01*
X20433067Y18042648D01*
X20435164Y18000000D01*
X20433067Y17957352D01*
X20426800Y17915101D01*
X20416426Y17873683D01*
X20402036Y17833470D01*
X20383778Y17794864D01*
X20361824Y17758237D01*
X20336381Y17723931D01*
X20307707Y17692293D01*
X20276069Y17663619D01*
X20241763Y17638176D01*
X20205136Y17616222D01*
X20166530Y17597964D01*
X20126317Y17583574D01*
X20084899Y17573200D01*
X20042648Y17566933D01*
X20000000Y17564836D01*
X19957352Y17566933D01*
X19915101Y17573200D01*
X19873683Y17583574D01*
X19833470Y17597964D01*
X19794864Y17616222D01*
X19758237Y17638176D01*
X19723931Y17663619D01*
X19692293Y17692293D01*
X19663619Y17723931D01*
X19638176Y17758237D01*
X19616222Y17794864D01*
X19597964Y17833470D01*
X19583574Y17873684D01*
X19543070Y18035383D01*
X19408000Y17954416D01*
X19378260Y17940351D01*
X19347292Y17929269D01*
X19315379Y17921275D01*
X19282852Y17916452D01*
X19250000Y17914836D01*
X19217156Y17916452D01*
X19060290Y17939710D01*
X19083548Y17782844D01*
X19085164Y17750000D01*
X19083548Y17717148D01*
X19078725Y17684621D01*
X19070731Y17652708D01*
X19059649Y17621740D01*
X19045585Y17592002D01*
X19028676Y17563793D01*
X19009090Y17537383D01*
X18986995Y17513005D01*
X18962617Y17490910D01*
X18936207Y17471324D01*
X18907998Y17454415D01*
X18878260Y17440351D01*
X18847292Y17429269D01*
X18815379Y17421275D01*
X18782852Y17416452D01*
X18750000Y17414836D01*
X18717148Y17416452D01*
X18684621Y17421275D01*
X18652708Y17429269D01*
X18621740Y17440351D01*
X18592000Y17454416D01*
X18456930Y17535383D01*
X18416426Y17373684D01*
X18402036Y17333470D01*
X18383778Y17294864D01*
X18361824Y17258237D01*
X18336381Y17223931D01*
X18307707Y17192293D01*
X18276069Y17163619D01*
X18241763Y17138176D01*
X18205136Y17116222D01*
X18166530Y17097964D01*
X18126317Y17083574D01*
X18084899Y17073200D01*
X18042648Y17066933D01*
X18000000Y17064836D01*
X17957352Y17066933D01*
X17915101Y17073200D01*
X17873683Y17083574D01*
X17833470Y17097964D01*
X17794864Y17116222D01*
X17758237Y17138176D01*
X17723931Y17163619D01*
X17692293Y17192293D01*
X17663619Y17223931D01*
X17638176Y17258237D01*
X17616222Y17294864D01*
X17597964Y17333470D01*
X17570427Y17410425D01*
X17429573Y17410425D01*
X17402036Y17333470D01*
X17383778Y17294864D01*
X17361824Y17258237D01*
X17336381Y17223931D01*
X17307707Y17192293D01*
X17276069Y17163619D01*
X17241763Y17138176D01*
X17205136Y17116222D01*
X17166530Y17097964D01*
X17126317Y17083574D01*
X17084899Y17073200D01*
X17042648Y17066933D01*
X17000000Y17064836D01*
X16957352Y17066933D01*
X16915101Y17073200D01*
X16873683Y17083574D01*
X16833470Y17097964D01*
X16794864Y17116222D01*
X16758237Y17138176D01*
X16723931Y17163619D01*
X16692293Y17192293D01*
X16663616Y17223935D01*
X16582842Y17332841D01*
X14500000Y15249999D01*
X14500000Y5500000D01*
X15250000Y5500000D01*
X15250000Y3250000D01*
X19389994Y3250000D01*
D02*
G37*
%LPC*%
G36*
X22750000Y16814836D02*
X22707352Y16816933D01*
X22665101Y16823200D01*
X22623683Y16833574D01*
X22583470Y16847964D01*
X22544864Y16866222D01*
X22508237Y16888176D01*
X22473931Y16913619D01*
X22442293Y16942293D01*
X22413619Y16973931D01*
X22388176Y17008237D01*
X22366222Y17044864D01*
X22347964Y17083470D01*
X22333574Y17123683D01*
X22323200Y17165101D01*
X22316933Y17207352D01*
X22314836Y17250000D01*
X22316933Y17292648D01*
X22323200Y17334899D01*
X22333574Y17376317D01*
X22347964Y17416530D01*
X22366222Y17455136D01*
X22388176Y17491763D01*
X22413619Y17526069D01*
X22442293Y17557707D01*
X22473931Y17586381D01*
X22508237Y17611824D01*
X22544864Y17633778D01*
X22583470Y17652036D01*
X22623683Y17666426D01*
X22665101Y17676800D01*
X22707352Y17683067D01*
X22750000Y17685164D01*
X22792648Y17683067D01*
X22834899Y17676800D01*
X22876317Y17666426D01*
X22916530Y17652036D01*
X22955136Y17633778D01*
X22991763Y17611824D01*
X23026069Y17586381D01*
X23057707Y17557707D01*
X23086381Y17526069D01*
X23111824Y17491763D01*
X23133778Y17455136D01*
X23152036Y17416530D01*
X23166426Y17376317D01*
X23176800Y17334899D01*
X23183067Y17292648D01*
X23185164Y17250000D01*
X23183067Y17207352D01*
X23176800Y17165101D01*
X23166426Y17123683D01*
X23152036Y17083470D01*
X23133778Y17044864D01*
X23111824Y17008237D01*
X23086381Y16973931D01*
X23057707Y16942293D01*
X23026069Y16913619D01*
X22991763Y16888176D01*
X22955136Y16866222D01*
X22916530Y16847964D01*
X22876317Y16833574D01*
X22834899Y16823200D01*
X22792648Y16816933D01*
X22750000Y16814836D01*
D02*
G37*
%LPC*%
G36*
X18000000Y14564836D02*
X17957352Y14566933D01*
X17915101Y14573200D01*
X17873683Y14583574D01*
X17833470Y14597964D01*
X17794864Y14616222D01*
X17758237Y14638176D01*
X17723931Y14663619D01*
X17692293Y14692293D01*
X17663619Y14723931D01*
X17638176Y14758237D01*
X17616222Y14794864D01*
X17597964Y14833470D01*
X17583574Y14873683D01*
X17573200Y14915101D01*
X17566933Y14957352D01*
X17564836Y15000000D01*
X17566933Y15042648D01*
X17573200Y15084899D01*
X17583574Y15126317D01*
X17597964Y15166530D01*
X17616222Y15205136D01*
X17638176Y15241763D01*
X17663619Y15276069D01*
X17692293Y15307707D01*
X17723931Y15336381D01*
X17758237Y15361824D01*
X17794864Y15383778D01*
X17833470Y15402036D01*
X17873683Y15416426D01*
X17915101Y15426800D01*
X17957352Y15433067D01*
X18000000Y15435164D01*
X18042648Y15433067D01*
X18084899Y15426800D01*
X18126317Y15416426D01*
X18166530Y15402036D01*
X18205136Y15383778D01*
X18241763Y15361824D01*
X18276069Y15336381D01*
X18307707Y15307707D01*
X18336381Y15276069D01*
X18361824Y15241763D01*
X18383778Y15205136D01*
X18402036Y15166530D01*
X18416426Y15126317D01*
X18426800Y15084899D01*
X18433067Y15042648D01*
X18435164Y15000000D01*
X18433067Y14957352D01*
X18426800Y14915101D01*
X18416426Y14873683D01*
X18402036Y14833470D01*
X18383778Y14794864D01*
X18361824Y14758237D01*
X18336381Y14723931D01*
X18307707Y14692293D01*
X18276069Y14663619D01*
X18241763Y14638176D01*
X18205136Y14616222D01*
X18166530Y14597964D01*
X18126317Y14583574D01*
X18084899Y14573200D01*
X18042648Y14566933D01*
X18000000Y14564836D01*
D02*
G37*
%LPD*%
G36*
X70250000Y4750000D02*
X70250000Y5389994D01*
X70192288Y5442298D01*
X70163619Y5473931D01*
X70138176Y5508237D01*
X70116222Y5544864D01*
X70097964Y5583470D01*
X70083574Y5623683D01*
X70073200Y5665101D01*
X70066933Y5707352D01*
X70064836Y5750000D01*
X70066933Y5792648D01*
X70073200Y5834899D01*
X70083574Y5876317D01*
X70097964Y5916530D01*
X70116222Y5955136D01*
X70138176Y5991763D01*
X70163619Y6026069D01*
X70192288Y6057702D01*
X70250000Y6110006D01*
X70250000Y8276301D01*
X70222965Y8333465D01*
X70208574Y8373683D01*
X70198200Y8415101D01*
X70191933Y8457352D01*
X70189836Y8500000D01*
X70191933Y8542648D01*
X70198200Y8584899D01*
X70208574Y8626317D01*
X70222964Y8666530D01*
X70241222Y8705136D01*
X70263176Y8741763D01*
X70288619Y8776069D01*
X70317293Y8807707D01*
X70348931Y8836381D01*
X70383237Y8861824D01*
X70419864Y8883778D01*
X70458470Y8902036D01*
X70498683Y8916426D01*
X70540101Y8926800D01*
X70582352Y8933067D01*
X70625000Y8935164D01*
X70667648Y8933067D01*
X70709899Y8926800D01*
X70751317Y8916426D01*
X70791530Y8902036D01*
X70830136Y8883778D01*
X70898578Y8842754D01*
X71000000Y8900207D01*
X71000000Y9963826D01*
X70871976Y10013208D01*
X70807702Y9942288D01*
X70776069Y9913619D01*
X70741763Y9888176D01*
X70705136Y9866222D01*
X70666530Y9847964D01*
X70626317Y9833574D01*
X70584899Y9823200D01*
X70542648Y9816933D01*
X70500000Y9814836D01*
X70457352Y9816933D01*
X70415101Y9823200D01*
X70373683Y9833574D01*
X70333470Y9847964D01*
X70294864Y9866222D01*
X70258237Y9888176D01*
X70223931Y9913619D01*
X70192293Y9942293D01*
X70163619Y9973931D01*
X70138176Y10008237D01*
X70116222Y10044864D01*
X70097964Y10083470D01*
X70083574Y10123683D01*
X70073200Y10165101D01*
X70066933Y10207352D01*
X70064836Y10250000D01*
X70066933Y10292648D01*
X70073200Y10334899D01*
X70083574Y10376317D01*
X70097964Y10416530D01*
X70116222Y10455136D01*
X70138176Y10491763D01*
X70163619Y10526069D01*
X70192293Y10557707D01*
X70223931Y10586381D01*
X70258237Y10611824D01*
X70294864Y10633778D01*
X70333470Y10652036D01*
X70373683Y10666426D01*
X70415101Y10676800D01*
X70457352Y10683067D01*
X70500000Y10685164D01*
X70542648Y10683067D01*
X70584899Y10676800D01*
X70626317Y10666426D01*
X70666530Y10652036D01*
X70705136Y10633778D01*
X70741763Y10611824D01*
X70776069Y10586381D01*
X70807702Y10557712D01*
X70871976Y10486792D01*
X71000000Y10536174D01*
X71000000Y11713826D01*
X70871976Y11763208D01*
X70807702Y11692288D01*
X70776069Y11663619D01*
X70741763Y11638176D01*
X70705136Y11616222D01*
X70666530Y11597964D01*
X70626317Y11583574D01*
X70584899Y11573200D01*
X70542648Y11566933D01*
X70500000Y11564836D01*
X70457352Y11566933D01*
X70415101Y11573200D01*
X70373683Y11583574D01*
X70333470Y11597964D01*
X70294864Y11616222D01*
X70258237Y11638176D01*
X70223931Y11663619D01*
X70192293Y11692293D01*
X70163619Y11723931D01*
X70138176Y11758237D01*
X70116222Y11794864D01*
X70097964Y11833470D01*
X70083574Y11873683D01*
X70073200Y11915101D01*
X70066933Y11957352D01*
X70064836Y12000000D01*
X70066933Y12042648D01*
X70073200Y12084899D01*
X70083574Y12126317D01*
X70097964Y12166530D01*
X70116222Y12205136D01*
X70138176Y12241763D01*
X70163619Y12276069D01*
X70192293Y12307707D01*
X70223931Y12336381D01*
X70258237Y12361824D01*
X70294864Y12383778D01*
X70333470Y12402036D01*
X70373683Y12416426D01*
X70415101Y12426800D01*
X70457352Y12433067D01*
X70500000Y12435164D01*
X70542648Y12433067D01*
X70584899Y12426800D01*
X70626317Y12416426D01*
X70666530Y12402036D01*
X70705136Y12383778D01*
X70741763Y12361824D01*
X70776069Y12336381D01*
X70807702Y12307712D01*
X70871976Y12236792D01*
X71000000Y12286174D01*
X71000000Y13000000D01*
X83114555Y13000000D01*
X83073200Y13165101D01*
X83066933Y13207352D01*
X83064836Y13250000D01*
X83066933Y13292648D01*
X83073200Y13334899D01*
X83083574Y13376317D01*
X83097964Y13416530D01*
X83116222Y13455136D01*
X83138176Y13491763D01*
X83163619Y13526069D01*
X83192293Y13557707D01*
X83223931Y13586381D01*
X83258237Y13611824D01*
X83294864Y13633778D01*
X83333470Y13652036D01*
X83373683Y13666426D01*
X83415101Y13676800D01*
X83457352Y13683067D01*
X83500000Y13685164D01*
X83542648Y13683067D01*
X83584899Y13676800D01*
X83626317Y13666426D01*
X83666530Y13652036D01*
X83705136Y13633778D01*
X83741763Y13611824D01*
X83776069Y13586381D01*
X83807707Y13557707D01*
X83836381Y13526069D01*
X83861824Y13491763D01*
X83883778Y13455136D01*
X83902036Y13416530D01*
X83916426Y13376317D01*
X83926800Y13334899D01*
X83933067Y13292648D01*
X83935164Y13250000D01*
X83933067Y13207352D01*
X83926800Y13165101D01*
X83885445Y13000000D01*
X84750000Y13000000D01*
X84750000Y17500000D01*
X82750000Y17500000D01*
X82750000Y14750000D01*
X70750000Y14750000D01*
X70750000Y16250000D01*
X69000000Y16250000D01*
X69000000Y14000000D01*
X66000000Y14000000D01*
X66000000Y11250000D01*
X67000000Y11250000D01*
X67000000Y9750000D01*
X66000000Y9750000D01*
X66000000Y7750000D01*
X69000000Y7750000D01*
X69000000Y4860006D01*
X69057707Y4807707D01*
X69110006Y4750000D01*
X70250000Y4750000D01*
D02*
G37*
%LPC*%
G36*
X69745000Y14164836D02*
X69712148Y14166452D01*
X69679621Y14171275D01*
X69647708Y14179269D01*
X69616740Y14190351D01*
X69587002Y14204415D01*
X69558793Y14221324D01*
X69532383Y14240910D01*
X69508005Y14263005D01*
X69485910Y14287383D01*
X69466324Y14313793D01*
X69449415Y14342002D01*
X69435351Y14371740D01*
X69424269Y14402708D01*
X69416275Y14434621D01*
X69411452Y14467148D01*
X69409836Y14500000D01*
X69411452Y14532852D01*
X69416275Y14565379D01*
X69424269Y14597292D01*
X69435351Y14628260D01*
X69449415Y14657998D01*
X69466324Y14686207D01*
X69485910Y14712617D01*
X69508005Y14736995D01*
X69532383Y14759090D01*
X69558793Y14778676D01*
X69587002Y14795585D01*
X69616740Y14809649D01*
X69647708Y14820731D01*
X69679621Y14828725D01*
X69712148Y14833548D01*
X69745000Y14835164D01*
X69777852Y14833548D01*
X69810379Y14828725D01*
X69842292Y14820731D01*
X69873260Y14809649D01*
X69902998Y14795585D01*
X69931207Y14778676D01*
X69957617Y14759090D01*
X69981995Y14736995D01*
X70004090Y14712617D01*
X70023676Y14686207D01*
X70040585Y14657998D01*
X70054649Y14628260D01*
X70065731Y14597292D01*
X70073725Y14565379D01*
X70078548Y14532852D01*
X70080164Y14500000D01*
X70078548Y14467148D01*
X70073725Y14434621D01*
X70065731Y14402708D01*
X70054649Y14371740D01*
X70040585Y14342002D01*
X70023676Y14313793D01*
X70004090Y14287383D01*
X69981995Y14263005D01*
X69957617Y14240910D01*
X69931207Y14221324D01*
X69902998Y14204415D01*
X69873260Y14190351D01*
X69842292Y14179269D01*
X69810379Y14171275D01*
X69777852Y14166452D01*
X69745000Y14164836D01*
D02*
G37*
%LPC*%
G36*
X81500000Y13564836D02*
X81457352Y13566933D01*
X81415101Y13573200D01*
X81373683Y13583574D01*
X81333470Y13597964D01*
X81294864Y13616222D01*
X81258237Y13638176D01*
X81223931Y13663619D01*
X81192293Y13692293D01*
X81163619Y13723931D01*
X81138176Y13758237D01*
X81116222Y13794864D01*
X81097964Y13833470D01*
X81083574Y13873683D01*
X81073200Y13915101D01*
X81066933Y13957352D01*
X81064836Y14000000D01*
X81066933Y14042648D01*
X81073200Y14084899D01*
X81083574Y14126317D01*
X81097964Y14166530D01*
X81116222Y14205136D01*
X81138176Y14241763D01*
X81163619Y14276069D01*
X81192293Y14307707D01*
X81223931Y14336381D01*
X81258237Y14361824D01*
X81294864Y14383778D01*
X81333470Y14402036D01*
X81373683Y14416426D01*
X81415101Y14426800D01*
X81457352Y14433067D01*
X81500000Y14435164D01*
X81542648Y14433067D01*
X81584899Y14426800D01*
X81626317Y14416426D01*
X81666530Y14402036D01*
X81705136Y14383778D01*
X81741763Y14361824D01*
X81776069Y14336381D01*
X81807707Y14307707D01*
X81836381Y14276069D01*
X81861824Y14241763D01*
X81883778Y14205136D01*
X81902036Y14166530D01*
X81916426Y14126317D01*
X81926800Y14084899D01*
X81933067Y14042648D01*
X81935164Y14000000D01*
X81933067Y13957352D01*
X81926800Y13915101D01*
X81916426Y13873683D01*
X81902036Y13833470D01*
X81883778Y13794864D01*
X81861824Y13758237D01*
X81836381Y13723931D01*
X81807707Y13692293D01*
X81776069Y13663619D01*
X81741763Y13638176D01*
X81705136Y13616222D01*
X81666530Y13597964D01*
X81626317Y13583574D01*
X81584899Y13573200D01*
X81542648Y13566933D01*
X81500000Y13564836D01*
D02*
G37*
%LPC*%
G36*
X78500000Y13564836D02*
X78457352Y13566933D01*
X78415101Y13573200D01*
X78373683Y13583574D01*
X78333470Y13597964D01*
X78294864Y13616222D01*
X78258237Y13638176D01*
X78223931Y13663619D01*
X78192293Y13692293D01*
X78163619Y13723931D01*
X78138176Y13758237D01*
X78116222Y13794864D01*
X78097964Y13833470D01*
X78083574Y13873683D01*
X78073200Y13915101D01*
X78066933Y13957352D01*
X78064836Y14000000D01*
X78066933Y14042648D01*
X78073200Y14084899D01*
X78083574Y14126317D01*
X78097964Y14166530D01*
X78116222Y14205136D01*
X78138176Y14241763D01*
X78163619Y14276069D01*
X78192293Y14307707D01*
X78223931Y14336381D01*
X78258237Y14361824D01*
X78294864Y14383778D01*
X78333470Y14402036D01*
X78373683Y14416426D01*
X78415101Y14426800D01*
X78457352Y14433067D01*
X78500000Y14435164D01*
X78542648Y14433067D01*
X78584899Y14426800D01*
X78626317Y14416426D01*
X78666530Y14402036D01*
X78705136Y14383778D01*
X78741763Y14361824D01*
X78776069Y14336381D01*
X78807707Y14307707D01*
X78836381Y14276069D01*
X78861824Y14241763D01*
X78883778Y14205136D01*
X78902036Y14166530D01*
X78916426Y14126317D01*
X78926800Y14084899D01*
X78933067Y14042648D01*
X78935164Y14000000D01*
X78933067Y13957352D01*
X78926800Y13915101D01*
X78916426Y13873683D01*
X78902036Y13833470D01*
X78883778Y13794864D01*
X78861824Y13758237D01*
X78836381Y13723931D01*
X78807707Y13692293D01*
X78776069Y13663619D01*
X78741763Y13638176D01*
X78705136Y13616222D01*
X78666530Y13597964D01*
X78626317Y13583574D01*
X78584899Y13573200D01*
X78542648Y13566933D01*
X78500000Y13564836D01*
D02*
G37*
%LPC*%
G36*
X68750000Y11564836D02*
X68707352Y11566933D01*
X68665101Y11573200D01*
X68623683Y11583574D01*
X68583470Y11597964D01*
X68544864Y11616222D01*
X68508237Y11638176D01*
X68473931Y11663619D01*
X68442293Y11692293D01*
X68413619Y11723931D01*
X68388176Y11758237D01*
X68366222Y11794864D01*
X68347964Y11833470D01*
X68333574Y11873683D01*
X68323200Y11915101D01*
X68316933Y11957352D01*
X68314836Y12000000D01*
X68316933Y12042648D01*
X68323200Y12084899D01*
X68333574Y12126317D01*
X68347964Y12166530D01*
X68366222Y12205136D01*
X68388176Y12241763D01*
X68413619Y12276069D01*
X68442293Y12307707D01*
X68473931Y12336381D01*
X68508237Y12361824D01*
X68544864Y12383778D01*
X68583470Y12402036D01*
X68623683Y12416426D01*
X68665101Y12426800D01*
X68707352Y12433067D01*
X68750000Y12435164D01*
X68792648Y12433067D01*
X68834899Y12426800D01*
X68876317Y12416426D01*
X68916530Y12402036D01*
X68955136Y12383778D01*
X68991763Y12361824D01*
X69026069Y12336381D01*
X69057707Y12307707D01*
X69086381Y12276069D01*
X69111824Y12241763D01*
X69133778Y12205136D01*
X69152036Y12166530D01*
X69166426Y12126317D01*
X69176800Y12084899D01*
X69183067Y12042648D01*
X69185164Y12000000D01*
X69183067Y11957352D01*
X69176800Y11915101D01*
X69166426Y11873683D01*
X69152036Y11833470D01*
X69133778Y11794864D01*
X69111824Y11758237D01*
X69086381Y11723931D01*
X69057707Y11692293D01*
X69026069Y11663619D01*
X68991763Y11638176D01*
X68955136Y11616222D01*
X68916530Y11597964D01*
X68876317Y11583574D01*
X68834899Y11573200D01*
X68792648Y11566933D01*
X68750000Y11564836D01*
D02*
G37*
%LPC*%
G36*
X68750000Y9814836D02*
X68707352Y9816933D01*
X68665101Y9823200D01*
X68623683Y9833574D01*
X68583470Y9847964D01*
X68544864Y9866222D01*
X68508237Y9888176D01*
X68473931Y9913619D01*
X68442293Y9942293D01*
X68413619Y9973931D01*
X68388176Y10008237D01*
X68366222Y10044864D01*
X68347964Y10083470D01*
X68333574Y10123683D01*
X68323200Y10165101D01*
X68316933Y10207352D01*
X68314836Y10250000D01*
X68316933Y10292648D01*
X68323200Y10334899D01*
X68333574Y10376317D01*
X68347964Y10416530D01*
X68366222Y10455136D01*
X68388176Y10491763D01*
X68413619Y10526069D01*
X68442293Y10557707D01*
X68473931Y10586381D01*
X68508237Y10611824D01*
X68544864Y10633778D01*
X68583470Y10652036D01*
X68623683Y10666426D01*
X68665101Y10676800D01*
X68707352Y10683067D01*
X68750000Y10685164D01*
X68792648Y10683067D01*
X68834899Y10676800D01*
X68876317Y10666426D01*
X68916530Y10652036D01*
X68955136Y10633778D01*
X68991763Y10611824D01*
X69026069Y10586381D01*
X69057707Y10557707D01*
X69086381Y10526069D01*
X69111824Y10491763D01*
X69133778Y10455136D01*
X69152036Y10416530D01*
X69166426Y10376317D01*
X69176800Y10334899D01*
X69183067Y10292648D01*
X69185164Y10250000D01*
X69183067Y10207352D01*
X69176800Y10165101D01*
X69166426Y10123683D01*
X69152036Y10083470D01*
X69133778Y10044864D01*
X69111824Y10008237D01*
X69086381Y9973931D01*
X69057707Y9942293D01*
X69026069Y9913619D01*
X68991763Y9888176D01*
X68955136Y9866222D01*
X68916530Y9847964D01*
X68876317Y9833574D01*
X68834899Y9823200D01*
X68792648Y9816933D01*
X68750000Y9814836D01*
D02*
G37*
%LPC*%
G36*
X68750000Y8064836D02*
X68707352Y8066933D01*
X68665101Y8073200D01*
X68623683Y8083574D01*
X68583470Y8097964D01*
X68544864Y8116222D01*
X68508237Y8138176D01*
X68473931Y8163619D01*
X68442293Y8192293D01*
X68413619Y8223931D01*
X68388176Y8258237D01*
X68366222Y8294864D01*
X68347964Y8333470D01*
X68333574Y8373683D01*
X68323200Y8415101D01*
X68316933Y8457352D01*
X68314836Y8500000D01*
X68316933Y8542648D01*
X68323200Y8584899D01*
X68333574Y8626317D01*
X68347964Y8666530D01*
X68366222Y8705136D01*
X68388176Y8741763D01*
X68413619Y8776069D01*
X68442293Y8807707D01*
X68473931Y8836381D01*
X68508237Y8861824D01*
X68544864Y8883778D01*
X68583470Y8902036D01*
X68623683Y8916426D01*
X68665101Y8926800D01*
X68707352Y8933067D01*
X68750000Y8935164D01*
X68792648Y8933067D01*
X68834899Y8926800D01*
X68876317Y8916426D01*
X68916530Y8902036D01*
X68955136Y8883778D01*
X68991763Y8861824D01*
X69026069Y8836381D01*
X69057707Y8807707D01*
X69086381Y8776069D01*
X69111824Y8741763D01*
X69133778Y8705136D01*
X69152036Y8666530D01*
X69166426Y8626317D01*
X69176800Y8584899D01*
X69183067Y8542648D01*
X69185164Y8500000D01*
X69183067Y8457352D01*
X69176800Y8415101D01*
X69166426Y8373683D01*
X69152036Y8333470D01*
X69133778Y8294864D01*
X69111824Y8258237D01*
X69086381Y8223931D01*
X69057707Y8192293D01*
X69026069Y8163619D01*
X68991763Y8138176D01*
X68955136Y8116222D01*
X68916530Y8097964D01*
X68876317Y8083574D01*
X68834899Y8073200D01*
X68792648Y8066933D01*
X68750000Y8064836D01*
D02*
G37*
%LPD*%
G36*
X20250000Y4750000D02*
X20250000Y5389994D01*
X20192288Y5442298D01*
X20163619Y5473931D01*
X20138176Y5508237D01*
X20116222Y5544864D01*
X20097964Y5583470D01*
X20083574Y5623683D01*
X20073200Y5665101D01*
X20066933Y5707352D01*
X20064836Y5750000D01*
X20066933Y5792648D01*
X20073200Y5834899D01*
X20083574Y5876317D01*
X20097964Y5916530D01*
X20116222Y5955136D01*
X20138176Y5991763D01*
X20163619Y6026069D01*
X20192288Y6057702D01*
X20250000Y6110006D01*
X20250000Y8276301D01*
X20222965Y8333465D01*
X20208574Y8373683D01*
X20198200Y8415101D01*
X20191933Y8457352D01*
X20189836Y8500000D01*
X20191933Y8542648D01*
X20198200Y8584899D01*
X20208574Y8626317D01*
X20222964Y8666530D01*
X20241222Y8705136D01*
X20263176Y8741763D01*
X20288619Y8776069D01*
X20317293Y8807707D01*
X20348931Y8836381D01*
X20383237Y8861824D01*
X20419864Y8883778D01*
X20458470Y8902036D01*
X20498683Y8916426D01*
X20540101Y8926800D01*
X20582352Y8933067D01*
X20625000Y8935164D01*
X20667648Y8933067D01*
X20709899Y8926800D01*
X20751317Y8916426D01*
X20791530Y8902036D01*
X20830136Y8883778D01*
X20898578Y8842754D01*
X21000000Y8900207D01*
X21000000Y9963826D01*
X20871976Y10013208D01*
X20807702Y9942288D01*
X20776069Y9913619D01*
X20741763Y9888176D01*
X20705136Y9866222D01*
X20666530Y9847964D01*
X20626317Y9833574D01*
X20584899Y9823200D01*
X20542648Y9816933D01*
X20500000Y9814836D01*
X20457352Y9816933D01*
X20415101Y9823200D01*
X20373683Y9833574D01*
X20333470Y9847964D01*
X20294864Y9866222D01*
X20258237Y9888176D01*
X20223931Y9913619D01*
X20192293Y9942293D01*
X20163619Y9973931D01*
X20138176Y10008237D01*
X20116222Y10044864D01*
X20097964Y10083470D01*
X20083574Y10123683D01*
X20073200Y10165101D01*
X20066933Y10207352D01*
X20064836Y10250000D01*
X20066933Y10292648D01*
X20073200Y10334899D01*
X20083574Y10376317D01*
X20097964Y10416530D01*
X20116222Y10455136D01*
X20138176Y10491763D01*
X20163619Y10526069D01*
X20192293Y10557707D01*
X20223931Y10586381D01*
X20258237Y10611824D01*
X20294864Y10633778D01*
X20333470Y10652036D01*
X20373683Y10666426D01*
X20415101Y10676800D01*
X20457352Y10683067D01*
X20500000Y10685164D01*
X20542648Y10683067D01*
X20584899Y10676800D01*
X20626317Y10666426D01*
X20666530Y10652036D01*
X20705136Y10633778D01*
X20741763Y10611824D01*
X20776069Y10586381D01*
X20807702Y10557712D01*
X20871976Y10486792D01*
X21000000Y10536174D01*
X21000000Y11713826D01*
X20871976Y11763208D01*
X20807702Y11692288D01*
X20776069Y11663619D01*
X20741763Y11638176D01*
X20705136Y11616222D01*
X20666530Y11597964D01*
X20626317Y11583574D01*
X20584899Y11573200D01*
X20542648Y11566933D01*
X20500000Y11564836D01*
X20457352Y11566933D01*
X20415101Y11573200D01*
X20373683Y11583574D01*
X20333470Y11597964D01*
X20294864Y11616222D01*
X20258237Y11638176D01*
X20223931Y11663619D01*
X20192293Y11692293D01*
X20163619Y11723931D01*
X20138176Y11758237D01*
X20116222Y11794864D01*
X20097964Y11833470D01*
X20083574Y11873683D01*
X20073200Y11915101D01*
X20066933Y11957352D01*
X20064836Y12000000D01*
X20066933Y12042648D01*
X20073200Y12084899D01*
X20083574Y12126317D01*
X20097964Y12166530D01*
X20116222Y12205136D01*
X20138176Y12241763D01*
X20163619Y12276069D01*
X20192293Y12307707D01*
X20223931Y12336381D01*
X20258237Y12361824D01*
X20294864Y12383778D01*
X20333470Y12402036D01*
X20373683Y12416426D01*
X20415101Y12426800D01*
X20457352Y12433067D01*
X20500000Y12435164D01*
X20542648Y12433067D01*
X20584899Y12426800D01*
X20626317Y12416426D01*
X20666530Y12402036D01*
X20705136Y12383778D01*
X20741763Y12361824D01*
X20776069Y12336381D01*
X20807702Y12307712D01*
X20871976Y12236792D01*
X21000000Y12286174D01*
X21000000Y13000000D01*
X33114555Y13000000D01*
X33073200Y13165101D01*
X33066933Y13207352D01*
X33064836Y13250000D01*
X33066933Y13292648D01*
X33073200Y13334899D01*
X33083574Y13376317D01*
X33097964Y13416530D01*
X33116222Y13455136D01*
X33138176Y13491763D01*
X33163619Y13526069D01*
X33192293Y13557707D01*
X33223931Y13586381D01*
X33258237Y13611824D01*
X33294864Y13633778D01*
X33333470Y13652036D01*
X33373683Y13666426D01*
X33415101Y13676800D01*
X33457352Y13683067D01*
X33500000Y13685164D01*
X33542648Y13683067D01*
X33584899Y13676800D01*
X33626317Y13666426D01*
X33666530Y13652036D01*
X33705136Y13633778D01*
X33741763Y13611824D01*
X33776069Y13586381D01*
X33807707Y13557707D01*
X33836381Y13526069D01*
X33861824Y13491763D01*
X33883778Y13455136D01*
X33902036Y13416530D01*
X33916426Y13376317D01*
X33926800Y13334899D01*
X33933067Y13292648D01*
X33935164Y13250000D01*
X33933067Y13207352D01*
X33926800Y13165101D01*
X33885445Y13000000D01*
X34750000Y13000000D01*
X34750000Y17500000D01*
X32750000Y17500000D01*
X32750000Y14750000D01*
X20750000Y14750000D01*
X20750000Y16250000D01*
X19000000Y16250000D01*
X19000000Y14000000D01*
X16000000Y14000000D01*
X16000000Y11250000D01*
X17000000Y11250000D01*
X17000000Y9750000D01*
X16000000Y9750000D01*
X16000000Y7750000D01*
X19000000Y7750000D01*
X19000000Y4860006D01*
X19057707Y4807707D01*
X19110006Y4750000D01*
X20250000Y4750000D01*
D02*
G37*
%LPC*%
G36*
X19745000Y14164836D02*
X19712148Y14166452D01*
X19679621Y14171275D01*
X19647708Y14179269D01*
X19616740Y14190351D01*
X19587002Y14204415D01*
X19558793Y14221324D01*
X19532383Y14240910D01*
X19508005Y14263005D01*
X19485910Y14287383D01*
X19466324Y14313793D01*
X19449415Y14342002D01*
X19435351Y14371740D01*
X19424269Y14402708D01*
X19416275Y14434621D01*
X19411452Y14467148D01*
X19409836Y14500000D01*
X19411452Y14532852D01*
X19416275Y14565379D01*
X19424269Y14597292D01*
X19435351Y14628260D01*
X19449415Y14657998D01*
X19466324Y14686207D01*
X19485910Y14712617D01*
X19508005Y14736995D01*
X19532383Y14759090D01*
X19558793Y14778676D01*
X19587002Y14795585D01*
X19616740Y14809649D01*
X19647708Y14820731D01*
X19679621Y14828725D01*
X19712148Y14833548D01*
X19745000Y14835164D01*
X19777852Y14833548D01*
X19810379Y14828725D01*
X19842292Y14820731D01*
X19873260Y14809649D01*
X19902998Y14795585D01*
X19931207Y14778676D01*
X19957617Y14759090D01*
X19981995Y14736995D01*
X20004090Y14712617D01*
X20023676Y14686207D01*
X20040585Y14657998D01*
X20054649Y14628260D01*
X20065731Y14597292D01*
X20073725Y14565379D01*
X20078548Y14532852D01*
X20080164Y14500000D01*
X20078548Y14467148D01*
X20073725Y14434621D01*
X20065731Y14402708D01*
X20054649Y14371740D01*
X20040585Y14342002D01*
X20023676Y14313793D01*
X20004090Y14287383D01*
X19981995Y14263005D01*
X19957617Y14240910D01*
X19931207Y14221324D01*
X19902998Y14204415D01*
X19873260Y14190351D01*
X19842292Y14179269D01*
X19810379Y14171275D01*
X19777852Y14166452D01*
X19745000Y14164836D01*
D02*
G37*
%LPC*%
G36*
X31500000Y13564836D02*
X31457352Y13566933D01*
X31415101Y13573200D01*
X31373683Y13583574D01*
X31333470Y13597964D01*
X31294864Y13616222D01*
X31258237Y13638176D01*
X31223931Y13663619D01*
X31192293Y13692293D01*
X31163619Y13723931D01*
X31138176Y13758237D01*
X31116222Y13794864D01*
X31097964Y13833470D01*
X31083574Y13873683D01*
X31073200Y13915101D01*
X31066933Y13957352D01*
X31064836Y14000000D01*
X31066933Y14042648D01*
X31073200Y14084899D01*
X31083574Y14126317D01*
X31097964Y14166530D01*
X31116222Y14205136D01*
X31138176Y14241763D01*
X31163619Y14276069D01*
X31192293Y14307707D01*
X31223931Y14336381D01*
X31258237Y14361824D01*
X31294864Y14383778D01*
X31333470Y14402036D01*
X31373683Y14416426D01*
X31415101Y14426800D01*
X31457352Y14433067D01*
X31500000Y14435164D01*
X31542648Y14433067D01*
X31584899Y14426800D01*
X31626317Y14416426D01*
X31666530Y14402036D01*
X31705136Y14383778D01*
X31741763Y14361824D01*
X31776069Y14336381D01*
X31807707Y14307707D01*
X31836381Y14276069D01*
X31861824Y14241763D01*
X31883778Y14205136D01*
X31902036Y14166530D01*
X31916426Y14126317D01*
X31926800Y14084899D01*
X31933067Y14042648D01*
X31935164Y14000000D01*
X31933067Y13957352D01*
X31926800Y13915101D01*
X31916426Y13873683D01*
X31902036Y13833470D01*
X31883778Y13794864D01*
X31861824Y13758237D01*
X31836381Y13723931D01*
X31807707Y13692293D01*
X31776069Y13663619D01*
X31741763Y13638176D01*
X31705136Y13616222D01*
X31666530Y13597964D01*
X31626317Y13583574D01*
X31584899Y13573200D01*
X31542648Y13566933D01*
X31500000Y13564836D01*
D02*
G37*
%LPC*%
G36*
X28500000Y13564836D02*
X28457352Y13566933D01*
X28415101Y13573200D01*
X28373683Y13583574D01*
X28333470Y13597964D01*
X28294864Y13616222D01*
X28258237Y13638176D01*
X28223931Y13663619D01*
X28192293Y13692293D01*
X28163619Y13723931D01*
X28138176Y13758237D01*
X28116222Y13794864D01*
X28097964Y13833470D01*
X28083574Y13873683D01*
X28073200Y13915101D01*
X28066933Y13957352D01*
X28064836Y14000000D01*
X28066933Y14042648D01*
X28073200Y14084899D01*
X28083574Y14126317D01*
X28097964Y14166530D01*
X28116222Y14205136D01*
X28138176Y14241763D01*
X28163619Y14276069D01*
X28192293Y14307707D01*
X28223931Y14336381D01*
X28258237Y14361824D01*
X28294864Y14383778D01*
X28333470Y14402036D01*
X28373683Y14416426D01*
X28415101Y14426800D01*
X28457352Y14433067D01*
X28500000Y14435164D01*
X28542648Y14433067D01*
X28584899Y14426800D01*
X28626317Y14416426D01*
X28666530Y14402036D01*
X28705136Y14383778D01*
X28741763Y14361824D01*
X28776069Y14336381D01*
X28807707Y14307707D01*
X28836381Y14276069D01*
X28861824Y14241763D01*
X28883778Y14205136D01*
X28902036Y14166530D01*
X28916426Y14126317D01*
X28926800Y14084899D01*
X28933067Y14042648D01*
X28935164Y14000000D01*
X28933067Y13957352D01*
X28926800Y13915101D01*
X28916426Y13873683D01*
X28902036Y13833470D01*
X28883778Y13794864D01*
X28861824Y13758237D01*
X28836381Y13723931D01*
X28807707Y13692293D01*
X28776069Y13663619D01*
X28741763Y13638176D01*
X28705136Y13616222D01*
X28666530Y13597964D01*
X28626317Y13583574D01*
X28584899Y13573200D01*
X28542648Y13566933D01*
X28500000Y13564836D01*
D02*
G37*
%LPC*%
G36*
X18750000Y11564836D02*
X18707352Y11566933D01*
X18665101Y11573200D01*
X18623683Y11583574D01*
X18583470Y11597964D01*
X18544864Y11616222D01*
X18508237Y11638176D01*
X18473931Y11663619D01*
X18442293Y11692293D01*
X18413619Y11723931D01*
X18388176Y11758237D01*
X18366222Y11794864D01*
X18347964Y11833470D01*
X18333574Y11873683D01*
X18323200Y11915101D01*
X18316933Y11957352D01*
X18314836Y12000000D01*
X18316933Y12042648D01*
X18323200Y12084899D01*
X18333574Y12126317D01*
X18347964Y12166530D01*
X18366222Y12205136D01*
X18388176Y12241763D01*
X18413619Y12276069D01*
X18442293Y12307707D01*
X18473931Y12336381D01*
X18508237Y12361824D01*
X18544864Y12383778D01*
X18583470Y12402036D01*
X18623683Y12416426D01*
X18665101Y12426800D01*
X18707352Y12433067D01*
X18750000Y12435164D01*
X18792648Y12433067D01*
X18834899Y12426800D01*
X18876317Y12416426D01*
X18916530Y12402036D01*
X18955136Y12383778D01*
X18991763Y12361824D01*
X19026069Y12336381D01*
X19057707Y12307707D01*
X19086381Y12276069D01*
X19111824Y12241763D01*
X19133778Y12205136D01*
X19152036Y12166530D01*
X19166426Y12126317D01*
X19176800Y12084899D01*
X19183067Y12042648D01*
X19185164Y12000000D01*
X19183067Y11957352D01*
X19176800Y11915101D01*
X19166426Y11873683D01*
X19152036Y11833470D01*
X19133778Y11794864D01*
X19111824Y11758237D01*
X19086381Y11723931D01*
X19057707Y11692293D01*
X19026069Y11663619D01*
X18991763Y11638176D01*
X18955136Y11616222D01*
X18916530Y11597964D01*
X18876317Y11583574D01*
X18834899Y11573200D01*
X18792648Y11566933D01*
X18750000Y11564836D01*
D02*
G37*
%LPC*%
G36*
X18750000Y9814836D02*
X18707352Y9816933D01*
X18665101Y9823200D01*
X18623683Y9833574D01*
X18583470Y9847964D01*
X18544864Y9866222D01*
X18508237Y9888176D01*
X18473931Y9913619D01*
X18442293Y9942293D01*
X18413619Y9973931D01*
X18388176Y10008237D01*
X18366222Y10044864D01*
X18347964Y10083470D01*
X18333574Y10123683D01*
X18323200Y10165101D01*
X18316933Y10207352D01*
X18314836Y10250000D01*
X18316933Y10292648D01*
X18323200Y10334899D01*
X18333574Y10376317D01*
X18347964Y10416530D01*
X18366222Y10455136D01*
X18388176Y10491763D01*
X18413619Y10526069D01*
X18442293Y10557707D01*
X18473931Y10586381D01*
X18508237Y10611824D01*
X18544864Y10633778D01*
X18583470Y10652036D01*
X18623683Y10666426D01*
X18665101Y10676800D01*
X18707352Y10683067D01*
X18750000Y10685164D01*
X18792648Y10683067D01*
X18834899Y10676800D01*
X18876317Y10666426D01*
X18916530Y10652036D01*
X18955136Y10633778D01*
X18991763Y10611824D01*
X19026069Y10586381D01*
X19057707Y10557707D01*
X19086381Y10526069D01*
X19111824Y10491763D01*
X19133778Y10455136D01*
X19152036Y10416530D01*
X19166426Y10376317D01*
X19176800Y10334899D01*
X19183067Y10292648D01*
X19185164Y10250000D01*
X19183067Y10207352D01*
X19176800Y10165101D01*
X19166426Y10123683D01*
X19152036Y10083470D01*
X19133778Y10044864D01*
X19111824Y10008237D01*
X19086381Y9973931D01*
X19057707Y9942293D01*
X19026069Y9913619D01*
X18991763Y9888176D01*
X18955136Y9866222D01*
X18916530Y9847964D01*
X18876317Y9833574D01*
X18834899Y9823200D01*
X18792648Y9816933D01*
X18750000Y9814836D01*
D02*
G37*
%LPC*%
G36*
X18750000Y8064836D02*
X18707352Y8066933D01*
X18665101Y8073200D01*
X18623683Y8083574D01*
X18583470Y8097964D01*
X18544864Y8116222D01*
X18508237Y8138176D01*
X18473931Y8163619D01*
X18442293Y8192293D01*
X18413619Y8223931D01*
X18388176Y8258237D01*
X18366222Y8294864D01*
X18347964Y8333470D01*
X18333574Y8373683D01*
X18323200Y8415101D01*
X18316933Y8457352D01*
X18314836Y8500000D01*
X18316933Y8542648D01*
X18323200Y8584899D01*
X18333574Y8626317D01*
X18347964Y8666530D01*
X18366222Y8705136D01*
X18388176Y8741763D01*
X18413619Y8776069D01*
X18442293Y8807707D01*
X18473931Y8836381D01*
X18508237Y8861824D01*
X18544864Y8883778D01*
X18583470Y8902036D01*
X18623683Y8916426D01*
X18665101Y8926800D01*
X18707352Y8933067D01*
X18750000Y8935164D01*
X18792648Y8933067D01*
X18834899Y8926800D01*
X18876317Y8916426D01*
X18916530Y8902036D01*
X18955136Y8883778D01*
X18991763Y8861824D01*
X19026069Y8836381D01*
X19057707Y8807707D01*
X19086381Y8776069D01*
X19111824Y8741763D01*
X19133778Y8705136D01*
X19152036Y8666530D01*
X19166426Y8626317D01*
X19176800Y8584899D01*
X19183067Y8542648D01*
X19185164Y8500000D01*
X19183067Y8457352D01*
X19176800Y8415101D01*
X19166426Y8373683D01*
X19152036Y8333470D01*
X19133778Y8294864D01*
X19111824Y8258237D01*
X19086381Y8223931D01*
X19057707Y8192293D01*
X19026069Y8163619D01*
X18991763Y8138176D01*
X18955136Y8116222D01*
X18916530Y8097964D01*
X18876317Y8083574D01*
X18834899Y8073200D01*
X18792648Y8066933D01*
X18750000Y8064836D01*
D02*
G37*
%LPD*%
G36*
X28750000Y-22750000D02*
X28750000Y-14500000D01*
X29750000Y-14500000D01*
X29750000Y-13000000D01*
X22500000Y-13000000D01*
X22500000Y-10250000D01*
X20500000Y-10250000D01*
X20500000Y-14250000D01*
X28250000Y-14250000D01*
X28250000Y-22250000D01*
X27500000Y-22250000D01*
X27500000Y-21525000D01*
X27000000Y-21525000D01*
X27000000Y-22250000D01*
X24500000Y-22250000D01*
X24500000Y-21500000D01*
X24000000Y-21500000D01*
X24000000Y-22750000D01*
X28750000Y-22750000D01*
D02*
G37*
%LPD*%
G36*
X78750000Y-22750000D02*
X78750000Y-14500000D01*
X79750000Y-14500000D01*
X79750000Y-13000000D01*
X72500000Y-13000000D01*
X72500000Y-10250000D01*
X70500000Y-10250000D01*
X70500000Y-14250000D01*
X78250000Y-14250000D01*
X78250000Y-22250000D01*
X77500000Y-22250000D01*
X77500000Y-21525000D01*
X77000000Y-21525000D01*
X77000000Y-22250000D01*
X74500000Y-22250000D01*
X74500000Y-21500000D01*
X74000000Y-21500000D01*
X74000000Y-22750000D01*
X78750000Y-22750000D01*
D02*
G37*
%LPD*%
G36*
X90500000Y-21250000D02*
X90500000Y-11250000D01*
X81250000Y-11250000D01*
X81250000Y-21250000D01*
X90500000Y-21250000D01*
D02*
G37*
%LPC*%
G36*
X88650000Y-12655126D02*
X88610287Y-12653175D01*
X88570960Y-12647341D01*
X88532403Y-12637683D01*
X88494961Y-12624285D01*
X88459027Y-12607291D01*
X88424924Y-12586850D01*
X88392992Y-12563167D01*
X88363532Y-12536468D01*
X88336831Y-12507006D01*
X88250000Y-12389931D01*
X88163169Y-12507006D01*
X88136468Y-12536468D01*
X88107008Y-12563167D01*
X88075076Y-12586850D01*
X88040973Y-12607291D01*
X88005039Y-12624285D01*
X87967597Y-12637683D01*
X87929040Y-12647341D01*
X87889713Y-12653175D01*
X87850000Y-12655126D01*
X87810287Y-12653175D01*
X87770960Y-12647341D01*
X87732403Y-12637683D01*
X87694961Y-12624285D01*
X87659027Y-12607291D01*
X87624924Y-12586850D01*
X87592992Y-12563167D01*
X87563532Y-12536468D01*
X87536833Y-12507008D01*
X87513150Y-12475076D01*
X87492709Y-12440973D01*
X87475715Y-12405039D01*
X87445426Y-12320395D01*
X87304574Y-12320395D01*
X87274285Y-12405039D01*
X87257291Y-12440973D01*
X87236850Y-12475076D01*
X87213167Y-12507008D01*
X87186468Y-12536468D01*
X87157008Y-12563167D01*
X87125076Y-12586850D01*
X87090973Y-12607291D01*
X87055039Y-12624285D01*
X87017597Y-12637683D01*
X86979040Y-12647341D01*
X86939713Y-12653175D01*
X86900000Y-12655126D01*
X86860287Y-12653175D01*
X86820960Y-12647341D01*
X86782403Y-12637683D01*
X86744961Y-12624285D01*
X86709027Y-12607291D01*
X86674924Y-12586850D01*
X86642992Y-12563167D01*
X86613532Y-12536468D01*
X86586831Y-12507006D01*
X86500000Y-12389931D01*
X86413169Y-12507006D01*
X86386468Y-12536468D01*
X86357008Y-12563167D01*
X86325076Y-12586850D01*
X86290973Y-12607291D01*
X86255039Y-12624285D01*
X86217597Y-12637683D01*
X86179040Y-12647341D01*
X86139713Y-12653175D01*
X86100000Y-12655126D01*
X86060287Y-12653175D01*
X86020960Y-12647341D01*
X85982403Y-12637683D01*
X85944961Y-12624285D01*
X85909027Y-12607291D01*
X85874924Y-12586850D01*
X85842992Y-12563167D01*
X85813532Y-12536468D01*
X85786833Y-12507008D01*
X85763150Y-12475076D01*
X85742709Y-12440973D01*
X85725715Y-12405039D01*
X85695426Y-12320395D01*
X85554574Y-12320395D01*
X85524285Y-12405039D01*
X85507291Y-12440973D01*
X85486850Y-12475076D01*
X85463167Y-12507008D01*
X85436468Y-12536468D01*
X85407008Y-12563167D01*
X85375076Y-12586850D01*
X85340973Y-12607291D01*
X85305039Y-12624285D01*
X85267597Y-12637683D01*
X85229040Y-12647341D01*
X85189713Y-12653175D01*
X85150000Y-12655126D01*
X85110287Y-12653175D01*
X85070960Y-12647341D01*
X85032403Y-12637683D01*
X84994961Y-12624285D01*
X84959027Y-12607291D01*
X84924924Y-12586850D01*
X84892992Y-12563167D01*
X84863532Y-12536468D01*
X84836831Y-12507006D01*
X84750000Y-12389931D01*
X84663169Y-12507006D01*
X84636468Y-12536468D01*
X84607008Y-12563167D01*
X84575076Y-12586850D01*
X84540973Y-12607291D01*
X84505039Y-12624285D01*
X84467597Y-12637683D01*
X84429040Y-12647341D01*
X84389713Y-12653175D01*
X84350000Y-12655126D01*
X84310287Y-12653175D01*
X84270960Y-12647341D01*
X84232403Y-12637683D01*
X84194961Y-12624285D01*
X84159027Y-12607291D01*
X84124924Y-12586850D01*
X84092992Y-12563167D01*
X84063532Y-12536468D01*
X84036833Y-12507008D01*
X84013150Y-12475076D01*
X83992709Y-12440973D01*
X83975715Y-12405039D01*
X83945426Y-12320395D01*
X83804574Y-12320395D01*
X83774285Y-12405039D01*
X83757291Y-12440973D01*
X83736850Y-12475076D01*
X83713167Y-12507008D01*
X83686468Y-12536468D01*
X83657008Y-12563167D01*
X83625076Y-12586850D01*
X83590973Y-12607291D01*
X83555039Y-12624285D01*
X83517597Y-12637683D01*
X83479040Y-12647341D01*
X83439713Y-12653175D01*
X83400000Y-12655126D01*
X83360287Y-12653175D01*
X83320960Y-12647341D01*
X83282403Y-12637683D01*
X83244961Y-12624285D01*
X83209027Y-12607291D01*
X83174924Y-12586850D01*
X83142992Y-12563167D01*
X83113532Y-12536468D01*
X83086831Y-12507006D01*
X83000000Y-12389931D01*
X82913169Y-12507006D01*
X82886468Y-12536468D01*
X82857008Y-12563167D01*
X82825076Y-12586850D01*
X82790973Y-12607291D01*
X82755039Y-12624285D01*
X82717597Y-12637683D01*
X82679040Y-12647341D01*
X82639713Y-12653175D01*
X82600000Y-12655126D01*
X82560287Y-12653175D01*
X82520960Y-12647341D01*
X82482403Y-12637683D01*
X82444961Y-12624285D01*
X82409027Y-12607291D01*
X82374924Y-12586850D01*
X82342992Y-12563167D01*
X82313532Y-12536468D01*
X82286833Y-12507008D01*
X82263150Y-12475076D01*
X82242709Y-12440973D01*
X82225715Y-12405039D01*
X82212317Y-12367597D01*
X82202659Y-12329040D01*
X82196825Y-12289713D01*
X82194874Y-12250000D01*
X82196825Y-12210287D01*
X82202659Y-12170960D01*
X82212317Y-12132403D01*
X82225715Y-12094961D01*
X82242709Y-12059027D01*
X82263150Y-12024924D01*
X82286833Y-11992992D01*
X82313532Y-11963532D01*
X82342992Y-11936833D01*
X82374924Y-11913150D01*
X82409027Y-11892709D01*
X82444961Y-11875715D01*
X82482403Y-11862317D01*
X82520960Y-11852659D01*
X82560287Y-11846825D01*
X82600000Y-11844874D01*
X82639713Y-11846825D01*
X82679040Y-11852659D01*
X82717597Y-11862317D01*
X82755039Y-11875715D01*
X82790973Y-11892709D01*
X82825076Y-11913150D01*
X82857008Y-11936833D01*
X82886468Y-11963532D01*
X82913169Y-11992994D01*
X83000000Y-12110069D01*
X83086831Y-11992994D01*
X83113532Y-11963532D01*
X83142992Y-11936833D01*
X83174924Y-11913150D01*
X83209027Y-11892709D01*
X83244961Y-11875715D01*
X83282403Y-11862317D01*
X83320960Y-11852659D01*
X83360287Y-11846825D01*
X83400000Y-11844874D01*
X83439713Y-11846825D01*
X83479040Y-11852659D01*
X83517597Y-11862317D01*
X83555039Y-11875715D01*
X83590973Y-11892709D01*
X83625076Y-11913150D01*
X83657008Y-11936833D01*
X83686468Y-11963532D01*
X83713167Y-11992992D01*
X83736850Y-12024924D01*
X83757291Y-12059027D01*
X83774285Y-12094961D01*
X83804574Y-12179605D01*
X83945426Y-12179605D01*
X83975715Y-12094961D01*
X83992709Y-12059027D01*
X84013150Y-12024924D01*
X84036833Y-11992992D01*
X84063532Y-11963532D01*
X84092992Y-11936833D01*
X84124924Y-11913150D01*
X84159027Y-11892709D01*
X84194961Y-11875715D01*
X84232403Y-11862317D01*
X84270960Y-11852659D01*
X84310287Y-11846825D01*
X84350000Y-11844874D01*
X84389713Y-11846825D01*
X84429040Y-11852659D01*
X84467597Y-11862317D01*
X84505039Y-11875715D01*
X84540973Y-11892709D01*
X84575076Y-11913150D01*
X84607008Y-11936833D01*
X84636468Y-11963532D01*
X84663169Y-11992994D01*
X84750000Y-12110069D01*
X84836831Y-11992994D01*
X84863532Y-11963532D01*
X84892992Y-11936833D01*
X84924924Y-11913150D01*
X84959027Y-11892709D01*
X84994961Y-11875715D01*
X85032403Y-11862317D01*
X85070960Y-11852659D01*
X85110287Y-11846825D01*
X85150000Y-11844874D01*
X85189713Y-11846825D01*
X85229040Y-11852659D01*
X85267597Y-11862317D01*
X85305039Y-11875715D01*
X85340973Y-11892709D01*
X85375076Y-11913150D01*
X85407008Y-11936833D01*
X85436468Y-11963532D01*
X85463167Y-11992992D01*
X85486850Y-12024924D01*
X85507291Y-12059027D01*
X85524285Y-12094961D01*
X85554574Y-12179605D01*
X85695426Y-12179605D01*
X85725715Y-12094961D01*
X85742709Y-12059027D01*
X85763150Y-12024924D01*
X85786833Y-11992992D01*
X85813532Y-11963532D01*
X85842992Y-11936833D01*
X85874924Y-11913150D01*
X85909027Y-11892709D01*
X85944961Y-11875715D01*
X85982403Y-11862317D01*
X86020960Y-11852659D01*
X86060287Y-11846825D01*
X86100000Y-11844874D01*
X86139713Y-11846825D01*
X86179040Y-11852659D01*
X86217597Y-11862317D01*
X86255039Y-11875715D01*
X86290973Y-11892709D01*
X86325076Y-11913150D01*
X86357008Y-11936833D01*
X86386468Y-11963532D01*
X86413169Y-11992994D01*
X86500000Y-12110069D01*
X86586831Y-11992994D01*
X86613532Y-11963532D01*
X86642992Y-11936833D01*
X86674924Y-11913150D01*
X86709027Y-11892709D01*
X86744961Y-11875715D01*
X86782403Y-11862317D01*
X86820960Y-11852659D01*
X86860287Y-11846825D01*
X86900000Y-11844874D01*
X86939713Y-11846825D01*
X86979040Y-11852659D01*
X87017597Y-11862317D01*
X87055039Y-11875715D01*
X87090973Y-11892709D01*
X87125076Y-11913150D01*
X87157008Y-11936833D01*
X87186468Y-11963532D01*
X87213167Y-11992992D01*
X87236850Y-12024924D01*
X87257291Y-12059027D01*
X87274285Y-12094961D01*
X87304574Y-12179605D01*
X87445426Y-12179605D01*
X87475715Y-12094961D01*
X87492709Y-12059027D01*
X87513150Y-12024924D01*
X87536833Y-11992992D01*
X87563532Y-11963532D01*
X87592992Y-11936833D01*
X87624924Y-11913150D01*
X87659027Y-11892709D01*
X87694961Y-11875715D01*
X87732403Y-11862317D01*
X87770960Y-11852659D01*
X87810287Y-11846825D01*
X87850000Y-11844874D01*
X87889713Y-11846825D01*
X87929040Y-11852659D01*
X87967597Y-11862317D01*
X88005039Y-11875715D01*
X88040973Y-11892709D01*
X88075076Y-11913150D01*
X88107008Y-11936833D01*
X88136468Y-11963532D01*
X88163169Y-11992994D01*
X88250000Y-12110069D01*
X88336831Y-11992994D01*
X88363532Y-11963532D01*
X88392992Y-11936833D01*
X88424924Y-11913150D01*
X88459027Y-11892709D01*
X88494961Y-11875715D01*
X88532403Y-11862317D01*
X88570960Y-11852659D01*
X88610287Y-11846825D01*
X88650000Y-11844874D01*
X88689713Y-11846825D01*
X88729040Y-11852659D01*
X88767597Y-11862317D01*
X88805039Y-11875715D01*
X88840973Y-11892709D01*
X88875076Y-11913150D01*
X88907008Y-11936833D01*
X88936468Y-11963532D01*
X88963167Y-11992992D01*
X88986850Y-12024924D01*
X89007291Y-12059027D01*
X89024285Y-12094961D01*
X89037683Y-12132403D01*
X89047341Y-12170960D01*
X89053175Y-12210287D01*
X89055126Y-12250000D01*
X89053175Y-12289713D01*
X89047341Y-12329040D01*
X89037683Y-12367597D01*
X89024285Y-12405039D01*
X89007291Y-12440973D01*
X88986850Y-12475076D01*
X88963167Y-12507008D01*
X88936468Y-12536468D01*
X88907008Y-12563167D01*
X88875076Y-12586850D01*
X88840973Y-12607291D01*
X88805039Y-12624285D01*
X88767597Y-12637683D01*
X88729040Y-12647341D01*
X88689713Y-12653175D01*
X88650000Y-12655126D01*
D02*
G37*
%LPC*%
G36*
X89250000Y-14555126D02*
X89210287Y-14553175D01*
X89170960Y-14547341D01*
X89132403Y-14537683D01*
X89094961Y-14524285D01*
X89059027Y-14507291D01*
X89024924Y-14486850D01*
X88992992Y-14463167D01*
X88963532Y-14436468D01*
X88936833Y-14407008D01*
X88913150Y-14375076D01*
X88892709Y-14340973D01*
X88875715Y-14305039D01*
X88862317Y-14267597D01*
X88852659Y-14229040D01*
X88846825Y-14189713D01*
X88844874Y-14150000D01*
X88846825Y-14110287D01*
X88852659Y-14070960D01*
X88862317Y-14032403D01*
X88875715Y-13994961D01*
X88892709Y-13959027D01*
X88913150Y-13924924D01*
X88936833Y-13892992D01*
X88963532Y-13863532D01*
X88992994Y-13836831D01*
X89110069Y-13750000D01*
X88992994Y-13663169D01*
X88963532Y-13636468D01*
X88936833Y-13607008D01*
X88913150Y-13575076D01*
X88892709Y-13540973D01*
X88875715Y-13505039D01*
X88862317Y-13467597D01*
X88852659Y-13429040D01*
X88846825Y-13389713D01*
X88844874Y-13350000D01*
X88846825Y-13310287D01*
X88852659Y-13270960D01*
X88862317Y-13232403D01*
X88875715Y-13194961D01*
X88892709Y-13159027D01*
X88913150Y-13124924D01*
X88936833Y-13092992D01*
X88963532Y-13063532D01*
X88992992Y-13036833D01*
X89024924Y-13013150D01*
X89059027Y-12992709D01*
X89094961Y-12975715D01*
X89132403Y-12962317D01*
X89170960Y-12952659D01*
X89210287Y-12946825D01*
X89250000Y-12944874D01*
X89289713Y-12946825D01*
X89329040Y-12952659D01*
X89367597Y-12962317D01*
X89405039Y-12975715D01*
X89440973Y-12992709D01*
X89475076Y-13013150D01*
X89507008Y-13036833D01*
X89536468Y-13063532D01*
X89563167Y-13092992D01*
X89586850Y-13124924D01*
X89607291Y-13159027D01*
X89624285Y-13194961D01*
X89637683Y-13232403D01*
X89647341Y-13270960D01*
X89653175Y-13310287D01*
X89655126Y-13350000D01*
X89653175Y-13389713D01*
X89647341Y-13429040D01*
X89637683Y-13467597D01*
X89624285Y-13505039D01*
X89607291Y-13540973D01*
X89586850Y-13575076D01*
X89563167Y-13607008D01*
X89536468Y-13636468D01*
X89507006Y-13663169D01*
X89389931Y-13750000D01*
X89507006Y-13836831D01*
X89536468Y-13863532D01*
X89563167Y-13892992D01*
X89586850Y-13924924D01*
X89607291Y-13959027D01*
X89624285Y-13994961D01*
X89637683Y-14032403D01*
X89647341Y-14070960D01*
X89653175Y-14110287D01*
X89655126Y-14150000D01*
X89653175Y-14189713D01*
X89647341Y-14229040D01*
X89637683Y-14267597D01*
X89624285Y-14305039D01*
X89607291Y-14340973D01*
X89586850Y-14375076D01*
X89563167Y-14407008D01*
X89536468Y-14436468D01*
X89507008Y-14463167D01*
X89475076Y-14486850D01*
X89440973Y-14507291D01*
X89405039Y-14524285D01*
X89367597Y-14537683D01*
X89329040Y-14547341D01*
X89289713Y-14553175D01*
X89250000Y-14555126D01*
D02*
G37*
%LPC*%
G36*
X87500000Y-16305126D02*
X87460287Y-16303175D01*
X87420960Y-16297341D01*
X87382403Y-16287683D01*
X87344961Y-16274285D01*
X87309027Y-16257291D01*
X87274924Y-16236850D01*
X87242992Y-16213167D01*
X87213532Y-16186468D01*
X87186833Y-16157008D01*
X87163150Y-16125076D01*
X87142709Y-16090973D01*
X87125715Y-16055039D01*
X87112317Y-16017597D01*
X87102659Y-15979040D01*
X87096825Y-15939713D01*
X87094874Y-15900000D01*
X87096825Y-15860287D01*
X87102659Y-15820960D01*
X87112317Y-15782403D01*
X87125715Y-15744961D01*
X87142709Y-15709027D01*
X87163150Y-15674924D01*
X87186833Y-15642992D01*
X87213532Y-15613532D01*
X87242994Y-15586831D01*
X87360069Y-15500000D01*
X87242994Y-15413169D01*
X87213532Y-15386468D01*
X87186833Y-15357008D01*
X87163150Y-15325076D01*
X87142709Y-15290973D01*
X87125715Y-15255039D01*
X87112317Y-15217597D01*
X87102659Y-15179040D01*
X87096825Y-15139713D01*
X87094874Y-15100000D01*
X87096825Y-15060287D01*
X87102659Y-15020960D01*
X87112317Y-14982403D01*
X87125715Y-14944961D01*
X87142709Y-14909027D01*
X87163150Y-14874924D01*
X87186833Y-14842992D01*
X87213532Y-14813532D01*
X87242992Y-14786833D01*
X87274924Y-14763150D01*
X87309027Y-14742709D01*
X87344961Y-14725715D01*
X87382403Y-14712317D01*
X87420960Y-14702659D01*
X87460287Y-14696825D01*
X87500000Y-14694874D01*
X87539713Y-14696825D01*
X87579040Y-14702659D01*
X87617597Y-14712317D01*
X87655039Y-14725715D01*
X87690973Y-14742709D01*
X87725076Y-14763150D01*
X87757008Y-14786833D01*
X87786468Y-14813532D01*
X87813167Y-14842992D01*
X87836850Y-14874924D01*
X87857291Y-14909027D01*
X87874285Y-14944961D01*
X87887683Y-14982403D01*
X87897341Y-15020960D01*
X87903175Y-15060287D01*
X87905126Y-15100000D01*
X87903175Y-15139713D01*
X87897341Y-15179040D01*
X87887683Y-15217597D01*
X87874285Y-15255039D01*
X87857291Y-15290973D01*
X87836850Y-15325076D01*
X87813167Y-15357008D01*
X87786468Y-15386468D01*
X87757006Y-15413169D01*
X87639931Y-15500000D01*
X87757006Y-15586831D01*
X87786468Y-15613532D01*
X87813167Y-15642992D01*
X87836850Y-15674924D01*
X87857291Y-15709027D01*
X87874285Y-15744961D01*
X87887683Y-15782403D01*
X87897341Y-15820960D01*
X87903175Y-15860287D01*
X87905126Y-15900000D01*
X87903175Y-15939713D01*
X87897341Y-15979040D01*
X87887683Y-16017597D01*
X87874285Y-16055039D01*
X87857291Y-16090973D01*
X87836850Y-16125076D01*
X87813167Y-16157008D01*
X87786468Y-16186468D01*
X87757008Y-16213167D01*
X87725076Y-16236850D01*
X87690973Y-16257291D01*
X87655039Y-16274285D01*
X87617597Y-16287683D01*
X87579040Y-16297341D01*
X87539713Y-16303175D01*
X87500000Y-16305126D01*
D02*
G37*
%LPC*%
G36*
X85750000Y-18205126D02*
X85710287Y-18203175D01*
X85670960Y-18197341D01*
X85632403Y-18187683D01*
X85594961Y-18174285D01*
X85559027Y-18157291D01*
X85524924Y-18136850D01*
X85492992Y-18113167D01*
X85463532Y-18086468D01*
X85436833Y-18057008D01*
X85413150Y-18025076D01*
X85392709Y-17990973D01*
X85375715Y-17955039D01*
X85362317Y-17917597D01*
X85352659Y-17879040D01*
X85346825Y-17839713D01*
X85344874Y-17800000D01*
X85346825Y-17760287D01*
X85352659Y-17720960D01*
X85362317Y-17682403D01*
X85375715Y-17644961D01*
X85392709Y-17609027D01*
X85413150Y-17574924D01*
X85436833Y-17542992D01*
X85463532Y-17513532D01*
X85492994Y-17486831D01*
X85610069Y-17400000D01*
X85492994Y-17313169D01*
X85463532Y-17286468D01*
X85436833Y-17257008D01*
X85413150Y-17225076D01*
X85392709Y-17190973D01*
X85375715Y-17155039D01*
X85362317Y-17117597D01*
X85352659Y-17079040D01*
X85346825Y-17039713D01*
X85344874Y-17000000D01*
X85346825Y-16960287D01*
X85352659Y-16920960D01*
X85362317Y-16882403D01*
X85375715Y-16844961D01*
X85392709Y-16809027D01*
X85413150Y-16774924D01*
X85436833Y-16742992D01*
X85463532Y-16713532D01*
X85492992Y-16686833D01*
X85524924Y-16663150D01*
X85559027Y-16642709D01*
X85594961Y-16625715D01*
X85632403Y-16612317D01*
X85670960Y-16602659D01*
X85710287Y-16596825D01*
X85750000Y-16594874D01*
X85789713Y-16596825D01*
X85829040Y-16602659D01*
X85867597Y-16612317D01*
X85905039Y-16625715D01*
X85940973Y-16642709D01*
X85975076Y-16663150D01*
X86007008Y-16686833D01*
X86036468Y-16713532D01*
X86063167Y-16742992D01*
X86086850Y-16774924D01*
X86107291Y-16809027D01*
X86124285Y-16844961D01*
X86137683Y-16882403D01*
X86147341Y-16920960D01*
X86153175Y-16960287D01*
X86155126Y-17000000D01*
X86153175Y-17039713D01*
X86147341Y-17079040D01*
X86137683Y-17117597D01*
X86124285Y-17155039D01*
X86107291Y-17190973D01*
X86086850Y-17225076D01*
X86063167Y-17257008D01*
X86036468Y-17286468D01*
X86007006Y-17313169D01*
X85889931Y-17400000D01*
X86007006Y-17486831D01*
X86036468Y-17513532D01*
X86063167Y-17542992D01*
X86086850Y-17574924D01*
X86107291Y-17609027D01*
X86124285Y-17644961D01*
X86137683Y-17682403D01*
X86147341Y-17720960D01*
X86153175Y-17760287D01*
X86155126Y-17800000D01*
X86153175Y-17839713D01*
X86147341Y-17879040D01*
X86137683Y-17917597D01*
X86124285Y-17955039D01*
X86107291Y-17990973D01*
X86086850Y-18025076D01*
X86063167Y-18057008D01*
X86036468Y-18086468D01*
X86007008Y-18113167D01*
X85975076Y-18136850D01*
X85940973Y-18157291D01*
X85905039Y-18174285D01*
X85867597Y-18187683D01*
X85829040Y-18197341D01*
X85789713Y-18203175D01*
X85750000Y-18205126D01*
D02*
G37*
%LPC*%
G36*
X84000000Y-19805126D02*
X83960287Y-19803175D01*
X83920960Y-19797341D01*
X83882403Y-19787683D01*
X83844961Y-19774285D01*
X83809027Y-19757291D01*
X83774924Y-19736850D01*
X83742992Y-19713167D01*
X83713532Y-19686468D01*
X83686833Y-19657008D01*
X83663150Y-19625076D01*
X83642709Y-19590973D01*
X83625715Y-19555039D01*
X83612317Y-19517597D01*
X83602659Y-19479040D01*
X83596825Y-19439713D01*
X83594874Y-19400000D01*
X83596825Y-19360287D01*
X83602659Y-19320960D01*
X83612317Y-19282403D01*
X83625715Y-19244961D01*
X83642709Y-19209027D01*
X83663150Y-19174924D01*
X83686833Y-19142992D01*
X83713532Y-19113532D01*
X83742994Y-19086831D01*
X83860069Y-19000000D01*
X83742994Y-18913169D01*
X83713532Y-18886468D01*
X83686833Y-18857008D01*
X83663150Y-18825076D01*
X83642709Y-18790973D01*
X83625715Y-18755039D01*
X83612317Y-18717597D01*
X83602659Y-18679040D01*
X83596825Y-18639713D01*
X83594874Y-18600000D01*
X83596825Y-18560287D01*
X83602659Y-18520960D01*
X83612317Y-18482403D01*
X83625715Y-18444961D01*
X83642709Y-18409027D01*
X83663150Y-18374924D01*
X83686833Y-18342992D01*
X83713532Y-18313532D01*
X83742992Y-18286833D01*
X83774924Y-18263150D01*
X83809027Y-18242709D01*
X83844961Y-18225715D01*
X83882403Y-18212317D01*
X83920960Y-18202659D01*
X83960287Y-18196825D01*
X84000000Y-18194874D01*
X84039713Y-18196825D01*
X84079040Y-18202659D01*
X84117597Y-18212317D01*
X84155039Y-18225715D01*
X84190973Y-18242709D01*
X84225076Y-18263150D01*
X84257008Y-18286833D01*
X84286468Y-18313532D01*
X84313167Y-18342992D01*
X84336850Y-18374924D01*
X84357291Y-18409027D01*
X84374285Y-18444961D01*
X84387683Y-18482403D01*
X84397341Y-18520960D01*
X84403175Y-18560287D01*
X84405126Y-18600000D01*
X84403175Y-18639713D01*
X84397341Y-18679040D01*
X84387683Y-18717597D01*
X84374285Y-18755039D01*
X84357291Y-18790973D01*
X84336850Y-18825076D01*
X84313167Y-18857008D01*
X84286468Y-18886468D01*
X84257006Y-18913169D01*
X84139931Y-19000000D01*
X84257006Y-19086831D01*
X84286468Y-19113532D01*
X84313167Y-19142992D01*
X84336850Y-19174924D01*
X84357291Y-19209027D01*
X84374285Y-19244961D01*
X84387683Y-19282403D01*
X84397341Y-19320960D01*
X84403175Y-19360287D01*
X84405126Y-19400000D01*
X84403175Y-19439713D01*
X84397341Y-19479040D01*
X84387683Y-19517597D01*
X84374285Y-19555039D01*
X84357291Y-19590973D01*
X84336850Y-19625076D01*
X84313167Y-19657008D01*
X84286468Y-19686468D01*
X84257008Y-19713167D01*
X84225076Y-19736850D01*
X84190973Y-19757291D01*
X84155039Y-19774285D01*
X84117597Y-19787683D01*
X84079040Y-19797341D01*
X84039713Y-19803175D01*
X84000000Y-19805126D01*
D02*
G37*
%LPD*%
G36*
X40500000Y-21250000D02*
X40500000Y-11250000D01*
X31250000Y-11250000D01*
X31250000Y-21250000D01*
X40500000Y-21250000D01*
D02*
G37*
%LPC*%
G36*
X38650000Y-12655126D02*
X38610287Y-12653175D01*
X38570960Y-12647341D01*
X38532403Y-12637683D01*
X38494961Y-12624285D01*
X38459027Y-12607291D01*
X38424924Y-12586850D01*
X38392992Y-12563167D01*
X38363532Y-12536468D01*
X38336831Y-12507006D01*
X38250000Y-12389931D01*
X38163169Y-12507006D01*
X38136468Y-12536468D01*
X38107008Y-12563167D01*
X38075076Y-12586850D01*
X38040973Y-12607291D01*
X38005039Y-12624285D01*
X37967597Y-12637683D01*
X37929040Y-12647341D01*
X37889713Y-12653175D01*
X37850000Y-12655126D01*
X37810287Y-12653175D01*
X37770960Y-12647341D01*
X37732403Y-12637683D01*
X37694961Y-12624285D01*
X37659027Y-12607291D01*
X37624924Y-12586850D01*
X37592992Y-12563167D01*
X37563532Y-12536468D01*
X37536833Y-12507008D01*
X37513150Y-12475076D01*
X37492709Y-12440973D01*
X37475715Y-12405039D01*
X37445426Y-12320395D01*
X37304574Y-12320395D01*
X37274285Y-12405039D01*
X37257291Y-12440973D01*
X37236850Y-12475076D01*
X37213167Y-12507008D01*
X37186468Y-12536468D01*
X37157008Y-12563167D01*
X37125076Y-12586850D01*
X37090973Y-12607291D01*
X37055039Y-12624285D01*
X37017597Y-12637683D01*
X36979040Y-12647341D01*
X36939713Y-12653175D01*
X36900000Y-12655126D01*
X36860287Y-12653175D01*
X36820960Y-12647341D01*
X36782403Y-12637683D01*
X36744961Y-12624285D01*
X36709027Y-12607291D01*
X36674924Y-12586850D01*
X36642992Y-12563167D01*
X36613532Y-12536468D01*
X36586831Y-12507006D01*
X36500000Y-12389931D01*
X36413169Y-12507006D01*
X36386468Y-12536468D01*
X36357008Y-12563167D01*
X36325076Y-12586850D01*
X36290973Y-12607291D01*
X36255039Y-12624285D01*
X36217597Y-12637683D01*
X36179040Y-12647341D01*
X36139713Y-12653175D01*
X36100000Y-12655126D01*
X36060287Y-12653175D01*
X36020960Y-12647341D01*
X35982403Y-12637683D01*
X35944961Y-12624285D01*
X35909027Y-12607291D01*
X35874924Y-12586850D01*
X35842992Y-12563167D01*
X35813532Y-12536468D01*
X35786833Y-12507008D01*
X35763150Y-12475076D01*
X35742709Y-12440973D01*
X35725715Y-12405039D01*
X35695426Y-12320395D01*
X35554574Y-12320395D01*
X35524285Y-12405039D01*
X35507291Y-12440973D01*
X35486850Y-12475076D01*
X35463167Y-12507008D01*
X35436468Y-12536468D01*
X35407008Y-12563167D01*
X35375076Y-12586850D01*
X35340973Y-12607291D01*
X35305039Y-12624285D01*
X35267597Y-12637683D01*
X35229040Y-12647341D01*
X35189713Y-12653175D01*
X35150000Y-12655126D01*
X35110287Y-12653175D01*
X35070960Y-12647341D01*
X35032403Y-12637683D01*
X34994961Y-12624285D01*
X34959027Y-12607291D01*
X34924924Y-12586850D01*
X34892992Y-12563167D01*
X34863532Y-12536468D01*
X34836831Y-12507006D01*
X34750000Y-12389931D01*
X34663169Y-12507006D01*
X34636468Y-12536468D01*
X34607008Y-12563167D01*
X34575076Y-12586850D01*
X34540973Y-12607291D01*
X34505039Y-12624285D01*
X34467597Y-12637683D01*
X34429040Y-12647341D01*
X34389713Y-12653175D01*
X34350000Y-12655126D01*
X34310287Y-12653175D01*
X34270960Y-12647341D01*
X34232403Y-12637683D01*
X34194961Y-12624285D01*
X34159027Y-12607291D01*
X34124924Y-12586850D01*
X34092992Y-12563167D01*
X34063532Y-12536468D01*
X34036833Y-12507008D01*
X34013150Y-12475076D01*
X33992709Y-12440973D01*
X33975715Y-12405039D01*
X33945426Y-12320395D01*
X33804574Y-12320395D01*
X33774285Y-12405039D01*
X33757291Y-12440973D01*
X33736850Y-12475076D01*
X33713167Y-12507008D01*
X33686468Y-12536468D01*
X33657008Y-12563167D01*
X33625076Y-12586850D01*
X33590973Y-12607291D01*
X33555039Y-12624285D01*
X33517597Y-12637683D01*
X33479040Y-12647341D01*
X33439713Y-12653175D01*
X33400000Y-12655126D01*
X33360287Y-12653175D01*
X33320960Y-12647341D01*
X33282403Y-12637683D01*
X33244961Y-12624285D01*
X33209027Y-12607291D01*
X33174924Y-12586850D01*
X33142992Y-12563167D01*
X33113532Y-12536468D01*
X33086831Y-12507006D01*
X33000000Y-12389931D01*
X32913169Y-12507006D01*
X32886468Y-12536468D01*
X32857008Y-12563167D01*
X32825076Y-12586850D01*
X32790973Y-12607291D01*
X32755039Y-12624285D01*
X32717597Y-12637683D01*
X32679040Y-12647341D01*
X32639713Y-12653175D01*
X32600000Y-12655126D01*
X32560287Y-12653175D01*
X32520960Y-12647341D01*
X32482403Y-12637683D01*
X32444961Y-12624285D01*
X32409027Y-12607291D01*
X32374924Y-12586850D01*
X32342992Y-12563167D01*
X32313532Y-12536468D01*
X32286833Y-12507008D01*
X32263150Y-12475076D01*
X32242709Y-12440973D01*
X32225715Y-12405039D01*
X32212317Y-12367597D01*
X32202659Y-12329040D01*
X32196825Y-12289713D01*
X32194874Y-12250000D01*
X32196825Y-12210287D01*
X32202659Y-12170960D01*
X32212317Y-12132403D01*
X32225715Y-12094961D01*
X32242709Y-12059027D01*
X32263150Y-12024924D01*
X32286833Y-11992992D01*
X32313532Y-11963532D01*
X32342992Y-11936833D01*
X32374924Y-11913150D01*
X32409027Y-11892709D01*
X32444961Y-11875715D01*
X32482403Y-11862317D01*
X32520960Y-11852659D01*
X32560287Y-11846825D01*
X32600000Y-11844874D01*
X32639713Y-11846825D01*
X32679040Y-11852659D01*
X32717597Y-11862317D01*
X32755039Y-11875715D01*
X32790973Y-11892709D01*
X32825076Y-11913150D01*
X32857008Y-11936833D01*
X32886468Y-11963532D01*
X32913169Y-11992994D01*
X33000000Y-12110069D01*
X33086831Y-11992994D01*
X33113532Y-11963532D01*
X33142992Y-11936833D01*
X33174924Y-11913150D01*
X33209027Y-11892709D01*
X33244961Y-11875715D01*
X33282403Y-11862317D01*
X33320960Y-11852659D01*
X33360287Y-11846825D01*
X33400000Y-11844874D01*
X33439713Y-11846825D01*
X33479040Y-11852659D01*
X33517597Y-11862317D01*
X33555039Y-11875715D01*
X33590973Y-11892709D01*
X33625076Y-11913150D01*
X33657008Y-11936833D01*
X33686468Y-11963532D01*
X33713167Y-11992992D01*
X33736850Y-12024924D01*
X33757291Y-12059027D01*
X33774285Y-12094961D01*
X33804574Y-12179605D01*
X33945426Y-12179605D01*
X33975715Y-12094961D01*
X33992709Y-12059027D01*
X34013150Y-12024924D01*
X34036833Y-11992992D01*
X34063532Y-11963532D01*
X34092992Y-11936833D01*
X34124924Y-11913150D01*
X34159027Y-11892709D01*
X34194961Y-11875715D01*
X34232403Y-11862317D01*
X34270960Y-11852659D01*
X34310287Y-11846825D01*
X34350000Y-11844874D01*
X34389713Y-11846825D01*
X34429040Y-11852659D01*
X34467597Y-11862317D01*
X34505039Y-11875715D01*
X34540973Y-11892709D01*
X34575076Y-11913150D01*
X34607008Y-11936833D01*
X34636468Y-11963532D01*
X34663169Y-11992994D01*
X34750000Y-12110069D01*
X34836831Y-11992994D01*
X34863532Y-11963532D01*
X34892992Y-11936833D01*
X34924924Y-11913150D01*
X34959027Y-11892709D01*
X34994961Y-11875715D01*
X35032403Y-11862317D01*
X35070960Y-11852659D01*
X35110287Y-11846825D01*
X35150000Y-11844874D01*
X35189713Y-11846825D01*
X35229040Y-11852659D01*
X35267597Y-11862317D01*
X35305039Y-11875715D01*
X35340973Y-11892709D01*
X35375076Y-11913150D01*
X35407008Y-11936833D01*
X35436468Y-11963532D01*
X35463167Y-11992992D01*
X35486850Y-12024924D01*
X35507291Y-12059027D01*
X35524285Y-12094961D01*
X35554574Y-12179605D01*
X35695426Y-12179605D01*
X35725715Y-12094961D01*
X35742709Y-12059027D01*
X35763150Y-12024924D01*
X35786833Y-11992992D01*
X35813532Y-11963532D01*
X35842992Y-11936833D01*
X35874924Y-11913150D01*
X35909027Y-11892709D01*
X35944961Y-11875715D01*
X35982403Y-11862317D01*
X36020960Y-11852659D01*
X36060287Y-11846825D01*
X36100000Y-11844874D01*
X36139713Y-11846825D01*
X36179040Y-11852659D01*
X36217597Y-11862317D01*
X36255039Y-11875715D01*
X36290973Y-11892709D01*
X36325076Y-11913150D01*
X36357008Y-11936833D01*
X36386468Y-11963532D01*
X36413169Y-11992994D01*
X36500000Y-12110069D01*
X36586831Y-11992994D01*
X36613532Y-11963532D01*
X36642992Y-11936833D01*
X36674924Y-11913150D01*
X36709027Y-11892709D01*
X36744961Y-11875715D01*
X36782403Y-11862317D01*
X36820960Y-11852659D01*
X36860287Y-11846825D01*
X36900000Y-11844874D01*
X36939713Y-11846825D01*
X36979040Y-11852659D01*
X37017597Y-11862317D01*
X37055039Y-11875715D01*
X37090973Y-11892709D01*
X37125076Y-11913150D01*
X37157008Y-11936833D01*
X37186468Y-11963532D01*
X37213167Y-11992992D01*
X37236850Y-12024924D01*
X37257291Y-12059027D01*
X37274285Y-12094961D01*
X37304574Y-12179605D01*
X37445426Y-12179605D01*
X37475715Y-12094961D01*
X37492709Y-12059027D01*
X37513150Y-12024924D01*
X37536833Y-11992992D01*
X37563532Y-11963532D01*
X37592992Y-11936833D01*
X37624924Y-11913150D01*
X37659027Y-11892709D01*
X37694961Y-11875715D01*
X37732403Y-11862317D01*
X37770960Y-11852659D01*
X37810287Y-11846825D01*
X37850000Y-11844874D01*
X37889713Y-11846825D01*
X37929040Y-11852659D01*
X37967597Y-11862317D01*
X38005039Y-11875715D01*
X38040973Y-11892709D01*
X38075076Y-11913150D01*
X38107008Y-11936833D01*
X38136468Y-11963532D01*
X38163169Y-11992994D01*
X38250000Y-12110069D01*
X38336831Y-11992994D01*
X38363532Y-11963532D01*
X38392992Y-11936833D01*
X38424924Y-11913150D01*
X38459027Y-11892709D01*
X38494961Y-11875715D01*
X38532403Y-11862317D01*
X38570960Y-11852659D01*
X38610287Y-11846825D01*
X38650000Y-11844874D01*
X38689713Y-11846825D01*
X38729040Y-11852659D01*
X38767597Y-11862317D01*
X38805039Y-11875715D01*
X38840973Y-11892709D01*
X38875076Y-11913150D01*
X38907008Y-11936833D01*
X38936468Y-11963532D01*
X38963167Y-11992992D01*
X38986850Y-12024924D01*
X39007291Y-12059027D01*
X39024285Y-12094961D01*
X39037683Y-12132403D01*
X39047341Y-12170960D01*
X39053175Y-12210287D01*
X39055126Y-12250000D01*
X39053175Y-12289713D01*
X39047341Y-12329040D01*
X39037683Y-12367597D01*
X39024285Y-12405039D01*
X39007291Y-12440973D01*
X38986850Y-12475076D01*
X38963167Y-12507008D01*
X38936468Y-12536468D01*
X38907008Y-12563167D01*
X38875076Y-12586850D01*
X38840973Y-12607291D01*
X38805039Y-12624285D01*
X38767597Y-12637683D01*
X38729040Y-12647341D01*
X38689713Y-12653175D01*
X38650000Y-12655126D01*
D02*
G37*
%LPC*%
G36*
X39250000Y-14555126D02*
X39210287Y-14553175D01*
X39170960Y-14547341D01*
X39132403Y-14537683D01*
X39094961Y-14524285D01*
X39059027Y-14507291D01*
X39024924Y-14486850D01*
X38992992Y-14463167D01*
X38963532Y-14436468D01*
X38936833Y-14407008D01*
X38913150Y-14375076D01*
X38892709Y-14340973D01*
X38875715Y-14305039D01*
X38862317Y-14267597D01*
X38852659Y-14229040D01*
X38846825Y-14189713D01*
X38844874Y-14150000D01*
X38846825Y-14110287D01*
X38852659Y-14070960D01*
X38862317Y-14032403D01*
X38875715Y-13994961D01*
X38892709Y-13959027D01*
X38913150Y-13924924D01*
X38936833Y-13892992D01*
X38963532Y-13863532D01*
X38992994Y-13836831D01*
X39110069Y-13750000D01*
X38992994Y-13663169D01*
X38963532Y-13636468D01*
X38936833Y-13607008D01*
X38913150Y-13575076D01*
X38892709Y-13540973D01*
X38875715Y-13505039D01*
X38862317Y-13467597D01*
X38852659Y-13429040D01*
X38846825Y-13389713D01*
X38844874Y-13350000D01*
X38846825Y-13310287D01*
X38852659Y-13270960D01*
X38862317Y-13232403D01*
X38875715Y-13194961D01*
X38892709Y-13159027D01*
X38913150Y-13124924D01*
X38936833Y-13092992D01*
X38963532Y-13063532D01*
X38992992Y-13036833D01*
X39024924Y-13013150D01*
X39059027Y-12992709D01*
X39094961Y-12975715D01*
X39132403Y-12962317D01*
X39170960Y-12952659D01*
X39210287Y-12946825D01*
X39250000Y-12944874D01*
X39289713Y-12946825D01*
X39329040Y-12952659D01*
X39367597Y-12962317D01*
X39405039Y-12975715D01*
X39440973Y-12992709D01*
X39475076Y-13013150D01*
X39507008Y-13036833D01*
X39536468Y-13063532D01*
X39563167Y-13092992D01*
X39586850Y-13124924D01*
X39607291Y-13159027D01*
X39624285Y-13194961D01*
X39637683Y-13232403D01*
X39647341Y-13270960D01*
X39653175Y-13310287D01*
X39655126Y-13350000D01*
X39653175Y-13389713D01*
X39647341Y-13429040D01*
X39637683Y-13467597D01*
X39624285Y-13505039D01*
X39607291Y-13540973D01*
X39586850Y-13575076D01*
X39563167Y-13607008D01*
X39536468Y-13636468D01*
X39507006Y-13663169D01*
X39389931Y-13750000D01*
X39507006Y-13836831D01*
X39536468Y-13863532D01*
X39563167Y-13892992D01*
X39586850Y-13924924D01*
X39607291Y-13959027D01*
X39624285Y-13994961D01*
X39637683Y-14032403D01*
X39647341Y-14070960D01*
X39653175Y-14110287D01*
X39655126Y-14150000D01*
X39653175Y-14189713D01*
X39647341Y-14229040D01*
X39637683Y-14267597D01*
X39624285Y-14305039D01*
X39607291Y-14340973D01*
X39586850Y-14375076D01*
X39563167Y-14407008D01*
X39536468Y-14436468D01*
X39507008Y-14463167D01*
X39475076Y-14486850D01*
X39440973Y-14507291D01*
X39405039Y-14524285D01*
X39367597Y-14537683D01*
X39329040Y-14547341D01*
X39289713Y-14553175D01*
X39250000Y-14555126D01*
D02*
G37*
%LPC*%
G36*
X37500000Y-16305126D02*
X37460287Y-16303175D01*
X37420960Y-16297341D01*
X37382403Y-16287683D01*
X37344961Y-16274285D01*
X37309027Y-16257291D01*
X37274924Y-16236850D01*
X37242992Y-16213167D01*
X37213532Y-16186468D01*
X37186833Y-16157008D01*
X37163150Y-16125076D01*
X37142709Y-16090973D01*
X37125715Y-16055039D01*
X37112317Y-16017597D01*
X37102659Y-15979040D01*
X37096825Y-15939713D01*
X37094874Y-15900000D01*
X37096825Y-15860287D01*
X37102659Y-15820960D01*
X37112317Y-15782403D01*
X37125715Y-15744961D01*
X37142709Y-15709027D01*
X37163150Y-15674924D01*
X37186833Y-15642992D01*
X37213532Y-15613532D01*
X37242994Y-15586831D01*
X37360069Y-15500000D01*
X37242994Y-15413169D01*
X37213532Y-15386468D01*
X37186833Y-15357008D01*
X37163150Y-15325076D01*
X37142709Y-15290973D01*
X37125715Y-15255039D01*
X37112317Y-15217597D01*
X37102659Y-15179040D01*
X37096825Y-15139713D01*
X37094874Y-15100000D01*
X37096825Y-15060287D01*
X37102659Y-15020960D01*
X37112317Y-14982403D01*
X37125715Y-14944961D01*
X37142709Y-14909027D01*
X37163150Y-14874924D01*
X37186833Y-14842992D01*
X37213532Y-14813532D01*
X37242992Y-14786833D01*
X37274924Y-14763150D01*
X37309027Y-14742709D01*
X37344961Y-14725715D01*
X37382403Y-14712317D01*
X37420960Y-14702659D01*
X37460287Y-14696825D01*
X37500000Y-14694874D01*
X37539713Y-14696825D01*
X37579040Y-14702659D01*
X37617597Y-14712317D01*
X37655039Y-14725715D01*
X37690973Y-14742709D01*
X37725076Y-14763150D01*
X37757008Y-14786833D01*
X37786468Y-14813532D01*
X37813167Y-14842992D01*
X37836850Y-14874924D01*
X37857291Y-14909027D01*
X37874285Y-14944961D01*
X37887683Y-14982403D01*
X37897341Y-15020960D01*
X37903175Y-15060287D01*
X37905126Y-15100000D01*
X37903175Y-15139713D01*
X37897341Y-15179040D01*
X37887683Y-15217597D01*
X37874285Y-15255039D01*
X37857291Y-15290973D01*
X37836850Y-15325076D01*
X37813167Y-15357008D01*
X37786468Y-15386468D01*
X37757006Y-15413169D01*
X37639931Y-15500000D01*
X37757006Y-15586831D01*
X37786468Y-15613532D01*
X37813167Y-15642992D01*
X37836850Y-15674924D01*
X37857291Y-15709027D01*
X37874285Y-15744961D01*
X37887683Y-15782403D01*
X37897341Y-15820960D01*
X37903175Y-15860287D01*
X37905126Y-15900000D01*
X37903175Y-15939713D01*
X37897341Y-15979040D01*
X37887683Y-16017597D01*
X37874285Y-16055039D01*
X37857291Y-16090973D01*
X37836850Y-16125076D01*
X37813167Y-16157008D01*
X37786468Y-16186468D01*
X37757008Y-16213167D01*
X37725076Y-16236850D01*
X37690973Y-16257291D01*
X37655039Y-16274285D01*
X37617597Y-16287683D01*
X37579040Y-16297341D01*
X37539713Y-16303175D01*
X37500000Y-16305126D01*
D02*
G37*
%LPC*%
G36*
X35750000Y-18205126D02*
X35710287Y-18203175D01*
X35670960Y-18197341D01*
X35632403Y-18187683D01*
X35594961Y-18174285D01*
X35559027Y-18157291D01*
X35524924Y-18136850D01*
X35492992Y-18113167D01*
X35463532Y-18086468D01*
X35436833Y-18057008D01*
X35413150Y-18025076D01*
X35392709Y-17990973D01*
X35375715Y-17955039D01*
X35362317Y-17917597D01*
X35352659Y-17879040D01*
X35346825Y-17839713D01*
X35344874Y-17800000D01*
X35346825Y-17760287D01*
X35352659Y-17720960D01*
X35362317Y-17682403D01*
X35375715Y-17644961D01*
X35392709Y-17609027D01*
X35413150Y-17574924D01*
X35436833Y-17542992D01*
X35463532Y-17513532D01*
X35492994Y-17486831D01*
X35610069Y-17400000D01*
X35492994Y-17313169D01*
X35463532Y-17286468D01*
X35436833Y-17257008D01*
X35413150Y-17225076D01*
X35392709Y-17190973D01*
X35375715Y-17155039D01*
X35362317Y-17117597D01*
X35352659Y-17079040D01*
X35346825Y-17039713D01*
X35344874Y-17000000D01*
X35346825Y-16960287D01*
X35352659Y-16920960D01*
X35362317Y-16882403D01*
X35375715Y-16844961D01*
X35392709Y-16809027D01*
X35413150Y-16774924D01*
X35436833Y-16742992D01*
X35463532Y-16713532D01*
X35492992Y-16686833D01*
X35524924Y-16663150D01*
X35559027Y-16642709D01*
X35594961Y-16625715D01*
X35632403Y-16612317D01*
X35670960Y-16602659D01*
X35710287Y-16596825D01*
X35750000Y-16594874D01*
X35789713Y-16596825D01*
X35829040Y-16602659D01*
X35867597Y-16612317D01*
X35905039Y-16625715D01*
X35940973Y-16642709D01*
X35975076Y-16663150D01*
X36007008Y-16686833D01*
X36036468Y-16713532D01*
X36063167Y-16742992D01*
X36086850Y-16774924D01*
X36107291Y-16809027D01*
X36124285Y-16844961D01*
X36137683Y-16882403D01*
X36147341Y-16920960D01*
X36153175Y-16960287D01*
X36155126Y-17000000D01*
X36153175Y-17039713D01*
X36147341Y-17079040D01*
X36137683Y-17117597D01*
X36124285Y-17155039D01*
X36107291Y-17190973D01*
X36086850Y-17225076D01*
X36063167Y-17257008D01*
X36036468Y-17286468D01*
X36007006Y-17313169D01*
X35889931Y-17400000D01*
X36007006Y-17486831D01*
X36036468Y-17513532D01*
X36063167Y-17542992D01*
X36086850Y-17574924D01*
X36107291Y-17609027D01*
X36124285Y-17644961D01*
X36137683Y-17682403D01*
X36147341Y-17720960D01*
X36153175Y-17760287D01*
X36155126Y-17800000D01*
X36153175Y-17839713D01*
X36147341Y-17879040D01*
X36137683Y-17917597D01*
X36124285Y-17955039D01*
X36107291Y-17990973D01*
X36086850Y-18025076D01*
X36063167Y-18057008D01*
X36036468Y-18086468D01*
X36007008Y-18113167D01*
X35975076Y-18136850D01*
X35940973Y-18157291D01*
X35905039Y-18174285D01*
X35867597Y-18187683D01*
X35829040Y-18197341D01*
X35789713Y-18203175D01*
X35750000Y-18205126D01*
D02*
G37*
%LPC*%
G36*
X34000000Y-19805126D02*
X33960287Y-19803175D01*
X33920960Y-19797341D01*
X33882403Y-19787683D01*
X33844961Y-19774285D01*
X33809027Y-19757291D01*
X33774924Y-19736850D01*
X33742992Y-19713167D01*
X33713532Y-19686468D01*
X33686833Y-19657008D01*
X33663150Y-19625076D01*
X33642709Y-19590973D01*
X33625715Y-19555039D01*
X33612317Y-19517597D01*
X33602659Y-19479040D01*
X33596825Y-19439713D01*
X33594874Y-19400000D01*
X33596825Y-19360287D01*
X33602659Y-19320960D01*
X33612317Y-19282403D01*
X33625715Y-19244961D01*
X33642709Y-19209027D01*
X33663150Y-19174924D01*
X33686833Y-19142992D01*
X33713532Y-19113532D01*
X33742994Y-19086831D01*
X33860069Y-19000000D01*
X33742994Y-18913169D01*
X33713532Y-18886468D01*
X33686833Y-18857008D01*
X33663150Y-18825076D01*
X33642709Y-18790973D01*
X33625715Y-18755039D01*
X33612317Y-18717597D01*
X33602659Y-18679040D01*
X33596825Y-18639713D01*
X33594874Y-18600000D01*
X33596825Y-18560287D01*
X33602659Y-18520960D01*
X33612317Y-18482403D01*
X33625715Y-18444961D01*
X33642709Y-18409027D01*
X33663150Y-18374924D01*
X33686833Y-18342992D01*
X33713532Y-18313532D01*
X33742992Y-18286833D01*
X33774924Y-18263150D01*
X33809027Y-18242709D01*
X33844961Y-18225715D01*
X33882403Y-18212317D01*
X33920960Y-18202659D01*
X33960287Y-18196825D01*
X34000000Y-18194874D01*
X34039713Y-18196825D01*
X34079040Y-18202659D01*
X34117597Y-18212317D01*
X34155039Y-18225715D01*
X34190973Y-18242709D01*
X34225076Y-18263150D01*
X34257008Y-18286833D01*
X34286468Y-18313532D01*
X34313167Y-18342992D01*
X34336850Y-18374924D01*
X34357291Y-18409027D01*
X34374285Y-18444961D01*
X34387683Y-18482403D01*
X34397341Y-18520960D01*
X34403175Y-18560287D01*
X34405126Y-18600000D01*
X34403175Y-18639713D01*
X34397341Y-18679040D01*
X34387683Y-18717597D01*
X34374285Y-18755039D01*
X34357291Y-18790973D01*
X34336850Y-18825076D01*
X34313167Y-18857008D01*
X34286468Y-18886468D01*
X34257006Y-18913169D01*
X34139931Y-19000000D01*
X34257006Y-19086831D01*
X34286468Y-19113532D01*
X34313167Y-19142992D01*
X34336850Y-19174924D01*
X34357291Y-19209027D01*
X34374285Y-19244961D01*
X34387683Y-19282403D01*
X34397341Y-19320960D01*
X34403175Y-19360287D01*
X34405126Y-19400000D01*
X34403175Y-19439713D01*
X34397341Y-19479040D01*
X34387683Y-19517597D01*
X34374285Y-19555039D01*
X34357291Y-19590973D01*
X34336850Y-19625076D01*
X34313167Y-19657008D01*
X34286468Y-19686468D01*
X34257008Y-19713167D01*
X34225076Y-19736850D01*
X34190973Y-19757291D01*
X34155039Y-19774285D01*
X34117597Y-19787683D01*
X34079040Y-19797341D01*
X34039713Y-19803175D01*
X34000000Y-19805126D01*
D02*
G37*
%LPD*%
G36*
X78000000Y-21250000D02*
X78000000Y-19250000D01*
X71750000Y-19250000D01*
X71750000Y-14500000D01*
X70000000Y-14500000D01*
X70000000Y-11500000D01*
X67250000Y-11500000D01*
X67250000Y-15750000D01*
X70025126Y-15750000D01*
X70063794Y-15721323D01*
X70092002Y-15704415D01*
X70121740Y-15690351D01*
X70152708Y-15679269D01*
X70184621Y-15671275D01*
X70217148Y-15666452D01*
X70250000Y-15664836D01*
X70282852Y-15666452D01*
X70315379Y-15671275D01*
X70347292Y-15679269D01*
X70378260Y-15690351D01*
X70407998Y-15704415D01*
X70436206Y-15721323D01*
X70474874Y-15750000D01*
X71250000Y-15750000D01*
X71250000Y-16750000D01*
X70750000Y-16750000D01*
X70750000Y-17750000D01*
X71250000Y-17750000D01*
X71250000Y-18750000D01*
X70750000Y-18750000D01*
X70750000Y-19750000D01*
X77500000Y-19750000D01*
X77500000Y-21250000D01*
X78000000Y-21250000D01*
D02*
G37*
%LPC*%
G36*
X69000000Y-12685164D02*
X68957352Y-12683067D01*
X68915101Y-12676800D01*
X68873683Y-12666426D01*
X68833470Y-12652036D01*
X68794864Y-12633778D01*
X68758237Y-12611824D01*
X68723931Y-12586381D01*
X68692293Y-12557707D01*
X68663619Y-12526069D01*
X68638176Y-12491763D01*
X68616222Y-12455136D01*
X68597964Y-12416530D01*
X68583574Y-12376317D01*
X68573200Y-12334899D01*
X68566933Y-12292648D01*
X68564836Y-12250000D01*
X68566933Y-12207352D01*
X68573200Y-12165101D01*
X68583574Y-12123683D01*
X68597964Y-12083470D01*
X68616222Y-12044864D01*
X68638176Y-12008237D01*
X68663619Y-11973931D01*
X68692293Y-11942293D01*
X68723931Y-11913619D01*
X68758237Y-11888176D01*
X68794864Y-11866222D01*
X68833470Y-11847964D01*
X68873683Y-11833574D01*
X68915101Y-11823200D01*
X68957352Y-11816933D01*
X69000000Y-11814836D01*
X69042648Y-11816933D01*
X69084899Y-11823200D01*
X69126317Y-11833574D01*
X69166530Y-11847964D01*
X69205136Y-11866222D01*
X69241763Y-11888176D01*
X69276069Y-11913619D01*
X69307707Y-11942293D01*
X69336381Y-11973931D01*
X69361824Y-12008237D01*
X69383778Y-12044864D01*
X69402036Y-12083470D01*
X69416426Y-12123683D01*
X69426800Y-12165101D01*
X69433067Y-12207352D01*
X69435164Y-12250000D01*
X69433067Y-12292648D01*
X69426800Y-12334899D01*
X69416426Y-12376317D01*
X69402036Y-12416530D01*
X69383778Y-12455136D01*
X69361824Y-12491763D01*
X69336381Y-12526069D01*
X69307707Y-12557707D01*
X69276069Y-12586381D01*
X69241763Y-12611824D01*
X69205136Y-12633778D01*
X69166530Y-12652036D01*
X69126317Y-12666426D01*
X69084899Y-12676800D01*
X69042648Y-12683067D01*
X69000000Y-12685164D01*
D02*
G37*
%LPC*%
G36*
X68000000Y-14435164D02*
X67957352Y-14433067D01*
X67915101Y-14426800D01*
X67873683Y-14416426D01*
X67833470Y-14402036D01*
X67794864Y-14383778D01*
X67758237Y-14361824D01*
X67723931Y-14336381D01*
X67692293Y-14307707D01*
X67663619Y-14276069D01*
X67638176Y-14241763D01*
X67616222Y-14205136D01*
X67597964Y-14166530D01*
X67583574Y-14126317D01*
X67573200Y-14084899D01*
X67566933Y-14042648D01*
X67564836Y-14000000D01*
X67566933Y-13957352D01*
X67573200Y-13915101D01*
X67583574Y-13873683D01*
X67597964Y-13833470D01*
X67616222Y-13794864D01*
X67638176Y-13758237D01*
X67663619Y-13723931D01*
X67692293Y-13692293D01*
X67723931Y-13663619D01*
X67758237Y-13638176D01*
X67794864Y-13616222D01*
X67833470Y-13597964D01*
X67873683Y-13583574D01*
X67915101Y-13573200D01*
X67957352Y-13566933D01*
X68000000Y-13564836D01*
X68042648Y-13566933D01*
X68084899Y-13573200D01*
X68126317Y-13583574D01*
X68166530Y-13597964D01*
X68205136Y-13616222D01*
X68241763Y-13638176D01*
X68276069Y-13663619D01*
X68307707Y-13692293D01*
X68336381Y-13723931D01*
X68361824Y-13758237D01*
X68383778Y-13794864D01*
X68402036Y-13833470D01*
X68416426Y-13873683D01*
X68426800Y-13915101D01*
X68433067Y-13957352D01*
X68435164Y-14000000D01*
X68433067Y-14042648D01*
X68426800Y-14084899D01*
X68416426Y-14126317D01*
X68402036Y-14166530D01*
X68383778Y-14205136D01*
X68361824Y-14241763D01*
X68336381Y-14276069D01*
X68307707Y-14307707D01*
X68276069Y-14336381D01*
X68241763Y-14361824D01*
X68205136Y-14383778D01*
X68166530Y-14402036D01*
X68126317Y-14416426D01*
X68084899Y-14426800D01*
X68042648Y-14433067D01*
X68000000Y-14435164D01*
D02*
G37*
%LPD*%
G36*
X28000000Y-21250000D02*
X28000000Y-19250000D01*
X21750000Y-19250000D01*
X21750000Y-14500000D01*
X20000000Y-14500000D01*
X20000000Y-11500000D01*
X17250000Y-11500000D01*
X17250000Y-15750000D01*
X20025126Y-15750000D01*
X20063794Y-15721323D01*
X20092002Y-15704415D01*
X20121740Y-15690351D01*
X20152708Y-15679269D01*
X20184621Y-15671275D01*
X20217148Y-15666452D01*
X20250000Y-15664836D01*
X20282852Y-15666452D01*
X20315379Y-15671275D01*
X20347292Y-15679269D01*
X20378260Y-15690351D01*
X20407998Y-15704415D01*
X20436206Y-15721323D01*
X20474874Y-15750000D01*
X21250000Y-15750000D01*
X21250000Y-16750000D01*
X20750000Y-16750000D01*
X20750000Y-17750000D01*
X21250000Y-17750000D01*
X21250000Y-18750000D01*
X20750000Y-18750000D01*
X20750000Y-19750000D01*
X27500000Y-19750000D01*
X27500000Y-21250000D01*
X28000000Y-21250000D01*
D02*
G37*
%LPC*%
G36*
X19000000Y-12685164D02*
X18957352Y-12683067D01*
X18915101Y-12676800D01*
X18873683Y-12666426D01*
X18833470Y-12652036D01*
X18794864Y-12633778D01*
X18758237Y-12611824D01*
X18723931Y-12586381D01*
X18692293Y-12557707D01*
X18663619Y-12526069D01*
X18638176Y-12491763D01*
X18616222Y-12455136D01*
X18597964Y-12416530D01*
X18583574Y-12376317D01*
X18573200Y-12334899D01*
X18566933Y-12292648D01*
X18564836Y-12250000D01*
X18566933Y-12207352D01*
X18573200Y-12165101D01*
X18583574Y-12123683D01*
X18597964Y-12083470D01*
X18616222Y-12044864D01*
X18638176Y-12008237D01*
X18663619Y-11973931D01*
X18692293Y-11942293D01*
X18723931Y-11913619D01*
X18758237Y-11888176D01*
X18794864Y-11866222D01*
X18833470Y-11847964D01*
X18873683Y-11833574D01*
X18915101Y-11823200D01*
X18957352Y-11816933D01*
X19000000Y-11814836D01*
X19042648Y-11816933D01*
X19084899Y-11823200D01*
X19126317Y-11833574D01*
X19166530Y-11847964D01*
X19205136Y-11866222D01*
X19241763Y-11888176D01*
X19276069Y-11913619D01*
X19307707Y-11942293D01*
X19336381Y-11973931D01*
X19361824Y-12008237D01*
X19383778Y-12044864D01*
X19402036Y-12083470D01*
X19416426Y-12123683D01*
X19426800Y-12165101D01*
X19433067Y-12207352D01*
X19435164Y-12250000D01*
X19433067Y-12292648D01*
X19426800Y-12334899D01*
X19416426Y-12376317D01*
X19402036Y-12416530D01*
X19383778Y-12455136D01*
X19361824Y-12491763D01*
X19336381Y-12526069D01*
X19307707Y-12557707D01*
X19276069Y-12586381D01*
X19241763Y-12611824D01*
X19205136Y-12633778D01*
X19166530Y-12652036D01*
X19126317Y-12666426D01*
X19084899Y-12676800D01*
X19042648Y-12683067D01*
X19000000Y-12685164D01*
D02*
G37*
%LPC*%
G36*
X18000000Y-14435164D02*
X17957352Y-14433067D01*
X17915101Y-14426800D01*
X17873683Y-14416426D01*
X17833470Y-14402036D01*
X17794864Y-14383778D01*
X17758237Y-14361824D01*
X17723931Y-14336381D01*
X17692293Y-14307707D01*
X17663619Y-14276069D01*
X17638176Y-14241763D01*
X17616222Y-14205136D01*
X17597964Y-14166530D01*
X17583574Y-14126317D01*
X17573200Y-14084899D01*
X17566933Y-14042648D01*
X17564836Y-14000000D01*
X17566933Y-13957352D01*
X17573200Y-13915101D01*
X17583574Y-13873683D01*
X17597964Y-13833470D01*
X17616222Y-13794864D01*
X17638176Y-13758237D01*
X17663619Y-13723931D01*
X17692293Y-13692293D01*
X17723931Y-13663619D01*
X17758237Y-13638176D01*
X17794864Y-13616222D01*
X17833470Y-13597964D01*
X17873683Y-13583574D01*
X17915101Y-13573200D01*
X17957352Y-13566933D01*
X18000000Y-13564836D01*
X18042648Y-13566933D01*
X18084899Y-13573200D01*
X18126317Y-13583574D01*
X18166530Y-13597964D01*
X18205136Y-13616222D01*
X18241763Y-13638176D01*
X18276069Y-13663619D01*
X18307707Y-13692293D01*
X18336381Y-13723931D01*
X18361824Y-13758237D01*
X18383778Y-13794864D01*
X18402036Y-13833470D01*
X18416426Y-13873683D01*
X18426800Y-13915101D01*
X18433067Y-13957352D01*
X18435164Y-14000000D01*
X18433067Y-14042648D01*
X18426800Y-14084899D01*
X18416426Y-14126317D01*
X18402036Y-14166530D01*
X18383778Y-14205136D01*
X18361824Y-14241763D01*
X18336381Y-14276069D01*
X18307707Y-14307707D01*
X18276069Y-14336381D01*
X18241763Y-14361824D01*
X18205136Y-14383778D01*
X18166530Y-14402036D01*
X18126317Y-14416426D01*
X18084899Y-14426800D01*
X18042648Y-14433067D01*
X18000000Y-14435164D01*
D02*
G37*
%LPD*%
G36*
X72500000Y-21750000D02*
X72500000Y-20750000D01*
X70250000Y-20750000D01*
X70250000Y-16500000D01*
X69750000Y-16500000D01*
X69750000Y-21750000D01*
X72500000Y-21750000D01*
D02*
G37*
%LPD*%
G36*
X22500000Y-21750000D02*
X22500000Y-20750000D01*
X20250000Y-20750000D01*
X20250000Y-16500000D01*
X19750000Y-16500000D01*
X19750000Y-21750000D01*
X22500000Y-21750000D01*
D02*
G37*
%LPD*%
G01*
%LPD*%
D10*
X26050000Y23950000D02*
X26050000Y25049890D01*
D10*
X12500000Y16250000D02*
X12500000Y18750000D01*
D11*
X30000000Y-29500000D02*
X32000000Y-31500000D01*
D10*
X21750000Y29250000D02*
X21750000Y30750000D01*
D10*
X24750000Y25289978D02*
X24605011Y25144989D01*
D10*
X9000000Y5250000D02*
X7493474Y6756526D01*
D10*
X11500000Y15750000D02*
X12000000Y15750000D01*
D11*
X29250000Y-26250000D02*
X29250000Y-18250000D01*
D10*
X15000000Y22000000D02*
X18250000Y22000000D01*
D10*
X23855011Y25144989D02*
X23355011Y24644989D01*
D10*
X29250000Y30500000D02*
X27750000Y29000000D01*
D10*
X23355011Y24105011D02*
X22750000Y23500000D01*
D10*
X4000000Y23750000D02*
X5250000Y22500000D01*
D11*
X20750000Y-19500000D02*
X21125000Y-19250000D01*
D10*
X9500000Y5750000D02*
X8000000Y7250000D01*
D10*
X13500000Y36750000D02*
X13250000Y37000000D01*
D10*
X9500000Y5000000D02*
X9500000Y5750000D01*
D10*
X24750000Y29750000D02*
X24750000Y25289978D01*
D10*
X20605011Y22855011D02*
X24955011Y22855011D01*
D10*
X28500000Y32000000D02*
X29250000Y31250000D01*
D10*
X25400000Y25150000D02*
X24355011Y24105011D01*
D10*
X23355011Y29644989D02*
X23000000Y30000000D01*
D10*
X30000000Y30250000D02*
X30000000Y33000000D01*
D10*
X25400000Y27900000D02*
X25400000Y25150000D01*
D10*
X24605011Y25144989D02*
X23855011Y25144989D01*
D10*
X13750000Y17000000D02*
X13750000Y18500000D01*
D10*
X29250000Y31250000D02*
X29250000Y30500000D01*
D10*
X22500000Y35250000D02*
X22500000Y32000000D01*
D10*
X29250000Y24000000D02*
X28500000Y24750000D01*
D10*
X28500000Y24750000D02*
X28500000Y28750000D01*
D10*
X24955011Y22855011D02*
X26050000Y23950000D01*
D10*
X10750000Y37000000D02*
X4000000Y30250000D01*
D10*
X24355011Y24105011D02*
X23355011Y24105011D01*
D10*
X14500000Y18250000D02*
X15105011Y18855011D01*
D10*
X6000000Y30250000D02*
X7780000Y32030000D01*
D11*
X27750000Y-29500000D02*
X30000000Y-29500000D01*
D11*
X29500000Y-28500000D02*
X31250000Y-28500000D01*
D10*
X15105011Y18855011D02*
X17644989Y18855011D01*
D10*
X6000000Y23000000D02*
X6000000Y30250000D01*
D10*
X12500000Y18750000D02*
X13750000Y20000000D01*
D10*
X14250000Y22750000D02*
X15000000Y22000000D01*
D10*
X28250000Y30750000D02*
X25400000Y27900000D01*
D10*
X14500000Y17500000D02*
X14500000Y18250000D01*
D10*
X4000000Y30250000D02*
X4000000Y23750000D01*
D11*
X26250000Y-23250000D02*
X26250000Y-25250000D01*
D11*
X20250000Y-16750000D02*
X20000000Y-16750000D01*
D10*
X19250000Y26750000D02*
X21750000Y29250000D01*
D10*
X18214969Y19285031D02*
X19250000Y18250000D01*
D10*
X13750000Y18500000D02*
X14535031Y19285031D01*
D10*
X10000000Y20000000D02*
X11250000Y18750000D01*
D10*
X18250000Y22000000D02*
X23355011Y27105011D01*
D10*
X14535031Y19285031D02*
X18214969Y19285031D01*
D10*
X23000000Y30000000D02*
X23000000Y31500000D01*
D10*
X7493474Y6756526D02*
X7493474Y18743474D01*
D11*
X22250000Y-26250000D02*
X22250000Y-21250000D01*
D10*
X12000000Y15750000D02*
X12500000Y16250000D01*
D11*
X26250000Y-25250000D02*
X29500000Y-28500000D01*
D10*
X5500000Y20000000D02*
X10000000Y20000000D01*
D11*
X31250000Y-28500000D02*
X33500000Y-30750000D01*
D10*
X17644989Y18855011D02*
X18750000Y17750000D01*
D11*
X32750000Y-31500000D02*
X33500000Y-31500000D01*
D10*
X7780000Y32030000D02*
X16970000Y32030000D01*
D10*
X7493474Y18743474D02*
X7500000Y18750000D01*
D11*
X29250000Y-18250000D02*
X29250000Y-15750000D01*
D10*
X10979680Y25879680D02*
X13879680Y25879680D01*
D11*
X25500000Y-28750000D02*
X24750000Y-28750000D01*
D10*
X8000000Y17000000D02*
X8250000Y17250000D01*
D10*
X23750000Y30750000D02*
X24750000Y29750000D01*
D10*
X23355011Y27105011D02*
X23355011Y29644989D01*
D10*
X13879680Y25879680D02*
X14750000Y26750000D01*
D10*
X28750000Y15500000D02*
X29250000Y16000000D01*
D10*
X29250000Y16000000D02*
X29250000Y24000000D01*
D11*
X30250000Y-27250000D02*
X29250000Y-26250000D01*
D10*
X14750000Y26750000D02*
X19250000Y26750000D01*
D10*
X22500000Y32000000D02*
X23000000Y31500000D01*
D11*
X24750000Y-28750000D02*
X22250000Y-26250000D01*
D10*
X17750000Y20000000D02*
X20605011Y22855011D01*
D10*
X4000000Y18500000D02*
X5500000Y20000000D01*
D11*
X32000000Y-31500000D02*
X32750000Y-31500000D01*
D11*
X33500000Y-30750000D02*
X33500000Y-31500000D01*
D11*
X20250000Y-18750000D02*
X20000000Y-18750000D01*
D10*
X13250000Y37000000D02*
X10750000Y37000000D01*
D10*
X8000000Y7250000D02*
X8000000Y17000000D01*
D10*
X27750000Y29000000D02*
X27750000Y17000000D01*
D10*
X23355011Y24644989D02*
X23355011Y24105011D01*
D10*
X28500000Y28750000D02*
X30000000Y30250000D01*
D11*
X20750000Y-17250000D02*
X21125000Y-17250000D01*
D10*
X27750000Y17000000D02*
X28500000Y16250000D01*
D10*
X76050000Y23950000D02*
X76050000Y25049890D01*
D10*
X62500000Y16250000D02*
X62500000Y18750000D01*
D11*
X80000000Y-29500000D02*
X82000000Y-31500000D01*
D10*
X71750000Y29250000D02*
X71750000Y30750000D01*
D10*
X74750000Y25289978D02*
X74605011Y25144989D01*
D10*
X59000000Y5250000D02*
X57493474Y6756526D01*
D10*
X61500000Y15750000D02*
X62000000Y15750000D01*
D11*
X79250000Y-26250000D02*
X79250000Y-18250000D01*
D10*
X65000000Y22000000D02*
X68250000Y22000000D01*
D10*
X73855011Y25144989D02*
X73355011Y24644989D01*
D10*
X79250000Y30500000D02*
X77750000Y29000000D01*
D10*
X73355011Y24105011D02*
X72750000Y23500000D01*
D10*
X54000000Y23750000D02*
X55250000Y22500000D01*
D11*
X70750000Y-19500000D02*
X71125000Y-19250000D01*
D10*
X59500000Y5750000D02*
X58000000Y7250000D01*
D10*
X63500000Y36750000D02*
X63250000Y37000000D01*
D10*
X59500000Y5000000D02*
X59500000Y5750000D01*
D10*
X74750000Y29750000D02*
X74750000Y25289978D01*
D10*
X70605011Y22855011D02*
X74955011Y22855011D01*
D10*
X78500000Y32000000D02*
X79250000Y31250000D01*
D10*
X75400000Y25150000D02*
X74355011Y24105011D01*
D10*
X73355011Y29644989D02*
X73000000Y30000000D01*
D10*
X80000000Y30250000D02*
X80000000Y33000000D01*
D10*
X75400000Y27900000D02*
X75400000Y25150000D01*
D10*
X74605011Y25144989D02*
X73855011Y25144989D01*
D10*
X63750000Y17000000D02*
X63750000Y18500000D01*
D10*
X79250000Y31250000D02*
X79250000Y30500000D01*
D10*
X72500000Y35250000D02*
X72500000Y32000000D01*
D10*
X79250000Y24000000D02*
X78500000Y24750000D01*
D10*
X78500000Y24750000D02*
X78500000Y28750000D01*
D10*
X74955011Y22855011D02*
X76050000Y23950000D01*
D10*
X60750000Y37000000D02*
X54000000Y30250000D01*
D10*
X74355011Y24105011D02*
X73355011Y24105011D01*
D10*
X64500000Y18250000D02*
X65105011Y18855011D01*
D10*
X56000000Y30250000D02*
X57780000Y32030000D01*
D11*
X77750000Y-29500000D02*
X80000000Y-29500000D01*
D11*
X79500000Y-28500000D02*
X81250000Y-28500000D01*
D10*
X65105011Y18855011D02*
X67644989Y18855011D01*
D10*
X56000000Y23000000D02*
X56000000Y30250000D01*
D10*
X62500000Y18750000D02*
X63750000Y20000000D01*
D10*
X64250000Y22750000D02*
X65000000Y22000000D01*
D10*
X78250000Y30750000D02*
X75400000Y27900000D01*
D10*
X64500000Y17500000D02*
X64500000Y18250000D01*
D10*
X54000000Y30250000D02*
X54000000Y23750000D01*
D11*
X76250000Y-23250000D02*
X76250000Y-25250000D01*
D11*
X70250000Y-16750000D02*
X70000000Y-16750000D01*
D10*
X69250000Y26750000D02*
X71750000Y29250000D01*
D10*
X68214969Y19285031D02*
X69250000Y18250000D01*
D10*
X63750000Y18500000D02*
X64535031Y19285031D01*
D10*
X60000000Y20000000D02*
X61250000Y18750000D01*
D10*
X68250000Y22000000D02*
X73355011Y27105011D01*
D10*
X64535031Y19285031D02*
X68214969Y19285031D01*
D10*
X73000000Y30000000D02*
X73000000Y31500000D01*
D10*
X57493474Y6756526D02*
X57493474Y18743474D01*
D11*
X72250000Y-26250000D02*
X72250000Y-21250000D01*
D10*
X62000000Y15750000D02*
X62500000Y16250000D01*
D11*
X76250000Y-25250000D02*
X79500000Y-28500000D01*
D10*
X55500000Y20000000D02*
X60000000Y20000000D01*
D11*
X81250000Y-28500000D02*
X83500000Y-30750000D01*
D10*
X67644989Y18855011D02*
X68750000Y17750000D01*
D11*
X82750000Y-31500000D02*
X83500000Y-31500000D01*
D10*
X57780000Y32030000D02*
X66970000Y32030000D01*
D10*
X57493474Y18743474D02*
X57500000Y18750000D01*
D11*
X79250000Y-18250000D02*
X79250000Y-15750000D01*
D10*
X60979680Y25879680D02*
X63879680Y25879680D01*
D11*
X75500000Y-28750000D02*
X74750000Y-28750000D01*
D10*
X58000000Y17000000D02*
X58250000Y17250000D01*
D10*
X73750000Y30750000D02*
X74750000Y29750000D01*
D10*
X73355011Y27105011D02*
X73355011Y29644989D01*
D10*
X63879680Y25879680D02*
X64750000Y26750000D01*
D10*
X78750000Y15500000D02*
X79250000Y16000000D01*
D10*
X79250000Y16000000D02*
X79250000Y24000000D01*
D11*
X80250000Y-27250000D02*
X79250000Y-26250000D01*
D10*
X64750000Y26750000D02*
X69250000Y26750000D01*
D10*
X72500000Y32000000D02*
X73000000Y31500000D01*
D11*
X74750000Y-28750000D02*
X72250000Y-26250000D01*
D10*
X67750000Y20000000D02*
X70605011Y22855011D01*
D10*
X54000000Y18500000D02*
X55500000Y20000000D01*
D11*
X82000000Y-31500000D02*
X82750000Y-31500000D01*
D11*
X83500000Y-30750000D02*
X83500000Y-31500000D01*
D11*
X70250000Y-18750000D02*
X70000000Y-18750000D01*
D10*
X63250000Y37000000D02*
X60750000Y37000000D01*
D10*
X58000000Y7250000D02*
X58000000Y17000000D01*
D10*
X77750000Y29000000D02*
X77750000Y17000000D01*
D10*
X73355011Y24644989D02*
X73355011Y24105011D01*
D10*
X78500000Y28750000D02*
X80000000Y30250000D01*
D11*
X70750000Y-17250000D02*
X71125000Y-17250000D01*
D10*
X77750000Y17000000D02*
X78500000Y16250000D01*
G75*
D12*
X6850000Y-18185000D03*
D12*
X4310000Y-19330000D03*
D12*
X4310000Y-10170000D03*
D12*
X4310000Y-12460000D03*
D12*
X6850000Y-11315000D03*
D12*
X4310000Y-14750000D03*
D12*
X6850000Y-13605000D03*
D12*
X9390000Y-12460000D03*
D12*
X9390000Y-17040000D03*
D12*
X6850000Y-15895000D03*
D12*
X9390000Y-19330000D03*
D12*
X9390000Y-10170000D03*
D12*
X6850000Y-20475000D03*
D12*
X4310000Y-17040000D03*
D13*
X6850000Y-27495000D03*
D13*
X6850000Y-2505000D03*
D12*
X9390000Y-14750000D03*
D14*
X860000Y7250000D03*
D14*
X860000Y21750000D03*
D15*
X-5100000Y21750000D03*
D15*
X-5100000Y7250000D03*
D16*
X18750000Y10250000D03*
D16*
X24050000Y27049890D03*
D16*
X18750000Y8500000D03*
D16*
X17500000Y6000000D03*
D16*
X22750000Y17250000D03*
D16*
X11500000Y15750000D03*
D16*
X28250000Y-24250000D03*
D17*
X24250000Y-21750000D03*
D16*
X30250000Y-5500000D03*
D17*
X4000000Y11250000D03*
D17*
X26600000Y-12650000D03*
D16*
X32600000Y-12250000D03*
D16*
X28500000Y32000000D03*
D16*
X37500000Y-15900000D03*
D16*
X36000000Y-20750000D03*
D16*
X36500000Y16250000D03*
D16*
X23500000Y-15500000D03*
D17*
X20250000Y-18750000D03*
D16*
X17875000Y-19250000D03*
D16*
X14250000Y22750000D03*
D16*
X-2000000Y41000000D03*
D16*
X40250000Y23000000D03*
D16*
X18000000Y-5750000D03*
D17*
X14250000Y-17000000D03*
D16*
X38000000Y-20750000D03*
D16*
X21750000Y30750000D03*
D16*
X37000000Y-20750000D03*
D16*
X23500000Y-17000000D03*
D16*
X40500000Y-30250000D03*
D16*
X24750000Y-27250000D03*
D16*
X37800000Y-29450000D03*
D16*
X26250000Y-23250000D03*
D16*
X18750000Y35250000D03*
D16*
X22500000Y35250000D03*
D16*
X13750000Y17000000D03*
D16*
X22000000Y5750000D03*
D17*
X20750000Y-17250000D03*
D16*
X-5000000Y27000000D03*
D17*
X3250000Y13500000D03*
D16*
X29525000Y24950000D03*
D16*
X33000000Y-20750000D03*
D16*
X39000000Y-20750000D03*
D16*
X33500000Y-31500000D03*
D16*
X25125000Y-18500000D03*
D16*
X40000000Y-19750000D03*
D16*
X9000000Y30250000D03*
D17*
X27750000Y-21250000D03*
D16*
X32000000Y-31500000D03*
D16*
X40250000Y2250000D03*
D17*
X23000000Y-21250000D03*
D16*
X33875000Y-12875000D03*
D16*
X35750000Y2250000D03*
D16*
X26750000Y17750000D03*
D16*
X40000000Y-14750000D03*
D16*
X18750002Y36499999D03*
D16*
X16500000Y18250000D03*
D16*
X8750000Y16000000D03*
D16*
X26000000Y17750000D03*
D16*
X34520000Y10250000D03*
D16*
X26050000Y25049890D03*
D16*
X38000000Y16250000D03*
D16*
X23458871Y6020565D03*
D16*
X34000000Y-20750000D03*
D17*
X12250000Y7995000D03*
D17*
X16425000Y10500000D03*
D16*
X-5160000Y28000000D03*
D16*
X30750000Y23500000D03*
D16*
X18250000Y24250000D03*
D16*
X5250000Y22500000D03*
D16*
X25500000Y-28750000D03*
D16*
X16250000Y-5000000D03*
D16*
X35550000Y22375000D03*
D16*
X20000002Y35249999D03*
D16*
X33500000Y13250000D03*
D17*
X27250000Y-21750000D03*
D16*
X18750000Y20000000D03*
D16*
X35750000Y-17800000D03*
D16*
X36100000Y-12250000D03*
D16*
X9250000Y13750000D03*
D16*
X37500000Y-15100000D03*
D17*
X3250000Y17995000D03*
D16*
X-5750000Y27000000D03*
D16*
X19750000Y5500000D03*
D16*
X1095799Y37325633D03*
D16*
X35600000Y34875000D03*
D16*
X35150000Y-12250000D03*
D16*
X20500000Y5750000D03*
D16*
X17500000Y4500000D03*
D16*
X23750000Y30750000D03*
D16*
X-5000000Y41000000D03*
D16*
X22750000Y3000000D03*
D16*
X22250000Y10250000D03*
D16*
X40250000Y16250000D03*
D16*
X25000000Y-17000000D03*
D16*
X15000000Y-6750000D03*
D16*
X18000000Y17500000D03*
D16*
X9000000Y24000000D03*
D16*
X35750000Y-17000000D03*
D17*
X3250000Y15000000D03*
D17*
X3250000Y10500000D03*
D16*
X23500000Y18750000D03*
D16*
X-6500000Y30500000D03*
D16*
X5250000Y25000000D03*
D16*
X16250000Y7250000D03*
D17*
X29250000Y-18250000D03*
D16*
X17500002Y36499999D03*
D16*
X35800000Y-27450000D03*
D16*
X28750000Y40500000D03*
D16*
X40000000Y-16750000D03*
D16*
X35800000Y-26450000D03*
D16*
X-3500000Y41000000D03*
D16*
X41000000Y16250000D03*
D16*
X39500000Y2250000D03*
D16*
X23000000Y31500000D03*
D17*
X14000000Y12000000D03*
D16*
X39500000Y16250000D03*
D17*
X9000000Y5250000D03*
D17*
X16970000Y32030000D03*
D16*
X35625000Y-12875000D03*
D16*
X28500000Y-31000000D03*
D16*
X18750000Y4500000D03*
D16*
X39125000Y-11625000D03*
D16*
X-2000000Y27000000D03*
D16*
X15000000Y-26250000D03*
D17*
X16425000Y12000000D03*
D16*
X34250000Y17000000D03*
D16*
X20000000Y18000000D03*
D16*
X38650000Y-12250000D03*
D16*
X37250000Y16250000D03*
D16*
X-3500000Y27000000D03*
D16*
X30000000Y27750000D03*
D16*
X27750000Y31500000D03*
D17*
X16424686Y9000163D03*
D16*
X6075000Y19175000D03*
D17*
X20750000Y-14750000D03*
D16*
X21500000Y20750000D03*
D16*
X20500000Y29250000D03*
D17*
X12750000Y7500000D03*
D17*
X3250000Y12000000D03*
D16*
X20000002Y33999999D03*
D16*
X18000000Y-12000000D03*
D16*
X24250000Y-8750000D03*
D16*
X39250000Y-14150000D03*
D16*
X40000000Y-18750000D03*
D16*
X25500000Y-8250000D03*
D16*
X-4250000Y27000000D03*
D16*
X13750000Y20000000D03*
D16*
X18750000Y12000000D03*
D16*
X33500000Y16250000D03*
D16*
X22750000Y28750000D03*
D17*
X26250000Y-21750000D03*
D16*
X25250000Y17750000D03*
D16*
X13500000Y-10250000D03*
D16*
X30250000Y-31500000D03*
D16*
X17000000Y38750000D03*
D16*
X33400000Y-12250000D03*
D16*
X20250000Y30750000D03*
D16*
X10250000Y13750000D03*
D16*
X40300000Y29250000D03*
D16*
X39250000Y-13350000D03*
D16*
X20000000Y15500000D03*
D16*
X29000000Y2750000D03*
D16*
X-6500000Y41000000D03*
D16*
X30750000Y22500000D03*
D17*
X22250000Y-21250000D03*
D16*
X26250000Y37000000D03*
D16*
X17500002Y33999999D03*
D16*
X38000000Y2250000D03*
D16*
X24250000Y-24250000D03*
D16*
X-5160000Y40000000D03*
D16*
X31750000Y-15750000D03*
D16*
X20500000Y21500000D03*
D16*
X26000000Y12250000D03*
D16*
X-288949Y28824203D03*
D17*
X24750000Y-21225000D03*
D17*
X14000000Y9000000D03*
D16*
X9250000Y7250000D03*
D16*
X32000000Y-20250000D03*
D16*
X1500000Y30500000D03*
D16*
X-7250000Y30500000D03*
D16*
X32000000Y-11625000D03*
D17*
X20750000Y-18250000D03*
D16*
X13750000Y-5750000D03*
D16*
X18000000Y-14000000D03*
D16*
X30250000Y8000000D03*
D16*
X38250000Y-15500000D03*
D16*
X6000000Y23000000D03*
D16*
X30750000Y21500000D03*
D16*
X35800000Y-28450000D03*
D16*
X19500000Y-28250000D03*
D16*
X4961051Y26074203D03*
D16*
X23000000Y-8750000D03*
D16*
X28750000Y15500000D03*
D16*
X10250000Y7250000D03*
D16*
X22750000Y5500000D03*
D16*
X26250000Y36000000D03*
D16*
X37375000Y-11625000D03*
D16*
X26500000Y-15500000D03*
D16*
X30250000Y-27250000D03*
D17*
X29250000Y-15750000D03*
D16*
X-770000Y33000000D03*
D17*
X13750000Y10500000D03*
D17*
X12250000Y-17000000D03*
D16*
X15000000Y37500000D03*
D16*
X19750000Y28750000D03*
D16*
X32000000Y-12875000D03*
D16*
X35600000Y28625000D03*
D16*
X5211051Y28824203D03*
D16*
X2500000Y31750000D03*
D16*
X-4410000Y29000000D03*
D16*
X38750000Y16250000D03*
D16*
X34250000Y16250000D03*
D16*
X11500000Y16750000D03*
D17*
X10000000Y5250000D03*
D16*
X25250000Y34000000D03*
D16*
X18250000Y29500000D03*
D16*
X9250000Y8500000D03*
D16*
X22250000Y12000000D03*
D16*
X-4410000Y39000000D03*
D16*
X15000000Y-4000000D03*
D16*
X28500000Y14000000D03*
D16*
X17500000Y-6750000D03*
D16*
X27500000Y-6750000D03*
D16*
X20500000Y12000000D03*
D16*
X38800000Y35500000D03*
D16*
X20500000Y10250000D03*
D16*
X9250000Y11500000D03*
D16*
X27750000Y-29500000D03*
D16*
X-2750000Y41000000D03*
D16*
X38910000Y3250000D03*
D16*
X27250000Y-24250000D03*
D16*
X-5000000Y30500000D03*
D16*
X38750000Y23000000D03*
D16*
X38800000Y29250000D03*
D17*
X20250000Y-16000000D03*
D16*
X18750002Y33999999D03*
D16*
X39500000Y23000000D03*
D17*
X22000000Y-12750000D03*
D16*
X40000000Y-17750000D03*
D17*
X4000000Y14250000D03*
D16*
X4000000Y18500000D03*
D16*
X-6500000Y27000000D03*
D16*
X22250000Y8500000D03*
D16*
X-5750000Y41000000D03*
D16*
X31500000Y14000000D03*
D16*
X25500000Y6250000D03*
D16*
X-5160000Y39000000D03*
D16*
X31750000Y6000000D03*
D16*
X21000000Y-11000000D03*
D16*
X38160000Y4250000D03*
D17*
X5425000Y15825000D03*
D16*
X13750000Y-12000000D03*
D16*
X-770000Y34500000D03*
D16*
X30000000Y33000000D03*
D16*
X37250000Y2250000D03*
D16*
X32750000Y-31500000D03*
D16*
X34520000Y12000000D03*
D16*
X-1020000Y36750000D03*
D16*
X35625000Y-11625000D03*
D17*
X25750000Y-11750000D03*
D16*
X10250000Y8500000D03*
D16*
X38750000Y2250000D03*
D16*
X38160000Y15250000D03*
D16*
X23500000Y-18500000D03*
D16*
X19750000Y3000000D03*
D16*
X13500000Y36750000D03*
D16*
X33875000Y-11625000D03*
D16*
X28250000Y30750000D03*
D16*
X17750000Y20000000D03*
D16*
X31750000Y-14000000D03*
D16*
X-2750000Y27000000D03*
D16*
X24050000Y28105000D03*
D16*
X7500000Y18750000D03*
D16*
X26500000Y-17000000D03*
D16*
X34750000Y-19000000D03*
D16*
X34000000Y-19400000D03*
D16*
X11250000Y18750000D03*
D16*
X38910000Y15250000D03*
D17*
X18000000Y31000000D03*
D16*
X35000000Y-20750000D03*
D16*
X32500000Y11000000D03*
D16*
X-7250000Y27000000D03*
D16*
X14500000Y4750000D03*
D16*
X18000000Y15000000D03*
D16*
X28500000Y16250000D03*
D16*
X25000000Y12250000D03*
D16*
X23000000Y-23000000D03*
D16*
X31115000Y35635000D03*
D16*
X31750000Y4500000D03*
D17*
X26750000Y-21250000D03*
D16*
X40000000Y-13750000D03*
D16*
X38160000Y14250000D03*
D16*
X21250000Y3000000D03*
D16*
X29250000Y-14000000D03*
D16*
X31750000Y-18250000D03*
D17*
X25750000Y-21250000D03*
D16*
X38910000Y4250000D03*
D17*
X9500000Y5000000D03*
D16*
X28750000Y37750000D03*
D16*
X12500000Y-3000000D03*
D16*
X7450388Y27195104D03*
D16*
X25000000Y-15500000D03*
D16*
X39550000Y35500000D03*
D16*
X20000002Y36499999D03*
D17*
X19745000Y14500000D03*
D16*
X38160000Y3250000D03*
D16*
X8250000Y17250000D03*
D17*
X18750000Y17750000D03*
D17*
X20250000Y-16750000D03*
D16*
X36900000Y-12250000D03*
D16*
X22000000Y15500000D03*
D16*
X-4250000Y30500000D03*
D16*
X27250000Y36000000D03*
D16*
X-7250000Y41000000D03*
D16*
X37850000Y-12250000D03*
D16*
X38910000Y14250000D03*
D16*
X34500000Y-25750000D03*
D16*
X37375000Y-12875000D03*
D16*
X20625000Y8500000D03*
D17*
X10500000Y5000000D03*
D16*
X21250000Y5500000D03*
D17*
X17500000Y31530000D03*
D16*
X40000000Y-23750000D03*
D16*
X39550000Y29250000D03*
D16*
X36500000Y2250000D03*
D16*
X-5750000Y30500000D03*
D16*
X36500000Y-17400000D03*
D16*
X17900000Y-16750000D03*
D16*
X32520000Y5750000D03*
D17*
X20750000Y-19500000D03*
D16*
X30500000Y-10645000D03*
D16*
X25250000Y-24250000D03*
D16*
X28750000Y8000000D03*
D16*
X17500002Y35249999D03*
D16*
X17000000Y15000000D03*
D16*
X40300000Y35500000D03*
D16*
X-4250000Y41000000D03*
D16*
X18000000Y-3500000D03*
D16*
X34000000Y-18600000D03*
D16*
X17000000Y17500000D03*
D16*
X40000000Y-20750000D03*
D16*
X21500000Y22250000D03*
D16*
X35750000Y16250000D03*
D16*
X19000000Y-12250000D03*
D16*
X-4410000Y28000000D03*
D16*
X26500000Y-18500000D03*
D16*
X34520000Y8750000D03*
D16*
X10979680Y25879680D03*
D16*
X6750000Y28750000D03*
D16*
X40000000Y-15750000D03*
D16*
X5211051Y27324203D03*
D16*
X34350000Y-12250000D03*
D16*
X-4410000Y40000000D03*
D16*
X-770000Y31250000D03*
D16*
X10250000Y11500000D03*
D17*
X19250000Y18250000D03*
D16*
X32750000Y20500000D03*
D16*
X-5160000Y29000000D03*
D16*
X22750000Y23500000D03*
D17*
X25000000Y-11750000D03*
D16*
X13719997Y37750000D03*
D16*
X23000000Y15750000D03*
D16*
X14500000Y17500000D03*
D16*
X9750000Y10500000D03*
D16*
X24050000Y26049890D03*
D16*
X34770000Y6500000D03*
D12*
X56850000Y-18185000D03*
D12*
X54310000Y-19330000D03*
D12*
X54310000Y-10170000D03*
D12*
X54310000Y-12460000D03*
D12*
X56850000Y-11315000D03*
D12*
X54310000Y-14750000D03*
D12*
X56850000Y-13605000D03*
D12*
X59390000Y-12460000D03*
D12*
X59390000Y-17040000D03*
D12*
X56850000Y-15895000D03*
D12*
X59390000Y-19330000D03*
D12*
X59390000Y-10170000D03*
D12*
X56850000Y-20475000D03*
D12*
X54310000Y-17040000D03*
D13*
X56850000Y-27495000D03*
D13*
X56850000Y-2505000D03*
D12*
X59390000Y-14750000D03*
D14*
X50860000Y7250000D03*
D14*
X50860000Y21750000D03*
D15*
X44900000Y21750000D03*
D15*
X44900000Y7250000D03*
D16*
X68750000Y10250000D03*
D16*
X74050000Y27049890D03*
D16*
X68750000Y8500000D03*
D16*
X67500000Y6000000D03*
D16*
X72750000Y17250000D03*
D16*
X61500000Y15750000D03*
D16*
X78250000Y-24250000D03*
D17*
X74250000Y-21750000D03*
D16*
X80250000Y-5500000D03*
D17*
X54000000Y11250000D03*
D17*
X76600000Y-12650000D03*
D16*
X82600000Y-12250000D03*
D16*
X78500000Y32000000D03*
D16*
X87500000Y-15900000D03*
D16*
X86000000Y-20750000D03*
D16*
X86500000Y16250000D03*
D16*
X73500000Y-15500000D03*
D17*
X70250000Y-18750000D03*
D16*
X67875000Y-19250000D03*
D16*
X64250000Y22750000D03*
D16*
X48000000Y41000000D03*
D16*
X90250000Y23000000D03*
D16*
X68000000Y-5750000D03*
D17*
X64250000Y-17000000D03*
D16*
X88000000Y-20750000D03*
D16*
X71750000Y30750000D03*
D16*
X87000000Y-20750000D03*
D16*
X73500000Y-17000000D03*
D16*
X90500000Y-30250000D03*
D16*
X74750000Y-27250000D03*
D16*
X87800000Y-29450000D03*
D16*
X76250000Y-23250000D03*
D16*
X68750000Y35250000D03*
D16*
X72500000Y35250000D03*
D16*
X63750000Y17000000D03*
D16*
X72000000Y5750000D03*
D17*
X70750000Y-17250000D03*
D16*
X45000000Y27000000D03*
D17*
X53250000Y13500000D03*
D16*
X79525000Y24950000D03*
D16*
X83000000Y-20750000D03*
D16*
X89000000Y-20750000D03*
D16*
X83500000Y-31500000D03*
D16*
X75125000Y-18500000D03*
D16*
X90000000Y-19750000D03*
D16*
X59000000Y30250000D03*
D17*
X77750000Y-21250000D03*
D16*
X82000000Y-31500000D03*
D16*
X90250000Y2250000D03*
D17*
X73000000Y-21250000D03*
D16*
X83875000Y-12875000D03*
D16*
X85750000Y2250000D03*
D16*
X76750000Y17750000D03*
D16*
X90000000Y-14750000D03*
D16*
X68750002Y36499999D03*
D16*
X66500000Y18250000D03*
D16*
X58750000Y16000000D03*
D16*
X76000000Y17750000D03*
D16*
X84520000Y10250000D03*
D16*
X76050000Y25049890D03*
D16*
X88000000Y16250000D03*
D16*
X73458871Y6020565D03*
D16*
X84000000Y-20750000D03*
D17*
X62250000Y7995000D03*
D17*
X66425000Y10500000D03*
D16*
X44840000Y28000000D03*
D16*
X80750000Y23500000D03*
D16*
X68250000Y24250000D03*
D16*
X55250000Y22500000D03*
D16*
X75500000Y-28750000D03*
D16*
X66250000Y-5000000D03*
D16*
X85550000Y22375000D03*
D16*
X70000002Y35249999D03*
D16*
X83500000Y13250000D03*
D17*
X77250000Y-21750000D03*
D16*
X68750000Y20000000D03*
D16*
X85750000Y-17800000D03*
D16*
X86100000Y-12250000D03*
D16*
X59250000Y13750000D03*
D16*
X87500000Y-15100000D03*
D17*
X53250000Y17995000D03*
D16*
X44250000Y27000000D03*
D16*
X69750000Y5500000D03*
D16*
X51095799Y37325633D03*
D16*
X85600000Y34875000D03*
D16*
X85150000Y-12250000D03*
D16*
X70500000Y5750000D03*
D16*
X67500000Y4500000D03*
D16*
X73750000Y30750000D03*
D16*
X45000000Y41000000D03*
D16*
X72750000Y3000000D03*
D16*
X72250000Y10250000D03*
D16*
X90250000Y16250000D03*
D16*
X75000000Y-17000000D03*
D16*
X65000000Y-6750000D03*
D16*
X68000000Y17500000D03*
D16*
X59000000Y24000000D03*
D16*
X85750000Y-17000000D03*
D17*
X53250000Y15000000D03*
D17*
X53250000Y10500000D03*
D16*
X73500000Y18750000D03*
D16*
X43500000Y30500000D03*
D16*
X55250000Y25000000D03*
D16*
X66250000Y7250000D03*
D17*
X79250000Y-18250000D03*
D16*
X67500002Y36499999D03*
D16*
X85800000Y-27450000D03*
D16*
X78750000Y40500000D03*
D16*
X90000000Y-16750000D03*
D16*
X85800000Y-26450000D03*
D16*
X46500000Y41000000D03*
D16*
X91000000Y16250000D03*
D16*
X89500000Y2250000D03*
D16*
X73000000Y31500000D03*
D17*
X64000000Y12000000D03*
D16*
X89500000Y16250000D03*
D17*
X59000000Y5250000D03*
D17*
X66970000Y32030000D03*
D16*
X85625000Y-12875000D03*
D16*
X78500000Y-31000000D03*
D16*
X68750000Y4500000D03*
D16*
X89125000Y-11625000D03*
D16*
X48000000Y27000000D03*
D16*
X65000000Y-26250000D03*
D17*
X66425000Y12000000D03*
D16*
X84250000Y17000000D03*
D16*
X70000000Y18000000D03*
D16*
X88650000Y-12250000D03*
D16*
X87250000Y16250000D03*
D16*
X46500000Y27000000D03*
D16*
X80000000Y27750000D03*
D16*
X77750000Y31500000D03*
D17*
X66424686Y9000163D03*
D16*
X56075000Y19175000D03*
D17*
X70750000Y-14750000D03*
D16*
X71500000Y20750000D03*
D16*
X70500000Y29250000D03*
D17*
X62750000Y7500000D03*
D17*
X53250000Y12000000D03*
D16*
X70000002Y33999999D03*
D16*
X68000000Y-12000000D03*
D16*
X74250000Y-8750000D03*
D16*
X89250000Y-14150000D03*
D16*
X90000000Y-18750000D03*
D16*
X75500000Y-8250000D03*
D16*
X45750000Y27000000D03*
D16*
X63750000Y20000000D03*
D16*
X68750000Y12000000D03*
D16*
X83500000Y16250000D03*
D16*
X72750000Y28750000D03*
D17*
X76250000Y-21750000D03*
D16*
X75250000Y17750000D03*
D16*
X63500000Y-10250000D03*
D16*
X80250000Y-31500000D03*
D16*
X67000000Y38750000D03*
D16*
X83400000Y-12250000D03*
D16*
X70250000Y30750000D03*
D16*
X60250000Y13750000D03*
D16*
X90300000Y29250000D03*
D16*
X89250000Y-13350000D03*
D16*
X70000000Y15500000D03*
D16*
X79000000Y2750000D03*
D16*
X43500000Y41000000D03*
D16*
X80750000Y22500000D03*
D17*
X72250000Y-21250000D03*
D16*
X76250000Y37000000D03*
D16*
X67500002Y33999999D03*
D16*
X88000000Y2250000D03*
D16*
X74250000Y-24250000D03*
D16*
X44840000Y40000000D03*
D16*
X81750000Y-15750000D03*
D16*
X70500000Y21500000D03*
D16*
X76000000Y12250000D03*
D16*
X49711051Y28824203D03*
D17*
X74750000Y-21225000D03*
D17*
X64000000Y9000000D03*
D16*
X59250000Y7250000D03*
D16*
X82000000Y-20250000D03*
D16*
X51500000Y30500000D03*
D16*
X42750000Y30500000D03*
D16*
X82000000Y-11625000D03*
D17*
X70750000Y-18250000D03*
D16*
X63750000Y-5750000D03*
D16*
X68000000Y-14000000D03*
D16*
X80250000Y8000000D03*
D16*
X88250000Y-15500000D03*
D16*
X56000000Y23000000D03*
D16*
X80750000Y21500000D03*
D16*
X85800000Y-28450000D03*
D16*
X69500000Y-28250000D03*
D16*
X54961051Y26074203D03*
D16*
X73000000Y-8750000D03*
D16*
X78750000Y15500000D03*
D16*
X60250000Y7250000D03*
D16*
X72750000Y5500000D03*
D16*
X76250000Y36000000D03*
D16*
X87375000Y-11625000D03*
D16*
X76500000Y-15500000D03*
D16*
X80250000Y-27250000D03*
D17*
X79250000Y-15750000D03*
D16*
X49230000Y33000000D03*
D17*
X63750000Y10500000D03*
D17*
X62250000Y-17000000D03*
D16*
X65000000Y37500000D03*
D16*
X69750000Y28750000D03*
D16*
X82000000Y-12875000D03*
D16*
X85600000Y28625000D03*
D16*
X55211051Y28824203D03*
D16*
X52500000Y31750000D03*
D16*
X45590000Y29000000D03*
D16*
X88750000Y16250000D03*
D16*
X84250000Y16250000D03*
D16*
X61500000Y16750000D03*
D17*
X60000000Y5250000D03*
D16*
X75250000Y34000000D03*
D16*
X68250000Y29500000D03*
D16*
X59250000Y8500000D03*
D16*
X72250000Y12000000D03*
D16*
X45590000Y39000000D03*
D16*
X65000000Y-4000000D03*
D16*
X78500000Y14000000D03*
D16*
X67500000Y-6750000D03*
D16*
X77500000Y-6750000D03*
D16*
X70500000Y12000000D03*
D16*
X88800000Y35500000D03*
D16*
X70500000Y10250000D03*
D16*
X59250000Y11500000D03*
D16*
X77750000Y-29500000D03*
D16*
X47250000Y41000000D03*
D16*
X88910000Y3250000D03*
D16*
X77250000Y-24250000D03*
D16*
X45000000Y30500000D03*
D16*
X88750000Y23000000D03*
D16*
X88800000Y29250000D03*
D17*
X70250000Y-16000000D03*
D16*
X68750002Y33999999D03*
D16*
X89500000Y23000000D03*
D17*
X72000000Y-12750000D03*
D16*
X90000000Y-17750000D03*
D17*
X54000000Y14250000D03*
D16*
X54000000Y18500000D03*
D16*
X43500000Y27000000D03*
D16*
X72250000Y8500000D03*
D16*
X44250000Y41000000D03*
D16*
X81500000Y14000000D03*
D16*
X75500000Y6250000D03*
D16*
X44840000Y39000000D03*
D16*
X81750000Y6000000D03*
D16*
X71000000Y-11000000D03*
D16*
X88160000Y4250000D03*
D17*
X55425000Y15825000D03*
D16*
X63750000Y-12000000D03*
D16*
X49230000Y34500000D03*
D16*
X80000000Y33000000D03*
D16*
X87250000Y2250000D03*
D16*
X82750000Y-31500000D03*
D16*
X84520000Y12000000D03*
D16*
X48980000Y36750000D03*
D16*
X85625000Y-11625000D03*
D17*
X75750000Y-11750000D03*
D16*
X60250000Y8500000D03*
D16*
X88750000Y2250000D03*
D16*
X88160000Y15250000D03*
D16*
X73500000Y-18500000D03*
D16*
X69750000Y3000000D03*
D16*
X63500000Y36750000D03*
D16*
X83875000Y-11625000D03*
D16*
X78250000Y30750000D03*
D16*
X67750000Y20000000D03*
D16*
X81750000Y-14000000D03*
D16*
X47250000Y27000000D03*
D16*
X74050000Y28105000D03*
D16*
X57500000Y18750000D03*
D16*
X76500000Y-17000000D03*
D16*
X84750000Y-19000000D03*
D16*
X84000000Y-19400000D03*
D16*
X61250000Y18750000D03*
D16*
X88910000Y15250000D03*
D17*
X68000000Y31000000D03*
D16*
X85000000Y-20750000D03*
D16*
X82500000Y11000000D03*
D16*
X42750000Y27000000D03*
D16*
X64500000Y4750000D03*
D16*
X68000000Y15000000D03*
D16*
X78500000Y16250000D03*
D16*
X75000000Y12250000D03*
D16*
X73000000Y-23000000D03*
D16*
X81115000Y35635000D03*
D16*
X81750000Y4500000D03*
D17*
X76750000Y-21250000D03*
D16*
X90000000Y-13750000D03*
D16*
X88160000Y14250000D03*
D16*
X71250000Y3000000D03*
D16*
X79250000Y-14000000D03*
D16*
X81750000Y-18250000D03*
D17*
X75750000Y-21250000D03*
D16*
X88910000Y4250000D03*
D17*
X59500000Y5000000D03*
D16*
X78750000Y37750000D03*
D16*
X62500000Y-3000000D03*
D16*
X57450388Y27195104D03*
D16*
X75000000Y-15500000D03*
D16*
X89550000Y35500000D03*
D16*
X70000002Y36499999D03*
D17*
X69745000Y14500000D03*
D16*
X88160000Y3250000D03*
D16*
X58250000Y17250000D03*
D17*
X68750000Y17750000D03*
D17*
X70250000Y-16750000D03*
D16*
X86900000Y-12250000D03*
D16*
X72000000Y15500000D03*
D16*
X45750000Y30500000D03*
D16*
X77250000Y36000000D03*
D16*
X42750000Y41000000D03*
D16*
X87850000Y-12250000D03*
D16*
X88910000Y14250000D03*
D16*
X84500000Y-25750000D03*
D16*
X87375000Y-12875000D03*
D16*
X70625000Y8500000D03*
D17*
X60500000Y5000000D03*
D16*
X71250000Y5500000D03*
D17*
X67500000Y31530000D03*
D16*
X90000000Y-23750000D03*
D16*
X89550000Y29250000D03*
D16*
X86500000Y2250000D03*
D16*
X44250000Y30500000D03*
D16*
X86500000Y-17400000D03*
D16*
X67900000Y-16750000D03*
D16*
X82520000Y5750000D03*
D17*
X70750000Y-19500000D03*
D16*
X80500000Y-10645000D03*
D16*
X75250000Y-24250000D03*
D16*
X78750000Y8000000D03*
D16*
X67500002Y35249999D03*
D16*
X67000000Y15000000D03*
D16*
X90300000Y35500000D03*
D16*
X45750000Y41000000D03*
D16*
X68000000Y-3500000D03*
D16*
X84000000Y-18600000D03*
D16*
X67000000Y17500000D03*
D16*
X90000000Y-20750000D03*
D16*
X71500000Y22250000D03*
D16*
X85750000Y16250000D03*
D16*
X69000000Y-12250000D03*
D16*
X45590000Y28000000D03*
D16*
X76500000Y-18500000D03*
D16*
X84520000Y8750000D03*
D16*
X60979680Y25879680D03*
D16*
X56750000Y28750000D03*
D16*
X90000000Y-15750000D03*
D16*
X55211051Y27324203D03*
D16*
X84350000Y-12250000D03*
D16*
X45590000Y40000000D03*
D16*
X49230000Y31250000D03*
D16*
X60250000Y11500000D03*
D17*
X69250000Y18250000D03*
D16*
X82750000Y20500000D03*
D16*
X44840000Y29000000D03*
D16*
X72750000Y23500000D03*
D17*
X75000000Y-11750000D03*
D16*
X63719997Y37750000D03*
D16*
X73000000Y15750000D03*
D16*
X64500000Y17500000D03*
D16*
X59750000Y10500000D03*
D16*
X74050000Y26049890D03*
D16*
X84770000Y6500000D03*
M02*
