%FSLAX46Y46*%
%MOMM*%
%AMPS40*
21,1,1.000000,1.000000,0.000000,0.000000,180.000000*
4,1,4,
-1.250000,0.500000,
-1.250000,-0.500000,
-2.250000,-0.500000,
-2.250000,0.500000,
-1.250000,0.500000,
0*
4,1,4,
2.250000,-1.250000,
2.250000,-2.250000,
1.250000,-2.250000,
1.250000,-1.250000,
2.250000,-1.250000,
0*
4,1,4,
-1.250000,2.250000,
-1.250000,1.250000,
-2.250000,1.250000,
-2.250000,2.250000,
-1.250000,2.250000,
0*
4,1,4,
2.250000,0.500000,
2.250000,-0.500000,
1.250000,-0.500000,
1.250000,0.500000,
2.250000,0.500000,
0*
4,1,4,
-1.250000,-1.250000,
-1.250000,-2.250000,
-2.250000,-2.250000,
-2.250000,-1.250000,
-1.250000,-1.250000,
0*
4,1,4,
2.250000,2.250000,
2.250000,1.250000,
1.250000,1.250000,
1.250000,2.250000,
2.250000,2.250000,
0*
4,1,4,
0.500000,2.250000,
0.500000,1.250000,
-0.500000,1.250000,
-0.500000,2.250000,
0.500000,2.250000,
0*
4,1,4,
0.500000,-1.250000,
0.500000,-2.250000,
-0.500000,-2.250000,
-0.500000,-1.250000,
0.500000,-1.250000,
0*
%
%ADD40PS40*%
%AMPS44*
21,1,0.750000,0.750000,0.000000,0.000000,90.000000*
4,1,4,
0.375000,0.875000,
-0.375000,0.875000,
-0.375000,1.625000,
0.375000,1.625000,
0.375000,0.875000,
0*
4,1,4,
-0.875000,-1.625000,
-1.625000,-1.625000,
-1.625000,-0.875000,
-0.875000,-0.875000,
-0.875000,-1.625000,
0*
4,1,4,
1.625000,0.875000,
0.875000,0.875000,
0.875000,1.625000,
1.625000,1.625000,
1.625000,0.875000,
0*
4,1,4,
0.375000,-1.625000,
-0.375000,-1.625000,
-0.375000,-0.875000,
0.375000,-0.875000,
0.375000,-1.625000,
0*
4,1,4,
-0.875000,0.875000,
-1.625000,0.875000,
-1.625000,1.625000,
-0.875000,1.625000,
-0.875000,0.875000,
0*
4,1,4,
1.625000,-1.625000,
0.875000,-1.625000,
0.875000,-0.875000,
1.625000,-0.875000,
1.625000,-1.625000,
0*
4,1,4,
1.625000,-0.375000,
0.875000,-0.375000,
0.875000,0.375000,
1.625000,0.375000,
1.625000,-0.375000,
0*
4,1,4,
-0.875000,-0.375000,
-1.625000,-0.375000,
-1.625000,0.375000,
-0.875000,0.375000,
-0.875000,-0.375000,
0*
%
%ADD44PS44*%
%AMPS23*
21,1,0.250000,0.500000,0.000000,0.000000,90.000000*
%
%ADD23PS23*%
%AMPS26*
21,1,0.250000,0.500000,0.000000,0.000000,270.000000*
%
%ADD26PS26*%
%AMPS46*
21,1,0.600000,1.500000,0.000000,0.000000,0.000000*
%
%ADD46PS46*%
%AMPS35*
21,1,0.600000,1.500000,0.000000,0.000000,90.000000*
%
%ADD35PS35*%
%AMPS47*
21,1,0.600000,1.500000,0.000000,0.000000,180.000000*
%
%ADD47PS47*%
%AMPS34*
21,1,0.600000,1.500000,0.000000,0.000000,270.000000*
%
%ADD34PS34*%
%AMPS24*
21,1,0.450000,0.500000,0.000000,0.000000,90.000000*
%
%ADD24PS24*%
%AMPS25*
21,1,0.450000,0.500000,0.000000,0.000000,270.000000*
%
%ADD25PS25*%
%AMPS53*
21,1,0.600000,1.150000,0.000000,0.000000,90.000000*
%
%ADD53PS53*%
%AMPS28*
21,1,0.600000,1.150000,0.000000,0.000000,270.000000*
%
%ADD28PS28*%
%AMPS57*
21,1,0.300000,0.600000,0.000000,0.000000,0.000000*
%
%ADD57PS57*%
%AMPS59*
21,1,0.300000,0.600000,0.000000,0.000000,90.000000*
%
%ADD59PS59*%
%AMPS58*
21,1,0.300000,0.600000,0.000000,0.000000,180.000000*
%
%ADD58PS58*%
%AMPS60*
21,1,0.300000,0.600000,0.000000,0.000000,270.000000*
%
%ADD60PS60*%
%AMPS33*
21,1,1.100000,1.880000,0.000000,0.000000,90.000000*
%
%ADD33PS33*%
%AMPS63*
21,1,0.300000,2.600000,0.000000,0.000000,270.000000*
%
%ADD63PS63*%
%AMPS32*
21,1,2.200000,1.880000,0.000000,0.000000,90.000000*
%
%ADD32PS32*%
%AMPS54*
21,1,2.180000,2.000000,0.000000,0.000000,90.000000*
%
%ADD54PS54*%
%AMPS29*
21,1,2.180000,2.000000,0.000000,0.000000,270.000000*
%
%ADD29PS29*%
%AMPS55*
21,1,0.300000,1.150000,0.000000,0.000000,90.000000*
%
%ADD55PS55*%
%AMPS30*
21,1,0.300000,1.150000,0.000000,0.000000,270.000000*
%
%ADD30PS30*%
%AMPS45*
21,1,0.700000,1.000000,0.000000,0.000000,270.000000*
%
%ADD45PS45*%
%AMPS52*
21,1,1.400000,1.200000,0.000000,0.000000,0.000000*
%
%ADD52PS52*%
%AMPS56*
21,1,1.400000,1.200000,0.000000,0.000000,180.000000*
%
%ADD56PS56*%
%AMPS50*
4,1,4,
-0.100000,-2.100000,
-0.100000,-2.900000,
-0.900000,-2.900000,
-0.900000,-2.100000,
-0.100000,-2.100000,
0*
4,1,4,
0.900000,0.900000,
0.900000,0.100000,
0.100000,0.100000,
0.100000,0.900000,
0.900000,0.900000,
0*
4,1,4,
-0.100000,1.900000,
-0.100000,1.100000,
-0.900000,1.100000,
-0.900000,1.900000,
-0.100000,1.900000,
0*
4,1,4,
-0.100000,0.900000,
-0.100000,0.100000,
-0.900000,0.100000,
-0.900000,0.900000,
-0.100000,0.900000,
0*
4,1,4,
0.900000,1.900000,
0.900000,1.100000,
0.100000,1.100000,
0.100000,1.900000,
0.900000,1.900000,
0*
4,1,4,
-0.100000,-1.100000,
-0.100000,-1.900000,
-0.900000,-1.900000,
-0.900000,-1.100000,
-0.100000,-1.100000,
0*
4,1,4,
0.900000,-0.100000,
0.900000,-0.900000,
0.100000,-0.900000,
0.100000,-0.100000,
0.900000,-0.100000,
0*
4,1,4,
0.900000,2.900000,
0.900000,2.100000,
0.100000,2.100000,
0.100000,2.900000,
0.900000,2.900000,
0*
4,1,4,
0.900000,-2.100000,
0.900000,-2.900000,
0.100000,-2.900000,
0.100000,-2.100000,
0.900000,-2.100000,
0*
4,1,4,
0.900000,-1.100000,
0.900000,-1.900000,
0.100000,-1.900000,
0.100000,-1.100000,
0.900000,-1.100000,
0*
4,1,4,
-0.100000,2.900000,
-0.100000,2.100000,
-0.900000,2.100000,
-0.900000,2.900000,
-0.100000,2.900000,
0*
4,1,4,
-0.100000,-0.100000,
-0.100000,-0.900000,
-0.900000,-0.900000,
-0.900000,-0.100000,
-0.100000,-0.100000,
0*
%
%ADD50PS50*%
%AMPS21*
1,1,0.360000,-0.220000,-0.195000*
1,1,0.360000,-0.220000,0.195000*
21,1,0.800000,0.390000,0.000000,0.000000,0.000000*
21,1,0.440000,0.750000,0.000000,0.000000,0.000000*
1,1,0.360000,0.220000,-0.195000*
1,1,0.360000,0.220000,0.195000*
%
%ADD21PS21*%
%AMPS51*
1,1,0.360000,0.195000,-0.220000*
1,1,0.360000,-0.195000,-0.220000*
21,1,0.800000,0.390000,0.000000,0.000000,90.000000*
21,1,0.440000,0.750000,0.000000,0.000000,90.000000*
1,1,0.360000,0.195000,0.220000*
1,1,0.360000,-0.195000,0.220000*
%
%ADD51PS51*%
%AMPS13*
1,1,0.360000,0.220000,0.195000*
1,1,0.360000,0.220000,-0.195000*
21,1,0.800000,0.390000,0.000000,0.000000,180.000000*
21,1,0.440000,0.750000,0.000000,0.000000,180.000000*
1,1,0.360000,-0.220000,0.195000*
1,1,0.360000,-0.220000,-0.195000*
%
%ADD13PS13*%
%AMPS36*
1,1,0.360000,-0.195000,0.220000*
1,1,0.360000,0.195000,0.220000*
21,1,0.800000,0.390000,0.000000,0.000000,270.000000*
21,1,0.440000,0.750000,0.000000,0.000000,270.000000*
1,1,0.360000,-0.195000,-0.220000*
1,1,0.360000,0.195000,-0.220000*
%
%ADD36PS36*%
%AMPS12*
1,1,0.500000,-0.250000,-0.375000*
1,1,0.500000,-0.250000,0.375000*
21,1,1.000000,0.750000,0.000000,0.000000,0.000000*
21,1,0.500000,1.250000,0.000000,0.000000,0.000000*
1,1,0.500000,0.250000,-0.375000*
1,1,0.500000,0.250000,0.375000*
%
%ADD12PS12*%
%AMPS14*
1,1,0.500000,0.375000,-0.250000*
1,1,0.500000,-0.375000,-0.250000*
21,1,1.000000,0.750000,0.000000,0.000000,90.000000*
21,1,0.500000,1.250000,0.000000,0.000000,90.000000*
1,1,0.500000,0.375000,0.250000*
1,1,0.500000,-0.375000,0.250000*
%
%ADD14PS14*%
%AMPS62*
1,1,0.500000,0.250000,0.375000*
1,1,0.500000,0.250000,-0.375000*
21,1,1.000000,0.750000,0.000000,0.000000,180.000000*
21,1,0.500000,1.250000,0.000000,0.000000,180.000000*
1,1,0.500000,-0.250000,0.375000*
1,1,0.500000,-0.250000,-0.375000*
%
%ADD62PS62*%
%AMPS19*
1,1,0.500000,-0.375000,0.250000*
1,1,0.500000,0.375000,0.250000*
21,1,1.000000,0.750000,0.000000,0.000000,270.000000*
21,1,0.500000,1.250000,0.000000,0.000000,270.000000*
1,1,0.500000,-0.375000,-0.250000*
1,1,0.500000,0.375000,-0.250000*
%
%ADD19PS19*%
%AMPS39*
1,1,0.125000,0.062500,0.337500*
1,1,0.125000,0.062500,-0.337500*
21,1,0.250000,0.675000,0.000000,0.000000,180.000000*
21,1,0.125000,0.800000,0.000000,0.000000,180.000000*
1,1,0.125000,-0.062500,0.337500*
1,1,0.125000,-0.062500,-0.337500*
%
%ADD39PS39*%
%AMPS15*
1,1,0.240000,-0.130000,-0.330000*
1,1,0.240000,-0.130000,0.330000*
21,1,0.500000,0.660000,0.000000,0.000000,0.000000*
21,1,0.260000,0.900000,0.000000,0.000000,0.000000*
1,1,0.240000,0.130000,-0.330000*
1,1,0.240000,0.130000,0.330000*
%
%ADD15PS15*%
%AMPS27*
1,1,0.240000,0.330000,-0.130000*
1,1,0.240000,-0.330000,-0.130000*
21,1,0.500000,0.660000,0.000000,0.000000,90.000000*
21,1,0.260000,0.900000,0.000000,0.000000,90.000000*
1,1,0.240000,0.330000,0.130000*
1,1,0.240000,-0.330000,0.130000*
%
%ADD27PS27*%
%AMPS11*
1,1,0.240000,0.130000,0.330000*
1,1,0.240000,0.130000,-0.330000*
21,1,0.500000,0.660000,0.000000,0.000000,180.000000*
21,1,0.260000,0.900000,0.000000,0.000000,180.000000*
1,1,0.240000,-0.130000,0.330000*
1,1,0.240000,-0.130000,-0.330000*
%
%ADD11PS11*%
%AMPS31*
1,1,0.240000,-0.330000,0.130000*
1,1,0.240000,0.330000,0.130000*
21,1,0.500000,0.660000,0.000000,0.000000,270.000000*
21,1,0.260000,0.900000,0.000000,0.000000,270.000000*
1,1,0.240000,-0.330000,-0.130000*
1,1,0.240000,0.330000,-0.130000*
%
%ADD31PS31*%
%AMPS18*
1,1,0.200000,-0.110000,-0.200000*
1,1,0.200000,-0.110000,0.200000*
21,1,0.420000,0.400000,0.000000,0.000000,0.000000*
21,1,0.220000,0.600000,0.000000,0.000000,0.000000*
1,1,0.200000,0.110000,-0.200000*
1,1,0.200000,0.110000,0.200000*
%
%ADD18PS18*%
%AMPS17*
1,1,0.200000,0.110000,0.200000*
1,1,0.200000,0.110000,-0.200000*
21,1,0.420000,0.400000,0.000000,0.000000,180.000000*
21,1,0.220000,0.600000,0.000000,0.000000,180.000000*
1,1,0.200000,-0.110000,0.200000*
1,1,0.200000,-0.110000,-0.200000*
%
%ADD17PS17*%
%AMPS42*
1,1,0.100000,0.050000,-0.375000*
1,1,0.100000,-0.050000,-0.375000*
21,1,0.850000,0.100000,0.000000,0.000000,90.000000*
21,1,0.750000,0.200000,0.000000,0.000000,90.000000*
1,1,0.100000,0.050000,0.375000*
1,1,0.100000,-0.050000,0.375000*
%
%ADD42PS42*%
%AMPS16*
1,1,0.500000,-0.650000,0.150000*
1,1,0.500000,0.650000,0.150000*
21,1,0.800000,1.300000,0.000000,0.000000,270.000000*
21,1,0.300000,1.800000,0.000000,0.000000,270.000000*
1,1,0.500000,-0.650000,-0.150000*
1,1,0.500000,0.650000,-0.150000*
%
%ADD16PS16*%
%AMPS37*
1,1,0.240000,-0.180000,-0.130000*
1,1,0.240000,-0.180000,0.130000*
21,1,0.600000,0.260000,0.000000,0.000000,0.000000*
21,1,0.360000,0.500000,0.000000,0.000000,0.000000*
1,1,0.240000,0.180000,-0.130000*
1,1,0.240000,0.180000,0.130000*
%
%ADD37PS37*%
%AMPS10*
1,1,0.240000,0.130000,-0.180000*
1,1,0.240000,-0.130000,-0.180000*
21,1,0.600000,0.260000,0.000000,0.000000,90.000000*
21,1,0.360000,0.500000,0.000000,0.000000,90.000000*
1,1,0.240000,0.130000,0.180000*
1,1,0.240000,-0.130000,0.180000*
%
%ADD10PS10*%
%AMPS22*
1,1,0.240000,0.180000,0.130000*
1,1,0.240000,0.180000,-0.130000*
21,1,0.600000,0.260000,0.000000,0.000000,180.000000*
21,1,0.360000,0.500000,0.000000,0.000000,180.000000*
1,1,0.240000,-0.180000,0.130000*
1,1,0.240000,-0.180000,-0.130000*
%
%ADD22PS22*%
%AMPS20*
1,1,0.240000,-0.130000,0.180000*
1,1,0.240000,0.130000,0.180000*
21,1,0.600000,0.260000,0.000000,0.000000,270.000000*
21,1,0.360000,0.500000,0.000000,0.000000,270.000000*
1,1,0.240000,-0.130000,-0.180000*
1,1,0.240000,0.130000,-0.180000*
%
%ADD20PS20*%
%AMPS41*
1,1,0.340000,0.330000,-0.180000*
1,1,0.340000,-0.330000,-0.180000*
21,1,0.700000,0.660000,0.000000,0.000000,90.000000*
21,1,0.360000,1.000000,0.000000,0.000000,90.000000*
1,1,0.340000,0.330000,0.180000*
1,1,0.340000,-0.330000,0.180000*
%
%ADD41PS41*%
%AMPS43*
1,1,0.100000,0.375000,-0.050000*
1,1,0.100000,-0.375000,-0.050000*
21,1,0.200000,0.750000,0.000000,0.000000,90.000000*
21,1,0.100000,0.850000,0.000000,0.000000,90.000000*
1,1,0.100000,0.375000,0.050000*
1,1,0.100000,-0.375000,0.050000*
%
%ADD43PS43*%
%AMPS49*
1,1,0.124000,0.088000,0.363000*
1,1,0.124000,0.088000,-0.363000*
21,1,0.300000,0.726000,0.000000,0.000000,180.000000*
21,1,0.176000,0.850000,0.000000,0.000000,180.000000*
1,1,0.124000,-0.088000,0.363000*
1,1,0.124000,-0.088000,-0.363000*
%
%ADD49PS49*%
%AMPS48*
1,1,0.124000,-0.363000,0.088000*
1,1,0.124000,0.363000,0.088000*
21,1,0.300000,0.726000,0.000000,0.000000,270.000000*
21,1,0.176000,0.850000,0.000000,0.000000,270.000000*
1,1,0.124000,-0.363000,-0.088000*
1,1,0.124000,0.363000,-0.088000*
%
%ADD48PS48*%
%AMPS38*
1,1,0.125000,0.337500,0.062500*
1,1,0.125000,0.337500,-0.062500*
21,1,0.800000,0.125000,0.000000,0.000000,180.000000*
21,1,0.675000,0.250000,0.000000,0.000000,180.000000*
1,1,0.125000,-0.337500,0.062500*
1,1,0.125000,-0.337500,-0.062500*
%
%ADD38PS38*%
%AMPS61*
4,1,4,
-0.206250,1.443750,
-0.206250,0.206250,
-1.443750,0.206250,
-1.443750,1.443750,
-0.206250,1.443750,
0*
4,1,4,
-0.206250,-0.206250,
-0.206250,-1.443750,
-1.443750,-1.443750,
-1.443750,-0.206250,
-0.206250,-0.206250,
0*
4,1,4,
1.443750,-0.206250,
1.443750,-1.443750,
0.206250,-1.443750,
0.206250,-0.206250,
1.443750,-0.206250,
0*
4,1,4,
1.443750,1.443750,
1.443750,0.206250,
0.206250,0.206250,
0.206250,1.443750,
1.443750,1.443750,
0*
%
%ADD61PS61*%
G01*
%LPD*%
G01*
%LPD*%
G75*
D10*
X22000000Y17300000D03*
D10*
X22000000Y16200000D03*
D11*
X20250000Y-9500000D03*
D11*
X18750000Y-9500000D03*
D11*
X20250000Y-5000000D03*
D11*
X18750000Y-5000000D03*
D12*
X29500056Y19999992D03*
D12*
X31500056Y19999992D03*
D13*
X13500000Y38750000D03*
D13*
X15000000Y38750000D03*
D14*
X22500008Y18750056D03*
D14*
X22500008Y20750056D03*
D15*
X15750000Y-19750000D03*
D15*
X17250000Y-19750000D03*
D15*
X29750000Y-20250000D03*
D15*
X31250000Y-20250000D03*
D16*
X20749992Y26049944D03*
D16*
X20749992Y24449944D03*
D15*
X461051Y28824203D03*
D15*
X1961051Y28824203D03*
D17*
X12850000Y-7550000D03*
D17*
X14150000Y-7550000D03*
D17*
X13500000Y-7550000D03*
D18*
X12850000Y-9450000D03*
D18*
X14150000Y-9450000D03*
D18*
X13500000Y-9450000D03*
D11*
X25500000Y29250000D03*
D11*
X24000000Y29250000D03*
D14*
X27000008Y25000056D03*
D14*
X27000008Y27000056D03*
D13*
X25500000Y-29500000D03*
D13*
X27000000Y-29500000D03*
D19*
X30249992Y-28250056D03*
D19*
X30249992Y-30250056D03*
D20*
X21250000Y3700000D03*
D20*
X21250000Y4800000D03*
D11*
X10500000Y17250000D03*
D11*
X9000000Y17250000D03*
D10*
X17000000Y16800000D03*
D10*
X17000000Y15700000D03*
D21*
X25250000Y34750000D03*
D21*
X23750000Y34750000D03*
D22*
X18450000Y-17250000D03*
D22*
X19550000Y-17250000D03*
D23*
X5400000Y13249998D03*
D23*
X5400000Y15249998D03*
D24*
X5400000Y14249998D03*
D25*
X4600000Y14249998D03*
D26*
X4600000Y15249998D03*
D26*
X4600000Y13249998D03*
D23*
X5400000Y13749998D03*
D26*
X4600000Y13749998D03*
D23*
X5400000Y14749998D03*
D26*
X4600000Y14749998D03*
D10*
X18000000Y16800000D03*
D10*
X18000000Y15700000D03*
D12*
X25500056Y-31000008D03*
D12*
X27500056Y-31000008D03*
D15*
X36250000Y28625000D03*
D15*
X37750000Y28625000D03*
D17*
X1850000Y34450000D03*
D17*
X3150000Y34450000D03*
D17*
X2500000Y34450000D03*
D18*
X1850000Y32550000D03*
D18*
X3150000Y32550000D03*
D18*
X2500000Y32550000D03*
D13*
X15750000Y-21250000D03*
D13*
X17250000Y-21250000D03*
D27*
X28587500Y25750000D03*
D27*
X28587500Y27250000D03*
D13*
X27500000Y-7500000D03*
D13*
X29000000Y-7500000D03*
D13*
X23750000Y16750000D03*
D13*
X25250000Y16750000D03*
D28*
X-2245000Y30800000D03*
D29*
X-2820000Y39110000D03*
D30*
X-2245000Y35250000D03*
D29*
X-6750000Y28890000D03*
D30*
X-2245000Y32750000D03*
D29*
X-2820000Y28890000D03*
D30*
X-2245000Y34250000D03*
D30*
X-2245000Y35750000D03*
D30*
X-2245000Y32250000D03*
D28*
X-2245000Y36400000D03*
D29*
X-6750000Y39110000D03*
D30*
X-2245000Y33750000D03*
D28*
X-2245000Y31600000D03*
D28*
X-2245000Y37200000D03*
D30*
X-2245000Y34750000D03*
D30*
X-2245000Y33250000D03*
D23*
X13650000Y-18000002D03*
D23*
X13650000Y-16000002D03*
D24*
X13650000Y-17000002D03*
D25*
X12850000Y-17000002D03*
D26*
X12850000Y-16000002D03*
D26*
X12850000Y-18000002D03*
D23*
X13650000Y-17500002D03*
D26*
X12850000Y-17500002D03*
D23*
X13650000Y-16500002D03*
D26*
X12850000Y-16500002D03*
D31*
X33520000Y7250000D03*
D31*
X33520000Y5750000D03*
D32*
X39250000Y30905000D03*
D33*
X39250000Y33145000D03*
D13*
X32750000Y4500000D03*
D13*
X34250000Y4500000D03*
D27*
X500000Y30500000D03*
D27*
X500000Y32000000D03*
D22*
X18450000Y-18750000D03*
D22*
X19550000Y-18750000D03*
D10*
X26000000Y11550000D03*
D10*
X26000000Y10450000D03*
D34*
X15300000Y-28365000D03*
D34*
X15300000Y-30905000D03*
D35*
X20700000Y-28365000D03*
D34*
X15300000Y-27095000D03*
D34*
X15300000Y-29635000D03*
D35*
X20700000Y-30905000D03*
D35*
X20700000Y-29635000D03*
D35*
X20700000Y-27095000D03*
D36*
X24250000Y-11000000D03*
D36*
X24250000Y-9500000D03*
D13*
X33000000Y26500000D03*
D13*
X34500000Y26500000D03*
D11*
X40000000Y-26000000D03*
D11*
X38500000Y-26000000D03*
D17*
X14850000Y-23050000D03*
D17*
X16150000Y-23050000D03*
D17*
X15500000Y-23050000D03*
D18*
X14850000Y-24950000D03*
D18*
X16150000Y-24950000D03*
D18*
X15500000Y-24950000D03*
D11*
X24000000Y-29500000D03*
D11*
X22500000Y-29500000D03*
D22*
X19700000Y-12250000D03*
D22*
X20800000Y-12250000D03*
D15*
X22500000Y-25750000D03*
D15*
X24000000Y-25750000D03*
D22*
X18450000Y-19750000D03*
D22*
X19550000Y-19750000D03*
D10*
X20000000Y17300000D03*
D10*
X20000000Y16200000D03*
D21*
X1000000Y38750000D03*
D21*
X-500000Y38750000D03*
D27*
X250000Y36000000D03*
D27*
X250000Y37500000D03*
D22*
X14700000Y9000000D03*
D22*
X15800000Y9000000D03*
D37*
X31050000Y-15750000D03*
D37*
X29950000Y-15750000D03*
D31*
X34000000Y38000000D03*
D31*
X34000000Y36500000D03*
D13*
X38500000Y-24500000D03*
D13*
X40000000Y-24500000D03*
D11*
X10500000Y18750000D03*
D11*
X9000000Y18750000D03*
D11*
X37250000Y-25250000D03*
D11*
X35750000Y-25250000D03*
D38*
X23950000Y10500000D03*
D39*
X21750000Y6800000D03*
D39*
X21250000Y6800000D03*
D38*
X23950000Y13000000D03*
D38*
X23950000Y9500000D03*
D39*
X20750000Y13700000D03*
D39*
X18750000Y6800000D03*
D40*
X20500000Y10250000D03*
D38*
X17050000Y7500000D03*
D38*
X23950000Y7500000D03*
D39*
X21250000Y13700000D03*
D38*
X17050000Y13000000D03*
D38*
X23950000Y11000000D03*
D39*
X20250000Y13700000D03*
D38*
X17050000Y11500000D03*
D38*
X23950000Y10000000D03*
D38*
X23950000Y12500000D03*
D38*
X17050000Y10000000D03*
D38*
X17050000Y12500000D03*
D39*
X19250000Y13700000D03*
D39*
X21750000Y13700000D03*
D39*
X17750000Y6800000D03*
D38*
X23950000Y12000000D03*
D39*
X23250000Y6800000D03*
D38*
X23950000Y9000000D03*
D38*
X17050000Y10500000D03*
D39*
X20750000Y6800000D03*
D39*
X20250000Y6800000D03*
D39*
X18250000Y6800000D03*
D38*
X17050000Y9000000D03*
D39*
X18250000Y13700000D03*
D39*
X22750000Y6800000D03*
D38*
X17050000Y8500000D03*
D38*
X23950000Y8500000D03*
D38*
X17050000Y9500000D03*
D38*
X23950000Y11500000D03*
D38*
X17050000Y12000000D03*
D39*
X17750000Y13700000D03*
D38*
X17050000Y8000000D03*
D39*
X18750000Y13700000D03*
D39*
X23250000Y13700000D03*
D39*
X22250000Y13700000D03*
D39*
X22250000Y6800000D03*
D39*
X22750000Y13700000D03*
D38*
X17050000Y11000000D03*
D38*
X23950000Y8000000D03*
D39*
X19250000Y6800000D03*
D39*
X19750000Y13700000D03*
D39*
X19750000Y6800000D03*
D18*
X33400000Y8300000D03*
D18*
X32100000Y8300000D03*
D18*
X32750000Y8300000D03*
D17*
X33400000Y10200000D03*
D17*
X32100000Y10200000D03*
D17*
X32750000Y10200000D03*
D14*
X38750008Y-29499944D03*
D14*
X38750008Y-27499944D03*
D41*
X31200000Y11500000D03*
D41*
X28800000Y12450000D03*
D41*
X28800000Y10550000D03*
D13*
X15750000Y-15250000D03*
D13*
X17250000Y-15250000D03*
D31*
X33500000Y12750000D03*
D31*
X33500000Y11250000D03*
D42*
X24800000Y-19950000D03*
D42*
X23200000Y-14050000D03*
D43*
X22050000Y-17600000D03*
D42*
X24400000Y-14050000D03*
D42*
X22800000Y-14050000D03*
D43*
X22050000Y-18800000D03*
D43*
X27950000Y-18000000D03*
D42*
X26800000Y-19950000D03*
D44*
X25000000Y-17000000D03*
D43*
X22050000Y-16000000D03*
D43*
X22050000Y-16800000D03*
D42*
X27200000Y-19950000D03*
D43*
X27950000Y-15200000D03*
D43*
X27950000Y-16800000D03*
D42*
X26000000Y-19950000D03*
D43*
X27950000Y-16400000D03*
D43*
X27950000Y-18400000D03*
D42*
X24800000Y-14050000D03*
D42*
X22800000Y-19950000D03*
D43*
X27950000Y-18800000D03*
D43*
X22050000Y-18000000D03*
D43*
X22050000Y-16400000D03*
D43*
X27950000Y-17600000D03*
D42*
X23200000Y-19950000D03*
D43*
X27950000Y-14800000D03*
D42*
X24000000Y-19950000D03*
D42*
X23600000Y-14050000D03*
D42*
X25200000Y-14050000D03*
D43*
X22050000Y-14800000D03*
D42*
X25600000Y-14050000D03*
D42*
X26400000Y-14050000D03*
D43*
X27950000Y-19200000D03*
D42*
X26800000Y-14050000D03*
D42*
X25200000Y-19950000D03*
D42*
X24400000Y-19950000D03*
D43*
X27950000Y-17200000D03*
D42*
X26400000Y-19950000D03*
D43*
X22050000Y-15200000D03*
D43*
X27950000Y-15600000D03*
D43*
X22050000Y-17200000D03*
D43*
X22050000Y-15600000D03*
D42*
X25600000Y-19950000D03*
D42*
X27200000Y-14050000D03*
D42*
X23600000Y-19950000D03*
D42*
X26000000Y-14050000D03*
D43*
X27950000Y-16000000D03*
D42*
X24000000Y-14050000D03*
D43*
X22050000Y-18400000D03*
D43*
X22050000Y-19200000D03*
D21*
X8250000Y30250000D03*
D21*
X6750000Y30250000D03*
D35*
X8911051Y26189203D03*
D35*
X8911051Y28729203D03*
D34*
X3511051Y26189203D03*
D35*
X8911051Y24919203D03*
D35*
X8911051Y27459203D03*
D34*
X3511051Y28729203D03*
D34*
X3511051Y27459203D03*
D34*
X3511051Y24919203D03*
D36*
X23000000Y-11000000D03*
D36*
X23000000Y-9500000D03*
D15*
X461051Y27324203D03*
D15*
X1961051Y27324203D03*
D45*
X22800000Y27000000D03*
D45*
X25200000Y26050000D03*
D45*
X22800000Y27950000D03*
D45*
X25200000Y27950000D03*
D45*
X22800000Y26050000D03*
D21*
X24000000Y-27250000D03*
D21*
X22500000Y-27250000D03*
D13*
X29250000Y14000000D03*
D13*
X30750000Y14000000D03*
D15*
X32500000Y39750000D03*
D15*
X34000000Y39750000D03*
D23*
X5400000Y10249998D03*
D23*
X5400000Y12249998D03*
D24*
X5400000Y11249998D03*
D25*
X4600000Y11249998D03*
D26*
X4600000Y12249998D03*
D26*
X4600000Y10249998D03*
D23*
X5400000Y10749998D03*
D26*
X4600000Y10749998D03*
D23*
X5400000Y11749998D03*
D26*
X4600000Y11749998D03*
D11*
X20250000Y-8000000D03*
D11*
X18750000Y-8000000D03*
D13*
X-500000Y40000000D03*
D13*
X1000000Y40000000D03*
D20*
X22250000Y-23050000D03*
D20*
X22250000Y-21950000D03*
D22*
X14700000Y12000000D03*
D22*
X15800000Y12000000D03*
D46*
X31115000Y29050000D03*
D46*
X33655000Y29050000D03*
D47*
X31115000Y34450000D03*
D46*
X29845000Y29050000D03*
D46*
X32385000Y29050000D03*
D47*
X33655000Y34450000D03*
D47*
X32385000Y34450000D03*
D47*
X29845000Y34450000D03*
D17*
X4775000Y18250000D03*
D17*
X6075000Y18250000D03*
D17*
X5425000Y18250000D03*
D18*
X4775000Y16350000D03*
D18*
X6075000Y16350000D03*
D18*
X5425000Y16350000D03*
D48*
X8025000Y12000000D03*
D48*
X8025000Y10000001D03*
D48*
X8025000Y9500000D03*
D48*
X11475000Y8000000D03*
D48*
X8025000Y9000000D03*
D49*
X10000062Y14975000D03*
D49*
X9499938Y6025000D03*
D48*
X8025000Y8000000D03*
D48*
X11475000Y6500000D03*
D48*
X11475000Y6999999D03*
D48*
X11475000Y7500001D03*
D48*
X8025000Y6999999D03*
D48*
X11475000Y13000000D03*
D48*
X8025000Y6500000D03*
D48*
X11475000Y13499999D03*
D49*
X9499938Y14975000D03*
D48*
X11475000Y8499999D03*
D48*
X11475000Y9000000D03*
D50*
X9750000Y10500000D03*
D48*
X8025000Y14000001D03*
D48*
X8025000Y10999999D03*
D48*
X11475000Y14000001D03*
D48*
X8025000Y10500000D03*
D48*
X8025000Y7500001D03*
D48*
X11475000Y12500001D03*
D48*
X11475000Y11500000D03*
D48*
X11475000Y14500000D03*
D49*
X8999811Y6025000D03*
D48*
X11475000Y10500000D03*
D49*
X10000062Y6025000D03*
D48*
X8025000Y13499999D03*
D48*
X11475000Y9500000D03*
D49*
X10500189Y6025000D03*
D49*
X8999811Y14975000D03*
D48*
X8025000Y12500001D03*
D49*
X10500189Y14975000D03*
D48*
X8025000Y8499999D03*
D48*
X8025000Y11500000D03*
D48*
X11475000Y12000000D03*
D48*
X11475000Y10000001D03*
D48*
X8025000Y13000000D03*
D48*
X8025000Y14500000D03*
D48*
X11475000Y10999999D03*
D10*
X25000000Y11550000D03*
D10*
X25000000Y10450000D03*
D11*
X16250000Y20000000D03*
D11*
X14750000Y20000000D03*
D27*
X40500000Y-28750000D03*
D27*
X40500000Y-27250000D03*
D16*
X27499992Y21549944D03*
D16*
X27499992Y19949944D03*
D22*
X14700000Y10500000D03*
D22*
X15800000Y10500000D03*
D15*
X15750000Y-16750000D03*
D15*
X17250000Y-16750000D03*
D13*
X15750000Y-18250000D03*
D13*
X17250000Y-18250000D03*
D15*
X36200000Y22375000D03*
D15*
X37700000Y22375000D03*
D51*
X27250000Y12000000D03*
D51*
X27250000Y10500000D03*
D13*
X20250000Y31500000D03*
D13*
X21750000Y31500000D03*
D31*
X31000000Y38000000D03*
D31*
X31000000Y36500000D03*
D22*
X18450000Y-16250000D03*
D22*
X19550000Y-16250000D03*
D51*
X28250000Y36000000D03*
D51*
X28250000Y34500000D03*
D11*
X32250000Y24750000D03*
D11*
X30750000Y24750000D03*
D52*
X29350000Y-9200000D03*
D52*
X27150000Y-9200000D03*
D52*
X27150000Y-10800000D03*
D52*
X29350000Y-10800000D03*
D27*
X14000000Y14250000D03*
D27*
X14000000Y15750000D03*
D31*
X32500000Y38000000D03*
D31*
X32500000Y36500000D03*
D20*
X19750000Y3700000D03*
D20*
X19750000Y4800000D03*
D12*
X34250056Y-30000008D03*
D12*
X36250056Y-30000008D03*
D37*
X31050000Y-18250000D03*
D37*
X29950000Y-18250000D03*
D15*
X15750000Y-13750000D03*
D15*
X17250000Y-13750000D03*
D41*
X14950000Y-4750000D03*
D41*
X12550000Y-3800000D03*
D41*
X12550000Y-5700000D03*
D20*
X28250000Y-23550000D03*
D20*
X28250000Y-22450000D03*
D11*
X28250000Y28500000D03*
D11*
X26750000Y28500000D03*
D32*
X39200000Y18405000D03*
D33*
X39200000Y20645000D03*
D53*
X35995000Y12450000D03*
D54*
X36570000Y4140000D03*
D55*
X35995000Y8000000D03*
D54*
X40500000Y14360000D03*
D55*
X35995000Y10500000D03*
D54*
X36570000Y14360000D03*
D55*
X35995000Y9000000D03*
D55*
X35995000Y7500000D03*
D55*
X35995000Y11000000D03*
D53*
X35995000Y6850000D03*
D54*
X40500000Y4140000D03*
D55*
X35995000Y9500000D03*
D53*
X35995000Y11650000D03*
D53*
X35995000Y6050000D03*
D55*
X35995000Y8500000D03*
D55*
X35995000Y10000000D03*
D56*
X26650000Y3950000D03*
D56*
X28850000Y3950000D03*
D56*
X28850000Y5550000D03*
D56*
X26650000Y5550000D03*
D21*
X16000000Y5500000D03*
D21*
X14500000Y5500000D03*
D57*
X18000000Y32900000D03*
D58*
X18000000Y37600000D03*
D59*
X21100000Y35000000D03*
D57*
X20500000Y32900000D03*
D60*
X16400000Y36000000D03*
D57*
X17000000Y32900000D03*
D58*
X19500000Y37600000D03*
D59*
X21100000Y35500000D03*
D60*
X16400000Y34000000D03*
D57*
X18500000Y32900000D03*
D59*
X21100000Y36000000D03*
D57*
X20000000Y32900000D03*
D58*
X18500000Y37600000D03*
D59*
X21100000Y37000000D03*
D58*
X20000000Y37600000D03*
D60*
X16400000Y36500000D03*
D58*
X19000000Y37600000D03*
D61*
X18750000Y35250000D03*
D60*
X16400000Y33500000D03*
D59*
X21100000Y34000000D03*
D60*
X16400000Y37000000D03*
D60*
X16400000Y34500000D03*
D60*
X16400000Y35000000D03*
D59*
X21100000Y34500000D03*
D60*
X16400000Y35500000D03*
D58*
X20500000Y37600000D03*
D58*
X17000000Y37600000D03*
D57*
X19000000Y32900000D03*
D58*
X17500000Y37600000D03*
D57*
X19500000Y32900000D03*
D57*
X17500000Y32900000D03*
D59*
X21100000Y33500000D03*
D59*
X21100000Y36500000D03*
D32*
X39250000Y37155000D03*
D33*
X39250000Y39395000D03*
D11*
X24000000Y-31000000D03*
D11*
X22500000Y-31000000D03*
D13*
X30250000Y7000000D03*
D13*
X31750000Y7000000D03*
D12*
X22800056Y24549882D03*
D12*
X24800056Y24549882D03*
D62*
X16749944Y-11999992D03*
D62*
X14749944Y-11999992D03*
D13*
X26750000Y30000000D03*
D13*
X28250000Y30000000D03*
D27*
X33500000Y23750000D03*
D27*
X33500000Y25250000D03*
D11*
X20250000Y-3500000D03*
D11*
X18750000Y-3500000D03*
D15*
X36250000Y34875000D03*
D15*
X37750000Y34875000D03*
D15*
X26500000Y8000000D03*
D15*
X28000000Y8000000D03*
D13*
X23750000Y36000000D03*
D13*
X25250000Y36000000D03*
D16*
X32499992Y-28450056D03*
D16*
X32499992Y-30050056D03*
D27*
X15500000Y13750000D03*
D27*
X15500000Y15250000D03*
D21*
X20250000Y-13500000D03*
D21*
X18750000Y-13500000D03*
D20*
X24250000Y-23550000D03*
D20*
X24250000Y-22450000D03*
D20*
X25250000Y-23550000D03*
D20*
X25250000Y-22450000D03*
D36*
X30500000Y3750000D03*
D36*
X30500000Y5250000D03*
D14*
X33750008Y20500056D03*
D14*
X33750008Y22500056D03*
D13*
X18500000Y-11000000D03*
D13*
X20000000Y-11000000D03*
D45*
X29550000Y22500000D03*
D45*
X31950000Y21550000D03*
D45*
X29550000Y23450000D03*
D45*
X31950000Y23450000D03*
D45*
X29550000Y21550000D03*
D21*
X27000000Y31500000D03*
D21*
X25500000Y31500000D03*
D11*
X20250000Y-6500000D03*
D11*
X18750000Y-6500000D03*
D20*
X27250000Y-23550000D03*
D20*
X27250000Y-22450000D03*
D63*
X1620000Y13000000D03*
D63*
X1620000Y18500000D03*
D63*
X1620000Y10000000D03*
D63*
X1620000Y10500000D03*
D63*
X1620000Y11000000D03*
D63*
X1620000Y16000000D03*
D63*
X1620000Y15500000D03*
D63*
X1620000Y17500000D03*
D63*
X1620000Y14000000D03*
D63*
X1620000Y12500000D03*
D63*
X1620000Y11500000D03*
D63*
X1620000Y15000000D03*
D63*
X1620000Y16500000D03*
D63*
X1620000Y19000000D03*
D63*
X1620000Y13500000D03*
D63*
X1620000Y14500000D03*
D63*
X1620000Y12000000D03*
D63*
X1620000Y18000000D03*
D63*
X1620000Y17000000D03*
D21*
X28500000Y-28250000D03*
D21*
X27000000Y-28250000D03*
D45*
X34550000Y-27500000D03*
D45*
X36950000Y-28450000D03*
D45*
X34550000Y-26550000D03*
D45*
X36950000Y-26550000D03*
D45*
X34550000Y-28450000D03*
D32*
X39200000Y24655000D03*
D33*
X39200000Y26895000D03*
D51*
X25500000Y-9250000D03*
D51*
X25500000Y-10750000D03*
D37*
X31050000Y-14000000D03*
D37*
X29950000Y-14000000D03*
D20*
X22750000Y3700000D03*
D20*
X22750000Y4800000D03*
D22*
X18950000Y-14750000D03*
D22*
X20050000Y-14750000D03*
D51*
X25000000Y5250000D03*
D51*
X25000000Y3750000D03*
D10*
X72000000Y17300000D03*
D10*
X72000000Y16200000D03*
D11*
X70250000Y-9500000D03*
D11*
X68750000Y-9500000D03*
D11*
X70250000Y-5000000D03*
D11*
X68750000Y-5000000D03*
D12*
X79500056Y19999992D03*
D12*
X81500056Y19999992D03*
D13*
X63500000Y38750000D03*
D13*
X65000000Y38750000D03*
D14*
X72500008Y18750056D03*
D14*
X72500008Y20750056D03*
D15*
X65750000Y-19750000D03*
D15*
X67250000Y-19750000D03*
D15*
X79750000Y-20250000D03*
D15*
X81250000Y-20250000D03*
D16*
X70749992Y26049944D03*
D16*
X70749992Y24449944D03*
D15*
X50461051Y28824203D03*
D15*
X51961051Y28824203D03*
D17*
X62850000Y-7550000D03*
D17*
X64150000Y-7550000D03*
D17*
X63500000Y-7550000D03*
D18*
X62850000Y-9450000D03*
D18*
X64150000Y-9450000D03*
D18*
X63500000Y-9450000D03*
D11*
X75500000Y29250000D03*
D11*
X74000000Y29250000D03*
D14*
X77000008Y25000056D03*
D14*
X77000008Y27000056D03*
D13*
X75500000Y-29500000D03*
D13*
X77000000Y-29500000D03*
D19*
X80249992Y-28250056D03*
D19*
X80249992Y-30250056D03*
D20*
X71250000Y3700000D03*
D20*
X71250000Y4800000D03*
D11*
X60500000Y17250000D03*
D11*
X59000000Y17250000D03*
D10*
X67000000Y16800000D03*
D10*
X67000000Y15700000D03*
D21*
X75250000Y34750000D03*
D21*
X73750000Y34750000D03*
D22*
X68450000Y-17250000D03*
D22*
X69550000Y-17250000D03*
D23*
X55400000Y13249998D03*
D23*
X55400000Y15249998D03*
D24*
X55400000Y14249998D03*
D25*
X54600000Y14249998D03*
D26*
X54600000Y15249998D03*
D26*
X54600000Y13249998D03*
D23*
X55400000Y13749998D03*
D26*
X54600000Y13749998D03*
D23*
X55400000Y14749998D03*
D26*
X54600000Y14749998D03*
D10*
X68000000Y16800000D03*
D10*
X68000000Y15700000D03*
D12*
X75500056Y-31000008D03*
D12*
X77500056Y-31000008D03*
D15*
X86250000Y28625000D03*
D15*
X87750000Y28625000D03*
D17*
X51850000Y34450000D03*
D17*
X53150000Y34450000D03*
D17*
X52500000Y34450000D03*
D18*
X51850000Y32550000D03*
D18*
X53150000Y32550000D03*
D18*
X52500000Y32550000D03*
D13*
X65750000Y-21250000D03*
D13*
X67250000Y-21250000D03*
D27*
X78587500Y25750000D03*
D27*
X78587500Y27250000D03*
D13*
X77500000Y-7500000D03*
D13*
X79000000Y-7500000D03*
D13*
X73750000Y16750000D03*
D13*
X75250000Y16750000D03*
D28*
X47755000Y30800000D03*
D29*
X47180000Y39110000D03*
D30*
X47755000Y35250000D03*
D29*
X43250000Y28890000D03*
D30*
X47755000Y32750000D03*
D29*
X47180000Y28890000D03*
D30*
X47755000Y34250000D03*
D30*
X47755000Y35750000D03*
D30*
X47755000Y32250000D03*
D28*
X47755000Y36400000D03*
D29*
X43250000Y39110000D03*
D30*
X47755000Y33750000D03*
D28*
X47755000Y31600000D03*
D28*
X47755000Y37200000D03*
D30*
X47755000Y34750000D03*
D30*
X47755000Y33250000D03*
D23*
X63650000Y-18000002D03*
D23*
X63650000Y-16000002D03*
D24*
X63650000Y-17000002D03*
D25*
X62850000Y-17000002D03*
D26*
X62850000Y-16000002D03*
D26*
X62850000Y-18000002D03*
D23*
X63650000Y-17500002D03*
D26*
X62850000Y-17500002D03*
D23*
X63650000Y-16500002D03*
D26*
X62850000Y-16500002D03*
D31*
X83520000Y7250000D03*
D31*
X83520000Y5750000D03*
D32*
X89250000Y30905000D03*
D33*
X89250000Y33145000D03*
D13*
X82750000Y4500000D03*
D13*
X84250000Y4500000D03*
D27*
X50500000Y30500000D03*
D27*
X50500000Y32000000D03*
D22*
X68450000Y-18750000D03*
D22*
X69550000Y-18750000D03*
D10*
X76000000Y11550000D03*
D10*
X76000000Y10450000D03*
D34*
X65300000Y-28365000D03*
D34*
X65300000Y-30905000D03*
D35*
X70700000Y-28365000D03*
D34*
X65300000Y-27095000D03*
D34*
X65300000Y-29635000D03*
D35*
X70700000Y-30905000D03*
D35*
X70700000Y-29635000D03*
D35*
X70700000Y-27095000D03*
D36*
X74250000Y-11000000D03*
D36*
X74250000Y-9500000D03*
D13*
X83000000Y26500000D03*
D13*
X84500000Y26500000D03*
D11*
X90000000Y-26000000D03*
D11*
X88500000Y-26000000D03*
D17*
X64850000Y-23050000D03*
D17*
X66150000Y-23050000D03*
D17*
X65500000Y-23050000D03*
D18*
X64850000Y-24950000D03*
D18*
X66150000Y-24950000D03*
D18*
X65500000Y-24950000D03*
D11*
X74000000Y-29500000D03*
D11*
X72500000Y-29500000D03*
D22*
X69700000Y-12250000D03*
D22*
X70800000Y-12250000D03*
D15*
X72500000Y-25750000D03*
D15*
X74000000Y-25750000D03*
D22*
X68450000Y-19750000D03*
D22*
X69550000Y-19750000D03*
D10*
X70000000Y17300000D03*
D10*
X70000000Y16200000D03*
D21*
X51000000Y38750000D03*
D21*
X49500000Y38750000D03*
D27*
X50250000Y36000000D03*
D27*
X50250000Y37500000D03*
D22*
X64700000Y9000000D03*
D22*
X65800000Y9000000D03*
D37*
X81050000Y-15750000D03*
D37*
X79950000Y-15750000D03*
D31*
X84000000Y38000000D03*
D31*
X84000000Y36500000D03*
D13*
X88500000Y-24500000D03*
D13*
X90000000Y-24500000D03*
D11*
X60500000Y18750000D03*
D11*
X59000000Y18750000D03*
D11*
X87250000Y-25250000D03*
D11*
X85750000Y-25250000D03*
D38*
X73950000Y10500000D03*
D39*
X71750000Y6800000D03*
D39*
X71250000Y6800000D03*
D38*
X73950000Y13000000D03*
D38*
X73950000Y9500000D03*
D39*
X70750000Y13700000D03*
D39*
X68750000Y6800000D03*
D40*
X70500000Y10250000D03*
D38*
X67050000Y7500000D03*
D38*
X73950000Y7500000D03*
D39*
X71250000Y13700000D03*
D38*
X67050000Y13000000D03*
D38*
X73950000Y11000000D03*
D39*
X70250000Y13700000D03*
D38*
X67050000Y11500000D03*
D38*
X73950000Y10000000D03*
D38*
X73950000Y12500000D03*
D38*
X67050000Y10000000D03*
D38*
X67050000Y12500000D03*
D39*
X69250000Y13700000D03*
D39*
X71750000Y13700000D03*
D39*
X67750000Y6800000D03*
D38*
X73950000Y12000000D03*
D39*
X73250000Y6800000D03*
D38*
X73950000Y9000000D03*
D38*
X67050000Y10500000D03*
D39*
X70750000Y6800000D03*
D39*
X70250000Y6800000D03*
D39*
X68250000Y6800000D03*
D38*
X67050000Y9000000D03*
D39*
X68250000Y13700000D03*
D39*
X72750000Y6800000D03*
D38*
X67050000Y8500000D03*
D38*
X73950000Y8500000D03*
D38*
X67050000Y9500000D03*
D38*
X73950000Y11500000D03*
D38*
X67050000Y12000000D03*
D39*
X67750000Y13700000D03*
D38*
X67050000Y8000000D03*
D39*
X68750000Y13700000D03*
D39*
X73250000Y13700000D03*
D39*
X72250000Y13700000D03*
D39*
X72250000Y6800000D03*
D39*
X72750000Y13700000D03*
D38*
X67050000Y11000000D03*
D38*
X73950000Y8000000D03*
D39*
X69250000Y6800000D03*
D39*
X69750000Y13700000D03*
D39*
X69750000Y6800000D03*
D18*
X83400000Y8300000D03*
D18*
X82100000Y8300000D03*
D18*
X82750000Y8300000D03*
D17*
X83400000Y10200000D03*
D17*
X82100000Y10200000D03*
D17*
X82750000Y10200000D03*
D14*
X88750008Y-29499944D03*
D14*
X88750008Y-27499944D03*
D41*
X81200000Y11500000D03*
D41*
X78800000Y12450000D03*
D41*
X78800000Y10550000D03*
D13*
X65750000Y-15250000D03*
D13*
X67250000Y-15250000D03*
D31*
X83500000Y12750000D03*
D31*
X83500000Y11250000D03*
D42*
X74800000Y-19950000D03*
D42*
X73200000Y-14050000D03*
D43*
X72050000Y-17600000D03*
D42*
X74400000Y-14050000D03*
D42*
X72800000Y-14050000D03*
D43*
X72050000Y-18800000D03*
D43*
X77950000Y-18000000D03*
D42*
X76800000Y-19950000D03*
D44*
X75000000Y-17000000D03*
D43*
X72050000Y-16000000D03*
D43*
X72050000Y-16800000D03*
D42*
X77200000Y-19950000D03*
D43*
X77950000Y-15200000D03*
D43*
X77950000Y-16800000D03*
D42*
X76000000Y-19950000D03*
D43*
X77950000Y-16400000D03*
D43*
X77950000Y-18400000D03*
D42*
X74800000Y-14050000D03*
D42*
X72800000Y-19950000D03*
D43*
X77950000Y-18800000D03*
D43*
X72050000Y-18000000D03*
D43*
X72050000Y-16400000D03*
D43*
X77950000Y-17600000D03*
D42*
X73200000Y-19950000D03*
D43*
X77950000Y-14800000D03*
D42*
X74000000Y-19950000D03*
D42*
X73600000Y-14050000D03*
D42*
X75200000Y-14050000D03*
D43*
X72050000Y-14800000D03*
D42*
X75600000Y-14050000D03*
D42*
X76400000Y-14050000D03*
D43*
X77950000Y-19200000D03*
D42*
X76800000Y-14050000D03*
D42*
X75200000Y-19950000D03*
D42*
X74400000Y-19950000D03*
D43*
X77950000Y-17200000D03*
D42*
X76400000Y-19950000D03*
D43*
X72050000Y-15200000D03*
D43*
X77950000Y-15600000D03*
D43*
X72050000Y-17200000D03*
D43*
X72050000Y-15600000D03*
D42*
X75600000Y-19950000D03*
D42*
X77200000Y-14050000D03*
D42*
X73600000Y-19950000D03*
D42*
X76000000Y-14050000D03*
D43*
X77950000Y-16000000D03*
D42*
X74000000Y-14050000D03*
D43*
X72050000Y-18400000D03*
D43*
X72050000Y-19200000D03*
D21*
X58250000Y30250000D03*
D21*
X56750000Y30250000D03*
D35*
X58911051Y26189203D03*
D35*
X58911051Y28729203D03*
D34*
X53511051Y26189203D03*
D35*
X58911051Y24919203D03*
D35*
X58911051Y27459203D03*
D34*
X53511051Y28729203D03*
D34*
X53511051Y27459203D03*
D34*
X53511051Y24919203D03*
D36*
X73000000Y-11000000D03*
D36*
X73000000Y-9500000D03*
D15*
X50461051Y27324203D03*
D15*
X51961051Y27324203D03*
D45*
X72800000Y27000000D03*
D45*
X75200000Y26050000D03*
D45*
X72800000Y27950000D03*
D45*
X75200000Y27950000D03*
D45*
X72800000Y26050000D03*
D21*
X74000000Y-27250000D03*
D21*
X72500000Y-27250000D03*
D13*
X79250000Y14000000D03*
D13*
X80750000Y14000000D03*
D15*
X82500000Y39750000D03*
D15*
X84000000Y39750000D03*
D23*
X55400000Y10249998D03*
D23*
X55400000Y12249998D03*
D24*
X55400000Y11249998D03*
D25*
X54600000Y11249998D03*
D26*
X54600000Y12249998D03*
D26*
X54600000Y10249998D03*
D23*
X55400000Y10749998D03*
D26*
X54600000Y10749998D03*
D23*
X55400000Y11749998D03*
D26*
X54600000Y11749998D03*
D11*
X70250000Y-8000000D03*
D11*
X68750000Y-8000000D03*
D13*
X49500000Y40000000D03*
D13*
X51000000Y40000000D03*
D20*
X72250000Y-23050000D03*
D20*
X72250000Y-21950000D03*
D22*
X64700000Y12000000D03*
D22*
X65800000Y12000000D03*
D46*
X81115000Y29050000D03*
D46*
X83655000Y29050000D03*
D47*
X81115000Y34450000D03*
D46*
X79845000Y29050000D03*
D46*
X82385000Y29050000D03*
D47*
X83655000Y34450000D03*
D47*
X82385000Y34450000D03*
D47*
X79845000Y34450000D03*
D17*
X54775000Y18250000D03*
D17*
X56075000Y18250000D03*
D17*
X55425000Y18250000D03*
D18*
X54775000Y16350000D03*
D18*
X56075000Y16350000D03*
D18*
X55425000Y16350000D03*
D48*
X58025000Y12000000D03*
D48*
X58025000Y10000001D03*
D48*
X58025000Y9500000D03*
D48*
X61475000Y8000000D03*
D48*
X58025000Y9000000D03*
D49*
X60000062Y14975000D03*
D49*
X59499938Y6025000D03*
D48*
X58025000Y8000000D03*
D48*
X61475000Y6500000D03*
D48*
X61475000Y6999999D03*
D48*
X61475000Y7500001D03*
D48*
X58025000Y6999999D03*
D48*
X61475000Y13000000D03*
D48*
X58025000Y6500000D03*
D48*
X61475000Y13499999D03*
D49*
X59499938Y14975000D03*
D48*
X61475000Y8499999D03*
D48*
X61475000Y9000000D03*
D50*
X59750000Y10500000D03*
D48*
X58025000Y14000001D03*
D48*
X58025000Y10999999D03*
D48*
X61475000Y14000001D03*
D48*
X58025000Y10500000D03*
D48*
X58025000Y7500001D03*
D48*
X61475000Y12500001D03*
D48*
X61475000Y11500000D03*
D48*
X61475000Y14500000D03*
D49*
X58999811Y6025000D03*
D48*
X61475000Y10500000D03*
D49*
X60000062Y6025000D03*
D48*
X58025000Y13499999D03*
D48*
X61475000Y9500000D03*
D49*
X60500189Y6025000D03*
D49*
X58999811Y14975000D03*
D48*
X58025000Y12500001D03*
D49*
X60500189Y14975000D03*
D48*
X58025000Y8499999D03*
D48*
X58025000Y11500000D03*
D48*
X61475000Y12000000D03*
D48*
X61475000Y10000001D03*
D48*
X58025000Y13000000D03*
D48*
X58025000Y14500000D03*
D48*
X61475000Y10999999D03*
D10*
X75000000Y11550000D03*
D10*
X75000000Y10450000D03*
D11*
X66250000Y20000000D03*
D11*
X64750000Y20000000D03*
D27*
X90500000Y-28750000D03*
D27*
X90500000Y-27250000D03*
D16*
X77499992Y21549944D03*
D16*
X77499992Y19949944D03*
D22*
X64700000Y10500000D03*
D22*
X65800000Y10500000D03*
D15*
X65750000Y-16750000D03*
D15*
X67250000Y-16750000D03*
D13*
X65750000Y-18250000D03*
D13*
X67250000Y-18250000D03*
D15*
X86200000Y22375000D03*
D15*
X87700000Y22375000D03*
D51*
X77250000Y12000000D03*
D51*
X77250000Y10500000D03*
D13*
X70250000Y31500000D03*
D13*
X71750000Y31500000D03*
D31*
X81000000Y38000000D03*
D31*
X81000000Y36500000D03*
D22*
X68450000Y-16250000D03*
D22*
X69550000Y-16250000D03*
D51*
X78250000Y36000000D03*
D51*
X78250000Y34500000D03*
D11*
X82250000Y24750000D03*
D11*
X80750000Y24750000D03*
D52*
X79350000Y-9200000D03*
D52*
X77150000Y-9200000D03*
D52*
X77150000Y-10800000D03*
D52*
X79350000Y-10800000D03*
D27*
X64000000Y14250000D03*
D27*
X64000000Y15750000D03*
D31*
X82500000Y38000000D03*
D31*
X82500000Y36500000D03*
D20*
X69750000Y3700000D03*
D20*
X69750000Y4800000D03*
D12*
X84250056Y-30000008D03*
D12*
X86250056Y-30000008D03*
D37*
X81050000Y-18250000D03*
D37*
X79950000Y-18250000D03*
D15*
X65750000Y-13750000D03*
D15*
X67250000Y-13750000D03*
D41*
X64950000Y-4750000D03*
D41*
X62550000Y-3800000D03*
D41*
X62550000Y-5700000D03*
D20*
X78250000Y-23550000D03*
D20*
X78250000Y-22450000D03*
D11*
X78250000Y28500000D03*
D11*
X76750000Y28500000D03*
D32*
X89200000Y18405000D03*
D33*
X89200000Y20645000D03*
D53*
X85995000Y12450000D03*
D54*
X86570000Y4140000D03*
D55*
X85995000Y8000000D03*
D54*
X90500000Y14360000D03*
D55*
X85995000Y10500000D03*
D54*
X86570000Y14360000D03*
D55*
X85995000Y9000000D03*
D55*
X85995000Y7500000D03*
D55*
X85995000Y11000000D03*
D53*
X85995000Y6850000D03*
D54*
X90500000Y4140000D03*
D55*
X85995000Y9500000D03*
D53*
X85995000Y11650000D03*
D53*
X85995000Y6050000D03*
D55*
X85995000Y8500000D03*
D55*
X85995000Y10000000D03*
D56*
X76650000Y3950000D03*
D56*
X78850000Y3950000D03*
D56*
X78850000Y5550000D03*
D56*
X76650000Y5550000D03*
D21*
X66000000Y5500000D03*
D21*
X64500000Y5500000D03*
D57*
X68000000Y32900000D03*
D58*
X68000000Y37600000D03*
D59*
X71100000Y35000000D03*
D57*
X70500000Y32900000D03*
D60*
X66400000Y36000000D03*
D57*
X67000000Y32900000D03*
D58*
X69500000Y37600000D03*
D59*
X71100000Y35500000D03*
D60*
X66400000Y34000000D03*
D57*
X68500000Y32900000D03*
D59*
X71100000Y36000000D03*
D57*
X70000000Y32900000D03*
D58*
X68500000Y37600000D03*
D59*
X71100000Y37000000D03*
D58*
X70000000Y37600000D03*
D60*
X66400000Y36500000D03*
D58*
X69000000Y37600000D03*
D61*
X68750000Y35250000D03*
D60*
X66400000Y33500000D03*
D59*
X71100000Y34000000D03*
D60*
X66400000Y37000000D03*
D60*
X66400000Y34500000D03*
D60*
X66400000Y35000000D03*
D59*
X71100000Y34500000D03*
D60*
X66400000Y35500000D03*
D58*
X70500000Y37600000D03*
D58*
X67000000Y37600000D03*
D57*
X69000000Y32900000D03*
D58*
X67500000Y37600000D03*
D57*
X69500000Y32900000D03*
D57*
X67500000Y32900000D03*
D59*
X71100000Y33500000D03*
D59*
X71100000Y36500000D03*
D32*
X89250000Y37155000D03*
D33*
X89250000Y39395000D03*
D11*
X74000000Y-31000000D03*
D11*
X72500000Y-31000000D03*
D13*
X80250000Y7000000D03*
D13*
X81750000Y7000000D03*
D12*
X72800056Y24549882D03*
D12*
X74800056Y24549882D03*
D62*
X66749944Y-11999992D03*
D62*
X64749944Y-11999992D03*
D13*
X76750000Y30000000D03*
D13*
X78250000Y30000000D03*
D27*
X83500000Y23750000D03*
D27*
X83500000Y25250000D03*
D11*
X70250000Y-3500000D03*
D11*
X68750000Y-3500000D03*
D15*
X86250000Y34875000D03*
D15*
X87750000Y34875000D03*
D15*
X76500000Y8000000D03*
D15*
X78000000Y8000000D03*
D13*
X73750000Y36000000D03*
D13*
X75250000Y36000000D03*
D16*
X82499992Y-28450056D03*
D16*
X82499992Y-30050056D03*
D27*
X65500000Y13750000D03*
D27*
X65500000Y15250000D03*
D21*
X70250000Y-13500000D03*
D21*
X68750000Y-13500000D03*
D20*
X74250000Y-23550000D03*
D20*
X74250000Y-22450000D03*
D20*
X75250000Y-23550000D03*
D20*
X75250000Y-22450000D03*
D36*
X80500000Y3750000D03*
D36*
X80500000Y5250000D03*
D14*
X83750008Y20500056D03*
D14*
X83750008Y22500056D03*
D13*
X68500000Y-11000000D03*
D13*
X70000000Y-11000000D03*
D45*
X79550000Y22500000D03*
D45*
X81950000Y21550000D03*
D45*
X79550000Y23450000D03*
D45*
X81950000Y23450000D03*
D45*
X79550000Y21550000D03*
D21*
X77000000Y31500000D03*
D21*
X75500000Y31500000D03*
D11*
X70250000Y-6500000D03*
D11*
X68750000Y-6500000D03*
D20*
X77250000Y-23550000D03*
D20*
X77250000Y-22450000D03*
D63*
X51620000Y13000000D03*
D63*
X51620000Y18500000D03*
D63*
X51620000Y10000000D03*
D63*
X51620000Y10500000D03*
D63*
X51620000Y11000000D03*
D63*
X51620000Y16000000D03*
D63*
X51620000Y15500000D03*
D63*
X51620000Y17500000D03*
D63*
X51620000Y14000000D03*
D63*
X51620000Y12500000D03*
D63*
X51620000Y11500000D03*
D63*
X51620000Y15000000D03*
D63*
X51620000Y16500000D03*
D63*
X51620000Y19000000D03*
D63*
X51620000Y13500000D03*
D63*
X51620000Y14500000D03*
D63*
X51620000Y12000000D03*
D63*
X51620000Y18000000D03*
D63*
X51620000Y17000000D03*
D21*
X78500000Y-28250000D03*
D21*
X77000000Y-28250000D03*
D45*
X84550000Y-27500000D03*
D45*
X86950000Y-28450000D03*
D45*
X84550000Y-26550000D03*
D45*
X86950000Y-26550000D03*
D45*
X84550000Y-28450000D03*
D32*
X89200000Y24655000D03*
D33*
X89200000Y26895000D03*
D51*
X75500000Y-9250000D03*
D51*
X75500000Y-10750000D03*
D37*
X81050000Y-14000000D03*
D37*
X79950000Y-14000000D03*
D20*
X72750000Y3700000D03*
D20*
X72750000Y4800000D03*
D22*
X68950000Y-14750000D03*
D22*
X70050000Y-14750000D03*
D51*
X75000000Y5250000D03*
D51*
X75000000Y3750000D03*
M02*
