%FSLAX46Y46*%
%MOMM*%
%ADD10C,0.010000*%
%ADD11C,0.500000*%
G01*
%LPD*%
G01*
%LPD*%
D10*
X39750000Y43000000D02*
X41750000Y41000000D01*
D10*
X41750000Y41000000D02*
X43500000Y43000000D01*
D10*
X43500000Y43000000D02*
X89750000Y43000000D01*
D10*
X89750000Y43000000D02*
X91750000Y41000000D01*
D10*
X91750000Y41000000D02*
X91750000Y-32000000D01*
D10*
X91750000Y-32000000D02*
X89750000Y-34000000D01*
D10*
X89750000Y-34000000D02*
X43500000Y-34000000D01*
D10*
X43500000Y-34000000D02*
X41750000Y-32000000D01*
D10*
X41750000Y-32000000D02*
X39750000Y-34000000D01*
D10*
X39750000Y-34000000D02*
X-6250000Y-34000000D01*
D10*
X-6250000Y-34000000D02*
X-8250000Y-32000000D01*
D10*
X-8250000Y-32000000D02*
X-8250000Y41000000D01*
D10*
X-8250000Y41000000D02*
X-6250000Y43000000D01*
D10*
X-6250000Y43000000D02*
X39750000Y43000000D01*
D11*
X49428572Y-32678572D02*
X48428572Y-29678572D01*
D11*
X49428572Y-32250000D02*
X48571428Y-29678572D01*
D11*
X49428572Y-32678572D02*
X49428572Y-32250000D01*
D11*
X49571428Y-32250000D02*
X48714284Y-29678572D01*
D11*
X49428572Y-32678572D02*
X50428572Y-29821428D01*
D11*
X49142856Y-29678572D02*
X48142856Y-29678572D01*
D11*
X50714284Y-29678572D02*
X49857144Y-29678572D01*
D11*
X48571428Y-29964286D02*
X48285716Y-29678572D01*
D11*
X48714284Y-29964286D02*
X48857144Y-29678572D01*
D11*
X48714284Y-29821428D02*
X49000000Y-29678572D01*
D11*
X50428572Y-29821428D02*
X50142856Y-29678572D01*
D11*
X50428572Y-29821428D02*
X50571428Y-29678572D01*
D11*
X53857144Y-31250000D02*
X51428572Y-31250000D01*
D11*
X53857144Y-31392858D02*
X53857144Y-31250000D01*
D11*
X51428572Y-31392858D02*
X51428572Y-31250000D01*
D11*
X53857144Y-31392858D02*
X51428572Y-31392858D01*
D11*
X57000000Y-29678572D02*
X56857144Y-30107142D01*
D11*
X57000000Y-30535714D02*
X57000000Y-29678572D01*
D11*
X56857144Y-30107142D02*
X57000000Y-30535714D01*
D11*
X56571428Y-29821428D02*
X56857144Y-30107142D01*
D11*
X56285712Y-29678572D02*
X56571428Y-29821428D01*
D11*
X55857144Y-29678572D02*
X56285712Y-29678572D01*
D11*
X55428572Y-29821428D02*
X55857144Y-29678572D01*
D11*
X55142856Y-30107142D02*
X55428572Y-29821428D01*
D11*
X55000000Y-30392858D02*
X55142856Y-30107142D01*
D11*
X54857144Y-30821428D02*
X55000000Y-30392858D01*
D11*
X54857144Y-31535714D02*
X54857144Y-30821428D01*
D11*
X55000000Y-31964286D02*
X54857144Y-31535714D01*
D11*
X55142856Y-32250000D02*
X55000000Y-31964286D01*
D11*
X55428572Y-32535714D02*
X55142856Y-32250000D01*
D11*
X55857144Y-32678572D02*
X55428572Y-32535714D01*
D11*
X56285712Y-32678572D02*
X55857144Y-32678572D01*
D11*
X56571428Y-32535714D02*
X56285712Y-32678572D01*
D11*
X56857144Y-32250000D02*
X56571428Y-32535714D01*
D11*
X57000000Y-31964286D02*
X56857144Y-32250000D01*
D11*
X55142856Y-30392858D02*
X55285712Y-30107142D01*
D11*
X55000000Y-30821428D02*
X55142856Y-30392858D01*
D11*
X55000000Y-31535714D02*
X55000000Y-30821428D01*
D11*
X55142856Y-31964286D02*
X55000000Y-31535714D01*
D11*
X55285712Y-32250000D02*
X55142856Y-31964286D01*
D11*
X55571428Y-29821428D02*
X55857144Y-29678572D01*
D11*
X55285712Y-30250000D02*
X55571428Y-29821428D01*
D11*
X55142856Y-30821428D02*
X55285712Y-30250000D01*
D11*
X55142856Y-31535714D02*
X55142856Y-30821428D01*
D11*
X55285712Y-32107142D02*
X55142856Y-31535714D01*
D11*
X55571428Y-32535714D02*
X55285712Y-32107142D01*
D11*
X55857144Y-32678572D02*
X55571428Y-32535714D01*
D11*
X58142856Y-31964286D02*
X58142856Y-30678572D01*
D11*
X58285712Y-32392858D02*
X58142856Y-31964286D01*
D11*
X58428572Y-32535714D02*
X58285712Y-32392858D01*
D11*
X58714288Y-32678572D02*
X58428572Y-32535714D01*
D11*
X59142856Y-32678572D02*
X58714288Y-32678572D01*
D11*
X59428572Y-32535714D02*
X59142856Y-32678572D01*
D11*
X59571428Y-32392858D02*
X59428572Y-32535714D01*
D11*
X59714288Y-32107142D02*
X59571428Y-32392858D01*
D11*
X58285712Y-32107142D02*
X58285712Y-30821428D01*
D11*
X58428572Y-32392858D02*
X58285712Y-32107142D01*
D11*
X58428572Y-30678572D02*
X57714288Y-30678572D01*
D11*
X58428572Y-32107142D02*
X58428572Y-30678572D01*
D11*
X58571428Y-32535714D02*
X58428572Y-32107142D01*
D11*
X58714288Y-32678572D02*
X58571428Y-32535714D01*
D11*
X59714288Y-32678572D02*
X59714288Y-30678572D01*
D11*
X60428572Y-32678572D02*
X59714288Y-32678572D01*
D11*
X59857144Y-32535714D02*
X59857144Y-30821428D01*
D11*
X60000000Y-30678572D02*
X59285712Y-30678572D01*
D11*
X60000000Y-32678572D02*
X60000000Y-30678572D01*
D11*
X58142856Y-30821428D02*
X57857144Y-30678572D01*
D11*
X58142856Y-30964286D02*
X58000000Y-30678572D01*
D11*
X60142856Y-32678572D02*
X60000000Y-32392858D01*
D11*
X60285712Y-32678572D02*
X60000000Y-32535714D01*
D11*
X61428572Y-31964286D02*
X61428572Y-29964286D01*
D11*
X61571428Y-32392858D02*
X61428572Y-31964286D01*
D11*
X61714288Y-32535714D02*
X61571428Y-32392858D01*
D11*
X62000000Y-32678572D02*
X61714288Y-32535714D01*
D11*
X62285712Y-32678572D02*
X62000000Y-32678572D01*
D11*
X62571428Y-32535714D02*
X62285712Y-32678572D01*
D11*
X62714284Y-32250000D02*
X62571428Y-32535714D01*
D11*
X61571428Y-32107142D02*
X61571428Y-29964286D01*
D11*
X61714288Y-32392858D02*
X61571428Y-32107142D01*
D11*
X61714288Y-29678572D02*
X61428572Y-29964286D01*
D11*
X61714288Y-32107142D02*
X61714288Y-29678572D01*
D11*
X61857144Y-32535714D02*
X61714288Y-32107142D01*
D11*
X62000000Y-32678572D02*
X61857144Y-32535714D01*
D11*
X62285712Y-30678572D02*
X61000000Y-30678572D01*
D11*
X48000000Y-31250000D02*
X43000000Y-31250000D01*
D11*
X41750000Y43000000D02*
X41750000Y-34000000D01*
D11*
X43000000Y-31250000D02*
X44250000Y-32500000D01*
D11*
X43000000Y-31250000D02*
X44250000Y-30000000D01*
G75*
M02*
