M48
FMAT,2
METRIC,TZ
T9C0.300
T8C0.350
T4C0.650
T7C0.900
T6C0.991
T2C1.130
T1C1.270
T5C2.375
T3C3.230
%
G90
G05
M71
T9
X24.250Y-21.750
X4.000Y11.250
X26.600Y-12.650
X20.250Y-18.750
X14.250Y-17.000
X20.750Y-17.250
X3.250Y13.500
X27.750Y-21.250
X23.000Y-21.250
X12.250Y7.995
X16.425Y10.500
X27.250Y-21.750
X3.250Y17.995
X3.250Y15.000
X3.250Y10.500
X29.250Y-18.250
X14.000Y12.000
X9.000Y5.250
X16.970Y32.030
X16.425Y12.000
X16.425Y9.000
X20.750Y-14.750
X12.750Y7.500
X3.250Y12.000
X26.250Y-21.750
X22.250Y-21.250
X24.750Y-21.225
X14.000Y9.000
X20.750Y-18.250
X29.250Y-15.750
X13.750Y10.500
X12.250Y-17.000
X10.000Y5.250
X20.250Y-16.000
X22.000Y-12.750
X4.000Y14.250
X5.425Y15.825
X25.750Y-11.750
X18.000Y31.000
X26.750Y-21.250
X25.750Y-21.250
X9.500Y5.000
X19.745Y14.500
X18.750Y17.750
X20.250Y-16.750
X10.500Y5.000
X17.500Y31.530
X20.750Y-19.500
X19.250Y18.250
X25.000Y-11.750
X74.250Y-21.750
X54.000Y11.250
X76.600Y-12.650
X70.250Y-18.750
X64.250Y-17.000
X70.750Y-17.250
X53.250Y13.500
X77.750Y-21.250
X73.000Y-21.250
X62.250Y7.995
X66.425Y10.500
X77.250Y-21.750
X53.250Y17.995
X53.250Y15.000
X53.250Y10.500
X79.250Y-18.250
X64.000Y12.000
X59.000Y5.250
X66.970Y32.030
X66.425Y12.000
X66.425Y9.000
X70.750Y-14.750
X62.750Y7.500
X53.250Y12.000
X76.250Y-21.750
X72.250Y-21.250
X74.750Y-21.225
X64.000Y9.000
X70.750Y-18.250
X79.250Y-15.750
X63.750Y10.500
X62.250Y-17.000
X60.000Y5.250
X70.250Y-16.000
X72.000Y-12.750
X54.000Y14.250
X55.425Y15.825
X75.750Y-11.750
X68.000Y31.000
X76.750Y-21.250
X75.750Y-21.250
X59.500Y5.000
X69.745Y14.500
X68.750Y17.750
X70.250Y-16.750
X60.500Y5.000
X67.500Y31.530
X70.750Y-19.500
X69.250Y18.250
X75.000Y-11.750
T8
X18.750Y10.250
X24.050Y27.050
X18.750Y8.500
X17.500Y6.000
X22.750Y17.250
X11.500Y15.750
X28.250Y-24.250
X30.250Y-5.500
X32.600Y-12.250
X28.500Y32.000
X37.500Y-15.900
X36.000Y-20.750
X36.500Y16.250
X23.500Y-15.500
X17.875Y-19.250
X14.250Y22.750
X-2.000Y41.000
X40.250Y23.000
X18.000Y-5.750
X38.000Y-20.750
X21.750Y30.750
X37.000Y-20.750
X23.500Y-17.000
X40.500Y-30.250
X24.750Y-27.250
X37.800Y-29.450
X26.250Y-23.250
X18.750Y35.250
X22.500Y35.250
X13.750Y17.000
X22.000Y5.750
X-5.000Y27.000
X29.525Y24.950
X33.000Y-20.750
X39.000Y-20.750
X33.500Y-31.500
X25.125Y-18.500
X40.000Y-19.750
X9.000Y30.250
X32.000Y-31.500
X40.250Y2.250
X33.875Y-12.875
X35.750Y2.250
X26.750Y17.750
X40.000Y-14.750
X18.750Y36.500
X16.500Y18.250
X8.750Y16.000
X26.000Y17.750
X34.520Y10.250
X26.050Y25.050
X38.000Y16.250
X23.459Y6.021
X34.000Y-20.750
X-5.160Y28.000
X30.750Y23.500
X18.250Y24.250
X5.250Y22.500
X25.500Y-28.750
X16.250Y-5.000
X35.550Y22.375
X20.000Y35.250
X33.500Y13.250
X18.750Y20.000
X35.750Y-17.800
X36.100Y-12.250
X9.250Y13.750
X37.500Y-15.100
X-5.750Y27.000
X19.750Y5.500
X1.096Y37.326
X35.600Y34.875
X35.150Y-12.250
X20.500Y5.750
X17.500Y4.500
X23.750Y30.750
X-5.000Y41.000
X22.750Y3.000
X22.250Y10.250
X40.250Y16.250
X25.000Y-17.000
X15.000Y-6.750
X18.000Y17.500
X9.000Y24.000
X35.750Y-17.000
X23.500Y18.750
X-6.500Y30.500
X5.250Y25.000
X16.250Y7.250
X17.500Y36.500
X35.800Y-27.450
X28.750Y40.500
X40.000Y-16.750
X35.800Y-26.450
X-3.500Y41.000
X41.000Y16.250
X39.500Y2.250
X23.000Y31.500
X39.500Y16.250
X35.625Y-12.875
X28.500Y-31.000
X18.750Y4.500
X39.125Y-11.625
X-2.000Y27.000
X15.000Y-26.250
X34.250Y17.000
X20.000Y18.000
X38.650Y-12.250
X37.250Y16.250
X-3.500Y27.000
X30.000Y27.750
X27.750Y31.500
X6.075Y19.175
X21.500Y20.750
X20.500Y29.250
X20.000Y34.000
X18.000Y-12.000
X24.250Y-8.750
X39.250Y-14.150
X40.000Y-18.750
X25.500Y-8.250
X-4.250Y27.000
X13.750Y20.000
X18.750Y12.000
X33.500Y16.250
X22.750Y28.750
X25.250Y17.750
X13.500Y-10.250
X30.250Y-31.500
X17.000Y38.750
X33.400Y-12.250
X20.250Y30.750
X10.250Y13.750
X40.300Y29.250
X39.250Y-13.350
X20.000Y15.500
X29.000Y2.750
X-6.500Y41.000
X30.750Y22.500
X26.250Y37.000
X17.500Y34.000
X38.000Y2.250
X24.250Y-24.250
X-5.160Y40.000
X31.750Y-15.750
X20.500Y21.500
X26.000Y12.250
X-0.289Y28.824
X9.250Y7.250
X32.000Y-20.250
X1.500Y30.500
X-7.250Y30.500
X32.000Y-11.625
X13.750Y-5.750
X18.000Y-14.000
X30.250Y8.000
X38.250Y-15.500
X6.000Y23.000
X30.750Y21.500
X35.800Y-28.450
X19.500Y-28.250
X4.961Y26.074
X23.000Y-8.750
X28.750Y15.500
X10.250Y7.250
X22.750Y5.500
X26.250Y36.000
X37.375Y-11.625
X26.500Y-15.500
X30.250Y-27.250
X-0.770Y33.000
X15.000Y37.500
X19.750Y28.750
X32.000Y-12.875
X35.600Y28.625
X5.211Y28.824
X2.500Y31.750
X-4.410Y29.000
X38.750Y16.250
X34.250Y16.250
X11.500Y16.750
X25.250Y34.000
X18.250Y29.500
X9.250Y8.500
X22.250Y12.000
X-4.410Y39.000
X15.000Y-4.000
X28.500Y14.000
X17.500Y-6.750
X27.500Y-6.750
X20.500Y12.000
X38.800Y35.500
X20.500Y10.250
X9.250Y11.500
X27.750Y-29.500
X-2.750Y41.000
X38.910Y3.250
X27.250Y-24.250
X-5.000Y30.500
X38.750Y23.000
X38.800Y29.250
X18.750Y34.000
X39.500Y23.000
X40.000Y-17.750
X4.000Y18.500
X-6.500Y27.000
X22.250Y8.500
X-5.750Y41.000
X31.500Y14.000
X25.500Y6.250
X-5.160Y39.000
X31.750Y6.000
X21.000Y-11.000
X38.160Y4.250
X13.750Y-12.000
X-0.770Y34.500
X30.000Y33.000
X37.250Y2.250
X32.750Y-31.500
X34.520Y12.000
X-1.020Y36.750
X35.625Y-11.625
X10.250Y8.500
X38.750Y2.250
X38.160Y15.250
X23.500Y-18.500
X19.750Y3.000
X13.500Y36.750
X33.875Y-11.625
X28.250Y30.750
X17.750Y20.000
X31.750Y-14.000
X-2.750Y27.000
X24.050Y28.105
X7.500Y18.750
X26.500Y-17.000
X34.750Y-19.000
X34.000Y-19.400
X11.250Y18.750
X38.910Y15.250
X35.000Y-20.750
X32.500Y11.000
X-7.250Y27.000
X14.500Y4.750
X18.000Y15.000
X28.500Y16.250
X25.000Y12.250
X23.000Y-23.000
X31.115Y35.635
X31.750Y4.500
X40.000Y-13.750
X38.160Y14.250
X21.250Y3.000
X29.250Y-14.000
X31.750Y-18.250
X38.910Y4.250
X28.750Y37.750
X12.500Y-3.000
X7.450Y27.195
X25.000Y-15.500
X39.550Y35.500
X20.000Y36.500
X38.160Y3.250
X8.250Y17.250
X36.900Y-12.250
X22.000Y15.500
X-4.250Y30.500
X27.250Y36.000
X-7.250Y41.000
X37.850Y-12.250
X38.910Y14.250
X34.500Y-25.750
X37.375Y-12.875
X20.625Y8.500
X21.250Y5.500
X40.000Y-23.750
X39.550Y29.250
X36.500Y2.250
X-5.750Y30.500
X36.500Y-17.400
X17.900Y-16.750
X32.520Y5.750
X30.500Y-10.645
X25.250Y-24.250
X28.750Y8.000
X17.500Y35.250
X17.000Y15.000
X40.300Y35.500
X-4.250Y41.000
X18.000Y-3.500
X34.000Y-18.600
X17.000Y17.500
X40.000Y-20.750
X21.500Y22.250
X35.750Y16.250
X19.000Y-12.250
X-4.410Y28.000
X26.500Y-18.500
X34.520Y8.750
X10.980Y25.880
X6.750Y28.750
X40.000Y-15.750
X5.211Y27.324
X34.350Y-12.250
X-4.410Y40.000
X-0.770Y31.250
X10.250Y11.500
X32.750Y20.500
X-5.160Y29.000
X22.750Y23.500
X13.720Y37.750
X23.000Y15.750
X14.500Y17.500
X9.750Y10.500
X24.050Y26.050
X34.770Y6.500
X68.750Y10.250
X74.050Y27.050
X68.750Y8.500
X67.500Y6.000
X72.750Y17.250
X61.500Y15.750
X78.250Y-24.250
X80.250Y-5.500
X82.600Y-12.250
X78.500Y32.000
X87.500Y-15.900
X86.000Y-20.750
X86.500Y16.250
X73.500Y-15.500
X67.875Y-19.250
X64.250Y22.750
X48.000Y41.000
X90.250Y23.000
X68.000Y-5.750
X88.000Y-20.750
X71.750Y30.750
X87.000Y-20.750
X73.500Y-17.000
X90.500Y-30.250
X74.750Y-27.250
X87.800Y-29.450
X76.250Y-23.250
X68.750Y35.250
X72.500Y35.250
X63.750Y17.000
X72.000Y5.750
X45.000Y27.000
X79.525Y24.950
X83.000Y-20.750
X89.000Y-20.750
X83.500Y-31.500
X75.125Y-18.500
X90.000Y-19.750
X59.000Y30.250
X82.000Y-31.500
X90.250Y2.250
X83.875Y-12.875
X85.750Y2.250
X76.750Y17.750
X90.000Y-14.750
X68.750Y36.500
X66.500Y18.250
X58.750Y16.000
X76.000Y17.750
X84.520Y10.250
X76.050Y25.050
X88.000Y16.250
X73.459Y6.021
X84.000Y-20.750
X44.840Y28.000
X80.750Y23.500
X68.250Y24.250
X55.250Y22.500
X75.500Y-28.750
X66.250Y-5.000
X85.550Y22.375
X70.000Y35.250
X83.500Y13.250
X68.750Y20.000
X85.750Y-17.800
X86.100Y-12.250
X59.250Y13.750
X87.500Y-15.100
X44.250Y27.000
X69.750Y5.500
X51.096Y37.326
X85.600Y34.875
X85.150Y-12.250
X70.500Y5.750
X67.500Y4.500
X73.750Y30.750
X45.000Y41.000
X72.750Y3.000
X72.250Y10.250
X90.250Y16.250
X75.000Y-17.000
X65.000Y-6.750
X68.000Y17.500
X59.000Y24.000
X85.750Y-17.000
X73.500Y18.750
X43.500Y30.500
X55.250Y25.000
X66.250Y7.250
X67.500Y36.500
X85.800Y-27.450
X78.750Y40.500
X90.000Y-16.750
X85.800Y-26.450
X46.500Y41.000
X91.000Y16.250
X89.500Y2.250
X73.000Y31.500
X89.500Y16.250
X85.625Y-12.875
X78.500Y-31.000
X68.750Y4.500
X89.125Y-11.625
X48.000Y27.000
X65.000Y-26.250
X84.250Y17.000
X70.000Y18.000
X88.650Y-12.250
X87.250Y16.250
X46.500Y27.000
X80.000Y27.750
X77.750Y31.500
X56.075Y19.175
X71.500Y20.750
X70.500Y29.250
X70.000Y34.000
X68.000Y-12.000
X74.250Y-8.750
X89.250Y-14.150
X90.000Y-18.750
X75.500Y-8.250
X45.750Y27.000
X63.750Y20.000
X68.750Y12.000
X83.500Y16.250
X72.750Y28.750
X75.250Y17.750
X63.500Y-10.250
X80.250Y-31.500
X67.000Y38.750
X83.400Y-12.250
X70.250Y30.750
X60.250Y13.750
X90.300Y29.250
X89.250Y-13.350
X70.000Y15.500
X79.000Y2.750
X43.500Y41.000
X80.750Y22.500
X76.250Y37.000
X67.500Y34.000
X88.000Y2.250
X74.250Y-24.250
X44.840Y40.000
X81.750Y-15.750
X70.500Y21.500
X76.000Y12.250
X49.711Y28.824
X59.250Y7.250
X82.000Y-20.250
X51.500Y30.500
X42.750Y30.500
X82.000Y-11.625
X63.750Y-5.750
X68.000Y-14.000
X80.250Y8.000
X88.250Y-15.500
X56.000Y23.000
X80.750Y21.500
X85.800Y-28.450
X69.500Y-28.250
X54.961Y26.074
X73.000Y-8.750
X78.750Y15.500
X60.250Y7.250
X72.750Y5.500
X76.250Y36.000
X87.375Y-11.625
X76.500Y-15.500
X80.250Y-27.250
X49.230Y33.000
X65.000Y37.500
X69.750Y28.750
X82.000Y-12.875
X85.600Y28.625
X55.211Y28.824
X52.500Y31.750
X45.590Y29.000
X88.750Y16.250
X84.250Y16.250
X61.500Y16.750
X75.250Y34.000
X68.250Y29.500
X59.250Y8.500
X72.250Y12.000
X45.590Y39.000
X65.000Y-4.000
X78.500Y14.000
X67.500Y-6.750
X77.500Y-6.750
X70.500Y12.000
X88.800Y35.500
X70.500Y10.250
X59.250Y11.500
X77.750Y-29.500
X47.250Y41.000
X88.910Y3.250
X77.250Y-24.250
X45.000Y30.500
X88.750Y23.000
X88.800Y29.250
X68.750Y34.000
X89.500Y23.000
X90.000Y-17.750
X54.000Y18.500
X43.500Y27.000
X72.250Y8.500
X44.250Y41.000
X81.500Y14.000
X75.500Y6.250
X44.840Y39.000
X81.750Y6.000
X71.000Y-11.000
X88.160Y4.250
X63.750Y-12.000
X49.230Y34.500
X80.000Y33.000
X87.250Y2.250
X82.750Y-31.500
X84.520Y12.000
X48.980Y36.750
X85.625Y-11.625
X60.250Y8.500
X88.750Y2.250
X88.160Y15.250
X73.500Y-18.500
X69.750Y3.000
X63.500Y36.750
X83.875Y-11.625
X78.250Y30.750
X67.750Y20.000
X81.750Y-14.000
X47.250Y27.000
X74.050Y28.105
X57.500Y18.750
X76.500Y-17.000
X84.750Y-19.000
X84.000Y-19.400
X61.250Y18.750
X88.910Y15.250
X85.000Y-20.750
X82.500Y11.000
X42.750Y27.000
X64.500Y4.750
X68.000Y15.000
X78.500Y16.250
X75.000Y12.250
X73.000Y-23.000
X81.115Y35.635
X81.750Y4.500
X90.000Y-13.750
X88.160Y14.250
X71.250Y3.000
X79.250Y-14.000
X81.750Y-18.250
X88.910Y4.250
X78.750Y37.750
X62.500Y-3.000
X57.450Y27.195
X75.000Y-15.500
X89.550Y35.500
X70.000Y36.500
X88.160Y3.250
X58.250Y17.250
X86.900Y-12.250
X72.000Y15.500
X45.750Y30.500
X77.250Y36.000
X42.750Y41.000
X87.850Y-12.250
X88.910Y14.250
X84.500Y-25.750
X87.375Y-12.875
X70.625Y8.500
X71.250Y5.500
X90.000Y-23.750
X89.550Y29.250
X86.500Y2.250
X44.250Y30.500
X86.500Y-17.400
X67.900Y-16.750
X82.520Y5.750
X80.500Y-10.645
X75.250Y-24.250
X78.750Y8.000
X67.500Y35.250
X67.000Y15.000
X90.300Y35.500
X45.750Y41.000
X68.000Y-3.500
X84.000Y-18.600
X67.000Y17.500
X90.000Y-20.750
X71.500Y22.250
X85.750Y16.250
X69.000Y-12.250
X45.590Y28.000
X76.500Y-18.500
X84.520Y8.750
X60.980Y25.880
X56.750Y28.750
X90.000Y-15.750
X55.211Y27.324
X84.350Y-12.250
X45.590Y40.000
X49.230Y31.250
X60.250Y11.500
X82.750Y20.500
X44.840Y29.000
X72.750Y23.500
X63.720Y37.750
X73.000Y15.750
X64.500Y17.500
X59.750Y10.500
X74.050Y26.050
X84.770Y6.500
T4
X-3.320Y36.890
X-3.320Y31.110
X37.070Y6.360
X37.070Y12.140
X46.680Y36.890
X46.680Y31.110
X87.070Y6.360
X87.070Y12.140
T7
X-0.040Y7.250G85X1.760Y7.250
X-0.040Y21.750G85X1.760Y21.750
X-5.500Y21.750G85X-4.700Y21.750
X-5.500Y7.250G85X-4.700Y7.250
X49.960Y7.250G85X51.760Y7.250
X49.960Y21.750G85X51.760Y21.750
X44.500Y21.750G85X45.300Y21.750
X44.500Y7.250G85X45.300Y7.250
T6
X17.790Y27.766
X17.790Y25.734
X12.710Y26.750
X67.790Y27.766
X67.790Y25.734
X62.710Y26.750
T2
X6.850Y-18.185
X4.310Y-19.330
X4.310Y-10.170
X4.310Y-12.460
X6.850Y-11.315
X4.310Y-14.750
X6.850Y-13.605
X9.390Y-12.460
X9.390Y-17.040
X6.850Y-15.895
X9.390Y-19.330
X9.390Y-10.170
X6.850Y-20.475
X4.310Y-17.040
X9.390Y-14.750
X56.850Y-18.185
X54.310Y-19.330
X54.310Y-10.170
X54.310Y-12.460
X56.850Y-11.315
X54.310Y-14.750
X56.850Y-13.605
X59.390Y-12.460
X59.390Y-17.040
X56.850Y-15.895
X59.390Y-19.330
X59.390Y-10.170
X56.850Y-20.475
X54.310Y-17.040
X59.390Y-14.750
T1
X36.500Y26.770
X36.500Y24.230
X36.500Y20.520
X36.500Y17.980
X36.500Y33.020
X36.500Y30.480
X36.500Y39.270
X36.500Y36.730
X86.500Y26.770
X86.500Y24.230
X86.500Y20.520
X86.500Y17.980
X86.500Y33.020
X86.500Y30.480
X86.500Y39.270
X86.500Y36.730
T5
X12.710Y29.290
X15.885Y29.290
X12.710Y24.210
X15.885Y24.210
X62.710Y29.290
X65.885Y29.290
X62.710Y24.210
X65.885Y24.210
T3
X6.850Y-27.495
X6.850Y-2.505
X56.850Y-27.495
X56.850Y-2.505
M30
