M48
FMAT,2
METRIC,TZ
T6C0.300
T5C0.350
T1C0.650
T4C0.900
T3C0.991
T2C2.375
%
G90
G05
M71
T6
X12.250Y8.250
X11.500Y10.500
X16.425Y9.750
X11.500Y14.995
X11.500Y12.000
X11.500Y7.500
X14.250Y11.250
X16.425Y11.250
X16.425Y8.250
X11.500Y9.000
X14.250Y8.250
X14.000Y9.750
X12.250Y11.250
X13.675Y12.825
X19.745Y13.750
T5
X18.750Y9.500
X20.500Y26.000
X18.750Y7.750
X17.500Y5.250
X22.000Y17.250
X36.500Y15.500
X4.500Y23.750
X13.250Y21.000
X25.750Y17.250
X6.250Y40.000
X21.750Y30.000
X18.750Y34.500
X27.750Y17.500
X22.500Y34.500
X22.000Y5.000
X36.000Y19.750
X36.000Y32.000
X40.250Y1.500
X35.750Y1.500
X18.750Y35.750
X34.520Y9.500
X38.000Y15.500
X23.459Y5.271
X3.090Y27.000
X33.500Y26.500
X39.250Y19.250
X20.000Y34.500
X33.500Y12.500
X19.750Y4.750
X9.346Y36.326
X20.500Y5.000
X17.500Y3.750
X3.250Y40.000
X22.750Y2.250
X22.250Y9.500
X40.250Y15.500
X18.000Y16.750
X1.750Y26.000
X16.250Y6.500
X17.500Y35.750
X27.000Y20.000
X4.750Y40.000
X41.000Y15.500
X39.500Y1.500
X39.500Y15.500
X18.750Y3.750
X35.000Y27.750
X34.250Y16.250
X33.500Y16.250
X24.000Y17.000
X20.000Y17.250
X37.250Y15.500
X9.750Y21.000
X23.000Y20.000
X20.500Y28.500
X20.000Y33.250
X34.000Y22.750
X18.750Y11.250
X33.500Y15.500
X13.750Y19.000
X20.250Y30.000
X20.000Y14.750
X29.000Y2.000
X1.750Y40.000
X26.250Y36.250
X17.500Y33.250
X38.000Y1.500
X34.000Y20.750
X16.750Y17.500
X3.090Y39.000
X26.000Y11.500
X8.750Y28.750
X1.000Y26.000
X30.250Y7.250
X4.750Y26.000
X22.750Y4.750
X36.000Y21.750
X26.250Y35.250
X7.480Y32.000
X14.250Y36.750
X19.750Y28.000
X10.750Y30.750
X3.840Y28.000
X38.750Y15.500
X34.250Y15.500
X25.250Y33.250
X15.250Y39.250
X18.000Y28.750
X22.250Y11.250
X3.840Y38.000
X28.500Y13.250
X20.500Y11.250
X20.500Y9.500
X5.500Y40.000
X38.910Y2.500
X3.250Y26.000
X18.750Y33.250
X28.500Y30.000
X12.250Y15.500
X22.250Y7.750
X6.250Y26.000
X2.500Y40.000
X5.500Y26.000
X31.500Y13.250
X26.000Y20.500
X25.500Y5.500
X3.090Y38.000
X31.750Y5.250
X38.160Y3.500
X7.480Y33.500
X37.250Y1.500
X34.520Y11.250
X7.230Y35.750
X34.000Y21.750
X38.750Y1.500
X38.160Y14.500
X19.750Y2.250
X27.750Y16.250
X30.250Y26.500
X38.910Y14.500
X32.500Y10.250
X39.750Y35.500
X18.000Y14.250
X26.500Y18.000
X31.500Y22.750
X25.000Y11.500
X31.750Y3.750
X38.160Y13.500
X21.250Y2.250
X38.910Y3.500
X23.000Y21.750
X20.000Y35.750
X38.160Y2.500
X22.000Y14.750
X4.000Y26.000
X38.500Y33.000
X1.000Y40.000
X38.910Y13.500
X20.625Y7.750
X21.250Y4.750
X36.500Y1.500
X2.500Y26.000
X32.520Y5.000
X28.750Y7.250
X17.500Y34.500
X17.000Y14.250
X4.000Y40.000
X17.000Y16.750
X35.750Y15.500
X3.840Y27.000
X34.520Y8.000
X29.000Y20.000
X40.105Y19.500
X10.980Y25.130
X3.840Y39.000
X35.750Y29.000
X7.480Y30.250
X3.090Y28.000
X14.500Y17.000
X11.500Y34.750
X23.000Y15.000
X23.000Y18.000
X34.770Y5.750
T1
X4.930Y35.890
X4.930Y30.110
X37.070Y5.610
X37.070Y11.390
T4
X8.210Y4.250G85X10.010Y4.250
X8.210Y18.750G85X10.010Y18.750
X2.750Y18.750G85X3.550Y18.750
X2.750Y4.250G85X3.550Y4.250
T3
X17.790Y27.016
X17.790Y24.984
X12.710Y26.000
T2
X12.710Y28.540
X15.885Y28.540
X12.710Y23.460
X15.885Y23.460
M30
