%FSLAX46Y46*%
%MOMM*%
%AMPS17*
1,1,0.550000,0.000000,0.000000*
%
%ADD17PS17*%
%AMPS18*
1,1,0.500000,0.000000,0.000000*
%
%ADD18PS18*%
%AMPS15*
21,1,1.800000,1.700000,0.000000,0.000000,0.000000*
1,1,1.700000,0.900000,0.000000*
1,1,1.700000,-0.900000,0.000000*
%
%ADD15PS15*%
%AMPS16*
21,1,0.800000,1.700000,0.000000,0.000000,0.000000*
1,1,1.700000,0.400000,0.000000*
1,1,1.700000,-0.400000,0.000000*
%
%ADD16PS16*%
%AMPS11*
1,1,2.575000,0.000000,0.000000*
%
%ADD11PS11*%
%AMPS12*
1,1,2.575000,0.000000,0.000000*
%
%ADD12PS12*%
%AMPS14*
1,1,0.850000,0.000000,0.000000*
%
%ADD14PS14*%
%AMPS10*
1,1,0.850000,0.000000,0.000000*
%
%ADD10PS10*%
%AMPS13*
1,1,1.190600,0.000000,0.000000*
%
%ADD13PS13*%
G01*
%LPD*%
G01*
%LPD*%
G75*
D10*
X4930000Y35890000D03*
D10*
X4930000Y30110000D03*
D11*
X12710000Y28540000D03*
D11*
X15885000Y28540000D03*
D12*
X12710000Y23460000D03*
D13*
X17790000Y27016000D03*
D13*
X17790000Y24984000D03*
D13*
X12710000Y26000000D03*
D12*
X15885000Y23460000D03*
D14*
X37070000Y5610000D03*
D14*
X37070000Y11390000D03*
D15*
X9110000Y4250000D03*
D15*
X9110000Y18750000D03*
D16*
X3150000Y18750000D03*
D16*
X3150000Y4250000D03*
D17*
X18750000Y9500000D03*
D17*
X20500000Y26000000D03*
D17*
X18750000Y7750000D03*
D17*
X17500000Y5250000D03*
D17*
X22000000Y17250000D03*
D18*
X12250000Y8250000D03*
D17*
X36500000Y15500000D03*
D17*
X4500000Y23750000D03*
D17*
X13250000Y21000000D03*
D17*
X25750000Y17250000D03*
D17*
X6250000Y40000000D03*
D17*
X21750000Y30000000D03*
D17*
X18750000Y34500000D03*
D17*
X27750000Y17500000D03*
D17*
X22500000Y34500000D03*
D17*
X22000000Y5000000D03*
D18*
X11500000Y10500000D03*
D17*
X36000000Y19750000D03*
D17*
X36000000Y32000000D03*
D17*
X40250000Y1500000D03*
D17*
X35750000Y1500000D03*
D17*
X18750002Y35749999D03*
D17*
X34520000Y9500000D03*
D17*
X38000000Y15500000D03*
D17*
X23458871Y5270565D03*
D18*
X16425000Y9750000D03*
D17*
X3090000Y27000000D03*
D17*
X33500000Y26500000D03*
D17*
X39250000Y19250000D03*
D17*
X20000002Y34499999D03*
D17*
X33500000Y12500000D03*
D18*
X11500000Y14995000D03*
D17*
X19750000Y4750000D03*
D17*
X9345799Y36325633D03*
D17*
X20500000Y5000000D03*
D17*
X17500000Y3750000D03*
D17*
X3250000Y40000000D03*
D17*
X22750000Y2250000D03*
D17*
X22250000Y9500000D03*
D17*
X40250000Y15500000D03*
D17*
X18000000Y16750000D03*
D18*
X11500000Y12000000D03*
D18*
X11500000Y7500000D03*
D17*
X1750000Y26000000D03*
D17*
X16250000Y6500000D03*
D17*
X17500002Y35749999D03*
D17*
X27000000Y20000000D03*
D17*
X4750000Y40000000D03*
D17*
X41000000Y15500000D03*
D17*
X39500000Y1500000D03*
D18*
X14250000Y11250000D03*
D17*
X39500000Y15500000D03*
D17*
X18750000Y3750000D03*
D17*
X35000000Y27750000D03*
D18*
X16425000Y11250000D03*
D17*
X34250000Y16250000D03*
D17*
X33500000Y16250000D03*
D17*
X24000000Y17000000D03*
D17*
X20000000Y17250000D03*
D17*
X37250000Y15500000D03*
D17*
X9750000Y21000000D03*
D18*
X16425000Y8250000D03*
D17*
X23000000Y20000000D03*
D17*
X20500000Y28500000D03*
D18*
X11500000Y9000000D03*
D17*
X20000002Y33249999D03*
D17*
X34000000Y22750000D03*
D17*
X18750000Y11250000D03*
D17*
X33500000Y15500000D03*
D17*
X13750000Y19000000D03*
D17*
X20250000Y30000000D03*
D17*
X20000000Y14750000D03*
D17*
X29000000Y2000000D03*
D17*
X1750000Y40000000D03*
D17*
X26250000Y36250000D03*
D17*
X17500002Y33249999D03*
D17*
X38000000Y1500000D03*
D17*
X34000000Y20750000D03*
D17*
X16750000Y17500000D03*
D17*
X3090000Y39000000D03*
D17*
X26000000Y11500000D03*
D18*
X14250000Y8250000D03*
D17*
X8750000Y28750000D03*
D17*
X1000000Y26000000D03*
D17*
X30250000Y7250000D03*
D17*
X4750000Y26000000D03*
D17*
X22750000Y4750000D03*
D17*
X36000000Y21750000D03*
D17*
X26250000Y35250000D03*
D17*
X7480000Y32000000D03*
D18*
X14000000Y9750000D03*
D17*
X14250000Y36750000D03*
D17*
X19750000Y28000000D03*
D17*
X10750000Y30750000D03*
D17*
X3840000Y28000000D03*
D17*
X38750000Y15500000D03*
D17*
X34250000Y15500000D03*
D17*
X25250000Y33250000D03*
D17*
X15250000Y39250000D03*
D17*
X18000000Y28750000D03*
D17*
X22250000Y11250000D03*
D17*
X3840000Y38000000D03*
D17*
X28500000Y13250000D03*
D17*
X20500000Y11250000D03*
D17*
X20500000Y9500000D03*
D17*
X5500000Y40000000D03*
D17*
X38910000Y2500000D03*
D17*
X3250000Y26000000D03*
D17*
X18750002Y33249999D03*
D17*
X28500000Y30000000D03*
D18*
X12250000Y11250000D03*
D17*
X12250000Y15500000D03*
D17*
X22250000Y7750000D03*
D17*
X6250000Y26000000D03*
D17*
X2500000Y40000000D03*
D17*
X5500000Y26000000D03*
D17*
X31500000Y13250000D03*
D17*
X26000000Y20500000D03*
D17*
X25500000Y5500000D03*
D17*
X3090000Y38000000D03*
D17*
X31750000Y5250000D03*
D17*
X38160000Y3500000D03*
D18*
X13675000Y12825000D03*
D17*
X7480000Y33500000D03*
D17*
X37250000Y1500000D03*
D17*
X34520000Y11250000D03*
D17*
X7230000Y35750000D03*
D17*
X34000000Y21750000D03*
D17*
X38750000Y1500000D03*
D17*
X38160000Y14500000D03*
D17*
X19750000Y2250000D03*
D17*
X27750000Y16250000D03*
D17*
X30250000Y26500000D03*
D17*
X38910000Y14500000D03*
D17*
X32500000Y10250000D03*
D17*
X39750000Y35500000D03*
D17*
X18000000Y14250000D03*
D17*
X26500000Y18000000D03*
D17*
X31500000Y22750000D03*
D17*
X25000000Y11500000D03*
D17*
X31750000Y3750000D03*
D17*
X38160000Y13500000D03*
D17*
X21250000Y2250000D03*
D17*
X38910000Y3500000D03*
D17*
X23000000Y21750000D03*
D17*
X20000002Y35749999D03*
D18*
X19745000Y13750000D03*
D17*
X38160000Y2500000D03*
D17*
X22000000Y14750000D03*
D17*
X4000000Y26000000D03*
D17*
X38500000Y33000000D03*
D17*
X1000000Y40000000D03*
D17*
X38910000Y13500000D03*
D17*
X20625000Y7750000D03*
D17*
X21250000Y4750000D03*
D17*
X36500000Y1500000D03*
D17*
X2500000Y26000000D03*
D17*
X32520000Y5000000D03*
D17*
X28750000Y7250000D03*
D17*
X17500002Y34499999D03*
D17*
X17000000Y14250000D03*
D17*
X4000000Y40000000D03*
D17*
X17000000Y16750000D03*
D17*
X35750000Y15500000D03*
D17*
X3840000Y27000000D03*
D17*
X34520000Y8000000D03*
D17*
X29000000Y20000000D03*
D17*
X40105000Y19500000D03*
D17*
X10979680Y25129680D03*
D17*
X3840000Y39000000D03*
D17*
X35750000Y29000000D03*
D17*
X7480000Y30250000D03*
D17*
X3090000Y28000000D03*
D17*
X14500000Y17000000D03*
D17*
X11500000Y34750000D03*
D17*
X23000000Y15000000D03*
D17*
X23000000Y18000000D03*
D17*
X34770000Y5750000D03*
M02*
