%FSLAX46Y46*%
%MOMM*%
%ADD10C,0.150000*%
G01*
%LPD*%
G01*
%LPD*%
D10*
X37571428Y38642856D02*
X37571428Y39785716D01*
D10*
X37642856Y38428572D02*
X37571428Y38642856D01*
D10*
X37714284Y38357144D02*
X37642856Y38428572D01*
D10*
X37857144Y38285716D02*
X37714284Y38357144D01*
D10*
X38000000Y38285716D02*
X37857144Y38285716D01*
D10*
X38142856Y38357144D02*
X38000000Y38285716D01*
D10*
X38214284Y38428572D02*
X38142856Y38357144D01*
D10*
X38285712Y38642856D02*
X38214284Y38428572D01*
D10*
X38285712Y38785716D02*
X38285712Y38642856D01*
D10*
X37000000Y38285716D02*
X37000000Y39785716D01*
D10*
X36142856Y38285716D02*
X37000000Y38285716D01*
D10*
X34857144Y39571428D02*
X34785712Y39428572D01*
D10*
X35000000Y39714284D02*
X34857144Y39571428D01*
D10*
X35142856Y39785716D02*
X35000000Y39714284D01*
D10*
X35428572Y39785716D02*
X35142856Y39785716D01*
D10*
X35571428Y39714284D02*
X35428572Y39785716D01*
D10*
X35714288Y39571428D02*
X35571428Y39714284D01*
D10*
X35785712Y39428572D02*
X35714288Y39571428D01*
D10*
X35857144Y39214284D02*
X35785712Y39428572D01*
D10*
X35857144Y38857144D02*
X35857144Y39214284D01*
D10*
X35785712Y38642856D02*
X35857144Y38857144D01*
D10*
X35714288Y38500000D02*
X35785712Y38642856D01*
D10*
X35571428Y38357144D02*
X35714288Y38500000D01*
D10*
X35428572Y38285716D02*
X35571428Y38357144D01*
D10*
X35142856Y38285716D02*
X35428572Y38285716D01*
D10*
X35000000Y38357144D02*
X35142856Y38285716D01*
D10*
X34857144Y38500000D02*
X35000000Y38357144D01*
D10*
X34785712Y38642856D02*
X34857144Y38500000D01*
D10*
X33714288Y38642856D02*
X33714288Y39785716D01*
D10*
X33785712Y38428572D02*
X33714288Y38642856D01*
D10*
X33857144Y38357144D02*
X33785712Y38428572D01*
D10*
X34000000Y38285716D02*
X33857144Y38357144D01*
D10*
X34142856Y38285716D02*
X34000000Y38285716D01*
D10*
X34285712Y38357144D02*
X34142856Y38285716D01*
D10*
X34357144Y38428572D02*
X34285712Y38357144D01*
D10*
X34428572Y38642856D02*
X34357144Y38428572D01*
D10*
X34428572Y38785716D02*
X34428572Y38642856D01*
D10*
X33142856Y38285716D02*
X33142856Y39785716D01*
D10*
X32285714Y38285716D02*
X33142856Y38285716D01*
D10*
X31000000Y39571428D02*
X30928572Y39428572D01*
D10*
X31142856Y39714284D02*
X31000000Y39571428D01*
D10*
X31285714Y39785716D02*
X31142856Y39714284D01*
D10*
X31571428Y39785716D02*
X31285714Y39785716D01*
D10*
X31714286Y39714284D02*
X31571428Y39785716D01*
D10*
X31857144Y39571428D02*
X31714286Y39714284D01*
D10*
X31928572Y39428572D02*
X31857144Y39571428D01*
D10*
X32000000Y39214284D02*
X31928572Y39428572D01*
D10*
X32000000Y38857144D02*
X32000000Y39214284D01*
D10*
X31928572Y38642856D02*
X32000000Y38857144D01*
D10*
X31857144Y38500000D02*
X31928572Y38642856D01*
D10*
X31714286Y38357144D02*
X31857144Y38500000D01*
D10*
X31571428Y38285716D02*
X31714286Y38357144D01*
D10*
X31285714Y38285716D02*
X31571428Y38285716D01*
D10*
X31142856Y38357144D02*
X31285714Y38285716D01*
D10*
X31000000Y38500000D02*
X31142856Y38357144D01*
D10*
X30928572Y38642856D02*
X31000000Y38500000D01*
D10*
X29857144Y38642856D02*
X29857144Y39785716D01*
D10*
X29928572Y38428572D02*
X29857144Y38642856D01*
D10*
X30000000Y38357144D02*
X29928572Y38428572D01*
D10*
X30142856Y38285716D02*
X30000000Y38357144D01*
D10*
X30285714Y38285716D02*
X30142856Y38285716D01*
D10*
X30428572Y38357144D02*
X30285714Y38285716D01*
D10*
X30500000Y38428572D02*
X30428572Y38357144D01*
D10*
X30571428Y38642856D02*
X30500000Y38428572D01*
D10*
X30571428Y38785716D02*
X30571428Y38642856D01*
D10*
X29285714Y38285716D02*
X29285714Y39785716D01*
D10*
X28428572Y38285716D02*
X29285714Y38285716D01*
D10*
X27142856Y39571428D02*
X27071428Y39428572D01*
D10*
X27285714Y39714284D02*
X27142856Y39571428D01*
D10*
X27428572Y39785716D02*
X27285714Y39714284D01*
D10*
X27714286Y39785716D02*
X27428572Y39785716D01*
D10*
X27857144Y39714284D02*
X27714286Y39785716D01*
D10*
X28000000Y39571428D02*
X27857144Y39714284D01*
D10*
X28071428Y39428572D02*
X28000000Y39571428D01*
D10*
X28142856Y39214284D02*
X28071428Y39428572D01*
D10*
X28142856Y38857144D02*
X28142856Y39214284D01*
D10*
X28071428Y38642856D02*
X28142856Y38857144D01*
D10*
X28000000Y38500000D02*
X28071428Y38642856D01*
D10*
X27857144Y38357144D02*
X28000000Y38500000D01*
D10*
X27714286Y38285716D02*
X27857144Y38357144D01*
D10*
X27428572Y38285716D02*
X27714286Y38285716D01*
D10*
X27285714Y38357144D02*
X27428572Y38285716D01*
D10*
X27142856Y38500000D02*
X27285714Y38357144D01*
D10*
X27071428Y38642856D02*
X27142856Y38500000D01*
D10*
X26000000Y38642856D02*
X26000000Y39785716D01*
D10*
X26071428Y38428572D02*
X26000000Y38642856D01*
D10*
X26142856Y38357144D02*
X26071428Y38428572D01*
D10*
X26285714Y38285716D02*
X26142856Y38357144D01*
D10*
X26428572Y38285716D02*
X26285714Y38285716D01*
D10*
X26571428Y38357144D02*
X26428572Y38285716D01*
D10*
X26642856Y38428572D02*
X26571428Y38357144D01*
D10*
X26714286Y38642856D02*
X26642856Y38428572D01*
D10*
X26714286Y38785716D02*
X26714286Y38642856D01*
D10*
X25428572Y38285716D02*
X25428572Y39785716D01*
D10*
X24571428Y38285716D02*
X25428572Y38285716D01*
D10*
X23285714Y39571428D02*
X23214286Y39428572D01*
D10*
X23428572Y39714284D02*
X23285714Y39571428D01*
D10*
X23571428Y39785716D02*
X23428572Y39714284D01*
D10*
X23857142Y39785716D02*
X23571428Y39785716D01*
D10*
X24000000Y39714284D02*
X23857142Y39785716D01*
D10*
X24142858Y39571428D02*
X24000000Y39714284D01*
D10*
X24214286Y39428572D02*
X24142858Y39571428D01*
D10*
X24285714Y39214284D02*
X24214286Y39428572D01*
D10*
X24285714Y38857144D02*
X24285714Y39214284D01*
D10*
X24214286Y38642856D02*
X24285714Y38857144D01*
D10*
X24142858Y38500000D02*
X24214286Y38642856D01*
D10*
X24000000Y38357144D02*
X24142858Y38500000D01*
D10*
X23857142Y38285716D02*
X24000000Y38357144D01*
D10*
X23571428Y38285716D02*
X23857142Y38285716D01*
D10*
X23428572Y38357144D02*
X23571428Y38285716D01*
D10*
X23285714Y38500000D02*
X23428572Y38357144D01*
D10*
X23214286Y38642856D02*
X23285714Y38500000D01*
D10*
X30107142Y28392858D02*
X30178572Y28250000D01*
D10*
X29964286Y28535714D02*
X30107142Y28392858D01*
D10*
X29750000Y28535714D02*
X29964286Y28535714D01*
D10*
X29678572Y28464286D02*
X29750000Y28535714D01*
D10*
X29678572Y28321428D02*
X29678572Y28464286D01*
D10*
X29750000Y28035714D02*
X29678572Y28321428D01*
D10*
X29892858Y27535714D02*
X29750000Y28035714D01*
D10*
X29750000Y28464286D02*
X29821428Y28535714D01*
D10*
X29750000Y28321428D02*
X29750000Y28464286D01*
D10*
X29821428Y28035714D02*
X29750000Y28321428D01*
D10*
X29964286Y27535714D02*
X29821428Y28035714D01*
D10*
X29607142Y28321428D02*
X29750000Y28035714D01*
D10*
X29464286Y28464286D02*
X29607142Y28321428D01*
D10*
X29321428Y28535714D02*
X29464286Y28464286D01*
D10*
X29178572Y28535714D02*
X29321428Y28535714D01*
D10*
X29107142Y28464286D02*
X29178572Y28535714D01*
D10*
X29107142Y28392858D02*
X29107142Y28464286D01*
D10*
X29178572Y28321428D02*
X29107142Y28392858D01*
D10*
X29250000Y28392858D02*
X29178572Y28321428D01*
D10*
X29178572Y28464286D02*
X29250000Y28392858D01*
D10*
X28464286Y27964286D02*
X28750000Y27892858D01*
D10*
X28250000Y28035714D02*
X28464286Y27964286D01*
D10*
X28035714Y28178572D02*
X28250000Y28035714D01*
D10*
X27964286Y28321428D02*
X28035714Y28178572D01*
D10*
X28035714Y28464286D02*
X27964286Y28321428D01*
D10*
X28178572Y28535714D02*
X28035714Y28464286D01*
D10*
X28392858Y28535714D02*
X28178572Y28535714D01*
D10*
X28607142Y28464286D02*
X28392858Y28535714D01*
D10*
X28750000Y28250000D02*
X28607142Y28464286D01*
D10*
X28821428Y28035714D02*
X28750000Y28250000D01*
D10*
X28821428Y27821428D02*
X28821428Y28035714D01*
D10*
X28750000Y27678572D02*
X28821428Y27821428D01*
D10*
X28678572Y27607142D02*
X28750000Y27678572D01*
D10*
X28535714Y27535714D02*
X28678572Y27607142D01*
D10*
X28392858Y27535714D02*
X28535714Y27535714D01*
D10*
X28178572Y27607142D02*
X28392858Y27535714D01*
D10*
X28035714Y27750000D02*
X28178572Y27607142D01*
D10*
X28535714Y28464286D02*
X28392858Y28535714D01*
D10*
X28678572Y28250000D02*
X28535714Y28464286D01*
D10*
X28750000Y28035714D02*
X28678572Y28250000D01*
D10*
X28750000Y27750000D02*
X28750000Y28035714D01*
D10*
X28678572Y27607142D02*
X28750000Y27750000D01*
D10*
X27607144Y28392858D02*
X27678572Y28250000D01*
D10*
X27464286Y28535714D02*
X27607144Y28392858D01*
D10*
X27250000Y28535714D02*
X27464286Y28535714D01*
D10*
X27178572Y28464286D02*
X27250000Y28535714D01*
D10*
X27178572Y28250000D02*
X27178572Y28464286D01*
D10*
X27321428Y27821428D02*
X27178572Y28250000D01*
D10*
X27321428Y27678572D02*
X27321428Y27821428D01*
D10*
X27178572Y27535714D02*
X27321428Y27678572D01*
D10*
X27250000Y28464286D02*
X27321428Y28535714D01*
D10*
X27250000Y28250000D02*
X27250000Y28464286D01*
D10*
X27392858Y27821428D02*
X27250000Y28250000D01*
D10*
X27392858Y27678572D02*
X27392858Y27821428D01*
D10*
X27321428Y27607142D02*
X27392858Y27678572D01*
D10*
X27178572Y27535714D02*
X27321428Y27607142D01*
D10*
X27107144Y27535714D02*
X27178572Y27535714D01*
D10*
X26892858Y27607142D02*
X27107144Y27535714D01*
D10*
X26750000Y27750000D02*
X26892858Y27607142D01*
D10*
X26607144Y27964286D02*
X26750000Y27750000D01*
D10*
X26535714Y28250000D02*
X26607144Y27964286D01*
D10*
X26535714Y28535714D02*
X26535714Y28250000D01*
D10*
X26607144Y28535714D02*
X26535714Y28535714D01*
D10*
X26535714Y28392858D02*
X26607144Y28535714D01*
D10*
X25821428Y27535714D02*
X25464286Y28750000D01*
D10*
X25750000Y27535714D02*
X25321428Y29035714D01*
D10*
X25535714Y28821428D02*
X25321428Y29035714D01*
D10*
X25750000Y28678572D02*
X25535714Y28821428D01*
D10*
X25892856Y28607142D02*
X25750000Y28678572D01*
D10*
X25678572Y28678572D02*
X25392856Y28821428D01*
D10*
X25892856Y28607142D02*
X25678572Y28678572D01*
D10*
X30035714Y25360714D02*
X29607142Y26860714D01*
D10*
X29964286Y25360714D02*
X29535714Y26860714D01*
D10*
X29321428Y26860714D02*
X29821428Y26860714D01*
D10*
X29178572Y25360714D02*
X30250000Y25360714D01*
D10*
X29035714Y25789286D02*
X29178572Y25360714D01*
D10*
X29250000Y25360714D02*
X29035714Y25789286D01*
D10*
X28678572Y26217858D02*
X28750000Y26075000D01*
D10*
X28535714Y26360714D02*
X28678572Y26217858D01*
D10*
X28321428Y26360714D02*
X28535714Y26360714D01*
D10*
X28250000Y26289286D02*
X28321428Y26360714D01*
D10*
X28250000Y26075000D02*
X28250000Y26289286D01*
D10*
X28392858Y25646428D02*
X28250000Y26075000D01*
D10*
X28392858Y25503572D02*
X28392858Y25646428D01*
D10*
X28250000Y25360714D02*
X28392858Y25503572D01*
D10*
X28321428Y26289286D02*
X28392858Y26360714D01*
D10*
X28321428Y26075000D02*
X28321428Y26289286D01*
D10*
X28464286Y25646428D02*
X28321428Y26075000D01*
D10*
X28464286Y25503572D02*
X28464286Y25646428D01*
D10*
X28392858Y25432142D02*
X28464286Y25503572D01*
D10*
X28250000Y25360714D02*
X28392858Y25432142D01*
D10*
X28107144Y25360714D02*
X28250000Y25360714D01*
D10*
X27964286Y25432142D02*
X28107144Y25360714D01*
D10*
X27821428Y25575000D02*
X27964286Y25432142D01*
D10*
X27678572Y25860714D02*
X27821428Y25575000D01*
D10*
X27678572Y25860714D02*
X27535714Y26360714D01*
D10*
X27750000Y25575000D02*
X27678572Y25860714D01*
D10*
X27750000Y25432142D02*
X27750000Y25575000D01*
D10*
X27678572Y25360714D02*
X27750000Y25432142D01*
D10*
X27464286Y25360714D02*
X27678572Y25360714D01*
D10*
X27321428Y25503572D02*
X27464286Y25360714D01*
D10*
X27250000Y25646428D02*
X27321428Y25503572D01*
D10*
X27607144Y25860714D02*
X27464286Y26360714D01*
D10*
X27678572Y25575000D02*
X27607144Y25860714D01*
D10*
X27678572Y25432142D02*
X27678572Y25575000D01*
D10*
X27607144Y25360714D02*
X27678572Y25432142D01*
D10*
X27035714Y25360714D02*
X26607144Y26860714D01*
D10*
X26964286Y25360714D02*
X26535714Y26860714D01*
D10*
X26107144Y26217858D02*
X26035714Y26289286D01*
D10*
X26035714Y26146428D02*
X26107144Y26217858D01*
D10*
X25964286Y26217858D02*
X26035714Y26146428D01*
D10*
X25964286Y26289286D02*
X25964286Y26217858D01*
D10*
X26035714Y26360714D02*
X25964286Y26289286D01*
D10*
X26107144Y26360714D02*
X26035714Y26360714D01*
D10*
X26250000Y26289286D02*
X26107144Y26360714D01*
D10*
X26535714Y26003572D02*
X26250000Y26289286D01*
D10*
X26678572Y25932142D02*
X26535714Y26003572D01*
D10*
X26821428Y25932142D02*
X26678572Y25932142D01*
D10*
X26535714Y25860714D02*
X26678572Y25932142D01*
D10*
X26392858Y25432142D02*
X26535714Y25860714D01*
D10*
X26321428Y25360714D02*
X26392858Y25432142D01*
D10*
X26607144Y25860714D02*
X26678572Y25932142D01*
D10*
X26464286Y25432142D02*
X26607144Y25860714D01*
D10*
X26392858Y25360714D02*
X26464286Y25432142D01*
D10*
X26250000Y25360714D02*
X26392858Y25360714D01*
D10*
X26107144Y25432142D02*
X26250000Y25360714D01*
D10*
X25964286Y25646428D02*
X26107144Y25432142D01*
D10*
X26535714Y26860714D02*
X26821428Y26860714D01*
D10*
X24750000Y25860714D02*
X24607144Y26360714D01*
D10*
X24821428Y25575000D02*
X24750000Y25860714D01*
D10*
X24821428Y25432142D02*
X24821428Y25575000D01*
D10*
X24750000Y25360714D02*
X24821428Y25432142D01*
D10*
X24535714Y25360714D02*
X24750000Y25360714D01*
D10*
X24392856Y25503572D02*
X24535714Y25360714D01*
D10*
X24321428Y25646428D02*
X24392856Y25503572D01*
D10*
X24678572Y25860714D02*
X24535714Y26360714D01*
D10*
X24750000Y25575000D02*
X24678572Y25860714D01*
D10*
X24750000Y25432142D02*
X24750000Y25575000D01*
D10*
X24678572Y25360714D02*
X24750000Y25432142D01*
D10*
X24750000Y26075000D02*
X24750000Y25860714D01*
D10*
X24821428Y26289286D02*
X24750000Y26075000D01*
D10*
X24964286Y26360714D02*
X24821428Y26289286D01*
D10*
X25107144Y26360714D02*
X24964286Y26360714D01*
D10*
X25321428Y26289286D02*
X25107144Y26360714D01*
D10*
X25464286Y26075000D02*
X25321428Y26289286D01*
D10*
X25535714Y25860714D02*
X25464286Y26075000D01*
D10*
X25535714Y25646428D02*
X25535714Y25860714D01*
D10*
X25464286Y25503572D02*
X25535714Y25646428D01*
D10*
X25392856Y25432142D02*
X25464286Y25503572D01*
D10*
X25250000Y25360714D02*
X25392856Y25432142D01*
D10*
X25107144Y25360714D02*
X25250000Y25360714D01*
D10*
X24964286Y25432142D02*
X25107144Y25360714D01*
D10*
X24821428Y25646428D02*
X24964286Y25432142D01*
D10*
X24750000Y25860714D02*
X24821428Y25646428D01*
D10*
X25250000Y26289286D02*
X25107144Y26360714D01*
D10*
X25392856Y26075000D02*
X25250000Y26289286D01*
D10*
X25464286Y25860714D02*
X25392856Y26075000D01*
D10*
X25464286Y25575000D02*
X25464286Y25860714D01*
D10*
X25392856Y25432142D02*
X25464286Y25575000D01*
D10*
X23250000Y26146428D02*
X23250000Y26217858D01*
D10*
X23178572Y26146428D02*
X23250000Y26146428D01*
D10*
X23178572Y26217858D02*
X23178572Y26146428D01*
D10*
X23250000Y26289286D02*
X23178572Y26217858D01*
D10*
X23464286Y26360714D02*
X23250000Y26289286D01*
D10*
X23678572Y26360714D02*
X23464286Y26360714D01*
D10*
X23892856Y26289286D02*
X23678572Y26360714D01*
D10*
X23964286Y26217858D02*
X23892856Y26289286D01*
D10*
X23964286Y26075000D02*
X23964286Y26217858D01*
D10*
X23892856Y26003572D02*
X23964286Y26075000D01*
D10*
X23392856Y25717858D02*
X23892856Y26003572D01*
D10*
X23321428Y25646428D02*
X23392856Y25717858D01*
D10*
X23892856Y26075000D02*
X23964286Y26146428D01*
D10*
X23392856Y25789286D02*
X23892856Y26075000D01*
D10*
X23321428Y25717858D02*
X23392856Y25789286D01*
D10*
X23321428Y25503572D02*
X23321428Y25717858D01*
D10*
X23392856Y25432142D02*
X23321428Y25503572D01*
D10*
X23607144Y25360714D02*
X23392856Y25432142D01*
D10*
X23821428Y25360714D02*
X23607144Y25360714D01*
D10*
X24035714Y25432142D02*
X23821428Y25360714D01*
D10*
X24107144Y25503572D02*
X24035714Y25432142D01*
D10*
X24107144Y25575000D02*
X24107144Y25503572D01*
D10*
X24035714Y25575000D02*
X24107144Y25575000D01*
D10*
X24035714Y25503572D02*
X24035714Y25575000D01*
D10*
X22250000Y25360714D02*
X21821428Y26860714D01*
D10*
X22178572Y25360714D02*
X21750000Y26860714D01*
D10*
X22035714Y25932142D02*
X20821428Y26860714D01*
D10*
X21250000Y25360714D02*
X21535714Y26217858D01*
D10*
X21321428Y25360714D02*
X21607144Y26217858D01*
D10*
X21535714Y26860714D02*
X22035714Y26860714D01*
D10*
X20678572Y26860714D02*
X21107144Y26860714D01*
D10*
X21964286Y25360714D02*
X22464286Y25360714D01*
D10*
X21107144Y25360714D02*
X21535714Y25360714D01*
D10*
X20535714Y25432142D02*
X20464286Y25503572D01*
D10*
X20464286Y25360714D02*
X20535714Y25432142D01*
D10*
X20392856Y25432142D02*
X20464286Y25360714D01*
D10*
X20464286Y25503572D02*
X20392856Y25432142D01*
D10*
X29678572Y24328572D02*
X29750000Y24400000D01*
D10*
X29750000Y24257142D02*
X29678572Y24328572D01*
D10*
X29821428Y24328572D02*
X29750000Y24257142D01*
D10*
X29821428Y24400000D02*
X29821428Y24328572D01*
D10*
X29750000Y24542858D02*
X29821428Y24400000D01*
D10*
X29678572Y24614286D02*
X29750000Y24542858D01*
D10*
X29464286Y24685714D02*
X29678572Y24614286D01*
D10*
X29250000Y24685714D02*
X29464286Y24685714D01*
D10*
X29035714Y24614286D02*
X29250000Y24685714D01*
D10*
X28964286Y24471428D02*
X29035714Y24614286D01*
D10*
X28964286Y24328572D02*
X28964286Y24471428D01*
D10*
X29035714Y24185714D02*
X28964286Y24328572D01*
D10*
X29178572Y24042858D02*
X29035714Y24185714D01*
D10*
X29392858Y23900000D02*
X29178572Y24042858D01*
D10*
X29678572Y23757142D02*
X29392858Y23900000D01*
D10*
X29892858Y23614286D02*
X29678572Y23757142D01*
D10*
X30035714Y23471428D02*
X29892858Y23614286D01*
D10*
X30178572Y23185714D02*
X30035714Y23471428D01*
D10*
X29107142Y24614286D02*
X29250000Y24685714D01*
D10*
X29035714Y24471428D02*
X29107142Y24614286D01*
D10*
X29035714Y24328572D02*
X29035714Y24471428D01*
D10*
X29107142Y24185714D02*
X29035714Y24328572D01*
D10*
X29250000Y24042858D02*
X29107142Y24185714D01*
D10*
X29678572Y23757142D02*
X29250000Y24042858D01*
D10*
X30035714Y23400000D02*
X30107142Y23328572D01*
D10*
X29892858Y23400000D02*
X30035714Y23400000D01*
D10*
X29535714Y23257142D02*
X29892858Y23400000D01*
D10*
X29321428Y23257142D02*
X29535714Y23257142D01*
D10*
X29178572Y23328572D02*
X29321428Y23257142D01*
D10*
X29107142Y23471428D02*
X29178572Y23328572D01*
D10*
X29535714Y23185714D02*
X29892858Y23400000D01*
D10*
X29321428Y23185714D02*
X29535714Y23185714D01*
D10*
X29178572Y23257142D02*
X29321428Y23185714D01*
D10*
X29107142Y23471428D02*
X29178572Y23257142D01*
D10*
X28107144Y24614286D02*
X27892858Y24685714D01*
D10*
X28250000Y24471428D02*
X28107144Y24614286D01*
D10*
X28392858Y24257142D02*
X28250000Y24471428D01*
D10*
X28464286Y24042858D02*
X28392858Y24257142D01*
D10*
X28535714Y23757142D02*
X28464286Y24042858D01*
D10*
X28535714Y23542858D02*
X28535714Y23757142D01*
D10*
X28464286Y23328572D02*
X28535714Y23542858D01*
D10*
X28392858Y23257142D02*
X28464286Y23328572D01*
D10*
X28250000Y23185714D02*
X28392858Y23257142D01*
D10*
X28107144Y23185714D02*
X28250000Y23185714D01*
D10*
X27892858Y23257142D02*
X28107144Y23185714D01*
D10*
X27750000Y23400000D02*
X27892858Y23257142D01*
D10*
X27607144Y23614286D02*
X27750000Y23400000D01*
D10*
X27535714Y23828572D02*
X27607144Y23614286D01*
D10*
X27464286Y24114286D02*
X27535714Y23828572D01*
D10*
X27464286Y24328572D02*
X27464286Y24114286D01*
D10*
X27535714Y24542858D02*
X27464286Y24328572D01*
D10*
X27607144Y24614286D02*
X27535714Y24542858D01*
D10*
X27750000Y24685714D02*
X27607144Y24614286D01*
D10*
X27892858Y24685714D02*
X27750000Y24685714D01*
D10*
X28035714Y24614286D02*
X27892858Y24685714D01*
D10*
X28178572Y24471428D02*
X28035714Y24614286D01*
D10*
X28321428Y24257142D02*
X28178572Y24471428D01*
D10*
X28392858Y24042858D02*
X28321428Y24257142D01*
D10*
X28464286Y23757142D02*
X28392858Y24042858D01*
D10*
X28464286Y23542858D02*
X28464286Y23757142D01*
D10*
X28392858Y23328572D02*
X28464286Y23542858D01*
D10*
X28250000Y23185714D02*
X28392858Y23328572D01*
D10*
X27964286Y23257142D02*
X28107144Y23185714D01*
D10*
X27821428Y23400000D02*
X27964286Y23257142D01*
D10*
X27678572Y23614286D02*
X27821428Y23400000D01*
D10*
X27607144Y23828572D02*
X27678572Y23614286D01*
D10*
X27535714Y24114286D02*
X27607144Y23828572D01*
D10*
X27535714Y24328572D02*
X27535714Y24114286D01*
D10*
X27607144Y24542858D02*
X27535714Y24328572D01*
D10*
X27750000Y24685714D02*
X27607144Y24542858D01*
D10*
X26678572Y24328572D02*
X26750000Y24400000D01*
D10*
X26750000Y24257142D02*
X26678572Y24328572D01*
D10*
X26821428Y24328572D02*
X26750000Y24257142D01*
D10*
X26821428Y24400000D02*
X26821428Y24328572D01*
D10*
X26750000Y24542858D02*
X26821428Y24400000D01*
D10*
X26678572Y24614286D02*
X26750000Y24542858D01*
D10*
X26464286Y24685714D02*
X26678572Y24614286D01*
D10*
X26250000Y24685714D02*
X26464286Y24685714D01*
D10*
X26035714Y24614286D02*
X26250000Y24685714D01*
D10*
X25964286Y24471428D02*
X26035714Y24614286D01*
D10*
X25964286Y24328572D02*
X25964286Y24471428D01*
D10*
X26035714Y24185714D02*
X25964286Y24328572D01*
D10*
X26178572Y24042858D02*
X26035714Y24185714D01*
D10*
X26392858Y23900000D02*
X26178572Y24042858D01*
D10*
X26678572Y23757142D02*
X26392858Y23900000D01*
D10*
X26892858Y23614286D02*
X26678572Y23757142D01*
D10*
X27035714Y23471428D02*
X26892858Y23614286D01*
D10*
X27178572Y23185714D02*
X27035714Y23471428D01*
D10*
X26107144Y24614286D02*
X26250000Y24685714D01*
D10*
X26035714Y24471428D02*
X26107144Y24614286D01*
D10*
X26035714Y24328572D02*
X26035714Y24471428D01*
D10*
X26107144Y24185714D02*
X26035714Y24328572D01*
D10*
X26250000Y24042858D02*
X26107144Y24185714D01*
D10*
X26678572Y23757142D02*
X26250000Y24042858D01*
D10*
X27035714Y23400000D02*
X27107144Y23328572D01*
D10*
X26892858Y23400000D02*
X27035714Y23400000D01*
D10*
X26535714Y23257142D02*
X26892858Y23400000D01*
D10*
X26321428Y23257142D02*
X26535714Y23257142D01*
D10*
X26178572Y23328572D02*
X26321428Y23257142D01*
D10*
X26107144Y23471428D02*
X26178572Y23328572D01*
D10*
X26535714Y23185714D02*
X26892858Y23400000D01*
D10*
X26321428Y23185714D02*
X26535714Y23185714D01*
D10*
X26178572Y23257142D02*
X26321428Y23185714D01*
D10*
X26107144Y23471428D02*
X26178572Y23257142D01*
D10*
X25035714Y23185714D02*
X24607144Y24614286D01*
D10*
X24964286Y23185714D02*
X24535714Y24685714D01*
D10*
X25607144Y23614286D02*
X24535714Y24685714D01*
D10*
X24464286Y23614286D02*
X25607144Y23614286D01*
G75*
M02*
