%FSLAX46Y46*%
%MOMM*%
%AMPS37*
21,1,5.500000,5.500000,0.000000,0.000000,180.000000*
%
%ADD37PS37*%
%AMPS31*
21,1,1.100000,1.200000,0.000000,0.000000,90.000000*
%
%ADD31PS31*%
%AMPS48*
21,1,1.100000,1.200000,0.000000,0.000000,270.000000*
%
%ADD48PS48*%
%AMPS18*
21,1,0.450000,0.700000,0.000000,0.000000,90.000000*
%
%ADD18PS18*%
%AMPS21*
21,1,0.450000,0.700000,0.000000,0.000000,270.000000*
%
%ADD21PS21*%
%AMPS44*
21,1,0.800000,1.700000,0.000000,0.000000,90.000000*
%
%ADD44PS44*%
%AMPS43*
21,1,0.800000,1.700000,0.000000,0.000000,270.000000*
%
%ADD43PS43*%
%AMPS19*
21,1,0.650000,0.700000,0.000000,0.000000,90.000000*
%
%ADD19PS19*%
%AMPS20*
21,1,0.650000,0.700000,0.000000,0.000000,270.000000*
%
%ADD20PS20*%
%AMPS45*
21,1,1.450000,1.950000,0.000000,0.000000,0.000000*
%
%ADD45PS45*%
%AMPS49*
21,1,0.800000,1.350000,0.000000,0.000000,90.000000*
%
%ADD49PS49*%
%AMPS26*
21,1,0.800000,1.350000,0.000000,0.000000,270.000000*
%
%ADD26PS26*%
%AMPS54*
21,1,0.500000,0.800000,0.000000,0.000000,0.000000*
%
%ADD54PS54*%
%AMPS56*
21,1,0.500000,0.800000,0.000000,0.000000,90.000000*
%
%ADD56PS56*%
%AMPS55*
21,1,0.500000,0.800000,0.000000,0.000000,180.000000*
%
%ADD55PS55*%
%AMPS57*
21,1,0.500000,0.800000,0.000000,0.000000,270.000000*
%
%ADD57PS57*%
%AMPS46*
21,1,3.700000,1.950000,0.000000,0.000000,0.000000*
%
%ADD46PS46*%
%AMPS59*
21,1,0.500000,2.800000,0.000000,0.000000,270.000000*
%
%ADD59PS59*%
%AMPS12*
21,1,1.200000,2.900000,0.000000,0.000000,270.000000*
%
%ADD12PS12*%
%AMPS50*
21,1,2.380000,2.200000,0.000000,0.000000,90.000000*
%
%ADD50PS50*%
%AMPS27*
21,1,2.380000,2.200000,0.000000,0.000000,270.000000*
%
%ADD27PS27*%
%AMPS51*
21,1,0.500000,1.350000,0.000000,0.000000,90.000000*
%
%ADD51PS51*%
%AMPS28*
21,1,0.500000,1.350000,0.000000,0.000000,270.000000*
%
%ADD28PS28*%
%AMPS14*
21,1,0.900000,1.200000,0.000000,0.000000,270.000000*
%
%ADD14PS14*%
%AMPS53*
21,1,1.600000,1.400000,0.000000,0.000000,180.000000*
%
%ADD53PS53*%
%AMPS63*
1,1,0.550000,0.000000,0.000000*
%
%ADD63PS63*%
%AMPS64*
1,1,0.500000,0.000000,0.000000*
%
%ADD64PS64*%
%AMPS60*
21,1,1.800000,1.700000,0.000000,0.000000,0.000000*
1,1,1.700000,0.900000,0.000000*
1,1,1.700000,-0.900000,0.000000*
%
%ADD60PS60*%
%AMPS61*
21,1,0.800000,1.700000,0.000000,0.000000,0.000000*
1,1,1.700000,0.400000,0.000000*
1,1,1.700000,-0.400000,0.000000*
%
%ADD61PS61*%
%AMPS39*
1,1,2.575000,0.000000,0.000000*
%
%ADD39PS39*%
%AMPS41*
1,1,2.575000,0.000000,0.000000*
%
%ADD41PS41*%
%AMPS52*
1,1,0.850000,0.000000,0.000000*
%
%ADD52PS52*%
%AMPS29*
1,1,0.850000,0.000000,0.000000*
%
%ADD29PS29*%
%AMPS42*
1,1,1.190600,0.000000,0.000000*
%
%ADD42PS42*%
%AMPS17*
1,1,0.560000,-0.220000,0.195000*
1,1,0.560000,0.220000,-0.195000*
1,1,0.560000,0.220000,0.195000*
1,1,0.560000,-0.220000,-0.195000*
21,1,1.000000,0.390000,0.000000,0.000000,0.000000*
21,1,0.440000,0.950000,0.000000,0.000000,0.000000*
%
%ADD17PS17*%
%AMPS11*
1,1,0.560000,-0.195000,-0.220000*
1,1,0.560000,0.195000,0.220000*
1,1,0.560000,-0.195000,0.220000*
1,1,0.560000,0.195000,-0.220000*
21,1,1.000000,0.390000,0.000000,0.000000,90.000000*
21,1,0.440000,0.950000,0.000000,0.000000,90.000000*
%
%ADD11PS11*%
%AMPS32*
1,1,0.560000,0.220000,-0.195000*
1,1,0.560000,-0.220000,0.195000*
1,1,0.560000,-0.220000,-0.195000*
1,1,0.560000,0.220000,0.195000*
21,1,1.000000,0.390000,0.000000,0.000000,180.000000*
21,1,0.440000,0.950000,0.000000,0.000000,180.000000*
%
%ADD32PS32*%
%AMPS25*
1,1,0.560000,0.195000,0.220000*
1,1,0.560000,-0.195000,-0.220000*
1,1,0.560000,0.195000,-0.220000*
1,1,0.560000,-0.195000,0.220000*
21,1,1.000000,0.390000,0.000000,0.000000,270.000000*
21,1,0.440000,0.950000,0.000000,0.000000,270.000000*
%
%ADD25PS25*%
%AMPS13*
1,1,0.700000,-0.375000,-0.250000*
1,1,0.700000,0.375000,0.250000*
1,1,0.700000,-0.375000,0.250000*
1,1,0.700000,0.375000,-0.250000*
21,1,1.200000,0.750000,0.000000,0.000000,90.000000*
21,1,0.500000,1.450000,0.000000,0.000000,90.000000*
%
%ADD13PS13*%
%AMPS62*
1,1,0.700000,0.250000,-0.375000*
1,1,0.700000,-0.250000,0.375000*
1,1,0.700000,-0.250000,-0.375000*
1,1,0.700000,0.250000,0.375000*
21,1,1.200000,0.750000,0.000000,0.000000,180.000000*
21,1,0.500000,1.450000,0.000000,0.000000,180.000000*
%
%ADD62PS62*%
%AMPS47*
1,1,0.700000,0.375000,0.250000*
1,1,0.700000,-0.375000,-0.250000*
1,1,0.700000,0.375000,-0.250000*
1,1,0.700000,-0.375000,0.250000*
21,1,1.200000,0.750000,0.000000,0.000000,270.000000*
21,1,0.500000,1.450000,0.000000,0.000000,270.000000*
%
%ADD47PS47*%
%AMPS36*
1,1,0.325000,0.062500,-0.337500*
1,1,0.325000,-0.062500,0.337500*
1,1,0.325000,-0.062500,-0.337500*
1,1,0.325000,0.062500,0.337500*
21,1,0.450000,0.675000,0.000000,0.000000,180.000000*
21,1,0.125000,1.000000,0.000000,0.000000,180.000000*
%
%ADD36PS36*%
%AMPS22*
1,1,0.440000,-0.130000,0.330000*
1,1,0.440000,0.130000,-0.330000*
1,1,0.440000,0.130000,0.330000*
1,1,0.440000,-0.130000,-0.330000*
21,1,0.700000,0.660000,0.000000,0.000000,0.000000*
21,1,0.260000,1.100000,0.000000,0.000000,0.000000*
%
%ADD22PS22*%
%AMPS33*
1,1,0.440000,-0.330000,-0.130000*
1,1,0.440000,0.330000,0.130000*
1,1,0.440000,-0.330000,0.130000*
1,1,0.440000,0.330000,-0.130000*
21,1,0.700000,0.660000,0.000000,0.000000,90.000000*
21,1,0.260000,1.100000,0.000000,0.000000,90.000000*
%
%ADD33PS33*%
%AMPS30*
1,1,0.440000,0.130000,-0.330000*
1,1,0.440000,-0.130000,0.330000*
1,1,0.440000,-0.130000,-0.330000*
1,1,0.440000,0.130000,0.330000*
21,1,0.700000,0.660000,0.000000,0.000000,180.000000*
21,1,0.260000,1.100000,0.000000,0.000000,180.000000*
%
%ADD30PS30*%
%AMPS16*
1,1,0.440000,0.330000,0.130000*
1,1,0.440000,-0.330000,-0.130000*
1,1,0.440000,0.330000,-0.130000*
1,1,0.440000,-0.330000,0.130000*
21,1,0.700000,0.660000,0.000000,0.000000,270.000000*
21,1,0.260000,1.100000,0.000000,0.000000,270.000000*
%
%ADD16PS16*%
%AMPS24*
1,1,0.400000,-0.110000,0.200000*
1,1,0.400000,0.110000,-0.200000*
1,1,0.400000,0.110000,0.200000*
1,1,0.400000,-0.110000,-0.200000*
21,1,0.620000,0.400000,0.000000,0.000000,0.000000*
21,1,0.220000,0.800000,0.000000,0.000000,0.000000*
%
%ADD24PS24*%
%AMPS23*
1,1,0.400000,0.110000,-0.200000*
1,1,0.400000,-0.110000,0.200000*
1,1,0.400000,-0.110000,-0.200000*
1,1,0.400000,0.110000,0.200000*
21,1,0.620000,0.400000,0.000000,0.000000,180.000000*
21,1,0.220000,0.800000,0.000000,0.000000,180.000000*
%
%ADD23PS23*%
%AMPS10*
1,1,0.440000,-0.130000,-0.180000*
1,1,0.440000,0.130000,0.180000*
1,1,0.440000,-0.130000,0.180000*
1,1,0.440000,0.130000,-0.180000*
21,1,0.800000,0.260000,0.000000,0.000000,90.000000*
21,1,0.360000,0.700000,0.000000,0.000000,90.000000*
%
%ADD10PS10*%
%AMPS34*
1,1,0.440000,0.180000,-0.130000*
1,1,0.440000,-0.180000,0.130000*
1,1,0.440000,-0.180000,-0.130000*
1,1,0.440000,0.180000,0.130000*
21,1,0.800000,0.260000,0.000000,0.000000,180.000000*
21,1,0.360000,0.700000,0.000000,0.000000,180.000000*
%
%ADD34PS34*%
%AMPS15*
1,1,0.440000,0.130000,0.180000*
1,1,0.440000,-0.130000,-0.180000*
1,1,0.440000,0.130000,-0.180000*
1,1,0.440000,-0.130000,0.180000*
21,1,0.800000,0.260000,0.000000,0.000000,270.000000*
21,1,0.360000,0.700000,0.000000,0.000000,270.000000*
%
%ADD15PS15*%
%AMPS38*
1,1,0.540000,-0.330000,-0.180000*
1,1,0.540000,0.330000,0.180000*
1,1,0.540000,-0.330000,0.180000*
1,1,0.540000,0.330000,-0.180000*
21,1,0.900000,0.660000,0.000000,0.000000,90.000000*
21,1,0.360000,1.200000,0.000000,0.000000,90.000000*
%
%ADD38PS38*%
%AMPS35*
1,1,0.325000,0.337500,-0.062500*
1,1,0.325000,-0.337500,0.062500*
1,1,0.325000,-0.337500,-0.062500*
1,1,0.325000,0.337500,0.062500*
21,1,1.000000,0.125000,0.000000,0.000000,180.000000*
21,1,0.675000,0.450000,0.000000,0.000000,180.000000*
%
%ADD35PS35*%
%AMPS58*
21,1,3.300000,3.300000,0.000000,0.000000,180.000000*
%
%ADD58PS58*%
%AMPS40*
1,1,0.987400,0.000000,0.000000*
%
%ADD40PS40*%
G01*
%LPD*%
G01*
%LPD*%
G75*
D10*
X22000000Y16550000D03*
D10*
X22000000Y15450000D03*
D11*
X40250000Y22750000D03*
D11*
X40250000Y21250000D03*
D12*
X31300000Y19350000D03*
D12*
X31300000Y17150000D03*
D11*
X15250000Y38250000D03*
D11*
X15250000Y36750000D03*
D13*
X24000008Y18000056D03*
D13*
X24000008Y20000056D03*
D14*
X32800000Y21750000D03*
D14*
X35200000Y20800000D03*
D14*
X32800000Y22700000D03*
D14*
X35200000Y22700000D03*
D14*
X32800000Y20800000D03*
D15*
X21250000Y2950000D03*
D15*
X21250000Y4050000D03*
D16*
X14500000Y19000000D03*
D16*
X14500000Y17500000D03*
D10*
X17000000Y16050000D03*
D10*
X17000000Y14950000D03*
D17*
X25250000Y34000000D03*
D17*
X23750000Y34000000D03*
D18*
X13650000Y10249998D03*
D18*
X13650000Y12249998D03*
D19*
X13650000Y11249998D03*
D20*
X12850000Y11249998D03*
D21*
X12850000Y12249998D03*
D21*
X12850000Y10249998D03*
D18*
X13650000Y10749998D03*
D21*
X12850000Y10749998D03*
D18*
X13650000Y11749998D03*
D21*
X12850000Y11749998D03*
D10*
X18000000Y16050000D03*
D10*
X18000000Y14950000D03*
D22*
X36750000Y34250000D03*
D22*
X38250000Y34250000D03*
D23*
X10100000Y33450000D03*
D23*
X11400000Y33450000D03*
D23*
X10750000Y33450000D03*
D24*
X10100000Y31550000D03*
D24*
X11400000Y31550000D03*
D24*
X10750000Y31550000D03*
D25*
X25750000Y18000000D03*
D25*
X25750000Y19500000D03*
D26*
X6005000Y29800000D03*
D27*
X5430000Y38110000D03*
D28*
X6005000Y34250000D03*
D27*
X1500000Y27890000D03*
D28*
X6005000Y31750000D03*
D27*
X5430000Y27890000D03*
D28*
X6005000Y33250000D03*
D28*
X6005000Y34750000D03*
D28*
X6005000Y31250000D03*
D29*
X4930000Y35890000D03*
D26*
X6005000Y35400000D03*
D27*
X1500000Y38110000D03*
D28*
X6005000Y32750000D03*
D26*
X6005000Y30600000D03*
D26*
X6005000Y36200000D03*
D28*
X6005000Y33750000D03*
D29*
X4930000Y30110000D03*
D28*
X6005000Y32250000D03*
D16*
X33520000Y6500000D03*
D16*
X33520000Y5000000D03*
D30*
X35500000Y24000000D03*
D30*
X34000000Y24000000D03*
D31*
X1000000Y23700000D03*
D31*
X1000000Y21300000D03*
D32*
X32750000Y3750000D03*
D32*
X34250000Y3750000D03*
D33*
X8750000Y29500000D03*
D33*
X8750000Y31000000D03*
D10*
X26000000Y10800000D03*
D10*
X26000000Y9700000D03*
D10*
X20000000Y16550000D03*
D10*
X20000000Y15450000D03*
D17*
X9250000Y37750000D03*
D17*
X7750000Y37750000D03*
D33*
X8500000Y35000000D03*
D33*
X8500000Y36500000D03*
D34*
X14700000Y8250000D03*
D34*
X15800000Y8250000D03*
D30*
X40250000Y26250000D03*
D30*
X38750000Y26250000D03*
D16*
X18750000Y20250000D03*
D16*
X18750000Y18750000D03*
D35*
X23950000Y9750000D03*
D36*
X21750000Y6050000D03*
D36*
X21250000Y6050000D03*
D35*
X23950000Y12250000D03*
D35*
X23950000Y8750000D03*
D36*
X20750000Y12950000D03*
D36*
X18750000Y6050000D03*
D37*
X20500000Y9500000D03*
D35*
X17050000Y6750000D03*
D35*
X23950000Y6750000D03*
D36*
X21250000Y12950000D03*
D35*
X17050000Y12250000D03*
D35*
X23950000Y10250000D03*
D36*
X20250000Y12950000D03*
D35*
X17050000Y10750000D03*
D35*
X23950000Y9250000D03*
D35*
X23950000Y11750000D03*
D35*
X17050000Y9250000D03*
D35*
X17050000Y11750000D03*
D36*
X19250000Y12950000D03*
D36*
X21750000Y12950000D03*
D36*
X17750000Y6050000D03*
D35*
X23950000Y11250000D03*
D36*
X23250000Y6050000D03*
D35*
X23950000Y8250000D03*
D35*
X17050000Y9750000D03*
D36*
X20750000Y6050000D03*
D36*
X20250000Y6050000D03*
D36*
X18250000Y6050000D03*
D35*
X17050000Y8250000D03*
D36*
X18250000Y12950000D03*
D36*
X22750000Y6050000D03*
D35*
X17050000Y7750000D03*
D35*
X23950000Y7750000D03*
D35*
X17050000Y8750000D03*
D35*
X23950000Y10750000D03*
D35*
X17050000Y11250000D03*
D36*
X17750000Y12950000D03*
D35*
X17050000Y7250000D03*
D36*
X18750000Y12950000D03*
D36*
X23250000Y12950000D03*
D36*
X22250000Y12950000D03*
D36*
X22250000Y6050000D03*
D36*
X22750000Y12950000D03*
D35*
X17050000Y10250000D03*
D35*
X23950000Y7250000D03*
D36*
X19250000Y6050000D03*
D36*
X19750000Y12950000D03*
D36*
X19750000Y6050000D03*
D24*
X33400000Y7550000D03*
D24*
X32100000Y7550000D03*
D24*
X32750000Y7550000D03*
D23*
X33400000Y9450000D03*
D23*
X32100000Y9450000D03*
D23*
X32750000Y9450000D03*
D38*
X31200000Y10750000D03*
D38*
X28800000Y11700000D03*
D38*
X28800000Y9800000D03*
D16*
X33500000Y12000000D03*
D16*
X33500000Y10500000D03*
D39*
X12710000Y28540000D03*
D40*
X16520000Y25365000D03*
D40*
X13980000Y25365000D03*
D39*
X15885000Y28540000D03*
D41*
X12710000Y23460000D03*
D42*
X17790000Y27016000D03*
D40*
X13980000Y26635000D03*
D40*
X15250000Y26635000D03*
D40*
X15250000Y25365000D03*
D40*
X16520000Y26635000D03*
D42*
X17790000Y24984000D03*
D42*
X12710000Y26000000D03*
D41*
X15885000Y23460000D03*
D32*
X29250000Y13250000D03*
D32*
X30750000Y13250000D03*
D18*
X13650000Y7249998D03*
D18*
X13650000Y9249998D03*
D19*
X13650000Y8249998D03*
D20*
X12850000Y8249998D03*
D21*
X12850000Y9249998D03*
D21*
X12850000Y7249998D03*
D18*
X13650000Y7749998D03*
D21*
X12850000Y7749998D03*
D18*
X13650000Y8749998D03*
D21*
X12850000Y8749998D03*
D32*
X7750000Y39000000D03*
D32*
X9250000Y39000000D03*
D34*
X14700000Y11250000D03*
D34*
X15800000Y11250000D03*
D43*
X31550000Y29135000D03*
D43*
X31550000Y26595000D03*
D44*
X36950000Y29135000D03*
D43*
X31550000Y30405000D03*
D43*
X31550000Y27865000D03*
D44*
X36950000Y26595000D03*
D44*
X36950000Y27865000D03*
D44*
X36950000Y30405000D03*
D23*
X13025000Y15250000D03*
D23*
X14325000Y15250000D03*
D23*
X13675000Y15250000D03*
D24*
X13025000Y13350000D03*
D24*
X14325000Y13350000D03*
D24*
X13675000Y13350000D03*
D10*
X25000000Y10800000D03*
D10*
X25000000Y9700000D03*
D34*
X14700000Y9750000D03*
D34*
X15800000Y9750000D03*
D13*
X37000008Y19750056D03*
D13*
X37000008Y21750056D03*
D45*
X28550000Y23950000D03*
D45*
X26250000Y23950000D03*
D45*
X23950000Y23950000D03*
D46*
X26250000Y30050000D03*
D16*
X39250000Y18500000D03*
D16*
X39250000Y17000000D03*
D11*
X27250000Y11250000D03*
D11*
X27250000Y9750000D03*
D32*
X20250000Y30750000D03*
D32*
X21750000Y30750000D03*
D30*
X40250000Y29250000D03*
D30*
X38750000Y29250000D03*
D17*
X38500000Y32000000D03*
D17*
X37000000Y32000000D03*
D30*
X40250000Y27750000D03*
D30*
X38750000Y27750000D03*
D15*
X19750000Y2950000D03*
D15*
X19750000Y4050000D03*
D47*
X27999992Y21999944D03*
D47*
X27999992Y19999944D03*
D13*
X34000008Y17250056D03*
D13*
X34000008Y19250056D03*
D16*
X21750000Y20250000D03*
D16*
X21750000Y18750000D03*
D48*
X41000000Y17300000D03*
D48*
X41000000Y19700000D03*
D49*
X35995000Y11700000D03*
D50*
X36570000Y3390000D03*
D51*
X35995000Y7250000D03*
D50*
X40500000Y13610000D03*
D51*
X35995000Y9750000D03*
D50*
X36570000Y13610000D03*
D51*
X35995000Y8250000D03*
D51*
X35995000Y6750000D03*
D51*
X35995000Y10250000D03*
D52*
X37070000Y5610000D03*
D49*
X35995000Y6100000D03*
D50*
X40500000Y3390000D03*
D51*
X35995000Y8750000D03*
D49*
X35995000Y10900000D03*
D49*
X35995000Y5300000D03*
D51*
X35995000Y7750000D03*
D52*
X37070000Y11390000D03*
D51*
X35995000Y9250000D03*
D33*
X36750000Y23000000D03*
D33*
X36750000Y24500000D03*
D53*
X26650000Y3200000D03*
D53*
X28850000Y3200000D03*
D53*
X28850000Y4800000D03*
D53*
X26650000Y4800000D03*
D54*
X18000000Y32150000D03*
D55*
X18000000Y36850000D03*
D56*
X21100000Y34250000D03*
D54*
X20500000Y32150000D03*
D57*
X16400000Y35250000D03*
D54*
X17000000Y32150000D03*
D55*
X19500000Y36850000D03*
D56*
X21100000Y34750000D03*
D57*
X16400000Y33250000D03*
D54*
X18500000Y32150000D03*
D56*
X21100000Y35250000D03*
D54*
X20000000Y32150000D03*
D55*
X18500000Y36850000D03*
D56*
X21100000Y36250000D03*
D55*
X20000000Y36850000D03*
D57*
X16400000Y35750000D03*
D55*
X19000000Y36850000D03*
D58*
X18750000Y34500000D03*
D57*
X16400000Y32750000D03*
D56*
X21100000Y33250000D03*
D57*
X16400000Y36250000D03*
D57*
X16400000Y33750000D03*
D57*
X16400000Y34250000D03*
D56*
X21100000Y33750000D03*
D57*
X16400000Y34750000D03*
D55*
X20500000Y36850000D03*
D55*
X17000000Y36850000D03*
D54*
X19000000Y32150000D03*
D55*
X17500000Y36850000D03*
D54*
X19500000Y32150000D03*
D54*
X17500000Y32150000D03*
D56*
X21100000Y32750000D03*
D56*
X21100000Y35750000D03*
D32*
X30250000Y6250000D03*
D32*
X31750000Y6250000D03*
D30*
X3750000Y23750000D03*
D30*
X2250000Y23750000D03*
D22*
X26500000Y7250000D03*
D22*
X28000000Y7250000D03*
D32*
X23750000Y35250000D03*
D32*
X25250000Y35250000D03*
D16*
X20250000Y20250000D03*
D16*
X20250000Y18750000D03*
D25*
X30500000Y3000000D03*
D25*
X30500000Y4500000D03*
D32*
X10500000Y21000000D03*
D32*
X12000000Y21000000D03*
D59*
X9870000Y10000000D03*
D59*
X9870000Y15500000D03*
D59*
X9870000Y7000000D03*
D59*
X9870000Y7500000D03*
D60*
X9110000Y4250000D03*
D59*
X9870000Y8000000D03*
D59*
X9870000Y13000000D03*
D59*
X9870000Y12500000D03*
D59*
X9870000Y14500000D03*
D60*
X9110000Y18750000D03*
D59*
X9870000Y11000000D03*
D59*
X9870000Y9500000D03*
D61*
X3150000Y18750000D03*
D59*
X9870000Y8500000D03*
D59*
X9870000Y12000000D03*
D59*
X9870000Y13500000D03*
D59*
X9870000Y16000000D03*
D59*
X9870000Y10500000D03*
D61*
X3150000Y4250000D03*
D59*
X9870000Y11500000D03*
D59*
X9870000Y9000000D03*
D59*
X9870000Y15000000D03*
D59*
X9870000Y14000000D03*
D33*
X38750000Y21250000D03*
D33*
X38750000Y22750000D03*
D62*
X25999944Y21750008D03*
D62*
X23999944Y21750008D03*
D48*
X41000000Y33050000D03*
D48*
X41000000Y35450000D03*
D15*
X22750000Y2950000D03*
D15*
X22750000Y4050000D03*
D11*
X25000000Y4500000D03*
D11*
X25000000Y3000000D03*
D63*
X18750000Y9500000D03*
D63*
X20500000Y26000000D03*
D63*
X18750000Y7750000D03*
D63*
X17500000Y5250000D03*
D63*
X22000000Y17250000D03*
D64*
X12250000Y8250000D03*
D63*
X36500000Y15500000D03*
D63*
X4500000Y23750000D03*
D63*
X13250000Y21000000D03*
D63*
X25750000Y17250000D03*
D63*
X6250000Y40000000D03*
D63*
X21750000Y30000000D03*
D63*
X18750000Y34500000D03*
D63*
X27750000Y17500000D03*
D63*
X22500000Y34500000D03*
D63*
X22000000Y5000000D03*
D64*
X11500000Y10500000D03*
D63*
X36000000Y19750000D03*
D63*
X36000000Y32000000D03*
D63*
X40250000Y1500000D03*
D63*
X35750000Y1500000D03*
D63*
X18750002Y35749999D03*
D63*
X34520000Y9500000D03*
D63*
X38000000Y15500000D03*
D63*
X23458871Y5270565D03*
D64*
X16425000Y9750000D03*
D63*
X3090000Y27000000D03*
D63*
X33500000Y26500000D03*
D63*
X39250000Y19250000D03*
D63*
X20000002Y34499999D03*
D63*
X33500000Y12500000D03*
D64*
X11500000Y14995000D03*
D63*
X19750000Y4750000D03*
D63*
X9345799Y36325633D03*
D63*
X20500000Y5000000D03*
D63*
X17500000Y3750000D03*
D63*
X3250000Y40000000D03*
D63*
X22750000Y2250000D03*
D63*
X22250000Y9500000D03*
D63*
X40250000Y15500000D03*
D63*
X18000000Y16750000D03*
D64*
X11500000Y12000000D03*
D64*
X11500000Y7500000D03*
D63*
X1750000Y26000000D03*
D63*
X16250000Y6500000D03*
D63*
X17500002Y35749999D03*
D63*
X27000000Y20000000D03*
D63*
X4750000Y40000000D03*
D63*
X41000000Y15500000D03*
D63*
X39500000Y1500000D03*
D64*
X14250000Y11250000D03*
D63*
X39500000Y15500000D03*
D63*
X18750000Y3750000D03*
D63*
X35000000Y27750000D03*
D64*
X16425000Y11250000D03*
D63*
X34250000Y16250000D03*
D63*
X33500000Y16250000D03*
D63*
X24000000Y17000000D03*
D63*
X20000000Y17250000D03*
D63*
X37250000Y15500000D03*
D63*
X9750000Y21000000D03*
D64*
X16425000Y8250000D03*
D63*
X23000000Y20000000D03*
D63*
X20500000Y28500000D03*
D64*
X11500000Y9000000D03*
D63*
X20000002Y33249999D03*
D63*
X34000000Y22750000D03*
D63*
X18750000Y11250000D03*
D63*
X33500000Y15500000D03*
D63*
X13750000Y19000000D03*
D63*
X20250000Y30000000D03*
D63*
X20000000Y14750000D03*
D63*
X29000000Y2000000D03*
D63*
X1750000Y40000000D03*
D63*
X26250000Y36250000D03*
D63*
X17500002Y33249999D03*
D63*
X38000000Y1500000D03*
D63*
X34000000Y20750000D03*
D63*
X16750000Y17500000D03*
D63*
X3090000Y39000000D03*
D63*
X26000000Y11500000D03*
D64*
X14250000Y8250000D03*
D63*
X8750000Y28750000D03*
D63*
X1000000Y26000000D03*
D63*
X30250000Y7250000D03*
D63*
X4750000Y26000000D03*
D63*
X22750000Y4750000D03*
D63*
X36000000Y21750000D03*
D63*
X26250000Y35250000D03*
D63*
X7480000Y32000000D03*
D64*
X14000000Y9750000D03*
D63*
X14250000Y36750000D03*
D63*
X19750000Y28000000D03*
D63*
X10750000Y30750000D03*
D63*
X3840000Y28000000D03*
D63*
X38750000Y15500000D03*
D63*
X34250000Y15500000D03*
D63*
X25250000Y33250000D03*
D63*
X15250000Y39250000D03*
D63*
X18000000Y28750000D03*
D63*
X22250000Y11250000D03*
D63*
X3840000Y38000000D03*
D63*
X28500000Y13250000D03*
D63*
X20500000Y11250000D03*
D63*
X20500000Y9500000D03*
D63*
X5500000Y40000000D03*
D63*
X38910000Y2500000D03*
D63*
X3250000Y26000000D03*
D63*
X18750002Y33249999D03*
D63*
X28500000Y30000000D03*
D64*
X12250000Y11250000D03*
D63*
X12250000Y15500000D03*
D63*
X22250000Y7750000D03*
D63*
X6250000Y26000000D03*
D63*
X2500000Y40000000D03*
D63*
X5500000Y26000000D03*
D63*
X31500000Y13250000D03*
D63*
X26000000Y20500000D03*
D63*
X25500000Y5500000D03*
D63*
X3090000Y38000000D03*
D63*
X31750000Y5250000D03*
D63*
X38160000Y3500000D03*
D64*
X13675000Y12825000D03*
D63*
X7480000Y33500000D03*
D63*
X37250000Y1500000D03*
D63*
X34520000Y11250000D03*
D63*
X7230000Y35750000D03*
D63*
X34000000Y21750000D03*
D63*
X38750000Y1500000D03*
D63*
X38160000Y14500000D03*
D63*
X19750000Y2250000D03*
D63*
X27750000Y16250000D03*
D63*
X30250000Y26500000D03*
D63*
X38910000Y14500000D03*
D63*
X32500000Y10250000D03*
D63*
X39750000Y35500000D03*
D63*
X18000000Y14250000D03*
D63*
X26500000Y18000000D03*
D63*
X31500000Y22750000D03*
D63*
X25000000Y11500000D03*
D63*
X31750000Y3750000D03*
D63*
X38160000Y13500000D03*
D63*
X21250000Y2250000D03*
D63*
X38910000Y3500000D03*
D63*
X23000000Y21750000D03*
D63*
X20000002Y35749999D03*
D64*
X19745000Y13750000D03*
D63*
X38160000Y2500000D03*
D63*
X22000000Y14750000D03*
D63*
X4000000Y26000000D03*
D63*
X38500000Y33000000D03*
D63*
X1000000Y40000000D03*
D63*
X38910000Y13500000D03*
D63*
X20625000Y7750000D03*
D63*
X21250000Y4750000D03*
D63*
X36500000Y1500000D03*
D63*
X2500000Y26000000D03*
D63*
X32520000Y5000000D03*
D63*
X28750000Y7250000D03*
D63*
X17500002Y34499999D03*
D63*
X17000000Y14250000D03*
D63*
X4000000Y40000000D03*
D63*
X17000000Y16750000D03*
D63*
X35750000Y15500000D03*
D63*
X3840000Y27000000D03*
D63*
X34520000Y8000000D03*
D63*
X29000000Y20000000D03*
D63*
X40105000Y19500000D03*
D63*
X10979680Y25129680D03*
D63*
X3840000Y39000000D03*
D63*
X35750000Y29000000D03*
D63*
X7480000Y30250000D03*
D63*
X3090000Y28000000D03*
D63*
X14500000Y17000000D03*
D63*
X11500000Y34750000D03*
D63*
X23000000Y15000000D03*
D63*
X23000000Y18000000D03*
D63*
X34770000Y5750000D03*
M02*
