%FSLAX46Y46*%
%MOMM*%
%ADD11C,0.218000*%
%ADD10C,0.250000*%
%ADD12C,0.500000*%
%AMPS13*
1,1,1.695000,0.000000,0.000000*
%
%ADD13PS13*%
%AMPS14*
1,1,4.246000,0.000000,0.000000*
%
%ADD14PS14*%
%AMPS17*
1,1,0.600000,0.000000,0.000000*
%
%ADD17PS17*%
%AMPS18*
1,1,0.400000,0.000000,0.000000*
%
%ADD18PS18*%
%AMPS15*
21,1,1.800000,1.500000,0.000000,0.000000,0.000000*
1,1,1.500000,0.900000,0.000000*
1,1,1.500000,-0.900000,0.000000*
%
%ADD15PS15*%
%AMPS16*
21,1,0.800000,1.500000,0.000000,0.000000,0.000000*
1,1,1.500000,0.400000,0.000000*
1,1,1.500000,-0.400000,0.000000*
%
%ADD16PS16*%
G01*
%LPD*%
G36*
X38500000Y-30250000D02*
X38499999Y-21500000D01*
X31750000Y-21500000D01*
X31750000Y-20610006D01*
X31692288Y-20557702D01*
X31663619Y-20526069D01*
X31638176Y-20491763D01*
X31616222Y-20455136D01*
X31597964Y-20416530D01*
X31583574Y-20376317D01*
X31573200Y-20334899D01*
X31566933Y-20292648D01*
X31564836Y-20250000D01*
X31566933Y-20207352D01*
X31573200Y-20165101D01*
X31583574Y-20123683D01*
X31597964Y-20083470D01*
X31616222Y-20044864D01*
X31638176Y-20008237D01*
X31663619Y-19973931D01*
X31692288Y-19942298D01*
X31750000Y-19889994D01*
X31750000Y-18689398D01*
X31665106Y-18676802D01*
X31623683Y-18666426D01*
X31583470Y-18652036D01*
X31544864Y-18633778D01*
X31508237Y-18611824D01*
X31473931Y-18586381D01*
X31442293Y-18557707D01*
X31413619Y-18526069D01*
X31388176Y-18491763D01*
X31366222Y-18455136D01*
X31347964Y-18416530D01*
X31333574Y-18376317D01*
X31323200Y-18334899D01*
X31316933Y-18292648D01*
X31314836Y-18250000D01*
X31316933Y-18207352D01*
X31323200Y-18165101D01*
X31333574Y-18123683D01*
X31347964Y-18083470D01*
X31366222Y-18044864D01*
X31388176Y-18008237D01*
X31413619Y-17973931D01*
X31442293Y-17942293D01*
X31473931Y-17913619D01*
X31508237Y-17888176D01*
X31544864Y-17866222D01*
X31583470Y-17847964D01*
X31623683Y-17833574D01*
X31665106Y-17823198D01*
X31750000Y-17810602D01*
X31750000Y-16189398D01*
X31665106Y-16176802D01*
X31623683Y-16166426D01*
X31583470Y-16152036D01*
X31544864Y-16133778D01*
X31508237Y-16111824D01*
X31473931Y-16086381D01*
X31442293Y-16057707D01*
X31413619Y-16026069D01*
X31388176Y-15991763D01*
X31366222Y-15955136D01*
X31347964Y-15916530D01*
X31333574Y-15876317D01*
X31323200Y-15834899D01*
X31316933Y-15792648D01*
X31314836Y-15750000D01*
X31316933Y-15707352D01*
X31323200Y-15665101D01*
X31333574Y-15623683D01*
X31347964Y-15583470D01*
X31366222Y-15544864D01*
X31388176Y-15508237D01*
X31413619Y-15473931D01*
X31442293Y-15442293D01*
X31473931Y-15413619D01*
X31508237Y-15388176D01*
X31544864Y-15366222D01*
X31583470Y-15347964D01*
X31623683Y-15333574D01*
X31665106Y-15323198D01*
X31750000Y-15310602D01*
X31750000Y-14439398D01*
X31665106Y-14426802D01*
X31623683Y-14416426D01*
X31583470Y-14402036D01*
X31544864Y-14383778D01*
X31508237Y-14361824D01*
X31473931Y-14336381D01*
X31442293Y-14307707D01*
X31413619Y-14276069D01*
X31388176Y-14241763D01*
X31366222Y-14205136D01*
X31347964Y-14166530D01*
X31333574Y-14126317D01*
X31323200Y-14084899D01*
X31316933Y-14042648D01*
X31314836Y-14000000D01*
X31316933Y-13957352D01*
X31323200Y-13915101D01*
X31333574Y-13873683D01*
X31347964Y-13833470D01*
X31366222Y-13794864D01*
X31388176Y-13758237D01*
X31413619Y-13723931D01*
X31442293Y-13692293D01*
X31473931Y-13663619D01*
X31508237Y-13638176D01*
X31544864Y-13616222D01*
X31583470Y-13597964D01*
X31623683Y-13583574D01*
X31665106Y-13573198D01*
X31750000Y-13560602D01*
X31750000Y-13235006D01*
X31692288Y-13182702D01*
X31663619Y-13151069D01*
X31638176Y-13116763D01*
X31616222Y-13080136D01*
X31597964Y-13041530D01*
X31583574Y-13001317D01*
X31573200Y-12959899D01*
X31566933Y-12917648D01*
X31564836Y-12875000D01*
X31566933Y-12832352D01*
X31573200Y-12790101D01*
X31583574Y-12748683D01*
X31597964Y-12708470D01*
X31616222Y-12669864D01*
X31638176Y-12633237D01*
X31663619Y-12598931D01*
X31692288Y-12567298D01*
X31750000Y-12514994D01*
X31750000Y-11985006D01*
X31692288Y-11932702D01*
X31663619Y-11901069D01*
X31638176Y-11866763D01*
X31616222Y-11830136D01*
X31597964Y-11791530D01*
X31583574Y-11751317D01*
X31573200Y-11709899D01*
X31566933Y-11667648D01*
X31564836Y-11625000D01*
X31566933Y-11582352D01*
X31573200Y-11540101D01*
X31583574Y-11498683D01*
X31597964Y-11458470D01*
X31616222Y-11419864D01*
X31638176Y-11383237D01*
X31663619Y-11348931D01*
X31692288Y-11317298D01*
X31750000Y-11264994D01*
X31750000Y-9000000D01*
X33000000Y-9000000D01*
X33000000Y5441760D01*
X32871970Y5491140D01*
X32827703Y5442289D01*
X32796069Y5413619D01*
X32761763Y5388176D01*
X32725136Y5366222D01*
X32686530Y5347964D01*
X32646317Y5333574D01*
X32604899Y5323200D01*
X32562648Y5316933D01*
X32520000Y5314836D01*
X32477352Y5316933D01*
X32435101Y5323200D01*
X32393683Y5333574D01*
X32353470Y5347964D01*
X32314864Y5366222D01*
X32278237Y5388176D01*
X32243931Y5413619D01*
X32212293Y5442293D01*
X32183619Y5473931D01*
X32158176Y5508237D01*
X32136222Y5544864D01*
X32117964Y5583470D01*
X32103574Y5623683D01*
X32093200Y5665101D01*
X32086933Y5707352D01*
X32084836Y5750000D01*
X32086933Y5792648D01*
X32093200Y5834899D01*
X32103574Y5876317D01*
X32117964Y5916530D01*
X32136222Y5955136D01*
X32158176Y5991763D01*
X32183619Y6026069D01*
X32212293Y6057707D01*
X32243931Y6086381D01*
X32278237Y6111824D01*
X32314864Y6133778D01*
X32353470Y6152036D01*
X32393683Y6166426D01*
X32435101Y6176800D01*
X32477352Y6183067D01*
X32520000Y6185164D01*
X32562648Y6183067D01*
X32604899Y6176800D01*
X32646317Y6166426D01*
X32686530Y6152036D01*
X32725136Y6133778D01*
X32761763Y6111824D01*
X32796069Y6086381D01*
X32827703Y6057711D01*
X32871970Y6008860D01*
X33000000Y6058240D01*
X33000000Y10713826D01*
X32871976Y10763208D01*
X32807702Y10692288D01*
X32776069Y10663619D01*
X32741763Y10638176D01*
X32705136Y10616222D01*
X32666530Y10597964D01*
X32626317Y10583574D01*
X32584899Y10573200D01*
X32542648Y10566933D01*
X32500000Y10564836D01*
X32457352Y10566933D01*
X32415101Y10573200D01*
X32373683Y10583574D01*
X32333470Y10597964D01*
X32294864Y10616222D01*
X32258237Y10638176D01*
X32223931Y10663619D01*
X32192293Y10692293D01*
X32163619Y10723931D01*
X32138176Y10758237D01*
X32116222Y10794864D01*
X32097964Y10833470D01*
X32083574Y10873683D01*
X32073200Y10915101D01*
X32066933Y10957352D01*
X32064836Y11000000D01*
X32066933Y11042648D01*
X32073200Y11084899D01*
X32083574Y11126317D01*
X32097964Y11166530D01*
X32116222Y11205136D01*
X32138176Y11241763D01*
X32163619Y11276069D01*
X32192293Y11307707D01*
X32223931Y11336381D01*
X32258237Y11361824D01*
X32294864Y11383778D01*
X32333470Y11402036D01*
X32373683Y11416426D01*
X32415101Y11426800D01*
X32457352Y11433067D01*
X32500000Y11435164D01*
X32542648Y11433067D01*
X32584899Y11426800D01*
X32626317Y11416426D01*
X32666530Y11402036D01*
X32705136Y11383778D01*
X32741763Y11361824D01*
X32776069Y11336381D01*
X32807702Y11307712D01*
X32871976Y11236792D01*
X33000000Y11286174D01*
X33000000Y19750000D01*
X33750000Y19750000D01*
X33750000Y23000000D01*
X31250000Y25500000D01*
X25750000Y25500000D01*
X25750000Y24500000D01*
X30000000Y24500000D01*
X30000000Y8385445D01*
X30165101Y8426800D01*
X30207352Y8433067D01*
X30250000Y8435164D01*
X30292648Y8433067D01*
X30334899Y8426800D01*
X30376317Y8416426D01*
X30416530Y8402036D01*
X30455136Y8383778D01*
X30491763Y8361824D01*
X30526069Y8336381D01*
X30557707Y8307707D01*
X30586381Y8276069D01*
X30611824Y8241763D01*
X30633778Y8205136D01*
X30652036Y8166530D01*
X30666426Y8126317D01*
X30676800Y8084899D01*
X30683067Y8042648D01*
X30685164Y8000000D01*
X30683067Y7957352D01*
X30676800Y7915101D01*
X30666426Y7873683D01*
X30652036Y7833470D01*
X30633778Y7794864D01*
X30611824Y7758237D01*
X30586381Y7723931D01*
X30557707Y7692293D01*
X30526069Y7663619D01*
X30491763Y7638176D01*
X30455136Y7616222D01*
X30416530Y7597964D01*
X30376317Y7583574D01*
X30334899Y7573200D01*
X30292648Y7566933D01*
X30250000Y7564836D01*
X30207352Y7566933D01*
X30165101Y7573200D01*
X30000000Y7614555D01*
X30000000Y-5000000D01*
X28500000Y-5000000D01*
X28500000Y-23750000D01*
X31000000Y-23750000D01*
X31000000Y-30250000D01*
X38500000Y-30250000D01*
D02*
G37*
%LPC*%
G36*
X30750000Y21064836D02*
X30707352Y21066933D01*
X30665101Y21073200D01*
X30623683Y21083574D01*
X30583470Y21097964D01*
X30544864Y21116222D01*
X30508237Y21138176D01*
X30473931Y21163619D01*
X30442293Y21192293D01*
X30413619Y21223931D01*
X30388176Y21258237D01*
X30366222Y21294864D01*
X30347964Y21333470D01*
X30333574Y21373683D01*
X30323200Y21415101D01*
X30316933Y21457352D01*
X30314836Y21500000D01*
X30316933Y21542648D01*
X30323200Y21584899D01*
X30333574Y21626317D01*
X30347964Y21666530D01*
X30366222Y21705136D01*
X30388176Y21741763D01*
X30413619Y21776069D01*
X30442293Y21807707D01*
X30473931Y21836381D01*
X30508237Y21861824D01*
X30544864Y21883778D01*
X30583470Y21902036D01*
X30660425Y21929573D01*
X30660425Y22070427D01*
X30583470Y22097964D01*
X30544864Y22116222D01*
X30508237Y22138176D01*
X30473931Y22163619D01*
X30442293Y22192293D01*
X30413619Y22223931D01*
X30388176Y22258237D01*
X30366222Y22294864D01*
X30347964Y22333470D01*
X30333574Y22373683D01*
X30323200Y22415101D01*
X30316933Y22457352D01*
X30314836Y22500000D01*
X30316933Y22542648D01*
X30323200Y22584899D01*
X30333574Y22626317D01*
X30347964Y22666530D01*
X30366222Y22705136D01*
X30388176Y22741763D01*
X30413619Y22776069D01*
X30442293Y22807707D01*
X30473931Y22836381D01*
X30508237Y22861824D01*
X30544864Y22883778D01*
X30583470Y22902036D01*
X30660425Y22929573D01*
X30660425Y23070427D01*
X30583470Y23097964D01*
X30544864Y23116222D01*
X30508237Y23138176D01*
X30473931Y23163619D01*
X30442293Y23192293D01*
X30413619Y23223931D01*
X30388176Y23258237D01*
X30366222Y23294864D01*
X30347964Y23333470D01*
X30333574Y23373683D01*
X30323200Y23415101D01*
X30316933Y23457352D01*
X30314836Y23500000D01*
X30316933Y23542648D01*
X30323200Y23584899D01*
X30333574Y23626317D01*
X30347964Y23666530D01*
X30366222Y23705136D01*
X30388176Y23741763D01*
X30413619Y23776069D01*
X30442293Y23807707D01*
X30473931Y23836381D01*
X30508237Y23861824D01*
X30544864Y23883778D01*
X30583470Y23902036D01*
X30623683Y23916426D01*
X30665101Y23926800D01*
X30707352Y23933067D01*
X30750000Y23935164D01*
X30792648Y23933067D01*
X30834899Y23926800D01*
X30876317Y23916426D01*
X30916530Y23902036D01*
X30955136Y23883778D01*
X30991763Y23861824D01*
X31026069Y23836381D01*
X31057707Y23807707D01*
X31086381Y23776069D01*
X31111824Y23741763D01*
X31133778Y23705136D01*
X31152036Y23666530D01*
X31166426Y23626317D01*
X31176800Y23584899D01*
X31183067Y23542648D01*
X31185164Y23500000D01*
X31183067Y23457352D01*
X31176800Y23415101D01*
X31166426Y23373683D01*
X31152036Y23333470D01*
X31133778Y23294864D01*
X31111824Y23258237D01*
X31086381Y23223931D01*
X31057707Y23192293D01*
X31026069Y23163619D01*
X30991763Y23138176D01*
X30955136Y23116222D01*
X30916530Y23097964D01*
X30839575Y23070427D01*
X30839575Y22929573D01*
X30916530Y22902036D01*
X30955136Y22883778D01*
X30991763Y22861824D01*
X31026069Y22836381D01*
X31057707Y22807707D01*
X31086381Y22776069D01*
X31111824Y22741763D01*
X31133778Y22705136D01*
X31152036Y22666530D01*
X31166426Y22626317D01*
X31176800Y22584899D01*
X31183067Y22542648D01*
X31185164Y22500000D01*
X31183067Y22457352D01*
X31176800Y22415101D01*
X31166426Y22373683D01*
X31152036Y22333470D01*
X31133778Y22294864D01*
X31111824Y22258237D01*
X31086381Y22223931D01*
X31057707Y22192293D01*
X31026069Y22163619D01*
X30991763Y22138176D01*
X30955136Y22116222D01*
X30916530Y22097964D01*
X30839575Y22070427D01*
X30839575Y21929573D01*
X30916530Y21902036D01*
X30955136Y21883778D01*
X30991763Y21861824D01*
X31026069Y21836381D01*
X31057707Y21807707D01*
X31086381Y21776069D01*
X31111824Y21741763D01*
X31133778Y21705136D01*
X31152036Y21666530D01*
X31166426Y21626317D01*
X31176800Y21584899D01*
X31183067Y21542648D01*
X31185164Y21500000D01*
X31183067Y21457352D01*
X31176800Y21415101D01*
X31166426Y21373683D01*
X31152036Y21333470D01*
X31133778Y21294864D01*
X31111824Y21258237D01*
X31086381Y21223931D01*
X31057707Y21192293D01*
X31026069Y21163619D01*
X30991763Y21138176D01*
X30955136Y21116222D01*
X30916530Y21097964D01*
X30876317Y21083574D01*
X30834899Y21073200D01*
X30792648Y21066933D01*
X30750000Y21064836D01*
D02*
G37*
%LPC*%
G36*
X30500000Y-11080164D02*
X30457352Y-11078067D01*
X30415101Y-11071800D01*
X30373683Y-11061426D01*
X30333470Y-11047036D01*
X30294864Y-11028778D01*
X30258237Y-11006824D01*
X30223931Y-10981381D01*
X30192293Y-10952707D01*
X30163619Y-10921069D01*
X30138176Y-10886763D01*
X30116222Y-10850136D01*
X30097964Y-10811530D01*
X30083574Y-10771317D01*
X30073200Y-10729899D01*
X30066933Y-10687648D01*
X30064836Y-10645000D01*
X30066933Y-10602352D01*
X30073200Y-10560101D01*
X30083574Y-10518683D01*
X30097964Y-10478470D01*
X30116222Y-10439864D01*
X30138176Y-10403237D01*
X30163619Y-10368931D01*
X30192293Y-10337293D01*
X30223931Y-10308619D01*
X30258237Y-10283176D01*
X30294864Y-10261222D01*
X30333470Y-10242964D01*
X30373683Y-10228574D01*
X30415101Y-10218200D01*
X30457352Y-10211933D01*
X30500000Y-10209836D01*
X30542648Y-10211933D01*
X30584899Y-10218200D01*
X30626317Y-10228574D01*
X30666530Y-10242964D01*
X30705136Y-10261222D01*
X30741763Y-10283176D01*
X30776069Y-10308619D01*
X30807707Y-10337293D01*
X30836381Y-10368931D01*
X30861824Y-10403237D01*
X30883778Y-10439864D01*
X30902036Y-10478470D01*
X30916426Y-10518683D01*
X30926800Y-10560101D01*
X30933067Y-10602352D01*
X30935164Y-10645000D01*
X30933067Y-10687648D01*
X30926800Y-10729899D01*
X30916426Y-10771317D01*
X30902036Y-10811530D01*
X30883778Y-10850136D01*
X30861824Y-10886763D01*
X30836381Y-10921069D01*
X30807707Y-10952707D01*
X30776069Y-10981381D01*
X30741763Y-11006824D01*
X30705136Y-11028778D01*
X30666530Y-11047036D01*
X30626317Y-11061426D01*
X30584899Y-11071800D01*
X30542648Y-11078067D01*
X30500000Y-11080164D01*
D02*
G37*
%LPC*%
G36*
X29250000Y-14435164D02*
X29207352Y-14433067D01*
X29165101Y-14426800D01*
X29123683Y-14416426D01*
X29083470Y-14402036D01*
X29044864Y-14383778D01*
X29008237Y-14361824D01*
X28973931Y-14336381D01*
X28942293Y-14307707D01*
X28913619Y-14276069D01*
X28888176Y-14241763D01*
X28866222Y-14205136D01*
X28847964Y-14166530D01*
X28833574Y-14126317D01*
X28823200Y-14084899D01*
X28816933Y-14042648D01*
X28814836Y-14000000D01*
X28816933Y-13957352D01*
X28823200Y-13915101D01*
X28833574Y-13873683D01*
X28847964Y-13833470D01*
X28866222Y-13794864D01*
X28888176Y-13758237D01*
X28913619Y-13723931D01*
X28942293Y-13692293D01*
X28973931Y-13663619D01*
X29008237Y-13638176D01*
X29044864Y-13616222D01*
X29083470Y-13597964D01*
X29123683Y-13583574D01*
X29165101Y-13573200D01*
X29207352Y-13566933D01*
X29250000Y-13564836D01*
X29292648Y-13566933D01*
X29334899Y-13573200D01*
X29376317Y-13583574D01*
X29416530Y-13597964D01*
X29455136Y-13616222D01*
X29491763Y-13638176D01*
X29526069Y-13663619D01*
X29557707Y-13692293D01*
X29586381Y-13723931D01*
X29611824Y-13758237D01*
X29633778Y-13794864D01*
X29652036Y-13833470D01*
X29666426Y-13873683D01*
X29676800Y-13915101D01*
X29683067Y-13957352D01*
X29685164Y-14000000D01*
X29683067Y-14042648D01*
X29676800Y-14084899D01*
X29666426Y-14126317D01*
X29652036Y-14166530D01*
X29633778Y-14205136D01*
X29611824Y-14241763D01*
X29586381Y-14276069D01*
X29557707Y-14307707D01*
X29526069Y-14336381D01*
X29491763Y-14361824D01*
X29455136Y-14383778D01*
X29416530Y-14402036D01*
X29376317Y-14416426D01*
X29334899Y-14426800D01*
X29292648Y-14433067D01*
X29250000Y-14435164D01*
D02*
G37*
%LPC*%
G36*
X29250000Y-16085164D02*
X29217148Y-16083548D01*
X29184621Y-16078725D01*
X29152708Y-16070731D01*
X29121740Y-16059649D01*
X29092002Y-16045585D01*
X29063793Y-16028676D01*
X29037383Y-16009090D01*
X29013005Y-15986995D01*
X28990910Y-15962617D01*
X28971324Y-15936207D01*
X28954415Y-15907998D01*
X28940351Y-15878260D01*
X28929269Y-15847292D01*
X28921275Y-15815379D01*
X28916452Y-15782852D01*
X28914836Y-15750000D01*
X28916452Y-15717148D01*
X28921275Y-15684621D01*
X28929269Y-15652708D01*
X28940351Y-15621740D01*
X28954415Y-15592002D01*
X28971324Y-15563793D01*
X28990910Y-15537383D01*
X29013005Y-15513005D01*
X29037383Y-15490910D01*
X29063793Y-15471324D01*
X29092002Y-15454415D01*
X29121740Y-15440351D01*
X29152708Y-15429269D01*
X29184621Y-15421275D01*
X29217148Y-15416452D01*
X29250000Y-15414836D01*
X29282852Y-15416452D01*
X29315379Y-15421275D01*
X29347292Y-15429269D01*
X29378260Y-15440351D01*
X29407998Y-15454415D01*
X29436207Y-15471324D01*
X29462617Y-15490910D01*
X29486995Y-15513005D01*
X29509090Y-15537383D01*
X29528676Y-15563793D01*
X29545585Y-15592002D01*
X29559649Y-15621740D01*
X29570731Y-15652708D01*
X29578725Y-15684621D01*
X29583548Y-15717148D01*
X29585164Y-15750000D01*
X29583548Y-15782852D01*
X29578725Y-15815379D01*
X29570731Y-15847292D01*
X29559649Y-15878260D01*
X29545585Y-15907998D01*
X29528676Y-15936207D01*
X29509090Y-15962617D01*
X29486995Y-15986995D01*
X29462617Y-16009090D01*
X29436207Y-16028676D01*
X29407998Y-16045585D01*
X29378260Y-16059649D01*
X29347292Y-16070731D01*
X29315379Y-16078725D01*
X29282852Y-16083548D01*
X29250000Y-16085164D01*
D02*
G37*
%LPC*%
G36*
X29250000Y-18585164D02*
X29217148Y-18583548D01*
X29184621Y-18578725D01*
X29152708Y-18570731D01*
X29121740Y-18559649D01*
X29092002Y-18545585D01*
X29063793Y-18528676D01*
X29037383Y-18509090D01*
X29013005Y-18486995D01*
X28990910Y-18462617D01*
X28971324Y-18436207D01*
X28954415Y-18407998D01*
X28940351Y-18378260D01*
X28929269Y-18347292D01*
X28921275Y-18315379D01*
X28916452Y-18282852D01*
X28914836Y-18250000D01*
X28916452Y-18217148D01*
X28921275Y-18184621D01*
X28929269Y-18152708D01*
X28940351Y-18121740D01*
X28954415Y-18092002D01*
X28971324Y-18063793D01*
X28990910Y-18037383D01*
X29013005Y-18013005D01*
X29037383Y-17990910D01*
X29063793Y-17971324D01*
X29092002Y-17954415D01*
X29121740Y-17940351D01*
X29152708Y-17929269D01*
X29184621Y-17921275D01*
X29217148Y-17916452D01*
X29250000Y-17914836D01*
X29282852Y-17916452D01*
X29315379Y-17921275D01*
X29347292Y-17929269D01*
X29378260Y-17940351D01*
X29407998Y-17954415D01*
X29436207Y-17971324D01*
X29462617Y-17990910D01*
X29486995Y-18013005D01*
X29509090Y-18037383D01*
X29528676Y-18063793D01*
X29545585Y-18092002D01*
X29559649Y-18121740D01*
X29570731Y-18152708D01*
X29578725Y-18184621D01*
X29583548Y-18217148D01*
X29585164Y-18250000D01*
X29583548Y-18282852D01*
X29578725Y-18315379D01*
X29570731Y-18347292D01*
X29559649Y-18378260D01*
X29545585Y-18407998D01*
X29528676Y-18436207D01*
X29509090Y-18462617D01*
X29486995Y-18486995D01*
X29462617Y-18509090D01*
X29436207Y-18528676D01*
X29407998Y-18545585D01*
X29378260Y-18559649D01*
X29347292Y-18570731D01*
X29315379Y-18578725D01*
X29282852Y-18583548D01*
X29250000Y-18585164D01*
D02*
G37*
%LPC*%
G36*
X35800000Y-28885164D02*
X35757352Y-28883067D01*
X35715101Y-28876800D01*
X35673683Y-28866426D01*
X35633470Y-28852036D01*
X35594864Y-28833778D01*
X35558237Y-28811824D01*
X35523931Y-28786381D01*
X35492293Y-28757707D01*
X35463619Y-28726069D01*
X35438176Y-28691763D01*
X35416222Y-28655136D01*
X35397964Y-28616530D01*
X35383574Y-28576317D01*
X35373200Y-28534899D01*
X35366933Y-28492648D01*
X35364836Y-28450000D01*
X35366933Y-28407352D01*
X35373200Y-28365101D01*
X35383574Y-28323683D01*
X35397964Y-28283470D01*
X35416222Y-28244864D01*
X35438176Y-28208237D01*
X35463619Y-28173931D01*
X35492293Y-28142293D01*
X35523931Y-28113619D01*
X35558237Y-28088176D01*
X35594864Y-28066222D01*
X35633470Y-28047964D01*
X35710425Y-28020427D01*
X35710425Y-27879573D01*
X35633470Y-27852036D01*
X35594864Y-27833778D01*
X35558237Y-27811824D01*
X35523931Y-27786381D01*
X35492293Y-27757707D01*
X35463619Y-27726069D01*
X35438176Y-27691763D01*
X35416222Y-27655136D01*
X35397964Y-27616530D01*
X35383574Y-27576317D01*
X35373200Y-27534899D01*
X35366933Y-27492648D01*
X35364836Y-27450000D01*
X35366933Y-27407352D01*
X35373200Y-27365101D01*
X35383574Y-27323683D01*
X35397964Y-27283470D01*
X35416222Y-27244864D01*
X35438176Y-27208237D01*
X35463619Y-27173931D01*
X35492293Y-27142293D01*
X35523931Y-27113619D01*
X35558237Y-27088176D01*
X35594864Y-27066222D01*
X35633470Y-27047964D01*
X35710425Y-27020427D01*
X35710425Y-26879573D01*
X35633470Y-26852036D01*
X35594864Y-26833778D01*
X35558237Y-26811824D01*
X35523931Y-26786381D01*
X35492293Y-26757707D01*
X35463619Y-26726069D01*
X35438176Y-26691763D01*
X35416222Y-26655136D01*
X35397964Y-26616530D01*
X35383574Y-26576317D01*
X35373200Y-26534899D01*
X35366933Y-26492648D01*
X35364836Y-26450000D01*
X35366933Y-26407352D01*
X35373200Y-26365101D01*
X35383574Y-26323683D01*
X35397964Y-26283470D01*
X35416222Y-26244864D01*
X35438176Y-26208237D01*
X35463619Y-26173931D01*
X35492293Y-26142293D01*
X35523931Y-26113619D01*
X35558237Y-26088176D01*
X35594864Y-26066222D01*
X35633470Y-26047964D01*
X35673683Y-26033574D01*
X35715101Y-26023200D01*
X35757352Y-26016933D01*
X35800000Y-26014836D01*
X35842648Y-26016933D01*
X35884899Y-26023200D01*
X35926317Y-26033574D01*
X35966530Y-26047964D01*
X36005136Y-26066222D01*
X36041763Y-26088176D01*
X36076069Y-26113619D01*
X36107707Y-26142293D01*
X36136381Y-26173931D01*
X36161824Y-26208237D01*
X36183778Y-26244864D01*
X36202036Y-26283470D01*
X36216426Y-26323683D01*
X36226800Y-26365101D01*
X36233067Y-26407352D01*
X36235164Y-26450000D01*
X36233067Y-26492648D01*
X36226800Y-26534899D01*
X36216426Y-26576317D01*
X36202036Y-26616530D01*
X36183778Y-26655136D01*
X36161824Y-26691763D01*
X36136381Y-26726069D01*
X36107707Y-26757707D01*
X36076069Y-26786381D01*
X36041763Y-26811824D01*
X36005136Y-26833778D01*
X35966530Y-26852036D01*
X35889575Y-26879573D01*
X35889575Y-27020427D01*
X35966530Y-27047964D01*
X36005136Y-27066222D01*
X36041763Y-27088176D01*
X36076069Y-27113619D01*
X36107707Y-27142293D01*
X36136381Y-27173931D01*
X36161824Y-27208237D01*
X36183778Y-27244864D01*
X36202036Y-27283470D01*
X36216426Y-27323683D01*
X36226800Y-27365101D01*
X36233067Y-27407352D01*
X36235164Y-27450000D01*
X36233067Y-27492648D01*
X36226800Y-27534899D01*
X36216426Y-27576317D01*
X36202036Y-27616530D01*
X36183778Y-27655136D01*
X36161824Y-27691763D01*
X36136381Y-27726069D01*
X36107707Y-27757707D01*
X36076069Y-27786381D01*
X36041763Y-27811824D01*
X36005136Y-27833778D01*
X35966530Y-27852036D01*
X35889575Y-27879573D01*
X35889575Y-28020427D01*
X35966530Y-28047964D01*
X36005136Y-28066222D01*
X36041763Y-28088176D01*
X36076069Y-28113619D01*
X36107707Y-28142293D01*
X36136381Y-28173931D01*
X36161824Y-28208237D01*
X36183778Y-28244864D01*
X36202036Y-28283470D01*
X36216426Y-28323683D01*
X36226800Y-28365101D01*
X36233067Y-28407352D01*
X36235164Y-28450000D01*
X36233067Y-28492648D01*
X36226800Y-28534899D01*
X36216426Y-28576317D01*
X36202036Y-28616530D01*
X36183778Y-28655136D01*
X36161824Y-28691763D01*
X36136381Y-28726069D01*
X36107707Y-28757707D01*
X36076069Y-28786381D01*
X36041763Y-28811824D01*
X36005136Y-28833778D01*
X35966530Y-28852036D01*
X35926317Y-28866426D01*
X35884899Y-28876800D01*
X35842648Y-28883067D01*
X35800000Y-28885164D01*
D02*
G37*
%LPD*%
G36*
X23250000Y-13000001D02*
X23250000Y-9135445D01*
X23084899Y-9176800D01*
X23042648Y-9183067D01*
X23000000Y-9185164D01*
X22957352Y-9183067D01*
X22915101Y-9176800D01*
X22873683Y-9166426D01*
X22833470Y-9152036D01*
X22794864Y-9133778D01*
X22758237Y-9111824D01*
X22723931Y-9086381D01*
X22692293Y-9057707D01*
X22663619Y-9026069D01*
X22638176Y-8991763D01*
X22616222Y-8955136D01*
X22597964Y-8916530D01*
X22583574Y-8876317D01*
X22573200Y-8834899D01*
X22566933Y-8792648D01*
X22564836Y-8750000D01*
X22566933Y-8707352D01*
X22573200Y-8665101D01*
X22583574Y-8623683D01*
X22597964Y-8583470D01*
X22616222Y-8544864D01*
X22638176Y-8508237D01*
X22663619Y-8473931D01*
X22692293Y-8442293D01*
X22723931Y-8413619D01*
X22758237Y-8388176D01*
X22794864Y-8366222D01*
X22833470Y-8347964D01*
X22873683Y-8333574D01*
X22915101Y-8323200D01*
X22957352Y-8316933D01*
X23000000Y-8314836D01*
X23042648Y-8316933D01*
X23084899Y-8323200D01*
X23250000Y-8364555D01*
X23250000Y1000000D01*
X24500000Y2250004D01*
X24500000Y14500000D01*
X27250000Y14500000D01*
X27250000Y18250000D01*
X24750000Y18250000D01*
X24750000Y16254687D01*
X23271676Y16263926D01*
X23221728Y16135628D01*
X23307712Y16057702D01*
X23336381Y16026069D01*
X23361824Y15991763D01*
X23383778Y15955136D01*
X23402036Y15916530D01*
X23416426Y15876317D01*
X23426800Y15834899D01*
X23433067Y15792648D01*
X23435164Y15750000D01*
X23433067Y15707352D01*
X23426800Y15665101D01*
X23416426Y15623683D01*
X23402036Y15583470D01*
X23383778Y15544864D01*
X23361824Y15508237D01*
X23336381Y15473931D01*
X23307707Y15442293D01*
X23276069Y15413619D01*
X23241763Y15388176D01*
X23205136Y15366222D01*
X23166530Y15347964D01*
X23126317Y15333574D01*
X23084899Y15323200D01*
X23042648Y15316933D01*
X23000000Y15314836D01*
X22957352Y15316933D01*
X22915101Y15323200D01*
X22873683Y15333574D01*
X22833470Y15347964D01*
X22794864Y15366222D01*
X22758237Y15388176D01*
X22723931Y15413619D01*
X22692293Y15442293D01*
X22663619Y15473931D01*
X22638176Y15508237D01*
X22616222Y15544864D01*
X22597964Y15583470D01*
X22583574Y15623683D01*
X22573200Y15665101D01*
X22566933Y15707352D01*
X22564836Y15750000D01*
X22566933Y15792648D01*
X22573200Y15834899D01*
X22583574Y15876317D01*
X22597964Y15916530D01*
X22616222Y15955136D01*
X22638176Y15991763D01*
X22663619Y16026069D01*
X22692293Y16057707D01*
X22723935Y16086385D01*
X22783158Y16130310D01*
X22738388Y16267260D01*
X17500000Y16300000D01*
X17500000Y15000001D01*
X18500001Y14000000D01*
X19653919Y14000000D01*
X19688988Y14156184D01*
X19587006Y14204412D01*
X19558793Y14221324D01*
X19532383Y14240910D01*
X19508005Y14263005D01*
X19485910Y14287383D01*
X19466324Y14313793D01*
X19449415Y14342002D01*
X19435351Y14371740D01*
X19424269Y14402708D01*
X19416275Y14434621D01*
X19411452Y14467148D01*
X19409836Y14500000D01*
X19411452Y14532852D01*
X19416275Y14565379D01*
X19424269Y14597292D01*
X19435351Y14628260D01*
X19449415Y14657998D01*
X19466324Y14686207D01*
X19485910Y14712617D01*
X19508005Y14736995D01*
X19532383Y14759090D01*
X19558793Y14778676D01*
X19587002Y14795585D01*
X19616740Y14809649D01*
X19647708Y14820731D01*
X19679621Y14828725D01*
X19712148Y14833548D01*
X19745000Y14835164D01*
X19777852Y14833548D01*
X19810379Y14828725D01*
X19842292Y14820731D01*
X19873260Y14809649D01*
X19902998Y14795585D01*
X19931207Y14778676D01*
X19957617Y14759090D01*
X19981995Y14736995D01*
X20004090Y14712617D01*
X20023676Y14686207D01*
X20040585Y14657998D01*
X20054649Y14628260D01*
X20065731Y14597292D01*
X20073725Y14565379D01*
X20078548Y14532852D01*
X20080164Y14500000D01*
X20078548Y14467148D01*
X20073725Y14434621D01*
X20065731Y14402708D01*
X20054649Y14371740D01*
X20040585Y14342002D01*
X20023676Y14313793D01*
X20004090Y14287383D01*
X19981995Y14263005D01*
X19957617Y14240910D01*
X19931207Y14221324D01*
X19902994Y14204412D01*
X19801012Y14156184D01*
X19836081Y14000000D01*
X20750000Y14000000D01*
X20750000Y12360006D01*
X20807712Y12307702D01*
X20836381Y12276069D01*
X20861824Y12241763D01*
X20883778Y12205136D01*
X20902036Y12166530D01*
X20916426Y12126317D01*
X20926800Y12084899D01*
X20933067Y12042648D01*
X20935164Y12000000D01*
X20933067Y11957352D01*
X20926800Y11915101D01*
X20916426Y11873683D01*
X20902036Y11833470D01*
X20883778Y11794864D01*
X20861824Y11758237D01*
X20836381Y11723931D01*
X20807712Y11692298D01*
X20750000Y11639994D01*
X20750000Y10610006D01*
X20807712Y10557702D01*
X20836381Y10526069D01*
X20861824Y10491763D01*
X20883778Y10455136D01*
X20902036Y10416530D01*
X20916426Y10376317D01*
X20926800Y10334899D01*
X20933067Y10292648D01*
X20935164Y10250000D01*
X20933067Y10207352D01*
X20926800Y10165101D01*
X20916426Y10123683D01*
X20902036Y10083470D01*
X20883778Y10044864D01*
X20861824Y10008237D01*
X20836381Y9973931D01*
X20807712Y9942298D01*
X20750000Y9889994D01*
X20750000Y8921678D01*
X20830136Y8883778D01*
X20866763Y8861824D01*
X20901069Y8836381D01*
X20932707Y8807707D01*
X20961381Y8776069D01*
X20986824Y8741763D01*
X21008778Y8705136D01*
X21027036Y8666530D01*
X21041426Y8626317D01*
X21051800Y8584899D01*
X21058067Y8542648D01*
X21060164Y8500000D01*
X21058067Y8457352D01*
X21051800Y8415101D01*
X21041426Y8373683D01*
X21027036Y8333470D01*
X21008778Y8294864D01*
X20986824Y8258237D01*
X20961381Y8223931D01*
X20932707Y8192293D01*
X20901069Y8163619D01*
X20866763Y8138176D01*
X20830136Y8116222D01*
X20750000Y8078322D01*
X20750000Y6110006D01*
X20807712Y6057702D01*
X20836381Y6026069D01*
X20861824Y5991763D01*
X20883778Y5955136D01*
X20902036Y5916530D01*
X20916426Y5876317D01*
X20926800Y5834899D01*
X20933067Y5792648D01*
X20935164Y5750000D01*
X20933067Y5707352D01*
X20926800Y5665101D01*
X20916426Y5623683D01*
X20902036Y5583470D01*
X20883778Y5544864D01*
X20861824Y5508237D01*
X20836381Y5473931D01*
X20807712Y5442298D01*
X20750000Y5389994D01*
X20750000Y3286174D01*
X20878024Y3236792D01*
X20942298Y3307712D01*
X20973931Y3336381D01*
X21008237Y3361824D01*
X21044864Y3383778D01*
X21083470Y3402036D01*
X21123683Y3416426D01*
X21165101Y3426800D01*
X21207352Y3433067D01*
X21250000Y3435164D01*
X21292648Y3433067D01*
X21334899Y3426800D01*
X21376317Y3416426D01*
X21416530Y3402036D01*
X21455136Y3383778D01*
X21491763Y3361824D01*
X21526069Y3336381D01*
X21557707Y3307707D01*
X21586381Y3276069D01*
X21611824Y3241763D01*
X21633778Y3205136D01*
X21652036Y3166530D01*
X21666426Y3126317D01*
X21676800Y3084899D01*
X21683067Y3042648D01*
X21685164Y3000000D01*
X21683067Y2957352D01*
X21676800Y2915101D01*
X21666426Y2873683D01*
X21652036Y2833470D01*
X21633778Y2794864D01*
X21611824Y2758237D01*
X21586381Y2723931D01*
X21557707Y2692293D01*
X21526069Y2663619D01*
X21491763Y2638176D01*
X21455136Y2616222D01*
X21416530Y2597964D01*
X21376317Y2583574D01*
X21334899Y2573200D01*
X21292648Y2566933D01*
X21250000Y2564836D01*
X21207352Y2566933D01*
X21165101Y2573200D01*
X21123683Y2583574D01*
X21083470Y2597964D01*
X21044864Y2616222D01*
X21008237Y2638176D01*
X20973931Y2663619D01*
X20942298Y2692288D01*
X20878024Y2763208D01*
X20750000Y2713826D01*
X20750000Y-11500000D01*
X21500000Y-11500000D01*
X21500000Y-13000000D01*
X23250000Y-13000001D01*
D02*
G37*
%LPC*%
G36*
X20000000Y15064836D02*
X19957352Y15066933D01*
X19915101Y15073200D01*
X19873683Y15083574D01*
X19833470Y15097964D01*
X19794864Y15116222D01*
X19758237Y15138176D01*
X19723931Y15163619D01*
X19692293Y15192293D01*
X19663619Y15223931D01*
X19638176Y15258237D01*
X19616222Y15294864D01*
X19597964Y15333470D01*
X19583574Y15373683D01*
X19573200Y15415101D01*
X19566933Y15457352D01*
X19564836Y15500000D01*
X19566933Y15542648D01*
X19573200Y15584899D01*
X19583574Y15626317D01*
X19597964Y15666530D01*
X19616222Y15705136D01*
X19638176Y15741763D01*
X19663619Y15776069D01*
X19692293Y15807707D01*
X19723931Y15836381D01*
X19758237Y15861824D01*
X19794864Y15883778D01*
X19833470Y15902036D01*
X19873683Y15916426D01*
X19915101Y15926800D01*
X19957352Y15933067D01*
X20000000Y15935164D01*
X20042648Y15933067D01*
X20084899Y15926800D01*
X20126317Y15916426D01*
X20166530Y15902036D01*
X20205136Y15883778D01*
X20241763Y15861824D01*
X20276069Y15836381D01*
X20307707Y15807707D01*
X20336381Y15776069D01*
X20361824Y15741763D01*
X20383778Y15705136D01*
X20402036Y15666530D01*
X20416426Y15626317D01*
X20426800Y15584899D01*
X20433067Y15542648D01*
X20435164Y15500000D01*
X20433067Y15457352D01*
X20426800Y15415101D01*
X20416426Y15373683D01*
X20402036Y15333470D01*
X20383778Y15294864D01*
X20361824Y15258237D01*
X20336381Y15223931D01*
X20307707Y15192293D01*
X20276069Y15163619D01*
X20241763Y15138176D01*
X20205136Y15116222D01*
X20166530Y15097964D01*
X20126317Y15083574D01*
X20084899Y15073200D01*
X20042648Y15066933D01*
X20000000Y15064836D01*
D02*
G37*
%LPC*%
G36*
X22250000Y11564836D02*
X22207352Y11566933D01*
X22165101Y11573200D01*
X22123683Y11583574D01*
X22083470Y11597964D01*
X22044864Y11616222D01*
X22008237Y11638176D01*
X21973931Y11663619D01*
X21942293Y11692293D01*
X21913619Y11723931D01*
X21888176Y11758237D01*
X21866222Y11794864D01*
X21847964Y11833470D01*
X21833574Y11873683D01*
X21823200Y11915101D01*
X21816933Y11957352D01*
X21814836Y12000000D01*
X21816933Y12042648D01*
X21823200Y12084899D01*
X21833574Y12126317D01*
X21847964Y12166530D01*
X21866222Y12205136D01*
X21888176Y12241763D01*
X21913619Y12276069D01*
X21942293Y12307707D01*
X21973931Y12336381D01*
X22008237Y12361824D01*
X22044864Y12383778D01*
X22083470Y12402036D01*
X22123683Y12416426D01*
X22165101Y12426800D01*
X22207352Y12433067D01*
X22250000Y12435164D01*
X22292648Y12433067D01*
X22334899Y12426800D01*
X22376317Y12416426D01*
X22416530Y12402036D01*
X22455136Y12383778D01*
X22491763Y12361824D01*
X22526069Y12336381D01*
X22557707Y12307707D01*
X22586381Y12276069D01*
X22611824Y12241763D01*
X22633778Y12205136D01*
X22652036Y12166530D01*
X22666426Y12126317D01*
X22676800Y12084899D01*
X22683067Y12042648D01*
X22685164Y12000000D01*
X22683067Y11957352D01*
X22676800Y11915101D01*
X22666426Y11873683D01*
X22652036Y11833470D01*
X22633778Y11794864D01*
X22611824Y11758237D01*
X22586381Y11723931D01*
X22557707Y11692293D01*
X22526069Y11663619D01*
X22491763Y11638176D01*
X22455136Y11616222D01*
X22416530Y11597964D01*
X22376317Y11583574D01*
X22334899Y11573200D01*
X22292648Y11566933D01*
X22250000Y11564836D01*
D02*
G37*
%LPC*%
G36*
X22250000Y9814836D02*
X22207352Y9816933D01*
X22165101Y9823200D01*
X22123683Y9833574D01*
X22083470Y9847964D01*
X22044864Y9866222D01*
X22008237Y9888176D01*
X21973931Y9913619D01*
X21942293Y9942293D01*
X21913619Y9973931D01*
X21888176Y10008237D01*
X21866222Y10044864D01*
X21847964Y10083470D01*
X21833574Y10123683D01*
X21823200Y10165101D01*
X21816933Y10207352D01*
X21814836Y10250000D01*
X21816933Y10292648D01*
X21823200Y10334899D01*
X21833574Y10376317D01*
X21847964Y10416530D01*
X21866222Y10455136D01*
X21888176Y10491763D01*
X21913619Y10526069D01*
X21942293Y10557707D01*
X21973931Y10586381D01*
X22008237Y10611824D01*
X22044864Y10633778D01*
X22083470Y10652036D01*
X22123683Y10666426D01*
X22165101Y10676800D01*
X22207352Y10683067D01*
X22250000Y10685164D01*
X22292648Y10683067D01*
X22334899Y10676800D01*
X22376317Y10666426D01*
X22416530Y10652036D01*
X22455136Y10633778D01*
X22491763Y10611824D01*
X22526069Y10586381D01*
X22557707Y10557707D01*
X22586381Y10526069D01*
X22611824Y10491763D01*
X22633778Y10455136D01*
X22652036Y10416530D01*
X22666426Y10376317D01*
X22676800Y10334899D01*
X22683067Y10292648D01*
X22685164Y10250000D01*
X22683067Y10207352D01*
X22676800Y10165101D01*
X22666426Y10123683D01*
X22652036Y10083470D01*
X22633778Y10044864D01*
X22611824Y10008237D01*
X22586381Y9973931D01*
X22557707Y9942293D01*
X22526069Y9913619D01*
X22491763Y9888176D01*
X22455136Y9866222D01*
X22416530Y9847964D01*
X22376317Y9833574D01*
X22334899Y9823200D01*
X22292648Y9816933D01*
X22250000Y9814836D01*
D02*
G37*
%LPC*%
G36*
X22250000Y8064836D02*
X22207352Y8066933D01*
X22165101Y8073200D01*
X22123683Y8083574D01*
X22083470Y8097964D01*
X22044864Y8116222D01*
X22008237Y8138176D01*
X21973931Y8163619D01*
X21942293Y8192293D01*
X21913619Y8223931D01*
X21888176Y8258237D01*
X21866222Y8294864D01*
X21847964Y8333470D01*
X21833574Y8373683D01*
X21823200Y8415101D01*
X21816933Y8457352D01*
X21814836Y8500000D01*
X21816933Y8542648D01*
X21823200Y8584899D01*
X21833574Y8626317D01*
X21847964Y8666530D01*
X21866222Y8705136D01*
X21888176Y8741763D01*
X21913619Y8776069D01*
X21942293Y8807707D01*
X21973931Y8836381D01*
X22008237Y8861824D01*
X22044864Y8883778D01*
X22083470Y8902036D01*
X22123683Y8916426D01*
X22165101Y8926800D01*
X22207352Y8933067D01*
X22250000Y8935164D01*
X22292648Y8933067D01*
X22334899Y8926800D01*
X22376317Y8916426D01*
X22416530Y8902036D01*
X22455136Y8883778D01*
X22491763Y8861824D01*
X22526069Y8836381D01*
X22557707Y8807707D01*
X22586381Y8776069D01*
X22611824Y8741763D01*
X22633778Y8705136D01*
X22652036Y8666530D01*
X22666426Y8626317D01*
X22676800Y8584899D01*
X22683067Y8542648D01*
X22685164Y8500000D01*
X22683067Y8457352D01*
X22676800Y8415101D01*
X22666426Y8373683D01*
X22652036Y8333470D01*
X22633778Y8294864D01*
X22611824Y8258237D01*
X22586381Y8223931D01*
X22557707Y8192293D01*
X22526069Y8163619D01*
X22491763Y8138176D01*
X22455136Y8116222D01*
X22416530Y8097964D01*
X22376317Y8083574D01*
X22334899Y8073200D01*
X22292648Y8066933D01*
X22250000Y8064836D01*
D02*
G37*
%LPC*%
G36*
X22750000Y5064836D02*
X22707352Y5066933D01*
X22665101Y5073200D01*
X22623683Y5083574D01*
X22583470Y5097964D01*
X22544864Y5116222D01*
X22508237Y5138176D01*
X22473931Y5163619D01*
X22442293Y5192293D01*
X22413619Y5223931D01*
X22388176Y5258237D01*
X22366221Y5294865D01*
X22304349Y5425686D01*
X22205143Y5366225D01*
X22166530Y5347964D01*
X22126317Y5333574D01*
X22084899Y5323200D01*
X22042648Y5316933D01*
X22000000Y5314836D01*
X21957352Y5316933D01*
X21915101Y5323200D01*
X21873683Y5333574D01*
X21833470Y5347964D01*
X21794864Y5366222D01*
X21758237Y5388176D01*
X21723931Y5413619D01*
X21692293Y5442293D01*
X21663619Y5473931D01*
X21638176Y5508237D01*
X21616222Y5544864D01*
X21597964Y5583470D01*
X21583574Y5623683D01*
X21573200Y5665101D01*
X21566933Y5707352D01*
X21564836Y5750000D01*
X21566933Y5792648D01*
X21573200Y5834899D01*
X21583574Y5876317D01*
X21597964Y5916530D01*
X21616222Y5955136D01*
X21638176Y5991763D01*
X21663619Y6026069D01*
X21692293Y6057707D01*
X21723931Y6086381D01*
X21758237Y6111824D01*
X21794864Y6133778D01*
X21833470Y6152036D01*
X21873683Y6166426D01*
X21915101Y6176800D01*
X21957352Y6183067D01*
X22000000Y6185164D01*
X22042648Y6183067D01*
X22084899Y6176800D01*
X22126317Y6166426D01*
X22166530Y6152036D01*
X22205136Y6133778D01*
X22241763Y6111824D01*
X22276069Y6086381D01*
X22307707Y6057707D01*
X22336381Y6026069D01*
X22361824Y5991763D01*
X22383779Y5955135D01*
X22445651Y5824314D01*
X22544857Y5883775D01*
X22583470Y5902036D01*
X22623683Y5916426D01*
X22665101Y5926800D01*
X22707352Y5933067D01*
X22750000Y5935164D01*
X22792648Y5933067D01*
X22834899Y5926800D01*
X22876317Y5916426D01*
X23031560Y5860876D01*
X23023707Y6020565D01*
X23025804Y6063213D01*
X23032071Y6105464D01*
X23042445Y6146882D01*
X23056835Y6187095D01*
X23075093Y6225701D01*
X23097047Y6262328D01*
X23122490Y6296634D01*
X23151164Y6328272D01*
X23182802Y6356946D01*
X23217108Y6382389D01*
X23253735Y6404343D01*
X23292341Y6422601D01*
X23332554Y6436991D01*
X23373972Y6447365D01*
X23416223Y6453632D01*
X23458871Y6455729D01*
X23501519Y6453632D01*
X23543770Y6447365D01*
X23585188Y6436991D01*
X23625401Y6422601D01*
X23664007Y6404343D01*
X23700634Y6382389D01*
X23734940Y6356946D01*
X23766578Y6328272D01*
X23795252Y6296634D01*
X23820695Y6262328D01*
X23842649Y6225701D01*
X23860907Y6187095D01*
X23875297Y6146882D01*
X23885671Y6105464D01*
X23891938Y6063213D01*
X23894035Y6020565D01*
X23891938Y5977917D01*
X23885671Y5935666D01*
X23875297Y5894248D01*
X23860907Y5854035D01*
X23842649Y5815429D01*
X23820695Y5778802D01*
X23795252Y5744496D01*
X23766578Y5712858D01*
X23734940Y5684184D01*
X23700634Y5658741D01*
X23664007Y5636787D01*
X23625401Y5618529D01*
X23585188Y5604139D01*
X23543770Y5593765D01*
X23501519Y5587498D01*
X23458871Y5585401D01*
X23416223Y5587498D01*
X23373972Y5593765D01*
X23332554Y5604139D01*
X23177311Y5659689D01*
X23185164Y5499998D01*
X23183067Y5457352D01*
X23176800Y5415101D01*
X23166426Y5373683D01*
X23152036Y5333470D01*
X23133778Y5294864D01*
X23111824Y5258237D01*
X23086381Y5223931D01*
X23057707Y5192293D01*
X23026069Y5163619D01*
X22991763Y5138176D01*
X22955136Y5116222D01*
X22916530Y5097964D01*
X22876317Y5083574D01*
X22834899Y5073200D01*
X22792648Y5066933D01*
X22750000Y5064836D01*
D02*
G37*
%LPC*%
G36*
X22750000Y2564836D02*
X22707352Y2566933D01*
X22665101Y2573200D01*
X22623683Y2583574D01*
X22583470Y2597964D01*
X22544864Y2616222D01*
X22508237Y2638176D01*
X22473931Y2663619D01*
X22442293Y2692293D01*
X22413619Y2723931D01*
X22388176Y2758237D01*
X22366222Y2794864D01*
X22347964Y2833470D01*
X22333574Y2873683D01*
X22323200Y2915101D01*
X22316933Y2957352D01*
X22314836Y3000000D01*
X22316933Y3042648D01*
X22323200Y3084899D01*
X22333574Y3126317D01*
X22347964Y3166530D01*
X22366222Y3205136D01*
X22388176Y3241763D01*
X22413619Y3276069D01*
X22442293Y3307707D01*
X22473931Y3336381D01*
X22508237Y3361824D01*
X22544864Y3383778D01*
X22583470Y3402036D01*
X22623683Y3416426D01*
X22665101Y3426800D01*
X22707352Y3433067D01*
X22750000Y3435164D01*
X22792648Y3433067D01*
X22834899Y3426800D01*
X22876317Y3416426D01*
X22916530Y3402036D01*
X22955136Y3383778D01*
X22991763Y3361824D01*
X23026069Y3336381D01*
X23057707Y3307707D01*
X23086381Y3276069D01*
X23111824Y3241763D01*
X23133778Y3205136D01*
X23152036Y3166530D01*
X23166426Y3126317D01*
X23176800Y3084899D01*
X23183067Y3042648D01*
X23185164Y3000000D01*
X23183067Y2957352D01*
X23176800Y2915101D01*
X23166426Y2873683D01*
X23152036Y2833470D01*
X23133778Y2794864D01*
X23111824Y2758237D01*
X23086381Y2723931D01*
X23057707Y2692293D01*
X23026069Y2663619D01*
X22991763Y2638176D01*
X22955136Y2616222D01*
X22916530Y2597964D01*
X22876317Y2583574D01*
X22834899Y2573200D01*
X22792648Y2566933D01*
X22750000Y2564836D01*
D02*
G37*
%LPD*%
G01*
%LPD*%
D10*
X17000000Y16750000D02*
X20250000Y16750000D01*
D10*
X21000000Y25750000D02*
X22000000Y26750000D01*
D10*
X5250000Y17000000D02*
X5250000Y21000000D01*
D10*
X12500000Y-3000000D02*
X8100000Y-7400000D01*
D11*
X32791000Y-12441000D02*
X32791000Y-18590279D01*
D10*
X7321289Y27324203D02*
X7450388Y27195104D01*
D10*
X19750000Y23250000D02*
X15819980Y19319980D01*
D10*
X12500000Y14250000D02*
X11500000Y13250000D01*
D10*
X15000000Y-4000000D02*
X15000000Y-2000000D01*
D11*
X35559000Y-17609000D02*
X35750000Y-17800000D01*
D10*
X18000000Y5250000D02*
X18750000Y4500000D01*
D10*
X16894989Y5605011D02*
X17250000Y5250000D01*
D10*
X11500000Y6000000D02*
X18750000Y-1250000D01*
D10*
X29975000Y40500000D02*
X28750000Y40500000D01*
D10*
X25750000Y-20750000D02*
X25500000Y-20500000D01*
D11*
X38041000Y-12441000D02*
X38041000Y-13586572D01*
D10*
X18750000Y-1250000D02*
X18750000Y-5000000D01*
D11*
X33209000Y-18417135D02*
X33582865Y-18791000D01*
D10*
X17500000Y-6750000D02*
X20250000Y-9500000D01*
D11*
X34959000Y-16869725D02*
X35280275Y-17191000D01*
D10*
X26000000Y-19500000D02*
X26750000Y-20250000D01*
D10*
X21750000Y30750000D02*
X23750000Y30750000D01*
D10*
X15250000Y19500000D02*
X19000000Y23250000D01*
D10*
X20250000Y16750000D02*
X21000000Y17500000D01*
D10*
X17500000Y4500000D02*
X17000000Y4500000D01*
D10*
X7500000Y16000000D02*
X6075000Y17425000D01*
D10*
X25750000Y29750000D02*
X22500000Y29750000D01*
D10*
X10979680Y25879680D02*
X10100000Y25000000D01*
D10*
X40500000Y-24250000D02*
X40500000Y-30250000D01*
D10*
X14500000Y4750000D02*
X15500000Y3750000D01*
D10*
X16250000Y-7000000D02*
X19825011Y-10575011D01*
D11*
X37309000Y-15291000D02*
X37500000Y-15100000D01*
D10*
X8100000Y-7400000D02*
X8100000Y-12355000D01*
D10*
X27750000Y4000000D02*
X27750000Y21000000D01*
D10*
X12500000Y16250000D02*
X12500000Y14250000D01*
D10*
X24890865Y-11640865D02*
X24890865Y1140865D01*
D10*
X14500000Y14500000D02*
X14500000Y17500000D01*
D10*
X23750000Y30750000D02*
X25500000Y30750000D01*
D10*
X11500000Y38750000D02*
X17000000Y38750000D01*
D10*
X19750000Y22500000D02*
X21000000Y23750000D01*
D11*
X38650000Y-12250000D02*
X38459000Y-12441000D01*
D11*
X38459000Y-12441000D02*
X38459000Y-13413428D01*
D10*
X-770000Y33000000D02*
X-770000Y34500000D01*
D10*
X31500000Y37750000D02*
X34000000Y35250000D01*
D10*
X12500000Y13250000D02*
X13750000Y14500000D01*
D10*
X26750000Y-20250000D02*
X26750000Y-21250000D01*
D11*
X36709000Y-12441000D02*
X36709000Y-14969725D01*
D10*
X15819980Y19319980D02*
X15819980Y13930020D01*
D10*
X26250000Y31500000D02*
X26250000Y36000000D01*
D10*
X15250000Y6250000D02*
X15250000Y19500000D01*
D10*
X12750000Y7500000D02*
X13000000Y7750000D01*
D10*
X17000000Y-1500000D02*
X17000000Y-6250000D01*
D10*
X15000000Y-12750000D02*
X15000000Y-6750000D01*
D10*
X21750000Y36250000D02*
X21750000Y30750000D01*
D10*
X15000000Y37500000D02*
X20500000Y37500000D01*
D10*
X35550000Y22450000D02*
X35550000Y22375000D01*
D10*
X16500000Y18250000D02*
X17500000Y18250000D01*
D11*
X32791000Y-18590279D02*
X33409721Y-19209000D01*
D10*
X19250000Y-17000000D02*
X15000000Y-12750000D01*
D10*
X20500000Y37500000D02*
X21750000Y36250000D01*
D10*
X10855011Y5644989D02*
X18000000Y-1500000D01*
D10*
X26250000Y-11250000D02*
X26250000Y1500000D01*
D10*
X10100000Y25000000D02*
X5250000Y25000000D01*
D10*
X21000000Y23750000D02*
X21000000Y25750000D01*
D11*
X39059000Y-13959000D02*
X39250000Y-14150000D01*
D10*
X32500000Y35500000D02*
X32500000Y25500000D01*
D10*
X25000000Y-11750000D02*
X24890865Y-11640865D01*
D10*
X16250000Y-5000000D02*
X16250000Y-7000000D01*
D10*
X19825011Y-10575011D02*
X19825011Y-12825011D01*
D10*
X-1325011Y31805011D02*
X-770000Y31250000D01*
D10*
X12250000Y8000000D02*
X12500000Y8250000D01*
D11*
X39059000Y-13541000D02*
X39250000Y-13350000D01*
D12*
X35500000Y11020000D02*
X34520000Y12000000D01*
D10*
X21250000Y-14250000D02*
X21250000Y-19065714D01*
D10*
X6675797Y28824203D02*
X6750000Y28750000D01*
D10*
X17470000Y31500000D02*
X17500000Y31530000D01*
D10*
X11500000Y16750000D02*
X12000000Y16750000D01*
D10*
X35600000Y34875000D02*
X29975000Y40500000D01*
D10*
X2500000Y23750000D02*
X2500000Y29750000D01*
D10*
X19750000Y28750000D02*
X19750000Y23250000D01*
D10*
X22750000Y25750000D02*
X23450110Y25049890D01*
D10*
X16250000Y-5000000D02*
X16250000Y-1750000D01*
D10*
X20500000Y29250000D02*
X22000000Y29250000D01*
D11*
X38041000Y-13586572D02*
X38413428Y-13959000D01*
D10*
X25500000Y-20500000D02*
X19750000Y-20500000D01*
D11*
X34350000Y-12250000D02*
X34541000Y-12441000D01*
D11*
X35107131Y-17609000D02*
X35559000Y-17609000D01*
D10*
X31000000Y37000000D02*
X32500000Y35500000D01*
D10*
X17500000Y6000000D02*
X17500000Y13000000D01*
D10*
X34520000Y10250000D02*
X34520000Y8750000D01*
D10*
X16250000Y14250000D02*
X16250000Y16000000D01*
D10*
X23450110Y25049890D02*
X26050000Y25049890D01*
D11*
X36900000Y-12250000D02*
X36709000Y-12441000D01*
D10*
X2500000Y29750000D02*
X11500000Y38750000D01*
D10*
X6250000Y16000000D02*
X5250000Y17000000D01*
D11*
X33809000Y-18791000D02*
X34000000Y-18600000D01*
D10*
X17000000Y-6250000D02*
X17500000Y-6750000D01*
D10*
X10500000Y5000000D02*
X17000000Y-1500000D01*
D10*
X24890865Y1140865D02*
X27750000Y4000000D01*
D10*
X11500000Y15750000D02*
X10855011Y15105011D01*
D11*
X33400000Y-12250000D02*
X33209000Y-12441000D01*
D10*
X8750000Y16000000D02*
X7500000Y16000000D01*
D11*
X34541000Y-17042869D02*
X35107131Y-17609000D01*
D11*
X37309000Y-15709000D02*
X37500000Y-15900000D01*
D10*
X19000000Y23250000D02*
X19000000Y28750000D01*
D10*
X19250000Y-19999999D02*
X19250000Y-17000000D01*
D11*
X35150000Y-12250000D02*
X34959000Y-12441000D01*
D10*
X21000000Y18250000D02*
X19750000Y19500000D01*
D10*
X29500000Y4750000D02*
X29500000Y20250000D01*
D10*
X19750000Y19500000D02*
X19750000Y22500000D01*
D11*
X33209000Y-12441000D02*
X33209000Y-18417135D01*
D10*
X12250000Y7995000D02*
X12250000Y8000000D01*
D10*
X16894989Y8755795D02*
X16894989Y5605011D01*
D10*
X27500000Y22250000D02*
X21500000Y22250000D01*
D10*
X12500000Y8250000D02*
X12500000Y13250000D01*
D11*
X33582865Y-18791000D02*
X33809000Y-18791000D01*
D10*
X40000000Y-23750000D02*
X40500000Y-24250000D01*
D10*
X27750000Y21000000D02*
X27250000Y21500000D01*
D10*
X18750000Y-5000000D02*
X18000000Y-5750000D01*
D11*
X38459000Y-13413428D02*
X38586572Y-13541000D01*
D10*
X22000000Y26750000D02*
X22000000Y29250000D01*
D10*
X16250000Y-1750000D02*
X10000000Y4500000D01*
D10*
X8500000Y31000000D02*
X7450388Y29950388D01*
D10*
X22750000Y28750000D02*
X22750000Y25750000D01*
D11*
X34959000Y-12441000D02*
X34959000Y-16869725D01*
D10*
X17000000Y12750000D02*
X17000000Y8860806D01*
D10*
X15819980Y13930020D02*
X17000000Y12750000D01*
D11*
X37850000Y-12250000D02*
X38041000Y-12441000D01*
D10*
X22250000Y-19500000D02*
X26000000Y-19500000D01*
D10*
X18000000Y31000000D02*
X8500000Y31000000D01*
D10*
X34000000Y30225000D02*
X35600000Y28625000D01*
D10*
X15500000Y3750000D02*
X21750000Y3750000D01*
D10*
X17000000Y4500000D02*
X15250000Y6250000D01*
D10*
X16250000Y16000000D02*
X17000000Y16750000D01*
D10*
X10000000Y4500000D02*
X10000000Y5250000D01*
D10*
X27000000Y31000000D02*
X25750000Y29750000D01*
D11*
X36291000Y-15142869D02*
X36857131Y-15709000D01*
D10*
X11500000Y13250000D02*
X11500000Y6000000D01*
D10*
X5250000Y21000000D02*
X2500000Y23750000D01*
D11*
X38413428Y-13959000D02*
X39059000Y-13959000D01*
D11*
X38586572Y-13541000D02*
X39059000Y-13541000D01*
D10*
X25750000Y-20000000D02*
X26250000Y-20500000D01*
D10*
X12000000Y16750000D02*
X12500000Y16250000D01*
D10*
X6750000Y28750000D02*
X6750000Y30250000D01*
D11*
X33809000Y-19209000D02*
X34000000Y-19400000D01*
D10*
X5211051Y27324203D02*
X7321289Y27324203D01*
D10*
X28750000Y37750000D02*
X31500000Y37750000D01*
D10*
X17500000Y13000000D02*
X16250000Y14250000D01*
D11*
X37030275Y-15291000D02*
X37309000Y-15291000D01*
D10*
X25750000Y-21250000D02*
X25750000Y-20750000D01*
D10*
X-1020000Y36750000D02*
X-1325011Y36444989D01*
D10*
X26250000Y1500000D02*
X29500000Y4750000D01*
D10*
X17000000Y8860806D02*
X16894989Y8755795D01*
D10*
X7450388Y29950388D02*
X7450388Y27195104D01*
D10*
X26250000Y37000000D02*
X31000000Y37000000D01*
D10*
X21750000Y-14000000D02*
X21750000Y-19000000D01*
D10*
X20250000Y-12500000D02*
X21750000Y-14000000D01*
D10*
X26250000Y-20500000D02*
X26250000Y-21750000D01*
D10*
X29500000Y20250000D02*
X27500000Y22250000D01*
D10*
X22500000Y29750000D02*
X22000000Y29250000D01*
D10*
X8000000Y31500000D02*
X17470000Y31500000D01*
D10*
X27250000Y21500000D02*
X20500000Y21500000D01*
D10*
X19750000Y-20500000D02*
X19250000Y-19999999D01*
D10*
X15000000Y-2000000D02*
X6250000Y6750000D01*
D10*
X6750000Y30250000D02*
X8000000Y31500000D01*
D10*
X25750000Y-11750000D02*
X26250000Y-11250000D01*
D11*
X35559000Y-17191000D02*
X35750000Y-17000000D01*
D11*
X36100000Y-12250000D02*
X36291000Y-12441000D01*
D10*
X17500000Y18250000D02*
X18750000Y19500000D01*
D10*
X21000000Y17500000D02*
X21000000Y18250000D01*
D10*
X18000000Y-1500000D02*
X18000000Y-3500000D01*
D11*
X34541000Y-12441000D02*
X34541000Y-17042869D01*
D10*
X32500000Y25500000D02*
X35550000Y22450000D01*
D10*
X18750000Y19500000D02*
X18750000Y20000000D01*
D10*
X30135000Y35635000D02*
X27000000Y32500000D01*
D10*
X6075000Y17425000D02*
X6075000Y19175000D01*
D10*
X34000000Y35250000D02*
X34000000Y30225000D01*
D10*
X17250000Y5250000D02*
X18000000Y5250000D01*
D10*
X8100000Y-12355000D02*
X6850000Y-13605000D01*
D10*
X13750000Y14500000D02*
X13750000Y17000000D01*
D10*
X10855011Y15105011D02*
X10855011Y5644989D01*
D10*
X13000000Y13000000D02*
X14500000Y14500000D01*
D10*
X25500000Y30750000D02*
X26250000Y31500000D01*
D11*
X35280275Y-17191000D02*
X35559000Y-17191000D01*
D10*
X21750000Y-19000000D02*
X22250000Y-19500000D01*
D10*
X21250000Y-19065714D02*
X22184286Y-20000000D01*
D11*
X36291000Y-12441000D02*
X36291000Y-15142869D01*
D12*
X35500000Y7230000D02*
X35500000Y11020000D01*
D10*
X31115000Y35635000D02*
X30135000Y35635000D01*
D10*
X6250000Y6750000D02*
X6250000Y16000000D01*
D11*
X36857131Y-15709000D02*
X37309000Y-15709000D01*
D11*
X33409721Y-19209000D02*
X33809000Y-19209000D01*
D10*
X19000000Y28750000D02*
X18250000Y29500000D01*
D11*
X32600000Y-12250000D02*
X32791000Y-12441000D01*
D10*
X22184286Y-20000000D02*
X25750000Y-20000000D01*
D10*
X5211051Y28824203D02*
X6675797Y28824203D01*
D10*
X20250000Y-9500000D02*
X20250000Y-12500000D01*
D10*
X19825011Y-12825011D02*
X21250000Y-14250000D01*
D10*
X27000000Y32500000D02*
X27000000Y31000000D01*
D12*
X34770000Y6500000D02*
X35500000Y7230000D01*
D10*
X13000000Y7750000D02*
X13000000Y13000000D01*
D11*
X36709000Y-14969725D02*
X37030275Y-15291000D01*
D10*
X-1325011Y36444989D02*
X-1325011Y31805011D01*
G75*
D13*
X6850000Y-18185000D03*
D13*
X4310000Y-19330000D03*
D13*
X4310000Y-10170000D03*
D13*
X4310000Y-12460000D03*
D13*
X6850000Y-11315000D03*
D13*
X4310000Y-14750000D03*
D13*
X6850000Y-13605000D03*
D13*
X9390000Y-12460000D03*
D13*
X9390000Y-17040000D03*
D13*
X6850000Y-15895000D03*
D13*
X9390000Y-19330000D03*
D13*
X9390000Y-10170000D03*
D13*
X6850000Y-20475000D03*
D13*
X4310000Y-17040000D03*
D14*
X6850000Y-27495000D03*
D14*
X6850000Y-2505000D03*
D13*
X9390000Y-14750000D03*
D15*
X860000Y7250000D03*
D15*
X860000Y21750000D03*
D16*
X-5100000Y21750000D03*
D16*
X-5100000Y7250000D03*
D17*
X18750000Y10250000D03*
D17*
X24050000Y27049890D03*
D17*
X18750000Y8500000D03*
D17*
X17500000Y6000000D03*
D17*
X22750000Y17250000D03*
D17*
X11500000Y15750000D03*
D17*
X28250000Y-24250000D03*
D18*
X24250000Y-21750000D03*
D17*
X30250000Y-5500000D03*
D18*
X4000000Y11250000D03*
D18*
X26600000Y-12650000D03*
D17*
X32600000Y-12250000D03*
D17*
X28500000Y32000000D03*
D17*
X37500000Y-15900000D03*
D17*
X36000000Y-20750000D03*
D17*
X36500000Y16250000D03*
D17*
X23500000Y-15500000D03*
D18*
X20250000Y-18750000D03*
D17*
X17875000Y-19250000D03*
D17*
X14250000Y22750000D03*
D17*
X-2000000Y41000000D03*
D17*
X40250000Y23000000D03*
D17*
X18000000Y-5750000D03*
D18*
X14250000Y-17000000D03*
D17*
X38000000Y-20750000D03*
D17*
X21750000Y30750000D03*
D17*
X37000000Y-20750000D03*
D17*
X23500000Y-17000000D03*
D17*
X40500000Y-30250000D03*
D17*
X24750000Y-27250000D03*
D17*
X37800000Y-29450000D03*
D17*
X26250000Y-23250000D03*
D17*
X18750000Y35250000D03*
D17*
X22500000Y35250000D03*
D17*
X13750000Y17000000D03*
D17*
X22000000Y5750000D03*
D18*
X20750000Y-17250000D03*
D17*
X-5000000Y27000000D03*
D18*
X3250000Y13500000D03*
D17*
X29525000Y24950000D03*
D17*
X33000000Y-20750000D03*
D17*
X39000000Y-20750000D03*
D17*
X33500000Y-31500000D03*
D17*
X25125000Y-18500000D03*
D17*
X40000000Y-19750000D03*
D17*
X9000000Y30250000D03*
D18*
X27750000Y-21250000D03*
D17*
X32000000Y-31500000D03*
D17*
X40250000Y2250000D03*
D18*
X23000000Y-21250000D03*
D17*
X33875000Y-12875000D03*
D17*
X35750000Y2250000D03*
D17*
X26750000Y17750000D03*
D17*
X40000000Y-14750000D03*
D17*
X18750002Y36499999D03*
D17*
X16500000Y18250000D03*
D17*
X8750000Y16000000D03*
D17*
X26000000Y17750000D03*
D17*
X34520000Y10250000D03*
D17*
X26050000Y25049890D03*
D17*
X38000000Y16250000D03*
D17*
X23458871Y6020565D03*
D17*
X34000000Y-20750000D03*
D18*
X12250000Y7995000D03*
D18*
X16425000Y10500000D03*
D17*
X-5160000Y28000000D03*
D17*
X30750000Y23500000D03*
D17*
X18250000Y24250000D03*
D17*
X5250000Y22500000D03*
D17*
X25500000Y-28750000D03*
D17*
X16250000Y-5000000D03*
D17*
X35550000Y22375000D03*
D17*
X20000002Y35249999D03*
D17*
X33500000Y13250000D03*
D18*
X27250000Y-21750000D03*
D17*
X18750000Y20000000D03*
D17*
X35750000Y-17800000D03*
D17*
X36100000Y-12250000D03*
D17*
X9250000Y13750000D03*
D17*
X37500000Y-15100000D03*
D18*
X3250000Y17995000D03*
D17*
X-5750000Y27000000D03*
D17*
X19750000Y5500000D03*
D17*
X1095799Y37325633D03*
D17*
X35600000Y34875000D03*
D17*
X35150000Y-12250000D03*
D17*
X20500000Y5750000D03*
D17*
X17500000Y4500000D03*
D17*
X23750000Y30750000D03*
D17*
X-5000000Y41000000D03*
D17*
X22750000Y3000000D03*
D17*
X22250000Y10250000D03*
D17*
X40250000Y16250000D03*
D17*
X25000000Y-17000000D03*
D17*
X15000000Y-6750000D03*
D17*
X18000000Y17500000D03*
D17*
X9000000Y24000000D03*
D17*
X35750000Y-17000000D03*
D18*
X3250000Y15000000D03*
D18*
X3250000Y10500000D03*
D17*
X23500000Y18750000D03*
D17*
X-6500000Y30500000D03*
D17*
X5250000Y25000000D03*
D17*
X16250000Y7250000D03*
D18*
X29250000Y-18250000D03*
D17*
X17500002Y36499999D03*
D17*
X35800000Y-27450000D03*
D17*
X28750000Y40500000D03*
D17*
X40000000Y-16750000D03*
D17*
X35800000Y-26450000D03*
D17*
X-3500000Y41000000D03*
D17*
X41000000Y16250000D03*
D17*
X39500000Y2250000D03*
D17*
X23000000Y31500000D03*
D18*
X14000000Y12000000D03*
D17*
X39500000Y16250000D03*
D18*
X9000000Y5250000D03*
D18*
X16970000Y32030000D03*
D17*
X35625000Y-12875000D03*
D17*
X28500000Y-31000000D03*
D17*
X18750000Y4500000D03*
D17*
X39125000Y-11625000D03*
D17*
X-2000000Y27000000D03*
D17*
X15000000Y-26250000D03*
D18*
X16425000Y12000000D03*
D17*
X34250000Y17000000D03*
D17*
X20000000Y18000000D03*
D17*
X38650000Y-12250000D03*
D17*
X37250000Y16250000D03*
D17*
X-3500000Y27000000D03*
D17*
X30000000Y27750000D03*
D17*
X27750000Y31500000D03*
D18*
X16424686Y9000163D03*
D17*
X6075000Y19175000D03*
D18*
X20750000Y-14750000D03*
D17*
X21500000Y20750000D03*
D17*
X20500000Y29250000D03*
D18*
X12750000Y7500000D03*
D18*
X3250000Y12000000D03*
D17*
X20000002Y33999999D03*
D17*
X18000000Y-12000000D03*
D17*
X24250000Y-8750000D03*
D17*
X39250000Y-14150000D03*
D17*
X40000000Y-18750000D03*
D17*
X25500000Y-8250000D03*
D17*
X-4250000Y27000000D03*
D17*
X13750000Y20000000D03*
D17*
X18750000Y12000000D03*
D17*
X33500000Y16250000D03*
D17*
X22750000Y28750000D03*
D18*
X26250000Y-21750000D03*
D17*
X25250000Y17750000D03*
D17*
X13500000Y-10250000D03*
D17*
X30250000Y-31500000D03*
D17*
X17000000Y38750000D03*
D17*
X33400000Y-12250000D03*
D17*
X20250000Y30750000D03*
D17*
X10250000Y13750000D03*
D17*
X40300000Y29250000D03*
D17*
X39250000Y-13350000D03*
D17*
X20000000Y15500000D03*
D17*
X29000000Y2750000D03*
D17*
X-6500000Y41000000D03*
D17*
X30750000Y22500000D03*
D18*
X22250000Y-21250000D03*
D17*
X26250000Y37000000D03*
D17*
X17500002Y33999999D03*
D17*
X38000000Y2250000D03*
D17*
X24250000Y-24250000D03*
D17*
X-5160000Y40000000D03*
D17*
X31750000Y-15750000D03*
D17*
X20500000Y21500000D03*
D17*
X26000000Y12250000D03*
D17*
X-288949Y28824203D03*
D18*
X24750000Y-21225000D03*
D18*
X14000000Y9000000D03*
D17*
X9250000Y7250000D03*
D17*
X32000000Y-20250000D03*
D17*
X1500000Y30500000D03*
D17*
X-7250000Y30500000D03*
D17*
X32000000Y-11625000D03*
D18*
X20750000Y-18250000D03*
D17*
X13750000Y-5750000D03*
D17*
X18000000Y-14000000D03*
D17*
X30250000Y8000000D03*
D17*
X38250000Y-15500000D03*
D17*
X6000000Y23000000D03*
D17*
X30750000Y21500000D03*
D17*
X35800000Y-28450000D03*
D17*
X19500000Y-28250000D03*
D17*
X4961051Y26074203D03*
D17*
X23000000Y-8750000D03*
D17*
X28750000Y15500000D03*
D17*
X10250000Y7250000D03*
D17*
X22750000Y5500000D03*
D17*
X26250000Y36000000D03*
D17*
X37375000Y-11625000D03*
D17*
X26500000Y-15500000D03*
D17*
X30250000Y-27250000D03*
D18*
X29250000Y-15750000D03*
D17*
X-770000Y33000000D03*
D18*
X13750000Y10500000D03*
D18*
X12250000Y-17000000D03*
D17*
X15000000Y37500000D03*
D17*
X19750000Y28750000D03*
D17*
X32000000Y-12875000D03*
D17*
X35600000Y28625000D03*
D17*
X5211051Y28824203D03*
D17*
X2500000Y31750000D03*
D17*
X-4410000Y29000000D03*
D17*
X38750000Y16250000D03*
D17*
X34250000Y16250000D03*
D17*
X11500000Y16750000D03*
D18*
X10000000Y5250000D03*
D17*
X25250000Y34000000D03*
D17*
X18250000Y29500000D03*
D17*
X9250000Y8500000D03*
D17*
X22250000Y12000000D03*
D17*
X-4410000Y39000000D03*
D17*
X15000000Y-4000000D03*
D17*
X28500000Y14000000D03*
D17*
X17500000Y-6750000D03*
D17*
X27500000Y-6750000D03*
D17*
X20500000Y12000000D03*
D17*
X38800000Y35500000D03*
D17*
X20500000Y10250000D03*
D17*
X9250000Y11500000D03*
D17*
X27750000Y-29500000D03*
D17*
X-2750000Y41000000D03*
D17*
X38910000Y3250000D03*
D17*
X27250000Y-24250000D03*
D17*
X-5000000Y30500000D03*
D17*
X38750000Y23000000D03*
D17*
X38800000Y29250000D03*
D18*
X20250000Y-16000000D03*
D17*
X18750002Y33999999D03*
D17*
X39500000Y23000000D03*
D18*
X22000000Y-12750000D03*
D17*
X40000000Y-17750000D03*
D18*
X4000000Y14250000D03*
D17*
X4000000Y18500000D03*
D17*
X-6500000Y27000000D03*
D17*
X22250000Y8500000D03*
D17*
X-5750000Y41000000D03*
D17*
X31500000Y14000000D03*
D17*
X25500000Y6250000D03*
D17*
X-5160000Y39000000D03*
D17*
X31750000Y6000000D03*
D17*
X21000000Y-11000000D03*
D17*
X38160000Y4250000D03*
D18*
X5425000Y15825000D03*
D17*
X13750000Y-12000000D03*
D17*
X-770000Y34500000D03*
D17*
X30000000Y33000000D03*
D17*
X37250000Y2250000D03*
D17*
X32750000Y-31500000D03*
D17*
X34520000Y12000000D03*
D17*
X-1020000Y36750000D03*
D17*
X35625000Y-11625000D03*
D18*
X25750000Y-11750000D03*
D17*
X10250000Y8500000D03*
D17*
X38750000Y2250000D03*
D17*
X38160000Y15250000D03*
D17*
X23500000Y-18500000D03*
D17*
X19750000Y3000000D03*
D17*
X13500000Y36750000D03*
D17*
X33875000Y-11625000D03*
D17*
X28250000Y30750000D03*
D17*
X17750000Y20000000D03*
D17*
X31750000Y-14000000D03*
D17*
X-2750000Y27000000D03*
D17*
X24050000Y28105000D03*
D17*
X7500000Y18750000D03*
D17*
X26500000Y-17000000D03*
D17*
X34750000Y-19000000D03*
D17*
X34000000Y-19400000D03*
D17*
X11250000Y18750000D03*
D17*
X38910000Y15250000D03*
D18*
X18000000Y31000000D03*
D17*
X35000000Y-20750000D03*
D17*
X32500000Y11000000D03*
D17*
X-7250000Y27000000D03*
D17*
X14500000Y4750000D03*
D17*
X18000000Y15000000D03*
D17*
X28500000Y16250000D03*
D17*
X25000000Y12250000D03*
D17*
X23000000Y-23000000D03*
D17*
X31115000Y35635000D03*
D17*
X31750000Y4500000D03*
D18*
X26750000Y-21250000D03*
D17*
X40000000Y-13750000D03*
D17*
X38160000Y14250000D03*
D17*
X21250000Y3000000D03*
D17*
X29250000Y-14000000D03*
D17*
X31750000Y-18250000D03*
D18*
X25750000Y-21250000D03*
D17*
X38910000Y4250000D03*
D18*
X9500000Y5000000D03*
D17*
X28750000Y37750000D03*
D17*
X12500000Y-3000000D03*
D17*
X7450388Y27195104D03*
D17*
X25000000Y-15500000D03*
D17*
X39550000Y35500000D03*
D17*
X20000002Y36499999D03*
D18*
X19745000Y14500000D03*
D17*
X38160000Y3250000D03*
D17*
X8250000Y17250000D03*
D18*
X18750000Y17750000D03*
D18*
X20250000Y-16750000D03*
D17*
X36900000Y-12250000D03*
D17*
X22000000Y15500000D03*
D17*
X-4250000Y30500000D03*
D17*
X27250000Y36000000D03*
D17*
X-7250000Y41000000D03*
D17*
X37850000Y-12250000D03*
D17*
X38910000Y14250000D03*
D17*
X34500000Y-25750000D03*
D17*
X37375000Y-12875000D03*
D17*
X20625000Y8500000D03*
D18*
X10500000Y5000000D03*
D17*
X21250000Y5500000D03*
D18*
X17500000Y31530000D03*
D17*
X40000000Y-23750000D03*
D17*
X39550000Y29250000D03*
D17*
X36500000Y2250000D03*
D17*
X-5750000Y30500000D03*
D17*
X36500000Y-17400000D03*
D17*
X17900000Y-16750000D03*
D17*
X32520000Y5750000D03*
D18*
X20750000Y-19500000D03*
D17*
X30500000Y-10645000D03*
D17*
X25250000Y-24250000D03*
D17*
X28750000Y8000000D03*
D17*
X17500002Y35249999D03*
D17*
X17000000Y15000000D03*
D17*
X40300000Y35500000D03*
D17*
X-4250000Y41000000D03*
D17*
X18000000Y-3500000D03*
D17*
X34000000Y-18600000D03*
D17*
X17000000Y17500000D03*
D17*
X40000000Y-20750000D03*
D17*
X21500000Y22250000D03*
D17*
X35750000Y16250000D03*
D17*
X19000000Y-12250000D03*
D17*
X-4410000Y28000000D03*
D17*
X26500000Y-18500000D03*
D17*
X34520000Y8750000D03*
D17*
X10979680Y25879680D03*
D17*
X6750000Y28750000D03*
D17*
X40000000Y-15750000D03*
D17*
X5211051Y27324203D03*
D17*
X34350000Y-12250000D03*
D17*
X-4410000Y40000000D03*
D17*
X-770000Y31250000D03*
D17*
X10250000Y11500000D03*
D18*
X19250000Y18250000D03*
D17*
X32750000Y20500000D03*
D17*
X-5160000Y29000000D03*
D17*
X22750000Y23500000D03*
D18*
X25000000Y-11750000D03*
D17*
X13719997Y37750000D03*
D17*
X23000000Y15750000D03*
D17*
X14500000Y17500000D03*
D17*
X9750000Y10500000D03*
D17*
X24050000Y26049890D03*
D17*
X34770000Y6500000D03*
M02*
