%FSLAX46Y46*%
%MOMM*%
%ADD10C,0.150000*%
G01*
%LPD*%
G01*
%LPD*%
D10*
X12357143Y39642856D02*
X12428571Y39500000D01*
D10*
X12214286Y39785716D02*
X12357143Y39642856D01*
D10*
X12000000Y39785716D02*
X12214286Y39785716D01*
D10*
X11928571Y39714284D02*
X12000000Y39785716D01*
D10*
X11928571Y39571428D02*
X11928571Y39714284D01*
D10*
X12000000Y39285716D02*
X11928571Y39571428D01*
D10*
X12142857Y38785716D02*
X12000000Y39285716D01*
D10*
X12000000Y39714284D02*
X12071429Y39785716D01*
D10*
X12000000Y39571428D02*
X12000000Y39714284D01*
D10*
X12071429Y39285716D02*
X12000000Y39571428D01*
D10*
X12214286Y38785716D02*
X12071429Y39285716D01*
D10*
X11857143Y39571428D02*
X12000000Y39285716D01*
D10*
X11714286Y39714284D02*
X11857143Y39571428D01*
D10*
X11571429Y39785716D02*
X11714286Y39714284D01*
D10*
X11428572Y39785716D02*
X11571429Y39785716D01*
D10*
X11357143Y39714284D02*
X11428572Y39785716D01*
D10*
X11357143Y39642856D02*
X11357143Y39714284D01*
D10*
X11428572Y39571428D02*
X11357143Y39642856D01*
D10*
X11500000Y39642856D02*
X11428572Y39571428D01*
D10*
X11428572Y39714284D02*
X11500000Y39642856D01*
D10*
X10714286Y39214284D02*
X11000000Y39142856D01*
D10*
X10500000Y39285716D02*
X10714286Y39214284D01*
D10*
X10285714Y39428572D02*
X10500000Y39285716D01*
D10*
X10214286Y39571428D02*
X10285714Y39428572D01*
D10*
X10285714Y39714284D02*
X10214286Y39571428D01*
D10*
X10428572Y39785716D02*
X10285714Y39714284D01*
D10*
X10642857Y39785716D02*
X10428572Y39785716D01*
D10*
X10857143Y39714284D02*
X10642857Y39785716D01*
D10*
X11000000Y39500000D02*
X10857143Y39714284D01*
D10*
X11071429Y39285716D02*
X11000000Y39500000D01*
D10*
X11071429Y39071428D02*
X11071429Y39285716D01*
D10*
X11000000Y38928572D02*
X11071429Y39071428D01*
D10*
X10928572Y38857144D02*
X11000000Y38928572D01*
D10*
X10785714Y38785716D02*
X10928572Y38857144D01*
D10*
X10642857Y38785716D02*
X10785714Y38785716D01*
D10*
X10428572Y38857144D02*
X10642857Y38785716D01*
D10*
X10285714Y39000000D02*
X10428572Y38857144D01*
D10*
X10785714Y39714284D02*
X10642857Y39785716D01*
D10*
X10928572Y39500000D02*
X10785714Y39714284D01*
D10*
X11000000Y39285716D02*
X10928572Y39500000D01*
D10*
X11000000Y39000000D02*
X11000000Y39285716D01*
D10*
X10928572Y38857144D02*
X11000000Y39000000D01*
D10*
X9857143Y39642856D02*
X9928572Y39500000D01*
D10*
X9714286Y39785716D02*
X9857143Y39642856D01*
D10*
X9500000Y39785716D02*
X9714286Y39785716D01*
D10*
X9428572Y39714284D02*
X9500000Y39785716D01*
D10*
X9428572Y39500000D02*
X9428572Y39714284D01*
D10*
X9571428Y39071428D02*
X9428572Y39500000D01*
D10*
X9571428Y38928572D02*
X9571428Y39071428D01*
D10*
X9428572Y38785716D02*
X9571428Y38928572D01*
D10*
X9500000Y39714284D02*
X9571428Y39785716D01*
D10*
X9500000Y39500000D02*
X9500000Y39714284D01*
D10*
X9642857Y39071428D02*
X9500000Y39500000D01*
D10*
X9642857Y38928572D02*
X9642857Y39071428D01*
D10*
X9571428Y38857144D02*
X9642857Y38928572D01*
D10*
X9428572Y38785716D02*
X9571428Y38857144D01*
D10*
X9357143Y38785716D02*
X9428572Y38785716D01*
D10*
X9142857Y38857144D02*
X9357143Y38785716D01*
D10*
X9000000Y39000000D02*
X9142857Y38857144D01*
D10*
X8857143Y39214284D02*
X9000000Y39000000D01*
D10*
X8785714Y39500000D02*
X8857143Y39214284D01*
D10*
X8785714Y39785716D02*
X8785714Y39500000D01*
D10*
X8857143Y39785716D02*
X8785714Y39785716D01*
D10*
X8785714Y39642856D02*
X8857143Y39785716D01*
D10*
X8000000Y39928572D02*
X8071428Y40000000D01*
D10*
X8071428Y39857144D02*
X8000000Y39928572D01*
D10*
X8142857Y39928572D02*
X8071428Y39857144D01*
D10*
X8142857Y40000000D02*
X8142857Y39928572D01*
D10*
X8071428Y40142856D02*
X8142857Y40000000D01*
D10*
X8000000Y40214284D02*
X8071428Y40142856D01*
D10*
X7785714Y40285716D02*
X8000000Y40214284D01*
D10*
X7571428Y40285716D02*
X7785714Y40285716D01*
D10*
X7357143Y40214284D02*
X7571428Y40285716D01*
D10*
X7285714Y40071428D02*
X7357143Y40214284D01*
D10*
X7285714Y39928572D02*
X7285714Y40071428D01*
D10*
X7357143Y39785716D02*
X7285714Y39928572D01*
D10*
X7500000Y39642856D02*
X7357143Y39785716D01*
D10*
X7714286Y39500000D02*
X7500000Y39642856D01*
D10*
X8000000Y39357144D02*
X7714286Y39500000D01*
D10*
X8214286Y39214284D02*
X8000000Y39357144D01*
D10*
X8357143Y39071428D02*
X8214286Y39214284D01*
D10*
X8500000Y38785716D02*
X8357143Y39071428D01*
D10*
X7428571Y40214284D02*
X7571428Y40285716D01*
D10*
X7357143Y40071428D02*
X7428571Y40214284D01*
D10*
X7357143Y39928572D02*
X7357143Y40071428D01*
D10*
X7428571Y39785716D02*
X7357143Y39928572D01*
D10*
X7571428Y39642856D02*
X7428571Y39785716D01*
D10*
X8000000Y39357144D02*
X7571428Y39642856D01*
D10*
X8357143Y39000000D02*
X8428572Y38928572D01*
D10*
X8214286Y39000000D02*
X8357143Y39000000D01*
D10*
X7857143Y38857144D02*
X8214286Y39000000D01*
D10*
X7642857Y38857144D02*
X7857143Y38857144D01*
D10*
X7500000Y38928572D02*
X7642857Y38857144D01*
D10*
X7428571Y39071428D02*
X7500000Y38928572D01*
D10*
X7857143Y38785716D02*
X8214286Y39000000D01*
D10*
X7642857Y38785716D02*
X7857143Y38785716D01*
D10*
X7500000Y38857144D02*
X7642857Y38785716D01*
D10*
X7428571Y39071428D02*
X7500000Y38857144D01*
D10*
X12285714Y36610716D02*
X11857143Y38110716D01*
D10*
X12214286Y36610716D02*
X11785714Y38110716D01*
D10*
X11571429Y38110716D02*
X12071429Y38110716D01*
D10*
X11428572Y36610716D02*
X12500000Y36610716D01*
D10*
X11285714Y37039284D02*
X11428572Y36610716D01*
D10*
X11500000Y36610716D02*
X11285714Y37039284D01*
D10*
X10928572Y37467856D02*
X11000000Y37325000D01*
D10*
X10785714Y37610716D02*
X10928572Y37467856D01*
D10*
X10571429Y37610716D02*
X10785714Y37610716D01*
D10*
X10500000Y37539284D02*
X10571429Y37610716D01*
D10*
X10500000Y37325000D02*
X10500000Y37539284D01*
D10*
X10642857Y36896428D02*
X10500000Y37325000D01*
D10*
X10642857Y36753572D02*
X10642857Y36896428D01*
D10*
X10500000Y36610716D02*
X10642857Y36753572D01*
D10*
X10571429Y37539284D02*
X10642857Y37610716D01*
D10*
X10571429Y37325000D02*
X10571429Y37539284D01*
D10*
X10714286Y36896428D02*
X10571429Y37325000D01*
D10*
X10714286Y36753572D02*
X10714286Y36896428D01*
D10*
X10642857Y36682144D02*
X10714286Y36753572D01*
D10*
X10500000Y36610716D02*
X10642857Y36682144D01*
D10*
X10357143Y36610716D02*
X10500000Y36610716D01*
D10*
X10214286Y36682144D02*
X10357143Y36610716D01*
D10*
X10071428Y36825000D02*
X10214286Y36682144D01*
D10*
X9928572Y37110716D02*
X10071428Y36825000D01*
D10*
X9928572Y37110716D02*
X9785714Y37610716D01*
D10*
X10000000Y36825000D02*
X9928572Y37110716D01*
D10*
X10000000Y36682144D02*
X10000000Y36825000D01*
D10*
X9928572Y36610716D02*
X10000000Y36682144D01*
D10*
X9714286Y36610716D02*
X9928572Y36610716D01*
D10*
X9571428Y36753572D02*
X9714286Y36610716D01*
D10*
X9500000Y36896428D02*
X9571428Y36753572D01*
D10*
X9857143Y37110716D02*
X9714286Y37610716D01*
D10*
X9928572Y36825000D02*
X9857143Y37110716D01*
D10*
X9928572Y36682144D02*
X9928572Y36825000D01*
D10*
X9857143Y36610716D02*
X9928572Y36682144D01*
D10*
X9285714Y36610716D02*
X8857143Y38110716D01*
D10*
X9214286Y36610716D02*
X8785714Y38110716D01*
D10*
X8357143Y37467856D02*
X8285714Y37539284D01*
D10*
X8285714Y37396428D02*
X8357143Y37467856D01*
D10*
X8214286Y37467856D02*
X8285714Y37396428D01*
D10*
X8214286Y37539284D02*
X8214286Y37467856D01*
D10*
X8285714Y37610716D02*
X8214286Y37539284D01*
D10*
X8357143Y37610716D02*
X8285714Y37610716D01*
D10*
X8500000Y37539284D02*
X8357143Y37610716D01*
D10*
X8785714Y37253572D02*
X8500000Y37539284D01*
D10*
X8928572Y37182144D02*
X8785714Y37253572D01*
D10*
X9071428Y37182144D02*
X8928572Y37182144D01*
D10*
X8785714Y37110716D02*
X8928572Y37182144D01*
D10*
X8642857Y36682144D02*
X8785714Y37110716D01*
D10*
X8571429Y36610716D02*
X8642857Y36682144D01*
D10*
X8857143Y37110716D02*
X8928572Y37182144D01*
D10*
X8714286Y36682144D02*
X8857143Y37110716D01*
D10*
X8642857Y36610716D02*
X8714286Y36682144D01*
D10*
X8500000Y36610716D02*
X8642857Y36610716D01*
D10*
X8357143Y36682144D02*
X8500000Y36610716D01*
D10*
X8214286Y36896428D02*
X8357143Y36682144D01*
D10*
X8785714Y38110716D02*
X9071428Y38110716D01*
D10*
X7000000Y37110716D02*
X6857143Y37610716D01*
D10*
X7071428Y36825000D02*
X7000000Y37110716D01*
D10*
X7071428Y36682144D02*
X7071428Y36825000D01*
D10*
X7000000Y36610716D02*
X7071428Y36682144D01*
D10*
X6785714Y36610716D02*
X7000000Y36610716D01*
D10*
X6642857Y36753572D02*
X6785714Y36610716D01*
D10*
X6571428Y36896428D02*
X6642857Y36753572D01*
D10*
X6928571Y37110716D02*
X6785714Y37610716D01*
D10*
X7000000Y36825000D02*
X6928571Y37110716D01*
D10*
X7000000Y36682144D02*
X7000000Y36825000D01*
D10*
X6928571Y36610716D02*
X7000000Y36682144D01*
D10*
X7000000Y37325000D02*
X7000000Y37110716D01*
D10*
X7071428Y37539284D02*
X7000000Y37325000D01*
D10*
X7214286Y37610716D02*
X7071428Y37539284D01*
D10*
X7357143Y37610716D02*
X7214286Y37610716D01*
D10*
X7571428Y37539284D02*
X7357143Y37610716D01*
D10*
X7714286Y37325000D02*
X7571428Y37539284D01*
D10*
X7785714Y37110716D02*
X7714286Y37325000D01*
D10*
X7785714Y36896428D02*
X7785714Y37110716D01*
D10*
X7714286Y36753572D02*
X7785714Y36896428D01*
D10*
X7642857Y36682144D02*
X7714286Y36753572D01*
D10*
X7500000Y36610716D02*
X7642857Y36682144D01*
D10*
X7357143Y36610716D02*
X7500000Y36610716D01*
D10*
X7214286Y36682144D02*
X7357143Y36610716D01*
D10*
X7071428Y36896428D02*
X7214286Y36682144D01*
D10*
X7000000Y37110716D02*
X7071428Y36896428D01*
D10*
X7500000Y37539284D02*
X7357143Y37610716D01*
D10*
X7642857Y37325000D02*
X7500000Y37539284D01*
D10*
X7714286Y37110716D02*
X7642857Y37325000D01*
D10*
X7714286Y36825000D02*
X7714286Y37110716D01*
D10*
X7642857Y36682144D02*
X7714286Y36825000D01*
D10*
X5500000Y37396428D02*
X5500000Y37467856D01*
D10*
X5428571Y37396428D02*
X5500000Y37396428D01*
D10*
X5428571Y37467856D02*
X5428571Y37396428D01*
D10*
X5500000Y37539284D02*
X5428571Y37467856D01*
D10*
X5714286Y37610716D02*
X5500000Y37539284D01*
D10*
X5928571Y37610716D02*
X5714286Y37610716D01*
D10*
X6142857Y37539284D02*
X5928571Y37610716D01*
D10*
X6214286Y37467856D02*
X6142857Y37539284D01*
D10*
X6214286Y37325000D02*
X6214286Y37467856D01*
D10*
X6142857Y37253572D02*
X6214286Y37325000D01*
D10*
X5642857Y36967856D02*
X6142857Y37253572D01*
D10*
X5571428Y36896428D02*
X5642857Y36967856D01*
D10*
X6142857Y37325000D02*
X6214286Y37396428D01*
D10*
X5642857Y37039284D02*
X6142857Y37325000D01*
D10*
X5571428Y36967856D02*
X5642857Y37039284D01*
D10*
X5571428Y36753572D02*
X5571428Y36967856D01*
D10*
X5642857Y36682144D02*
X5571428Y36753572D01*
D10*
X5857143Y36610716D02*
X5642857Y36682144D01*
D10*
X6071428Y36610716D02*
X5857143Y36610716D01*
D10*
X6285714Y36682144D02*
X6071428Y36610716D01*
D10*
X6357143Y36753572D02*
X6285714Y36682144D01*
D10*
X6357143Y36825000D02*
X6357143Y36753572D01*
D10*
X6285714Y36825000D02*
X6357143Y36825000D01*
D10*
X6285714Y36753572D02*
X6285714Y36825000D01*
D10*
X4500000Y36610716D02*
X4071429Y38110716D01*
D10*
X4428571Y36610716D02*
X4000000Y38110716D01*
D10*
X4285714Y37182144D02*
X3071429Y38110716D01*
D10*
X3500000Y36610716D02*
X3785714Y37467856D01*
D10*
X3571429Y36610716D02*
X3857143Y37467856D01*
D10*
X3785714Y38110716D02*
X4285714Y38110716D01*
D10*
X2928572Y38110716D02*
X3357143Y38110716D01*
D10*
X4214286Y36610716D02*
X4714286Y36610716D01*
D10*
X3357143Y36610716D02*
X3785714Y36610716D01*
D10*
X2785714Y36682144D02*
X2714286Y36753572D01*
D10*
X2714286Y36610716D02*
X2785714Y36682144D01*
D10*
X2642857Y36682144D02*
X2714286Y36610716D01*
D10*
X2714286Y36753572D02*
X2642857Y36682144D01*
D10*
X11928571Y35578572D02*
X12000000Y35650000D01*
D10*
X12000000Y35507144D02*
X11928571Y35578572D01*
D10*
X12071429Y35578572D02*
X12000000Y35507144D01*
D10*
X12071429Y35650000D02*
X12071429Y35578572D01*
D10*
X12000000Y35792856D02*
X12071429Y35650000D01*
D10*
X11928571Y35864284D02*
X12000000Y35792856D01*
D10*
X11714286Y35935716D02*
X11928571Y35864284D01*
D10*
X11500000Y35935716D02*
X11714286Y35935716D01*
D10*
X11285714Y35864284D02*
X11500000Y35935716D01*
D10*
X11214286Y35721428D02*
X11285714Y35864284D01*
D10*
X11214286Y35578572D02*
X11214286Y35721428D01*
D10*
X11285714Y35435716D02*
X11214286Y35578572D01*
D10*
X11428572Y35292856D02*
X11285714Y35435716D01*
D10*
X11642857Y35150000D02*
X11428572Y35292856D01*
D10*
X11928571Y35007144D02*
X11642857Y35150000D01*
D10*
X12142857Y34864284D02*
X11928571Y35007144D01*
D10*
X12285714Y34721428D02*
X12142857Y34864284D01*
D10*
X12428571Y34435716D02*
X12285714Y34721428D01*
D10*
X11357143Y35864284D02*
X11500000Y35935716D01*
D10*
X11285714Y35721428D02*
X11357143Y35864284D01*
D10*
X11285714Y35578572D02*
X11285714Y35721428D01*
D10*
X11357143Y35435716D02*
X11285714Y35578572D01*
D10*
X11500000Y35292856D02*
X11357143Y35435716D01*
D10*
X11928571Y35007144D02*
X11500000Y35292856D01*
D10*
X12285714Y34650000D02*
X12357143Y34578572D01*
D10*
X12142857Y34650000D02*
X12285714Y34650000D01*
D10*
X11785714Y34507144D02*
X12142857Y34650000D01*
D10*
X11571429Y34507144D02*
X11785714Y34507144D01*
D10*
X11428572Y34578572D02*
X11571429Y34507144D01*
D10*
X11357143Y34721428D02*
X11428572Y34578572D01*
D10*
X11785714Y34435716D02*
X12142857Y34650000D01*
D10*
X11571429Y34435716D02*
X11785714Y34435716D01*
D10*
X11428572Y34507144D02*
X11571429Y34435716D01*
D10*
X11357143Y34721428D02*
X11428572Y34507144D01*
D10*
X10357143Y35864284D02*
X10142857Y35935716D01*
D10*
X10500000Y35721428D02*
X10357143Y35864284D01*
D10*
X10642857Y35507144D02*
X10500000Y35721428D01*
D10*
X10714286Y35292856D02*
X10642857Y35507144D01*
D10*
X10785714Y35007144D02*
X10714286Y35292856D01*
D10*
X10785714Y34792856D02*
X10785714Y35007144D01*
D10*
X10714286Y34578572D02*
X10785714Y34792856D01*
D10*
X10642857Y34507144D02*
X10714286Y34578572D01*
D10*
X10500000Y34435716D02*
X10642857Y34507144D01*
D10*
X10357143Y34435716D02*
X10500000Y34435716D01*
D10*
X10142857Y34507144D02*
X10357143Y34435716D01*
D10*
X10000000Y34650000D02*
X10142857Y34507144D01*
D10*
X9857143Y34864284D02*
X10000000Y34650000D01*
D10*
X9785714Y35078572D02*
X9857143Y34864284D01*
D10*
X9714286Y35364284D02*
X9785714Y35078572D01*
D10*
X9714286Y35578572D02*
X9714286Y35364284D01*
D10*
X9785714Y35792856D02*
X9714286Y35578572D01*
D10*
X9857143Y35864284D02*
X9785714Y35792856D01*
D10*
X10000000Y35935716D02*
X9857143Y35864284D01*
D10*
X10142857Y35935716D02*
X10000000Y35935716D01*
D10*
X10285714Y35864284D02*
X10142857Y35935716D01*
D10*
X10428572Y35721428D02*
X10285714Y35864284D01*
D10*
X10571429Y35507144D02*
X10428572Y35721428D01*
D10*
X10642857Y35292856D02*
X10571429Y35507144D01*
D10*
X10714286Y35007144D02*
X10642857Y35292856D01*
D10*
X10714286Y34792856D02*
X10714286Y35007144D01*
D10*
X10642857Y34578572D02*
X10714286Y34792856D01*
D10*
X10500000Y34435716D02*
X10642857Y34578572D01*
D10*
X10214286Y34507144D02*
X10357143Y34435716D01*
D10*
X10071428Y34650000D02*
X10214286Y34507144D01*
D10*
X9928572Y34864284D02*
X10071428Y34650000D01*
D10*
X9857143Y35078572D02*
X9928572Y34864284D01*
D10*
X9785714Y35364284D02*
X9857143Y35078572D01*
D10*
X9785714Y35578572D02*
X9785714Y35364284D01*
D10*
X9857143Y35792856D02*
X9785714Y35578572D01*
D10*
X10000000Y35935716D02*
X9857143Y35792856D01*
D10*
X8928572Y35578572D02*
X9000000Y35650000D01*
D10*
X9000000Y35507144D02*
X8928572Y35578572D01*
D10*
X9071428Y35578572D02*
X9000000Y35507144D01*
D10*
X9071428Y35650000D02*
X9071428Y35578572D01*
D10*
X9000000Y35792856D02*
X9071428Y35650000D01*
D10*
X8928572Y35864284D02*
X9000000Y35792856D01*
D10*
X8714286Y35935716D02*
X8928572Y35864284D01*
D10*
X8500000Y35935716D02*
X8714286Y35935716D01*
D10*
X8285714Y35864284D02*
X8500000Y35935716D01*
D10*
X8214286Y35721428D02*
X8285714Y35864284D01*
D10*
X8214286Y35578572D02*
X8214286Y35721428D01*
D10*
X8285714Y35435716D02*
X8214286Y35578572D01*
D10*
X8428572Y35292856D02*
X8285714Y35435716D01*
D10*
X8642857Y35150000D02*
X8428572Y35292856D01*
D10*
X8928572Y35007144D02*
X8642857Y35150000D01*
D10*
X9142857Y34864284D02*
X8928572Y35007144D01*
D10*
X9285714Y34721428D02*
X9142857Y34864284D01*
D10*
X9428572Y34435716D02*
X9285714Y34721428D01*
D10*
X8357143Y35864284D02*
X8500000Y35935716D01*
D10*
X8285714Y35721428D02*
X8357143Y35864284D01*
D10*
X8285714Y35578572D02*
X8285714Y35721428D01*
D10*
X8357143Y35435716D02*
X8285714Y35578572D01*
D10*
X8500000Y35292856D02*
X8357143Y35435716D01*
D10*
X8928572Y35007144D02*
X8500000Y35292856D01*
D10*
X9285714Y34650000D02*
X9357143Y34578572D01*
D10*
X9142857Y34650000D02*
X9285714Y34650000D01*
D10*
X8785714Y34507144D02*
X9142857Y34650000D01*
D10*
X8571429Y34507144D02*
X8785714Y34507144D01*
D10*
X8428572Y34578572D02*
X8571429Y34507144D01*
D10*
X8357143Y34721428D02*
X8428572Y34578572D01*
D10*
X8785714Y34435716D02*
X9142857Y34650000D01*
D10*
X8571429Y34435716D02*
X8785714Y34435716D01*
D10*
X8428572Y34507144D02*
X8571429Y34435716D01*
D10*
X8357143Y34721428D02*
X8428572Y34507144D01*
D10*
X7285714Y34435716D02*
X6857143Y35864284D01*
D10*
X7214286Y34435716D02*
X6785714Y35935716D01*
D10*
X7857143Y34864284D02*
X6785714Y35935716D01*
D10*
X6714286Y34864284D02*
X7857143Y34864284D01*
G75*
M02*
